<svg xmlns="http://www.w3.org/2000/svg" viewBox="0 0 532.596 274.06"><defs><style>.a{fill:#030402;}</style></defs><path class="a" d="M213.584,328.55a21.34,21.34,0,0,0,6.044-15.35,22,22,0,0,0-4.191-13.11,25.773,25.773,0,0,0-10.87-8.3,38.237,38.237,0,0,0-14.945-2.848H154.347l1.807,2.373a17.292,17.292,0,0,1,2.489,6.523,38.411,38.411,0,0,1,1.026,7.8v15.219a9.388,9.388,0,0,1-.937,3.493,6.079,6.079,0,0,1-2.185,2.835l-1.958,1.223,1.93,1.266a6.425,6.425,0,0,1,2.212,2.907,9.387,9.387,0,0,1,.938,3.494v15.165a38.508,38.508,0,0,1-1.026,7.851,16.747,16.747,0,0,1-2.478,6.458l-1.863,2.387h35.32a36.761,36.761,0,0,0,14.968-2.989,27.006,27.006,0,0,0,10.9-8.474,21.037,21.037,0,0,0,4.137-12.911A21.947,21.947,0,0,0,213.584,328.55Zm-31.976,9h8.014c2.878,0,4.962.6,6.191,1.766a5.642,5.642,0,0,1,1.823,4.287,5.536,5.536,0,0,1-1.972,4.332c-1.356,1.211-3.389,1.825-6.042,1.825h-8.014Zm14.05-20.019c-1.358,1.224-3.388,1.846-6.036,1.846h-8.014V307.117h8.014c2.879,0,4.962.594,6.191,1.765a5.7,5.7,0,0,1,1.823,4.34A5.559,5.559,0,0,1,195.658,317.534Z" transform="translate(-154.274 -153.992)"/><path class="a" d="M417.371,300.09a25.782,25.782,0,0,0-10.871-8.3,38.237,38.237,0,0,0-14.945-2.848H356.28l1.807,2.373a17.275,17.275,0,0,1,2.489,6.523,38.423,38.423,0,0,1,1.027,7.8v15.219a9.393,9.393,0,0,1-.938,3.493,6.073,6.073,0,0,1-2.185,2.835l-1.958,1.223,1.93,1.266a6.433,6.433,0,0,1,2.213,2.907,9.407,9.407,0,0,1,.938,3.494v15.165a38.52,38.52,0,0,1-1.027,7.851,16.747,16.747,0,0,1-2.478,6.458l-1.459,1.87-1.54-1.893a27.97,27.97,0,0,1-2.974-5.046,63.432,63.432,0,0,1-2.91-6.918,48.513,48.513,0,0,0-6.475-14.724c6.241-4.916,9.4-12.241,9.4-21.8,0-6.378-1.374-11.716-4.085-15.869a24.775,24.775,0,0,0-10.929-9.266,36.844,36.844,0,0,0-14.939-2.962H286.918l1.737,2.354a18.191,18.191,0,0,1,2.478,6.526,37.2,37.2,0,0,1,1.052,7.816v15.219a9.185,9.185,0,0,1-.959,3.481,6.386,6.386,0,0,1-2.182,2.859l-1.879,1.212,1.851,1.254a6.764,6.764,0,0,1,2.21,2.929,9.207,9.207,0,0,1,.959,3.483v15.165a37.8,37.8,0,0,1-1.052,7.819,17.708,17.708,0,0,1-2.467,6.509l-.567.749-.632-.785a36.3,36.3,0,0,1-3.849-6.634,62.276,62.276,0,0,1-3.311-8.085l-4.513-14.973a6.5,6.5,0,0,1-.25-1.939c0-2.273.467-3.962,1.389-5.024l1.491-1.717-2.176-.664a6.518,6.518,0,0,1-2.92-2.1,9.32,9.32,0,0,1-1.928-3.113l-4.775-16.077a36.568,36.568,0,0,1-1.845-10.333,6.334,6.334,0,0,1,.846-3.607l1.629-2.325h-28.48l1.629,2.325a6.439,6.439,0,0,1,.846,3.66,37.862,37.862,0,0,1-1.793,10.286l-4.82,16.05A9.355,9.355,0,0,1,232.7,324.4a6.534,6.534,0,0,1-2.92,2.1l-2.208.673,1.536,1.723c.912,1.024,1.375,2.691,1.375,4.956a6.764,6.764,0,0,1-.257,2.017L225.782,350.8a60.753,60.753,0,0,1-3.339,8.094,37.264,37.264,0,0,1-3.879,6.64l-1.936,2.4H249.64l-2.009-2.421c-.668-.805-1.463-2.747-1.463-7.434a29.557,29.557,0,0,1,.463-5.364h12.806a30.823,30.823,0,0,1,.425,5.257c0,4.739-.8,6.724-1.473,7.555l-1.949,2.407h63l-1.793-2.369a17.677,17.677,0,0,1-2.467-6.507,37.835,37.835,0,0,1-1.051-7.82v-6.1h5.892a5.568,5.568,0,0,1,5.561,3.4,27.083,27.083,0,0,1,2.24,11.664c0,3.289-.6,4.709-1.1,5.321l-1.974,2.413h6.936l1.386-.049,24,.057-.006-.008h34.5a36.758,36.758,0,0,0,14.968-2.989,27.006,27.006,0,0,0,10.9-8.474,21.044,21.044,0,0,0,4.138-12.911,21.952,21.952,0,0,0-6.044-15.013,21.34,21.34,0,0,0,6.044-15.35A22,22,0,0,0,417.371,300.09ZM254.938,334.6h-3.8l1.886-7.627Zm59.186-27.481h8.066c2.967,0,4.976.746,6.141,2.279,1.242,1.638,1.873,4.209,1.873,7.637-.042,8.9-4.594,9.929-8.014,9.929h-8.066Zm69.418,30.436h8.013c2.879,0,4.962.6,6.191,1.766a5.642,5.642,0,0,1,1.823,4.287,5.536,5.536,0,0,1-1.972,4.332c-1.356,1.211-3.389,1.825-6.042,1.825h-8.013Zm14.049-20.019c-1.358,1.224-3.388,1.846-6.036,1.846h-8.013V307.117h8.013c2.88,0,4.963.594,6.191,1.765a5.7,5.7,0,0,1,1.823,4.34A5.559,5.559,0,0,1,397.591,317.534Z" transform="translate(-154.274 -153.992)"/><path class="a" d="M429.36,359.093a16.724,16.724,0,0,1-2.477,6.457l-1.863,2.387h62.161l-8.556-22.859-1.586,1.23a16.048,16.048,0,0,1-5.768,2.44,29.51,29.51,0,0,1-7.113,1.015H452.326v-12.21h2.341a38.3,38.3,0,0,1,7.8,1.028,17.4,17.4,0,0,1,6.476,2.439l2.369,1.788v-28.8l-2.387,1.864a16.743,16.743,0,0,1-6.457,2.478,38.3,38.3,0,0,1-7.8,1.027h-2.341V307.117h11.832a29.514,29.514,0,0,1,7.113,1.015,15.484,15.484,0,0,1,5.75,2.479l1.594,1.274,8.564-22.942H425.065l1.807,2.373a17.267,17.267,0,0,1,2.488,6.523,38.321,38.321,0,0,1,1.028,7.8v15.219a9.389,9.389,0,0,1-.939,3.493,6.065,6.065,0,0,1-2.184,2.835l-1.958,1.223,1.93,1.266a6.432,6.432,0,0,1,2.212,2.907,9.4,9.4,0,0,1,.939,3.494v15.165A38.452,38.452,0,0,1,429.36,359.093Z" transform="translate(-154.274 -153.992)"/><path class="a" d="M619.114,297.839a17.232,17.232,0,0,1,2.489-6.523l1.808-2.373H590.884l1.735,2.354a18,18,0,0,1,2.449,6.542,38.321,38.321,0,0,1,1.028,7.8v15.219a9.389,9.389,0,0,1-.939,3.493,6.073,6.073,0,0,1-2.185,2.835l-1.958,1.223,1.93,1.266a6.44,6.44,0,0,1,2.213,2.907,9.4,9.4,0,0,1,.939,3.494v1.485a19.886,19.886,0,0,1-.982,6.44,9.791,9.791,0,0,1-2.729,4.3,7.013,7.013,0,0,1-8.587-.006A9.656,9.656,0,0,1,581.049,344a19.86,19.86,0,0,1-.982-6.44v-1.548a9.451,9.451,0,0,1,.979-3.536,6.662,6.662,0,0,1,2.19-2.813l1.855-1.255-1.883-1.212a6.248,6.248,0,0,1-2.159-2.763,9.623,9.623,0,0,1-.982-3.471V305.639a38.228,38.228,0,0,1,1.028-7.8,17.258,17.258,0,0,1,2.489-6.524l1.809-2.373H552.807l1.806,2.373a17.282,17.282,0,0,1,2.489,6.523,38.381,38.381,0,0,1,1.027,7.8v15.219a9.389,9.389,0,0,1-.939,3.493,6.065,6.065,0,0,1-2.184,2.835l-1.476.921-1.382-.9a5.976,5.976,0,0,1-2.016-2.547,11.732,11.732,0,0,1-1.08-3.462v-3.519c0-6.228-1.361-11.551-4.045-15.82a25.755,25.755,0,0,0-10.9-9.694,36.579,36.579,0,0,0-30.009,0,25.916,25.916,0,0,0-10.928,9.69c-2.7,4.271-4.073,9.594-4.073,15.824v3.182a9.389,9.389,0,0,1-.939,3.493,6.065,6.065,0,0,1-2.184,2.835l-1.958,1.223,1.93,1.266a6.432,6.432,0,0,1,2.212,2.907,9.4,9.4,0,0,1,.939,3.494v3.181a30.108,30.108,0,0,0,3.027,13.879,25.344,25.344,0,0,0,8.275,9.481,29.954,29.954,0,0,0,11.4,4.63,43.966,43.966,0,0,1,5,6.489c1.406,2.156,2.128,3.954,2.145,5.345l-.261,3.421,27.772-16.037-3-1.078a25.9,25.9,0,0,1-5.358-3.058,25.712,25.712,0,0,0,7.5-8.4,29.54,29.54,0,0,0,3.451-14.672v-3.518a11.734,11.734,0,0,1,1.08-3.464,6.392,6.392,0,0,1,2.047-2.619l1.35-.932,1.45.951a6.431,6.431,0,0,1,2.211,2.907,9.4,9.4,0,0,1,.939,3.494v3.181c0,6.2,1.36,11.5,4.045,15.766a25.729,25.729,0,0,0,10.9,9.7,36.59,36.59,0,0,0,30.009,0,25.924,25.924,0,0,0,10.928-9.691c2.7-4.27,4.073-9.575,4.073-15.771v-3.539a10.563,10.563,0,0,1,1.051-3.463,6.151,6.151,0,0,1,2.046-2.579l1.888-1.237-1.888-1.235a6.137,6.137,0,0,1-2.049-2.561,10.268,10.268,0,0,1-1.048-3.428V305.639A38.3,38.3,0,0,1,619.114,297.839ZM511.085,336.013a9.671,9.671,0,0,1,.959-3.549,6.473,6.473,0,0,1,2.157-2.8l1.855-1.255-1.883-1.212a6.089,6.089,0,0,1-2.129-2.729,9.685,9.685,0,0,1-.959-3.5,30.779,30.779,0,0,1,.839-8.106c1.192-3.916,3.472-5.74,7.176-5.74,3.666,0,5.929,1.824,7.123,5.74a28.679,28.679,0,0,1,.89,8,9.384,9.384,0,0,1-.938,3.493,6.066,6.066,0,0,1-2.185,2.835l-1.958,1.223,1.931,1.266a6.432,6.432,0,0,1,2.212,2.907,9.4,9.4,0,0,1,.938,3.494v1.485a19.914,19.914,0,0,1-.981,6.44,9.656,9.656,0,0,1-2.749,4.291,7.013,7.013,0,0,1-8.587.006,9.789,9.789,0,0,1-2.73-4.3,19.914,19.914,0,0,1-.981-6.44Z" transform="translate(-154.274 -153.992)"/><path class="a" d="M628.554,359.093a16.739,16.739,0,0,1-2.478,6.457l-1.863,2.387h62.161l-8.556-22.859-1.586,1.23a16.05,16.05,0,0,1-5.767,2.44,29.517,29.517,0,0,1-7.113,1.015H651.52v-12.21h2.34a38.3,38.3,0,0,1,7.8,1.028,17.407,17.407,0,0,1,6.477,2.439l2.368,1.788v-28.8l-2.387,1.864a16.73,16.73,0,0,1-6.457,2.478,38.3,38.3,0,0,1-7.8,1.027h-2.34V307.117h11.832a29.521,29.521,0,0,1,7.113,1.015,15.491,15.491,0,0,1,5.75,2.479l1.594,1.274,8.563-22.942H624.259l1.806,2.373a17.266,17.266,0,0,1,2.489,6.523,38.381,38.381,0,0,1,1.027,7.8v15.219a9.384,9.384,0,0,1-.938,3.493,6.066,6.066,0,0,1-2.185,2.835l-1.958,1.223,1.931,1.266a6.432,6.432,0,0,1,2.212,2.907,9.4,9.4,0,0,1,.938,3.494v15.165A38.511,38.511,0,0,1,628.554,359.093Z" transform="translate(-154.274 -153.992)"/><path class="a" d="M183.663,262.081a22.945,22.945,0,0,1-5.606.512h-5.22a23.046,23.046,0,0,1-5.508-.791,12.355,12.355,0,0,1-4.449-1.866l-1.588-1.231-.688,1.888c-1.517,4.164-2.58,7.034-3.162,8.53s-1.4,3.643-2.429,6.406l-.739,1.98h23.783a39.069,39.069,0,0,0,12.864-1.92,19.128,19.128,0,0,0,8.755-5.826,14.674,14.674,0,0,0,3.187-9.5,16.016,16.016,0,0,0-1.732-7.857,17.068,17.068,0,0,0-4.753-5.308c-1.525-1.121-4.158-2.8-8.029-5.117a7.636,7.636,0,0,1-2.007-2.036,4.042,4.042,0,0,1-.932-2.229v-2.291l-2.08.959a4.491,4.491,0,0,1-1.892.367,8.069,8.069,0,0,1-2.3-.246,21.708,21.708,0,0,1-4.351-2.422c-.908-.62-1.99-1.55-1.99-2.463a1.307,1.307,0,0,1,.818-1.34c.6-.3,1.954-.659,4.981-.659h5.219a22.441,22.441,0,0,1,5.518.808,12.6,12.6,0,0,1,4.439,1.891l1.576,1.22,7.03-18.835H178.6a36.414,36.414,0,0,0-11.725,1.79,19.38,19.38,0,0,0-8.635,5.588,14.286,14.286,0,0,0-3.32,9.62,16.926,16.926,0,0,0,1.709,7.835,18.814,18.814,0,0,0,4.347,5.566,31.9,31.9,0,0,0,5.572,3.9l3.307,1.918a8.613,8.613,0,0,1,1.791,2,3.893,3.893,0,0,1,.811,2.077v2.373l2.122-1.061a4.207,4.207,0,0,1,1.891-.389,7.983,7.983,0,0,1,3.15.6c.935.522,1.824,1.07,2.641,1.627a10.006,10.006,0,0,1,1.893,1.631,1.667,1.667,0,0,1,.5,1.146C184.649,261.514,184.5,261.854,183.663,262.081Z" transform="translate(-154.274 -153.992)"/><path class="a" d="M210.465,270.178a12.908,12.908,0,0,1-1.894,4.963l-1.847,2.368h26.968l-1.849-2.369a12.877,12.877,0,0,1-1.895-4.962,30.029,30.029,0,0,1-.8-6.119V256.69l3.509,8.835h13.971l3.554-8.883v7.417a29.271,29.271,0,0,1-.821,6.111,13.616,13.616,0,0,1-1.889,4.989l-1.776,2.35h26.911l-1.849-2.369a12.869,12.869,0,0,1-1.894-4.963,29.945,29.945,0,0,1-.8-6.118V252.118a6.926,6.926,0,0,1,.714-2.631,4.758,4.758,0,0,1,1.63-2.155l1.915-1.257-1.942-1.213a4.491,4.491,0,0,1-1.6-2.1,6.918,6.918,0,0,1-.713-2.629V228.151a29.856,29.856,0,0,1,.8-6.077,13.315,13.315,0,0,1,1.9-5.017l1.8-2.355h-21.9l-11,26.792-11-26.792H206.769l1.792,2.354a13.354,13.354,0,0,1,1.9,5.019,29.882,29.882,0,0,1,.8,6.076v11.984a6.927,6.927,0,0,1-.714,2.63,4.491,4.491,0,0,1-1.6,2.1l-1.94,1.213,1.912,1.256a4.775,4.775,0,0,1,1.631,2.156,6.935,6.935,0,0,1,.714,2.631v11.941A30,30,0,0,1,210.465,270.178Z" transform="translate(-154.274 -153.992)"/><path class="a" d="M282.188,225.03a23.25,23.25,0,0,0-3.233,12.6v2.506a6.922,6.922,0,0,1-.713,2.63,4.5,4.5,0,0,1-1.6,2.1l-1.941,1.213,1.914,1.256a4.775,4.775,0,0,1,1.631,2.156,6.93,6.93,0,0,1,.713,2.631v2.5a23.264,23.264,0,0,0,3.232,12.576,20.559,20.559,0,0,0,8.711,7.746,29.106,29.106,0,0,0,23.89,0,20.712,20.712,0,0,0,8.73-7.742,23.164,23.164,0,0,0,3.254-12.58v-2.772a8.027,8.027,0,0,1,.8-2.61,4.42,4.42,0,0,1,1.528-1.9l1.956-1.239-1.956-1.238a4.428,4.428,0,0,1-1.53-1.882,7.827,7.827,0,0,1-.8-2.583v-2.773a23.142,23.142,0,0,0-3.255-12.6,20.907,20.907,0,0,0-8.725-7.737,28.889,28.889,0,0,0-23.9,0A20.757,20.757,0,0,0,282.188,225.03Zm25.949,17.735a4.619,4.619,0,0,1-1.58,2.109l-1.863,1.2,1.836,1.243a4.918,4.918,0,0,1,1.607,2.168,6.939,6.939,0,0,1,.714,2.631v1.169a15.421,15.421,0,0,1-.756,4.974,7.4,7.4,0,0,1-2.062,3.253,4.571,4.571,0,0,1-3.148,1.079,4.708,4.708,0,0,1-3.218-1.085,7.308,7.308,0,0,1-2.076-3.247,15.4,15.4,0,0,1-.756-4.974v-1.21a7.122,7.122,0,0,1,.745-2.667,4.951,4.951,0,0,1,1.618-2.091l1.838-1.243-1.865-1.2a4.64,4.64,0,0,1-1.592-2.032,7.132,7.132,0,0,1-.743-2.623,22.678,22.678,0,0,1,.688-6.295c.895-2.937,2.6-4.305,5.362-4.305,2.734,0,4.425,1.368,5.313,4.283a23.6,23.6,0,0,1,.653,6.234A6.931,6.931,0,0,1,308.137,242.765Z" transform="translate(-154.274 -153.992)"/><path class="a" d="M361.221,277.509h55.725l-1.85-2.369a12.879,12.879,0,0,1-1.894-4.962,29.97,29.97,0,0,1-.8-6.119V252.118a6.918,6.918,0,0,1,.714-2.63,4.75,4.75,0,0,1,1.631-2.156l1.915-1.257-1.943-1.213a4.5,4.5,0,0,1-1.6-2.1,6.918,6.918,0,0,1-.713-2.629V228.151a29.856,29.856,0,0,1,.8-6.076,13.324,13.324,0,0,1,1.9-5.018l1.8-2.355H361.223l1.857,2.37a1.207,1.207,0,0,1,.147.683c0,1.407-.641,4.228-3.708,9.7l-4.006,7.466v-6.773a29.024,29.024,0,0,1,.82-6.089,14.047,14.047,0,0,1,1.9-5.023l1.726-2.337H333.19l1.723,2.336a14.062,14.062,0,0,1,1.9,5.024,29.048,29.048,0,0,1,.82,6.089v11.984a6.759,6.759,0,0,1-.729,2.618,4.736,4.736,0,0,1-1.606,2.121l-1.861,1.2,1.834,1.243a5.043,5.043,0,0,1,1.633,2.18,6.77,6.77,0,0,1,.729,2.619v11.941a29.466,29.466,0,0,1-.821,6.092,13.661,13.661,0,0,1-1.888,5.008l-1.776,2.35H360l-1.778-2.351a13.629,13.629,0,0,1-1.888-5.007,29.432,29.432,0,0,1-.821-6.092v-6.73l4.018,7.489c3.055,5.452,3.7,8.25,3.7,9.638a1.213,1.213,0,0,1-.146.682Zm29.222-62.255,1.371,1.8a13.352,13.352,0,0,1,1.9,5.019,29.941,29.941,0,0,1,.8,6.076v11.984a6.938,6.938,0,0,1-.713,2.63,4.5,4.5,0,0,1-1.6,2.1l-1.94,1.213,1.913,1.256a4.775,4.775,0,0,1,1.631,2.156,6.946,6.946,0,0,1,.713,2.631v11.941a30.063,30.063,0,0,1-.8,6.119,12.923,12.923,0,0,1-1.895,4.963l-1.376,1.764-2.8-2.047a25.4,25.4,0,0,1-4.708-5.026,52.294,52.294,0,0,1-4.3-6.464L369.4,246.105l9.225-17.246a54.482,54.482,0,0,1,4.309-6.439,26.665,26.665,0,0,1,4.723-5.079Z" transform="translate(-154.274 -153.992)"/><path class="a" d="M422.748,217.056a13.337,13.337,0,0,1,1.9,5.019,29.882,29.882,0,0,1,.8,6.076v11.984a6.927,6.927,0,0,1-.714,2.63,4.485,4.485,0,0,1-1.6,2.1l-1.941,1.213,1.913,1.256a4.761,4.761,0,0,1,1.631,2.156,6.935,6.935,0,0,1,.714,2.631v11.941a30,30,0,0,1-.8,6.119,12.886,12.886,0,0,1-1.894,4.962l-1.848,2.369h26.97l-1.851-2.369a12.9,12.9,0,0,1-1.893-4.963,29.919,29.919,0,0,1-.8-6.118V252.324l12.575,25.185h21.908l-1.85-2.369a12.894,12.894,0,0,1-1.895-4.962,30.063,30.063,0,0,1-.8-6.119V252.118a6.938,6.938,0,0,1,.713-2.63,4.764,4.764,0,0,1,1.631-2.156l1.917-1.257-1.944-1.213a4.493,4.493,0,0,1-1.6-2.1,6.938,6.938,0,0,1-.713-2.63V228.151a29.941,29.941,0,0,1,.8-6.076,13.313,13.313,0,0,1,1.906-5.018l1.8-2.355H450.946l1.725,2.337a13.873,13.873,0,0,1,1.877,5.036,29.953,29.953,0,0,1,.8,6.076v11.736L442.775,214.7h-21.82Z" transform="translate(-154.274 -153.992)"/><path class="a" d="M493.348,237.843l6.623-9.308a7.413,7.413,0,0,0,1.351-4.35V221.3a7.313,7.313,0,0,0-2.176-5.311,7.208,7.208,0,0,0-5.3-2.21h-2.881a7.491,7.491,0,0,0-7.521,7.521v2.881a7.261,7.261,0,0,0,1.9,5.01,7.424,7.424,0,0,0,2.548,1.856l-4.819,6.792Z" transform="translate(-154.274 -153.992)"/><path class="a" d="M540.594,222.074a13.319,13.319,0,0,1,1.9-5.018l1.8-2.355H517.412l1.794,2.354a13.337,13.337,0,0,1,1.9,5.019,29.89,29.89,0,0,1,.8,6.076v11.984a6.927,6.927,0,0,1-.714,2.63,4.485,4.485,0,0,1-1.6,2.1l-1.941,1.213,1.913,1.256a4.761,4.761,0,0,1,1.631,2.156,6.935,6.935,0,0,1,.714,2.631v11.941a30,30,0,0,1-.8,6.119,12.886,12.886,0,0,1-1.894,4.962l-1.848,2.369h26.97l-1.851-2.369a12.9,12.9,0,0,1-1.893-4.963,29.919,29.919,0,0,1-.8-6.118V253.583h12.016v10.475a30.721,30.721,0,0,1-.784,6.126,12.693,12.693,0,0,1-1.872,4.955l-1.847,2.369h26.97l-1.85-2.369a12.894,12.894,0,0,1-1.895-4.962,30.063,30.063,0,0,1-.8-6.119V252.117a6.938,6.938,0,0,1,.713-2.63,4.764,4.764,0,0,1,1.631-2.156l1.917-1.257-1.944-1.213a4.493,4.493,0,0,1-1.6-2.1,6.938,6.938,0,0,1-.713-2.63V228.15a29.95,29.95,0,0,1,.8-6.076,13.313,13.313,0,0,1,1.906-5.018l1.795-2.355H547.349l1.794,2.354a13.153,13.153,0,0,1,1.881,5.011,30.613,30.613,0,0,1,.784,6.084v10.517H539.792V228.15A29.822,29.822,0,0,1,540.594,222.074Z" transform="translate(-154.274 -153.992)"/><path class="a" d="M583.855,225.029a23.257,23.257,0,0,0-3.233,12.6v2.506a6.927,6.927,0,0,1-.714,2.63,4.485,4.485,0,0,1-1.6,2.1l-1.941,1.213,1.913,1.256a4.761,4.761,0,0,1,1.631,2.156,6.935,6.935,0,0,1,.714,2.631v2.505a23.271,23.271,0,0,0,3.232,12.576,20.569,20.569,0,0,0,8.71,7.746,29.106,29.106,0,0,0,23.89,0,20.717,20.717,0,0,0,8.732-7.742,23.169,23.169,0,0,0,3.253-12.58v-2.773a8.045,8.045,0,0,1,.8-2.61,4.407,4.407,0,0,1,1.527-1.9l1.956-1.239-1.956-1.238a4.428,4.428,0,0,1-1.53-1.882,7.834,7.834,0,0,1-.8-2.583v-2.773a23.136,23.136,0,0,0-3.255-12.6,20.907,20.907,0,0,0-8.725-7.737,28.889,28.889,0,0,0-23.9,0A20.752,20.752,0,0,0,583.855,225.029ZM609.8,242.764a4.625,4.625,0,0,1-1.579,2.109l-1.863,1.2,1.835,1.243a4.918,4.918,0,0,1,1.607,2.168,6.935,6.935,0,0,1,.714,2.631v1.169a15.39,15.39,0,0,1-.757,4.975,7.4,7.4,0,0,1-2.062,3.252,4.567,4.567,0,0,1-3.147,1.079,4.712,4.712,0,0,1-3.219-1.085,7.324,7.324,0,0,1-2.074-3.246,15.39,15.39,0,0,1-.757-4.975v-1.21a7.1,7.1,0,0,1,.743-2.666,4.951,4.951,0,0,1,1.619-2.092l1.837-1.243-1.864-1.2a4.642,4.642,0,0,1-1.592-2.032,7.122,7.122,0,0,1-.743-2.623,22.62,22.62,0,0,1,.688-6.3c.895-2.938,2.6-4.305,5.362-4.305,2.734,0,4.425,1.368,5.313,4.283a23.591,23.591,0,0,1,.653,6.234A6.927,6.927,0,0,1,609.8,242.764Z" transform="translate(-154.274 -153.992)"/><path class="a" d="M637.4,232.3a11.885,11.885,0,0,1,4.412-1.894,22.953,22.953,0,0,1,5.528-.79h1.541v10.517a6.924,6.924,0,0,1-.715,2.63,4.493,4.493,0,0,1-1.6,2.1l-1.94,1.213,1.913,1.256a4.761,4.761,0,0,1,1.631,2.156,6.936,6.936,0,0,1,.715,2.631v11.941a30.058,30.058,0,0,1-.8,6.119,12.9,12.9,0,0,1-1.894,4.962l-1.848,2.369h26.968l-1.848-2.369a12.9,12.9,0,0,1-1.895-4.962,30.063,30.063,0,0,1-.8-6.119V252.117a6.927,6.927,0,0,1,.714-2.63,4.764,4.764,0,0,1,1.63-2.157l1.914-1.256-1.941-1.213a4.485,4.485,0,0,1-1.6-2.1,6.927,6.927,0,0,1-.714-2.63V229.617h1.54a23.138,23.138,0,0,1,5.509.79,11.475,11.475,0,0,1,4.376,1.884l1.582,1.3,7.1-18.887H628.778l7.042,18.866Z" transform="translate(-154.274 -153.992)"/><path class="a" d="M684.361,402.173a8.68,8.68,0,0,0-5.033-3.515,16.87,16.87,0,0,0-6.888-.162c-2.5.4-5.162.968-7.919,1.692s-5.546,1.464-8.38,2.221a40.914,40.914,0,0,1-8.025,1.355,19.154,19.154,0,0,1-6.987-.78,10.034,10.034,0,0,1-5.252-4.09l-1.137-1.652.043,2c.084,3.917.617,6.887,1.585,8.829a8.088,8.088,0,0,0,3.967,4.062,9.477,9.477,0,0,0,3.766.729,12.815,12.815,0,0,0,1.782-.129c2-.278,4.124-.677,6.3-1.186,2.27-.52,4.575-1.129,6.849-1.811s4.519-1.313,6.633-1.865c2.131-.555,4.213-1.017,6.19-1.372a23.407,23.407,0,0,1,5.466-.374,11.539,11.539,0,0,1,4.544,1.192,9.318,9.318,0,0,1,3.512,3.24l1.19,1.783-.092-2.142C686.325,406.653,685.612,403.952,684.361,402.173Z" transform="translate(-154.274 -153.992)"/><path class="a" d="M201.137,402.985a19.136,19.136,0,0,1-6.986.779,40.9,40.9,0,0,1-8.025-1.355q-4.251-1.135-8.379-2.221c-2.76-.724-5.425-1.293-7.921-1.692a16.884,16.884,0,0,0-6.887.162,8.677,8.677,0,0,0-5.033,3.516c-1.252,1.778-1.964,4.479-2.118,8.029l-.093,2.142,1.19-1.783a9.333,9.333,0,0,1,3.512-3.24,11.548,11.548,0,0,1,4.543-1.192,23.322,23.322,0,0,1,5.468.374c1.976.355,4.058.816,6.19,1.372,2.109.551,4.341,1.178,6.632,1.865s4.581,1.292,6.847,1.81c2.184.511,4.306.909,6.307,1.187a12.84,12.84,0,0,0,1.783.129,9.481,9.481,0,0,0,3.764-.728,8.094,8.094,0,0,0,3.967-4.063c.969-1.943,1.5-4.913,1.586-8.829l.043-2-1.136,1.651A10.045,10.045,0,0,1,201.137,402.985Z" transform="translate(-154.274 -153.992)"/><path class="a" d="M304.229,189.439l-.528.588.768.185a3.027,3.027,0,0,1,1.49.958,4.048,4.048,0,0,1,.923,1.394l.426,1.342a12.447,12.447,0,0,0,3.834,6.012,11.845,11.845,0,0,0,5.927,2.6,15.117,15.117,0,0,0,2.148.151,17.65,17.65,0,0,0,4.726-.672,16.522,16.522,0,0,0,6.1-3.094,11.893,11.893,0,0,0,3.727-5.287,12.412,12.412,0,0,0,.178-7.13l-.366-1.509a4.524,4.524,0,0,1,.122-1.687,2.856,2.856,0,0,1,.75-1.427l.575-.552-.761-.237a2.858,2.858,0,0,1-1.318-.928,4.488,4.488,0,0,1-.865-1.393l-.374-1.551a11.707,11.707,0,0,0-3.525-6.256,11.9,11.9,0,0,0-6.135-2.8,18.718,18.718,0,0,0-14.042,3.912,11.868,11.868,0,0,0-3.81,5.567,11.725,11.725,0,0,0,.222,7.175l.426,1.342a4.077,4.077,0,0,1,.045,1.673A2.948,2.948,0,0,1,304.229,189.439Zm13.754-13.558a3.486,3.486,0,0,1,3,1.792,12.424,12.424,0,0,1,1.322,3.363,4.046,4.046,0,0,1-.032,1.671,3.015,3.015,0,0,1-.715,1.588l-.528.551.729.224a3.111,3.111,0,0,1,1.423,1.037,4.05,4.05,0,0,1,.854,1.436l.169.636a8.561,8.561,0,0,1,.3,2.924,4.559,4.559,0,0,1-.764,2.259,3.2,3.2,0,0,1-1.856,1.238h0a3.28,3.28,0,0,1-2.266-.092,4.484,4.484,0,0,1-1.831-1.532,8.6,8.6,0,0,1-1.26-2.657l-.193-.663a4.064,4.064,0,0,1,0-1.693,3.14,3.14,0,0,1,.7-1.577l.51-.57-.738-.2a3.054,3.054,0,0,1-1.425-.939,3.979,3.979,0,0,1-.915-1.419,11.31,11.31,0,0,1-.593-3.6,3.537,3.537,0,0,1,2.846-3.594A4.7,4.7,0,0,1,317.983,175.881Z" transform="translate(-154.274 -153.992)"/><path class="a" d="M336.8,166.985a14.969,14.969,0,0,1,1.247,3.3l1.432,6.581a3.993,3.993,0,0,1-.118,1.667,3.088,3.088,0,0,1-.8,1.559l-.551.526.716.257a3.176,3.176,0,0,1,1.385,1.1,3.986,3.986,0,0,1,.8,1.469L342.34,190a16.485,16.485,0,0,1,.271,3.521,7.992,7.992,0,0,1-.491,3.131l-.409.868.936-.209c4.709-1.047,7.019-1.522,11.77-2.417l.941-.177-.715-.637a7.965,7.965,0,0,1-1.684-2.684,16.564,16.564,0,0,1-1.138-3.342l-.548-2.832c1.054-.2,1.715-.327,2.895-.544a2.794,2.794,0,0,1,3.008,1.1,11.673,11.673,0,0,1,1.922,4.978,3.9,3.9,0,0,1-.111,2.523l-.5.871,2.688-.463.434-.1c3.683-.611,5.63-.906,9.478-1.439l.995-.138-.743-.676a12.772,12.772,0,0,1-1.677-2.054,29.672,29.672,0,0,1-1.765-2.846,19.977,19.977,0,0,0-4.031-6.083c2.6-2.588,3.62-6.006,3.016-10.169a11.576,11.576,0,0,0-2.933-6.583,11.3,11.3,0,0,0-5.8-3.169,18.664,18.664,0,0,0-7.352-.045c-6.319,1.143-9.393,1.763-15.66,3.157l-.974.217.786.614A7.6,7.6,0,0,1,336.8,166.985Zm18.676,1.486a5.343,5.343,0,0,1,1.506,3.268c.51,3.066-.5,4.72-3.193,5.207-1.614.292-2.495.456-3.974.74l-1.735-8.982c1.521-.293,2.423-.461,4.081-.761A3.9,3.9,0,0,1,355.479,168.471Z" transform="translate(-154.274 -153.992)"/><path class="a" d="M372.538,160.823a15.435,15.435,0,0,1,.926,3.391l.825,6.684a4.09,4.09,0,0,1-.257,1.653,2.943,2.943,0,0,1-.937,1.472l-.62.479.714.322a3.024,3.024,0,0,1,1.278,1.216,4.069,4.069,0,0,1,.647,1.541l.823,6.66a16.949,16.949,0,0,1-.036,3.544,7.58,7.58,0,0,1-.78,3.053l-.506.835.968-.124c4.776-.613,7.111-.874,11.9-1.328l.972-.093-.677-.7a7.579,7.579,0,0,1-1.433-2.806,16.956,16.956,0,0,1-.818-3.448l-.667-6.677a4.082,4.082,0,0,1,.293-1.647,3.015,3.015,0,0,1,.976-1.467l.625-.472-.71-.331a2.939,2.939,0,0,1-1.237-1.229,4.085,4.085,0,0,1-.616-1.556l-.669-6.7a15.489,15.489,0,0,1,.156-3.511,7.24,7.24,0,0,1,.961-3.056l.58-.833-1.011.1c-5.256.5-7.812.785-13.023,1.454l-1.007.129.749.685A7.262,7.262,0,0,1,372.538,160.823Z" transform="translate(-154.274 -153.992)"/><path class="a" d="M391.631,174.127a4.829,4.829,0,0,1,.62,1.545l.122,1.568a12.479,12.479,0,0,0,2.359,6.726,11.845,11.845,0,0,0,5.143,3.88,16.061,16.061,0,0,0,5.921,1.076c.267,0,.537,0,.809-.017a9.312,9.312,0,0,0,5.3-1.858,4.047,4.047,0,0,0,1.531,1.568l.112.062.127,0c2.286-.053,3.429-.071,5.716-.088l.47,0-.083-10.982a16.056,16.056,0,0,1,.458-3.488,7.416,7.416,0,0,1,1.185-2.956l.621-.769-.989,0c-5.05.014-7.512.061-12.547.24l-1.092.039.779.767a5.727,5.727,0,0,1,1.794,4.075,8.673,8.673,0,0,1-.372,2.918,4.51,4.51,0,0,1-1.256,2.024,3.571,3.571,0,0,1-4.228.181,4.548,4.548,0,0,1-1.413-1.912,8.674,8.674,0,0,1-.619-2.875l-.036-.656a4.087,4.087,0,0,1,.367-1.632,3.01,3.01,0,0,1,1.041-1.421l.644-.443-.692-.363a2.929,2.929,0,0,1-1.179-1.284,4.077,4.077,0,0,1-.545-1.582l-.037-.679a7.506,7.506,0,0,1,.369-2.885,4.051,4.051,0,0,1,1.584-2.052,6.156,6.156,0,0,1,3.279-.892c.889-.035,1.334-.051,2.223-.08a15.213,15.213,0,0,1,3.508.356,7.828,7.828,0,0,1,2.884,1.082l.493.351.219-.565c1.316-3.4,1.973-5.064,3.349-8.457l.264-.653-.7.005c-5.437.042-8.091.106-13.524.331a18.713,18.713,0,0,0-7.559,1.8,11.7,11.7,0,0,0-5.018,4.56,11.814,11.814,0,0,0-1.395,7.034l.12,1.525a4.678,4.678,0,0,1-.377,1.652,2.836,2.836,0,0,1-.943,1.294l-.644.458.71.348A2.772,2.772,0,0,1,391.631,174.127Z" transform="translate(-154.274 -153.992)"/><path class="a" d="M426.955,184.913a7.621,7.621,0,0,1-1.191,2.917l-.615.756.975.011c4.792.052,7.138.115,11.951.325l.975.042-.573-.789a7.591,7.591,0,0,1-1.033-2.977,16.907,16.907,0,0,1-.333-3.528l.261-6.706a4.1,4.1,0,0,1,.516-1.59,3.02,3.02,0,0,1,1.169-1.319l.682-.381-.656-.425a2.941,2.941,0,0,1-1.055-1.388,4.078,4.078,0,0,1-.394-1.626l.262-6.729a15.406,15.406,0,0,1,.638-3.457,7.251,7.251,0,0,1,1.371-2.894l.689-.745-1.014-.044c-5.261-.229-7.828-.3-13.081-.356L425.484,154l.648.782a7.279,7.279,0,0,1,1.213,2.964,15.5,15.5,0,0,1,.448,3.486l-.105,6.733a4.1,4.1,0,0,1-.481,1.6,2.94,2.94,0,0,1-1.13,1.328l-.677.389.66.418a3.017,3.017,0,0,1,1.1,1.38,4.094,4.094,0,0,1,.428,1.617l-.105,6.709A16.941,16.941,0,0,1,426.955,184.913Z" transform="translate(-154.274 -153.992)"/><path class="a" d="M455.861,190.131l.971.09-.534-.816a7.6,7.6,0,0,1-.885-3.025,16.894,16.894,0,0,1-.162-3.54l.717-8.164c2.483,5.9,3.845,9.339,6.29,15.844l.1.27.287.032c4.117.459,6.119.71,10.2,1.281l.965.135-.5-.84a7.584,7.584,0,0,1-.746-3.063,16.872,16.872,0,0,1,0-3.543l.9-6.649a4.078,4.078,0,0,1,.665-1.535,3.028,3.028,0,0,1,1.292-1.2l.718-.314-.615-.487a2.934,2.934,0,0,1-.921-1.482,4.086,4.086,0,0,1-.238-1.656l.9-6.674a15.409,15.409,0,0,1,.964-3.38,7.266,7.266,0,0,1,1.646-2.75l.758-.676-1.006-.141c-5.226-.73-7.779-1.045-13.011-1.6l-.988-.106.545.831a7.565,7.565,0,0,1,.9,3.07,15.414,15.414,0,0,1,.117,3.514l-.908,8.155c-2.393-6-3.859-9.448-6.736-15.911l-.112-.253-.276-.025c-4.488-.394-6.683-.556-11.185-.824l-1.013-.06.608.812a7.261,7.261,0,0,1,1.068,3.02,15.5,15.5,0,0,1,.279,3.5l-.432,6.721a4.088,4.088,0,0,1-.56,1.576,2.939,2.939,0,0,1-1.193,1.272l-.7.355.639.45a3.016,3.016,0,0,1,1.028,1.432,4.055,4.055,0,0,1,.349,1.635l-.43,6.7a16.974,16.974,0,0,1-.695,3.474,7.594,7.594,0,0,1-1.333,2.856l-.649.726.972.058C448.733,189.51,451.074,189.688,455.861,190.131Z" transform="translate(-154.274 -153.992)"/><path class="a" d="M483.718,179.632c-1.255,2.478-1.874,3.719-3.1,6.2a28.037,28.037,0,0,1-2.081,3.326,17.344,17.344,0,0,1-2.21,2.672l-.738.667.983.147c4.807.724,7.142,1.114,11.9,1.991l1,.184-.5-.881c-.247-.432-.463-1.385-.082-3.476a12.464,12.464,0,0,1,.7-2.47c2.387.438,3.742.7,6.121,1.179a13.22,13.22,0,0,1-.276,2.5c-.427,2.1-.988,2.926-1.382,3.246l-.775.63.979.2c4.77.959,7.09,1.465,11.816,2.578l.971.229-.441-.9a16.8,16.8,0,0,1-1.053-3.3,28.766,28.766,0,0,1-.691-3.856c-.226-2.767-.347-4.15-.6-6.926a2.886,2.886,0,0,1,.072-.913,3.338,3.338,0,0,1,1.185-2.124l.63-.436-.673-.365a3.354,3.354,0,0,1-1.247-1.293,4.3,4.3,0,0,1-.63-1.612c-.3-2.973-.45-4.461-.777-7.439a15.192,15.192,0,0,1,.046-4.7,2.705,2.705,0,0,1,.779-1.556l.734-.624-.943-.195c-4.413-.914-6.582-1.332-11.053-2.129l-.948-.169.449.853a2.761,2.761,0,0,1,.141,1.757A15.773,15.773,0,0,1,490.342,167c-1.418,2.639-2.118,3.961-3.5,6.606a4.325,4.325,0,0,1-1.186,1.27,3.364,3.364,0,0,1-1.635.738l-.771.09.437.642a3.252,3.252,0,0,1,.311,2.384A2.966,2.966,0,0,1,483.718,179.632Zm11.525,1.644c-.841-.164-1.45-.282-2.291-.441.765-1.615,1.292-2.721,1.978-4.144C495.044,178.268,495.127,179.491,495.243,181.276Z" transform="translate(-154.274 -153.992)"/><path class="a" d="M534.6,206.276l.652.211-.038-.684c-.2-3.628-.314-5.4-.572-9l-.044-.611-.58.2a8.148,8.148,0,0,1-2.971.254,15.224,15.224,0,0,1-3.346-.526c-2.211-.651-3.391-.989-5.472-1.566l1.664-6.015a4.058,4.058,0,0,1,.87-1.427,3.026,3.026,0,0,1,1.45-1.014l.76-.213-.549-.567a2.944,2.944,0,0,1-.72-1.6,4.11,4.11,0,0,1-.017-1.673l1.8-6.491a15.36,15.36,0,0,1,1.416-3.217,7.23,7.23,0,0,1,2.009-2.5l.849-.568-.983-.276c-5.109-1.439-7.612-2.1-12.756-3.368l-.988-.243.455.911a7.229,7.229,0,0,1,.514,3.154,15.365,15.365,0,0,1-.359,3.508L516,179.487a4.1,4.1,0,0,1-.838,1.447,2.954,2.954,0,0,1-1.412,1.034l-.756.222.555.56a3.029,3.029,0,0,1,.759,1.6,4.072,4.072,0,0,1,.05,1.671l-1.642,6.53a16.744,16.744,0,0,1-1.312,3.279,7.559,7.559,0,0,1-1.834,2.553l-.777.6.951.234C519.829,201.7,524.708,203.082,534.6,206.276Z" transform="translate(-154.274 -153.992)"/><path class="a" d="M587.2,192.434c3.929,0,6.413-.581,7.592-1.777a2.735,2.735,0,0,0,.811-1.87,2.232,2.232,0,0,0-.427-1.731c-1.281-1.81-5.11-2.727-11.379-2.727a160.212,160.212,0,0,0-23.6,2.342l-4.77.754,4.7,1.092C560.819,188.677,577.11,192.434,587.2,192.434Z" transform="translate(-154.274 -153.992)"/><path class="a" d="M575.092,181.421c9.155-3.17,14.12-6.052,15.18-8.81a3.08,3.08,0,0,0-.288-2.862c-.308-.717-1.308-1.766-3.42-1.766-4.87,0-13.384,5.272-25.3,15.668l-2.918,2.545,3.76-.921C562.165,185.259,568.531,183.693,575.092,181.421Z" transform="translate(-154.274 -153.992)"/><path class="a" d="M589.984,205.308a3.08,3.08,0,0,0,.288-2.862c-1.06-2.758-6.025-5.64-15.18-8.81-6.561-2.272-12.927-3.838-12.991-3.854l-3.76-.921,2.918,2.545c11.921,10.4,20.435,15.668,25.3,15.668C588.676,207.074,589.676,206.025,589.984,205.308Z" transform="translate(-154.274 -153.992)"/><path class="a" d="M247.008,190.657c1.179,1.2,3.662,1.777,7.592,1.777,10.086,0,26.377-3.757,27.066-3.917l4.7-1.092-4.77-.754a160.212,160.212,0,0,0-23.6-2.342c-6.269,0-10.1.917-11.379,2.727a2.232,2.232,0,0,0-.427,1.731A2.735,2.735,0,0,0,247.008,190.657Z" transform="translate(-154.274 -153.992)"/><path class="a" d="M266.7,181.421c6.561,2.272,12.927,3.838,12.991,3.854l3.76.921-2.918-2.545c-11.921-10.4-20.435-15.668-25.3-15.668-2.112,0-3.112,1.049-3.42,1.766a3.083,3.083,0,0,0-.289,2.862C252.584,175.369,257.549,178.251,266.7,181.421Z" transform="translate(-154.274 -153.992)"/><path class="a" d="M283.455,188.861l-3.76.921c-.064.016-6.43,1.582-12.991,3.854-9.155,3.17-14.12,6.052-15.181,8.81a3.083,3.083,0,0,0,.289,2.862c.308.717,1.308,1.766,3.42,1.766,4.87,0,13.384-5.272,25.3-15.668Z" transform="translate(-154.274 -153.992)"/><path class="a" d="M459.15,408.275c-1.012-.745-2.842-1.91-5.433-3.461a5.723,5.723,0,0,1-1.513-1.522,3.231,3.231,0,0,1-.732-1.821v-.754l-.685.316a3.575,3.575,0,0,1-1.5.3,6.009,6.009,0,0,1-1.74-.2,15.274,15.274,0,0,1-3.077-1.708c-1.049-.715-1.58-1.423-1.58-2.1a1.4,1.4,0,0,1,.842-1.373,9.022,9.022,0,0,1,3.622-.5H450.9a15.78,15.78,0,0,1,3.888.567,9.065,9.065,0,0,1,3.21,1.379l.518.4,4.282-11.471H447.35a24.3,24.3,0,0,0-7.818,1.19,12.69,12.69,0,0,0-5.654,3.655,9.223,9.223,0,0,0-2.136,6.212,10.989,10.989,0,0,0,1.107,5.1,12.291,12.291,0,0,0,2.839,3.639,21.23,21.23,0,0,0,3.715,2.6l2.258,1.307a6.242,6.242,0,0,1,1.38,1.519,3.134,3.134,0,0,1,.643,1.7v.78l.7-.349a3.376,3.376,0,0,1,1.518-.318,5.908,5.908,0,0,1,2.353.451c.663.368,1.3.758,1.881,1.156a7.4,7.4,0,0,1,1.387,1.2,1.674,1.674,0,0,1,.464,1.119,1.212,1.212,0,0,1-1.052,1.283,16.068,16.068,0,0,1-3.953.367h-3.553a16.2,16.2,0,0,1-3.878-.554,8.93,8.93,0,0,1-3.219-1.363l-.523-.405-.226.621q-1.56,4.286-2.156,5.818t-1.653,4.356l-.243.651H446.98a26.083,26.083,0,0,0,8.589-1.278,12.522,12.522,0,0,0,5.731-3.805,9.486,9.486,0,0,0,2.055-6.146,10.418,10.418,0,0,0-1.113-5.1A11.1,11.1,0,0,0,459.15,408.275Z" transform="translate(-154.274 -153.992)"/><path class="a" d="M499.16,423.651a33.745,33.745,0,0,1-1.792-4.38l-2.419-8.023a3.842,3.842,0,0,1-.148-1.134,4.359,4.359,0,0,1,.82-2.9l.486-.561-.71-.217a3.8,3.8,0,0,1-1.709-1.218,5.283,5.283,0,0,1-1.095-1.784l-2.561-8.617a19.908,19.908,0,0,1-1-5.631,3.672,3.672,0,0,1,.509-2.11l.533-.76H475.994l.53.759a3.742,3.742,0,0,1,.51,2.139,20.625,20.625,0,0,1-.974,5.605l-2.586,8.609a5.276,5.276,0,0,1-1.1,1.79,3.79,3.79,0,0,1-1.709,1.218l-.722.221.5.562a4.239,4.239,0,0,1,.816,2.863,3.907,3.907,0,0,1-.151,1.17l-2.385,8.011a32.862,32.862,0,0,1-1.808,4.383,20.218,20.218,0,0,1-2.117,3.618l-.632.785h16.392l-.656-.79c-.389-.47-.855-1.579-.855-4.184a15.809,15.809,0,0,1,.3-3.185h7.379a16.518,16.518,0,0,1,.28,3.128c0,2.112-.289,3.541-.859,4.245l-.635.786h16.374l-.631-.785A19.8,19.8,0,0,1,499.16,423.651Zm-14.7-12.854H481.63l1.405-5.681Z" transform="translate(-154.274 -153.992)"/><path class="a" d="M537.063,390.713a9.533,9.533,0,0,1,1.391-3.62l.59-.774h-16.2l.568.768a9.892,9.892,0,0,1,1.366,3.626,20.862,20.862,0,0,1,.558,4.247v8.16a5.332,5.332,0,0,1-.528,2,3.551,3.551,0,0,1-1.292,1.659l-.639.4.63.413a3.745,3.745,0,0,1,1.3,1.695,5.323,5.323,0,0,1,.528,2v.8a11.019,11.019,0,0,1-.542,3.553,5.551,5.551,0,0,1-1.553,2.437,4.067,4.067,0,0,1-5.01,0,5.485,5.485,0,0,1-1.566-2.435,11.019,11.019,0,0,1-.542-3.553v-.84a5.345,5.345,0,0,1,.553-2.016,3.877,3.877,0,0,1,1.282-1.636l.605-.409-.614-.4a3.643,3.643,0,0,1-1.272-1.613,5.433,5.433,0,0,1-.554-1.991V394.96a20.862,20.862,0,0,1,.558-4.247,9.518,9.518,0,0,1,1.39-3.62l.59-.774H502.44l.59.774a9.552,9.552,0,0,1,1.391,3.62,20.862,20.862,0,0,1,.558,4.247v8.16a5.318,5.318,0,0,1-.529,2,3.564,3.564,0,0,1-1.292,1.659l-.638.4.629.413a3.747,3.747,0,0,1,1.3,1.695,5.309,5.309,0,0,1,.529,2v1.705a15.345,15.345,0,0,0,2.121,8.289,13.5,13.5,0,0,0,5.716,5.082,19.3,19.3,0,0,0,15.824,0,13.594,13.594,0,0,0,5.729-5.081,15.262,15.262,0,0,0,2.137-8.29l0-1.892a5.91,5.91,0,0,1,.6-2,3.6,3.6,0,0,1,1.208-1.51l.616-.4-.617-.4a3.6,3.6,0,0,1-1.208-1.5,5.775,5.775,0,0,1-.592-1.937V394.96A20.85,20.85,0,0,1,537.063,390.713Z" transform="translate(-154.274 -153.992)"/><path class="a" d="M556.081,398.663A4.824,4.824,0,0,1,558,396.317c1.55-1.009,4.11-1.192,7.55-.307a8.769,8.769,0,0,1,3.188,1.375l.519.411,4.317-11.477H560.593a19.888,19.888,0,0,0-8.362,1.692,13.285,13.285,0,0,0-5.822,5.087,15.49,15.49,0,0,0-2.106,8.316l0,1.864a5.91,5.91,0,0,1-.595,2,3.484,3.484,0,0,1-1.23,1.5l-.632.4.626.411a3.737,3.737,0,0,1,1.3,1.695,5.309,5.309,0,0,1,.529,2v1.705a15.354,15.354,0,0,0,2.121,8.289,13.372,13.372,0,0,0,5.821,5.084,19.772,19.772,0,0,0,8.348,1.694h12.979L569.254,416.6l-.518.411a8.582,8.582,0,0,1-3.173,1.36c-3.456.876-6.053.683-7.587-.346a4.937,4.937,0,0,1-1.908-2.412,10.079,10.079,0,0,1-.593-3.54v-.84a5.446,5.446,0,0,1,.541-2.02,3.775,3.775,0,0,1,1.265-1.632l.605-.409-.614-.4A3.639,3.639,0,0,1,556,405.117a5.313,5.313,0,0,1-.528-2V402.1A9.312,9.312,0,0,1,556.081,398.663Z" transform="translate(-154.274 -153.992)"/><path class="a" d="M597.064,395.443a16.117,16.117,0,0,1,3.891.554,8.594,8.594,0,0,1,3.2,1.387l.52.416,4.286-11.481H576.73l.59.774a9.5,9.5,0,0,1,1.39,3.62,20.845,20.845,0,0,1,.559,4.247v8.16a5.321,5.321,0,0,1-.53,2,3.55,3.55,0,0,1-1.291,1.659l-.638.4.629.413a3.739,3.739,0,0,1,1.3,1.695,5.312,5.312,0,0,1,.53,2v8.131a20.911,20.911,0,0,1-.559,4.275,9.249,9.249,0,0,1-1.386,3.587l-.608.779h32.246L604.68,416.61l-.519.4a8.916,8.916,0,0,1-3.206,1.363,16.1,16.1,0,0,1-3.891.554h-6.653v-7.166h1.565a20.853,20.853,0,0,1,4.247.558,9.557,9.557,0,0,1,3.592,1.363l.774.585V400.084l-.779.609a9.276,9.276,0,0,1-3.587,1.387,20.842,20.842,0,0,1-4.247.557h-1.565v-7.194Z" transform="translate(-154.274 -153.992)"/><path class="a" d="M251.884,414.565a3.322,3.322,0,0,1,.5-1.28h-4.8a3.294,3.294,0,0,1,.493,1.28,7.311,7.311,0,0,1,.186,1.462v2.742h-3.42v-2.742a7.083,7.083,0,0,1,.191-1.462,3.338,3.338,0,0,1,.5-1.28h-4.8a3.32,3.32,0,0,1,.5,1.28,7.152,7.152,0,0,1,.191,1.462v2.742a1.936,1.936,0,0,1-.191.735,1.346,1.346,0,0,1-.5.631,1.405,1.405,0,0,1,.5.64,1.936,1.936,0,0,1,.191.735v2.733a7.178,7.178,0,0,1-.191,1.471,3.229,3.229,0,0,1-.5,1.271h4.8a3.246,3.246,0,0,1-.5-1.271,7.109,7.109,0,0,1-.191-1.471V421.51h3.42v2.733a7.337,7.337,0,0,1-.186,1.471,3.2,3.2,0,0,1-.493,1.271h4.8a3.23,3.23,0,0,1-.5-1.271,7.119,7.119,0,0,1-.192-1.471V421.51a1.921,1.921,0,0,1,.192-.735,1.4,1.4,0,0,1,.5-.64,1.344,1.344,0,0,1-.5-.631,1.921,1.921,0,0,1-.192-.735v-2.742A7.094,7.094,0,0,1,251.884,414.565Z" transform="translate(-154.274 -153.992)"/><path class="a" d="M264.743,419.567a2.084,2.084,0,0,1-.216-.722V418.2a4.952,4.952,0,0,0-.692-2.7,4.428,4.428,0,0,0-1.858-1.648,6.275,6.275,0,0,0-5.178,0,4.394,4.394,0,0,0-1.854,1.648,4.977,4.977,0,0,0-.688,2.7v.573a1.917,1.917,0,0,1-.191.735,1.346,1.346,0,0,1-.5.631,1.405,1.405,0,0,1,.5.64,1.917,1.917,0,0,1,.191.735v.573a4.984,4.984,0,0,0,.688,2.7,4.361,4.361,0,0,0,1.854,1.648,6.327,6.327,0,0,0,5.178,0,4.394,4.394,0,0,0,1.858-1.648,4.959,4.959,0,0,0,.692-2.7v-.649a2.115,2.115,0,0,1,.216-.726.581.581,0,0,0,0-1.141Zm-3.836,1.208a1.936,1.936,0,0,1,.191.735v.268a3.849,3.849,0,0,1-.191,1.247,2.018,2.018,0,0,1-.569.889,1.383,1.383,0,0,1-.941.329,1.412,1.412,0,0,1-.955-.329,1.99,1.99,0,0,1-.573-.889,3.822,3.822,0,0,1-.191-1.247v-.286a1.927,1.927,0,0,1,.2-.741,1.452,1.452,0,0,1,.487-.616,1.387,1.387,0,0,1-.487-.607,1.927,1.927,0,0,1-.2-.74,5.452,5.452,0,0,1,.172-1.538,1.585,1.585,0,0,1,3.086,0,5.736,5.736,0,0,1,.162,1.519,1.936,1.936,0,0,1-.191.735,1.377,1.377,0,0,1-.488.631A1.44,1.44,0,0,1,260.907,420.775Z" transform="translate(-154.274 -153.992)"/><path class="a" d="M279.6,414.565a3.32,3.32,0,0,1,.5-1.28h-4.109l-2.741,6.678-2.742-6.678H266.4a3.319,3.319,0,0,1,.5,1.28,7.141,7.141,0,0,1,.19,1.462v2.742a1.931,1.931,0,0,1-.19.735,1.347,1.347,0,0,1-.5.631,1.406,1.406,0,0,1,.5.64,1.931,1.931,0,0,1,.19.735v2.733a7.167,7.167,0,0,1-.19,1.471,3.228,3.228,0,0,1-.5,1.271h4.8a3.246,3.246,0,0,1-.5-1.271,7.109,7.109,0,0,1-.191-1.471V420.8l1.366,3.44h2.742l1.375-3.44v3.44a6.96,6.96,0,0,1-.2,1.471,3.4,3.4,0,0,1-.491,1.271h4.8a3.229,3.229,0,0,1-.5-1.271,7.109,7.109,0,0,1-.191-1.471V421.51a1.917,1.917,0,0,1,.191-.735,1.405,1.405,0,0,1,.5-.64,1.346,1.346,0,0,1-.5-.631,1.917,1.917,0,0,1-.191-.735v-2.742A7.083,7.083,0,0,1,279.6,414.565Z" transform="translate(-154.274 -153.992)"/><path class="a" d="M288.27,416.027a5.525,5.525,0,0,1,1.347.191,3.028,3.028,0,0,1,1.137.5l1.28-3.429h-10.27a3.336,3.336,0,0,1,.5,1.28,7.152,7.152,0,0,1,.191,1.462v2.742a1.936,1.936,0,0,1-.191.735,1.352,1.352,0,0,1-.5.631,1.412,1.412,0,0,1,.5.64,1.936,1.936,0,0,1,.191.735v2.733a7.178,7.178,0,0,1-.191,1.471,3.244,3.244,0,0,1-.5,1.271h10.27l-1.28-3.42a3.15,3.15,0,0,1-1.137.487,5.574,5.574,0,0,1-1.347.191h-2.4V421.51h.688a7.155,7.155,0,0,1,1.461.192,3.372,3.372,0,0,1,1.271.487v-4.108a3.229,3.229,0,0,1-1.271.5,7.074,7.074,0,0,1-1.461.191h-.688v-2.742Z" transform="translate(-154.274 -153.992)"/><path class="a" d="M306.289,414.565a3.32,3.32,0,0,1,.5-1.28h-4.109l-2.741,6.678-2.742-6.678h-4.109a3.319,3.319,0,0,1,.5,1.28,7.212,7.212,0,0,1,.19,1.462v2.742a1.95,1.95,0,0,1-.19.735,1.347,1.347,0,0,1-.5.631,1.406,1.406,0,0,1,.5.64,1.95,1.95,0,0,1,.19.735v2.733a7.237,7.237,0,0,1-.19,1.471,3.228,3.228,0,0,1-.5,1.271h4.8a3.246,3.246,0,0,1-.5-1.271,7.109,7.109,0,0,1-.191-1.471V420.8l1.366,3.44H301.3l1.375-3.44v3.44a6.96,6.96,0,0,1-.2,1.471,3.4,3.4,0,0,1-.491,1.271h4.8a3.229,3.229,0,0,1-.5-1.271,7.109,7.109,0,0,1-.191-1.471V421.51a1.917,1.917,0,0,1,.191-.735,1.405,1.405,0,0,1,.5-.64,1.346,1.346,0,0,1-.5-.631,1.917,1.917,0,0,1-.191-.735v-2.742A7.083,7.083,0,0,1,306.289,414.565Z" transform="translate(-154.274 -153.992)"/><path class="a" d="M318.289,424.243l-.812-2.694a1.407,1.407,0,0,1-.058-.43,1.6,1.6,0,0,1,.315-1.079,1.433,1.433,0,0,1-.649-.459,1.915,1.915,0,0,1-.4-.66l-.86-2.894a6.834,6.834,0,0,1-.344-1.94,1.382,1.382,0,0,1,.2-.8h-4.109a1.4,1.4,0,0,1,.2.812,7.014,7.014,0,0,1-.335,1.93l-.869,2.894a1.931,1.931,0,0,1-.4.66,1.433,1.433,0,0,1-.649.459,1.565,1.565,0,0,1,.314,1.07,1.476,1.476,0,0,1-.057.439l-.8,2.694a11.083,11.083,0,0,1-.617,1.5,6.869,6.869,0,0,1-.73,1.247h4.824a2.5,2.5,0,0,1-.325-1.51,5.347,5.347,0,0,1,.134-1.232H315a5.544,5.544,0,0,1,.124,1.214,2.564,2.564,0,0,1-.324,1.528h4.824a6.781,6.781,0,0,1-.726-1.247A11.362,11.362,0,0,1,318.289,424.243Zm-5.341-2.733.678-2.741.688,2.741Z" transform="translate(-154.274 -153.992)"/><path class="a" d="M331.641,419.567a2.084,2.084,0,0,1-.216-.722V418.2a4.952,4.952,0,0,0-.692-2.7,4.434,4.434,0,0,0-1.858-1.648,5.908,5.908,0,0,0-2.589-.559h-5.819a3.32,3.32,0,0,1,.5,1.28,7.152,7.152,0,0,1,.191,1.462v2.742a1.936,1.936,0,0,1-.191.735,1.346,1.346,0,0,1-.5.631,1.405,1.405,0,0,1,.5.64,1.936,1.936,0,0,1,.191.735v2.733a7.178,7.178,0,0,1-.191,1.471,3.229,3.229,0,0,1-.5,1.271h5.819a5.962,5.962,0,0,0,2.589-.554,4.4,4.4,0,0,0,1.858-1.648,4.959,4.959,0,0,0,.692-2.7v-.649a2.115,2.115,0,0,1,.216-.726.583.583,0,0,0,0-1.141Zm-3.836,1.208a1.936,1.936,0,0,1,.191.735v.268a3.849,3.849,0,0,1-.191,1.247,2.018,2.018,0,0,1-.569.889,1.4,1.4,0,0,1-.95.329h-1.71v-2.751a1.927,1.927,0,0,1,.2-.741,1.452,1.452,0,0,1,.487-.616,1.387,1.387,0,0,1-.487-.607,1.927,1.927,0,0,1-.2-.74v-2.761h1.71a1.515,1.515,0,0,1,1.547,1.223,5.689,5.689,0,0,1,.163,1.519,1.936,1.936,0,0,1-.191.735,1.352,1.352,0,0,1-.5.631A1.412,1.412,0,0,1,327.805,420.775Z" transform="translate(-154.274 -153.992)"/><path class="a" d="M339.805,416.027a5.524,5.524,0,0,1,1.346.191,3.026,3.026,0,0,1,1.138.5l1.28-3.429H333.3a3.32,3.32,0,0,1,.5,1.28,7.152,7.152,0,0,1,.191,1.462v2.742a1.936,1.936,0,0,1-.191.735,1.346,1.346,0,0,1-.5.631,1.405,1.405,0,0,1,.5.64,1.936,1.936,0,0,1,.191.735v2.733a7.178,7.178,0,0,1-.191,1.471,3.229,3.229,0,0,1-.5,1.271h10.271l-1.28-3.42a3.148,3.148,0,0,1-1.138.487,5.573,5.573,0,0,1-1.346.191h-2.4V421.51h.687a7.164,7.164,0,0,1,1.462.192,3.379,3.379,0,0,1,1.271.487v-4.108a3.236,3.236,0,0,1-1.271.5,7.083,7.083,0,0,1-1.462.191h-.687v-2.742Z" transform="translate(-154.274 -153.992)"/><path class="a" d="M359.236,424.74a8.2,8.2,0,0,0-1.28-2.79,4.391,4.391,0,0,0,1.795-3.869,4.871,4.871,0,0,0-.692-2.713,4.188,4.188,0,0,0-1.853-1.572,6.361,6.361,0,0,0-2.585-.511h-5.828a3.494,3.494,0,0,1,.493,1.275,6.959,6.959,0,0,1,.195,1.467v2.742a1.9,1.9,0,0,1-.195.735,1.4,1.4,0,0,1-.493.631,1.469,1.469,0,0,1,.493.64,1.9,1.9,0,0,1,.195.735v2.733a7.048,7.048,0,0,1-.195,1.466,3.4,3.4,0,0,1-.493,1.276h4.8a3.408,3.408,0,0,1-.491-1.276,6.992,6.992,0,0,1-.2-1.466v-1.367h1.327a1.271,1.271,0,0,1,1.243.765,5.125,5.125,0,0,1,.429,2.217,1.838,1.838,0,0,1-.257,1.127h.688v-.01l4.012.01a5.284,5.284,0,0,1-.569-.96A11.728,11.728,0,0,1,359.236,424.74Zm-4.615-4.605H352.9v-4.108h1.719a1.556,1.556,0,0,1,1.319.515,2.528,2.528,0,0,1,.392,1.539Q356.322,420.136,354.621,420.135Z" transform="translate(-154.274 -153.992)"/><path class="a" d="M367.987,416.027a5.517,5.517,0,0,1,1.346.191,3.026,3.026,0,0,1,1.138.5l1.28-3.429H361.48a3.319,3.319,0,0,1,.5,1.28,7.212,7.212,0,0,1,.19,1.462v2.742a1.95,1.95,0,0,1-.19.735,1.347,1.347,0,0,1-.5.631,1.406,1.406,0,0,1,.5.64,1.95,1.95,0,0,1,.19.735v2.733a7.237,7.237,0,0,1-.19,1.471,3.228,3.228,0,0,1-.5,1.271h10.271l-1.28-3.42a3.148,3.148,0,0,1-1.138.487,5.566,5.566,0,0,1-1.346.191h-2.4V421.51h.687a7.164,7.164,0,0,1,1.462.192,3.372,3.372,0,0,1,1.271.487v-4.108a3.229,3.229,0,0,1-1.271.5,7.083,7.083,0,0,1-1.462.191h-.687v-2.742Z" transform="translate(-154.274 -153.992)"/><path class="a" d="M376.6,417.211a1.8,1.8,0,0,1,.707-.864,2.375,2.375,0,0,1,1.314-.32,5.471,5.471,0,0,1,1.352.2,3.081,3.081,0,0,1,1.132.491l1.289-3.429h-4.126a6.5,6.5,0,0,0-2.743.554,4.28,4.28,0,0,0-1.886,1.648,5.019,5.019,0,0,0-.684,2.709v.639a2.135,2.135,0,0,1-.214.727,1.335,1.335,0,0,1-.473.573,1.412,1.412,0,0,1,.5.64,1.931,1.931,0,0,1,.19.735v.573a4.984,4.984,0,0,0,.688,2.7,4.327,4.327,0,0,0,1.887,1.648,6.465,6.465,0,0,0,2.738.554H382.4l-1.289-3.42a3.051,3.051,0,0,1-1.128.487,5.574,5.574,0,0,1-1.347.191,2.367,2.367,0,0,1-1.332-.329,1.8,1.8,0,0,1-.7-.889,3.5,3.5,0,0,1-.211-1.247v-.286a2.007,2.007,0,0,1,.2-.741,1.422,1.422,0,0,1,.482-.616,1.375,1.375,0,0,1-.486-.631,1.921,1.921,0,0,1-.192-.735v-.345A3.29,3.29,0,0,1,376.6,417.211Z" transform="translate(-154.274 -153.992)"/><path class="a" d="M387.688,414.565a3.32,3.32,0,0,1,.5-1.28h-4.8a3.336,3.336,0,0,1,.5,1.28,7.152,7.152,0,0,1,.191,1.462v2.742a1.936,1.936,0,0,1-.191.735,1.352,1.352,0,0,1-.5.631,1.412,1.412,0,0,1,.5.64,1.936,1.936,0,0,1,.191.735v2.733a7.178,7.178,0,0,1-.191,1.471,3.244,3.244,0,0,1-.5,1.271h4.8a3.229,3.229,0,0,1-.5-1.271,7.178,7.178,0,0,1-.191-1.471V421.51a1.936,1.936,0,0,1,.191-.735,1.405,1.405,0,0,1,.5-.64,1.346,1.346,0,0,1-.5-.631,1.936,1.936,0,0,1-.191-.735v-2.742A7.152,7.152,0,0,1,387.688,414.565Z" transform="translate(-154.274 -153.992)"/><path class="a" d="M398.261,413.844a5.879,5.879,0,0,0-2.579-.559h-5.828a3.32,3.32,0,0,1,.5,1.28,7.152,7.152,0,0,1,.191,1.462v2.742a1.936,1.936,0,0,1-.191.735,1.346,1.346,0,0,1-.5.631,1.405,1.405,0,0,1,.5.64,1.936,1.936,0,0,1,.191.735v2.733a7.178,7.178,0,0,1-.191,1.471,3.229,3.229,0,0,1-.5,1.271h4.8a3.244,3.244,0,0,1-.5-1.271,7.178,7.178,0,0,1-.191-1.471v-.812a5.36,5.36,0,0,0,1.72.268,5.92,5.92,0,0,0,2.579-.555,4.388,4.388,0,0,0,1.859-1.647,4.959,4.959,0,0,0,.692-2.7v-.6a4.952,4.952,0,0,0-.692-2.7A4.43,4.43,0,0,0,398.261,413.844Zm-1.07,5.895a2,2,0,0,1-.568.887,1.379,1.379,0,0,1-.941.331,1.408,1.408,0,0,1-.955-.331,1.993,1.993,0,0,1-.574-.887,3.849,3.849,0,0,1-.191-1.247v-2.465h1.72a1.437,1.437,0,0,1,.989.334,1.884,1.884,0,0,1,.544.893,4.3,4.3,0,0,1,.167,1.238A3.822,3.822,0,0,1,397.191,419.739Z" transform="translate(-154.274 -153.992)"/><path class="a" d="M408.463,416.027a5.531,5.531,0,0,1,1.347.191,3.028,3.028,0,0,1,1.137.5l1.28-3.429h-10.27a3.336,3.336,0,0,1,.5,1.28,7.152,7.152,0,0,1,.191,1.462v2.742a1.936,1.936,0,0,1-.191.735,1.352,1.352,0,0,1-.5.631,1.412,1.412,0,0,1,.5.64,1.936,1.936,0,0,1,.191.735v2.733a7.178,7.178,0,0,1-.191,1.471,3.244,3.244,0,0,1-.5,1.271h10.27l-1.28-3.42a3.15,3.15,0,0,1-1.137.487,5.581,5.581,0,0,1-1.347.191h-2.4V421.51h.687a7.164,7.164,0,0,1,1.462.192,3.372,3.372,0,0,1,1.271.487v-4.108a3.229,3.229,0,0,1-1.271.5,7.083,7.083,0,0,1-1.462.191h-.687v-2.742Z" transform="translate(-154.274 -153.992)"/><path class="a" d="M246.071,400.39a5.94,5.94,0,0,1-1.476.139H243.31a6.015,6.015,0,0,1-1.445-.206,3.359,3.359,0,0,1-1.229-.525q-.566,1.553-.782,2.109t-.6,1.573H244.6a9.22,9.22,0,0,0,3.049-.452,4.348,4.348,0,0,0,2-1.321,3.258,3.258,0,0,0,.7-2.114,3.589,3.589,0,0,0-.38-1.759,3.831,3.831,0,0,0-1.069-1.192q-.546-.4-1.955-1.245a2.218,2.218,0,0,1-.6-.6,1.326,1.326,0,0,1-.3-.761,1.446,1.446,0,0,1-.617.124,2.359,2.359,0,0,1-.689-.082,5.747,5.747,0,0,1-1.152-.638q-.648-.443-.648-.905a.681.681,0,0,1,.4-.654,3.406,3.406,0,0,1,1.389-.2h1.285a5.828,5.828,0,0,1,1.45.211,3.431,3.431,0,0,1,1.223.529l1.378-3.691h-5.336a8.561,8.561,0,0,0-2.771.422,4.4,4.4,0,0,0-1.97,1.269,3.157,3.157,0,0,0-.73,2.134,3.79,3.79,0,0,0,.381,1.764,4.238,4.238,0,0,0,.986,1.264,7.443,7.443,0,0,0,1.317.921l.833.484a2.4,2.4,0,0,1,.54.591,1.29,1.29,0,0,1,.262.714,1.386,1.386,0,0,1,.627-.133,2.293,2.293,0,0,1,.936.185q.371.205.694.427a2.833,2.833,0,0,1,.535.462.781.781,0,0,1,.211.519A.611.611,0,0,1,246.071,400.39Z" transform="translate(-154.274 -153.992)"/><path class="a" d="M257.483,403.48a6.374,6.374,0,0,0,2.776-.6,4.712,4.712,0,0,0,2-1.773,5.329,5.329,0,0,0,.746-2.905v-.7a2.294,2.294,0,0,1,.231-.781.625.625,0,0,0,0-1.229,2.256,2.256,0,0,1-.231-.777v-.7a5.323,5.323,0,0,0-.746-2.91,4.775,4.775,0,0,0-2-1.774,6.76,6.76,0,0,0-5.573,0,4.744,4.744,0,0,0-2,1.774,5.348,5.348,0,0,0-.74,2.91v.617a2.078,2.078,0,0,1-.206.792,1.453,1.453,0,0,1-.535.679,1.523,1.523,0,0,1,.535.688,2.086,2.086,0,0,1,.206.792v.618a5.354,5.354,0,0,0,.74,2.905,4.682,4.682,0,0,0,2,1.773A6.427,6.427,0,0,0,257.483,403.48Zm-1.851-5.913a2.086,2.086,0,0,1,.216-.8,1.559,1.559,0,0,1,.524-.663,1.49,1.49,0,0,1-.524-.653,2.082,2.082,0,0,1-.216-.8,5.875,5.875,0,0,1,.185-1.656,1.706,1.706,0,0,1,3.321,0,6.1,6.1,0,0,1,.175,1.635,2.059,2.059,0,0,1-.206.792,1.475,1.475,0,0,1-.524.679,1.548,1.548,0,0,1,.524.688,2.068,2.068,0,0,1,.206.792v.288a4.1,4.1,0,0,1-.206,1.342,2.164,2.164,0,0,1-.611.957,1.484,1.484,0,0,1-1.013.355,1.514,1.514,0,0,1-1.028-.355,2.149,2.149,0,0,1-.618-.957,4.123,4.123,0,0,1-.2-1.342Z" transform="translate(-154.274 -153.992)"/><path class="a" d="M268.208,402.883a6.8,6.8,0,0,0,5.574,0,4.712,4.712,0,0,0,2-1.773,5.329,5.329,0,0,0,.746-2.905v-.7a2.272,2.272,0,0,1,.231-.781.628.628,0,0,0,0-1.229,2.234,2.234,0,0,1-.231-.777v-3.033a7.673,7.673,0,0,1,.2-1.573,3.608,3.608,0,0,1,.535-1.378h-5.162a3.726,3.726,0,0,1,.524,1.378,7.615,7.615,0,0,1,.206,1.573v2.951a2.059,2.059,0,0,1-.206.792,1.445,1.445,0,0,1-.534.679,1.515,1.515,0,0,1,.534.688,2.068,2.068,0,0,1,.206.792v.288a4.1,4.1,0,0,1-.206,1.342,2.173,2.173,0,0,1-.611.957,1.644,1.644,0,0,1-2.041,0,2.149,2.149,0,0,1-.618-.957,4.123,4.123,0,0,1-.205-1.342v-.308a2.086,2.086,0,0,1,.216-.8,1.559,1.559,0,0,1,.524-.663,1.489,1.489,0,0,1-.524-.658,2.111,2.111,0,0,1-.216-.792v-2.972a7.673,7.673,0,0,1,.205-1.573,3.608,3.608,0,0,1,.535-1.378h-5.162a3.608,3.608,0,0,1,.535,1.378,7.673,7.673,0,0,1,.205,1.573v2.951a2.073,2.073,0,0,1-.205.792,1.453,1.453,0,0,1-.535.679,1.523,1.523,0,0,1,.535.688,2.082,2.082,0,0,1,.205.792v.618a5.354,5.354,0,0,0,.741,2.905A4.685,4.685,0,0,0,268.208,402.883Z" transform="translate(-154.274 -153.992)"/><path class="a" d="M282.869,391.685v2.951a2.078,2.078,0,0,1-.206.792,1.44,1.44,0,0,1-.535.679,1.51,1.51,0,0,1,.535.688,2.086,2.086,0,0,1,.206.792v2.942a7.719,7.719,0,0,1-.206,1.584,3.473,3.473,0,0,1-.535,1.367h5.163a3.473,3.473,0,0,1-.535-1.367,7.719,7.719,0,0,1-.206-1.584v-2.942a2.086,2.086,0,0,1,.206-.792,1.51,1.51,0,0,1,.535-.688,1.44,1.44,0,0,1-.535-.679,2.078,2.078,0,0,1-.206-.792v-2.951h.741a5.965,5.965,0,0,1,1.444.206,3.165,3.165,0,0,1,1.219.534l1.388-3.691H278.077l1.378,3.691a3.265,3.265,0,0,1,1.224-.534,5.936,5.936,0,0,1,1.449-.206Z" transform="translate(-154.274 -153.992)"/><path class="a" d="M292.768,402.113a3.473,3.473,0,0,1-.535,1.367H297.4a3.473,3.473,0,0,1-.535-1.367,7.719,7.719,0,0,1-.206-1.584v-2.942h3.681v2.942a7.866,7.866,0,0,1-.2,1.584,3.434,3.434,0,0,1-.53,1.367h5.163a3.473,3.473,0,0,1-.535-1.367,7.719,7.719,0,0,1-.206-1.584v-2.942a2.086,2.086,0,0,1,.206-.792,1.51,1.51,0,0,1,.535-.688,1.44,1.44,0,0,1-.535-.679,2.078,2.078,0,0,1-.206-.792v-2.951a7.685,7.685,0,0,1,.206-1.573,3.576,3.576,0,0,1,.535-1.378h-5.163a3.535,3.535,0,0,1,.53,1.378,7.83,7.83,0,0,1,.2,1.573v2.951h-3.681v-2.951a7.685,7.685,0,0,1,.206-1.573,3.576,3.576,0,0,1,.535-1.378h-5.163a3.576,3.576,0,0,1,.535,1.378,7.685,7.685,0,0,1,.206,1.573v2.951a2.078,2.078,0,0,1-.206.792,1.44,1.44,0,0,1-.535.679,1.51,1.51,0,0,1,.535.688,2.086,2.086,0,0,1,.206.792v2.942A7.719,7.719,0,0,1,292.768,402.113Z" transform="translate(-154.274 -153.992)"/><path class="a" d="M307.09,402.113a3.489,3.489,0,0,1-.535,1.367H317.61l-1.379-3.682a3.347,3.347,0,0,1-1.223.525,5.993,5.993,0,0,1-1.45.206h-2.581v-2.942h.74a7.764,7.764,0,0,1,1.574.206,3.6,3.6,0,0,1,1.367.525V393.9a3.489,3.489,0,0,1-1.367.535,7.682,7.682,0,0,1-1.574.205h-.74v-2.951h2.581a5.944,5.944,0,0,1,1.45.206,3.259,3.259,0,0,1,1.223.534l1.379-3.691H306.555a3.592,3.592,0,0,1,.535,1.378,7.673,7.673,0,0,1,.205,1.573v2.951a2.073,2.073,0,0,1-.205.792,1.446,1.446,0,0,1-.535.679,1.516,1.516,0,0,1,.535.688,2.082,2.082,0,0,1,.205.792v2.942A7.708,7.708,0,0,1,307.09,402.113Z" transform="translate(-154.274 -153.992)"/><path class="a" d="M319.262,402.107a3.641,3.641,0,0,1-.53,1.373H323.9a3.641,3.641,0,0,1-.53-1.373,7.6,7.6,0,0,1-.211-1.578v-1.471h1.429a1.367,1.367,0,0,1,1.337.822,5.5,5.5,0,0,1,.463,2.386,1.968,1.968,0,0,1-.278,1.214h.741v-.011l4.319.011a5.638,5.638,0,0,1-.612-1.033,12.372,12.372,0,0,1-.581-1.384,8.841,8.841,0,0,0-1.378-3,4.726,4.726,0,0,0,1.933-4.165,5.245,5.245,0,0,0-.745-2.92,4.5,4.5,0,0,0-2-1.692,6.829,6.829,0,0,0-2.782-.55h-6.273a3.743,3.743,0,0,1,.53,1.373,7.485,7.485,0,0,1,.211,1.578v2.951a2.044,2.044,0,0,1-.211.792,1.5,1.5,0,0,1-.53.679,1.571,1.571,0,0,1,.53.688,2.052,2.052,0,0,1,.211.792v2.942A7.6,7.6,0,0,1,319.262,402.107Zm3.892-10.422h1.851a1.671,1.671,0,0,1,1.419.556,2.715,2.715,0,0,1,.422,1.655q-.01,2.211-1.841,2.211h-1.851Z" transform="translate(-154.274 -153.992)"/><path class="a" d="M344.382,390.112a3.608,3.608,0,0,1,.535-1.378h-5.162a3.726,3.726,0,0,1,.524,1.378,7.615,7.615,0,0,1,.206,1.573v4.422l-3.681-7.373h-4.422a3.608,3.608,0,0,1,.535,1.378,7.673,7.673,0,0,1,.205,1.573v2.951a2.073,2.073,0,0,1-.205.792,1.453,1.453,0,0,1-.535.679,1.523,1.523,0,0,1,.535.688,2.082,2.082,0,0,1,.205.792v2.942a7.708,7.708,0,0,1-.205,1.584,3.5,3.5,0,0,1-.535,1.367h5.162a3.489,3.489,0,0,1-.535-1.367,7.708,7.708,0,0,1-.205-1.584v-4.422l3.681,7.373h4.432a3.5,3.5,0,0,1-.535-1.367,7.708,7.708,0,0,1-.2-1.584v-2.942a2.082,2.082,0,0,1,.2-.792,1.523,1.523,0,0,1,.535-.688,1.453,1.453,0,0,1-.535-.679,2.073,2.073,0,0,1-.2-.792v-2.951A7.673,7.673,0,0,1,344.382,390.112Z" transform="translate(-154.274 -153.992)"/><path class="a" d="M361.493,397.834a3.831,3.831,0,0,0-1.069-1.192q-.546-.4-1.954-1.245a2.19,2.19,0,0,1-.6-.6,1.321,1.321,0,0,1-.3-.761,1.446,1.446,0,0,1-.617.124,2.359,2.359,0,0,1-.689-.082,5.717,5.717,0,0,1-1.151-.638q-.648-.443-.648-.905a.681.681,0,0,1,.4-.654,3.4,3.4,0,0,1,1.388-.2h1.285a5.822,5.822,0,0,1,1.45.211,3.437,3.437,0,0,1,1.224.529l1.378-3.691h-5.337a8.561,8.561,0,0,0-2.771.422,4.4,4.4,0,0,0-1.969,1.269,3.157,3.157,0,0,0-.731,2.134,3.79,3.79,0,0,0,.381,1.764,4.225,4.225,0,0,0,.987,1.264,7.436,7.436,0,0,0,1.316.921l.833.484a2.4,2.4,0,0,1,.54.591,1.29,1.29,0,0,1,.262.714,1.389,1.389,0,0,1,.627-.133,2.293,2.293,0,0,1,.936.185q.37.205.694.427a2.833,2.833,0,0,1,.535.462.776.776,0,0,1,.211.519.611.611,0,0,1-.509.633,5.929,5.929,0,0,1-1.476.139H354.84a6.015,6.015,0,0,1-1.445-.206,3.359,3.359,0,0,1-1.229-.525q-.565,1.553-.781,2.109t-.6,1.573h5.337a9.22,9.22,0,0,0,3.049-.452,4.337,4.337,0,0,0,2-1.321,3.253,3.253,0,0,0,.705-2.114A3.577,3.577,0,0,0,361.493,397.834Z" transform="translate(-154.274 -153.992)"/><path class="a" d="M371.767,391.685a5.958,5.958,0,0,1,1.444.206,3.165,3.165,0,0,1,1.219.534l1.388-3.691H362.553l1.378,3.691a3.265,3.265,0,0,1,1.224-.534,5.936,5.936,0,0,1,1.449-.206h.741v2.951a2.078,2.078,0,0,1-.206.792,1.44,1.44,0,0,1-.535.679,1.51,1.51,0,0,1,.535.688,2.086,2.086,0,0,1,.206.792v2.942a7.719,7.719,0,0,1-.206,1.584,3.473,3.473,0,0,1-.535,1.367h5.163a3.473,3.473,0,0,1-.535-1.367,7.719,7.719,0,0,1-.206-1.584v-2.942a2.086,2.086,0,0,1,.206-.792,1.51,1.51,0,0,1,.535-.688,1.44,1.44,0,0,1-.535-.679,2.078,2.078,0,0,1-.206-.792v-2.951Z" transform="translate(-154.274 -153.992)"/><path class="a" d="M384.769,389.248a6.351,6.351,0,0,1-.72,2.437l-.9,2.025-.895-2.025a6.333,6.333,0,0,1-.72-2.437.818.818,0,0,1,.144-.514h-5.162q.381.432,1.111,1.362a11.415,11.415,0,0,1,1.079,1.589l1.9,3.877a2.088,2.088,0,0,1,.216.9.617.617,0,0,1-.247.566,1.587,1.587,0,0,1,.53.683,2.018,2.018,0,0,1,.21.8v2.016a7.589,7.589,0,0,1-.21,1.578,3.675,3.675,0,0,1-.53,1.373h5.162a3.49,3.49,0,0,1-.535-1.373,7.74,7.74,0,0,1-.2-1.578v-2.016a2.052,2.052,0,0,1,.2-.8,1.517,1.517,0,0,1,.535-.683.605.605,0,0,1-.257-.566,1.965,1.965,0,0,1,.226-.9l1.892-3.877a11.347,11.347,0,0,1,1.08-1.589q.731-.93,1.111-1.362h-5.162A.824.824,0,0,1,384.769,389.248Z" transform="translate(-154.274 -153.992)"/><path class="a" d="M399.134,400.323a5.985,5.985,0,0,1-1.449.206H395.1v-2.942a2.082,2.082,0,0,1,.205-.792,1.516,1.516,0,0,1,.535-.688,1.446,1.446,0,0,1-.535-.679,2.073,2.073,0,0,1-.205-.792v-2.951a7.673,7.673,0,0,1,.205-1.573,3.592,3.592,0,0,1,.535-1.378h-5.162a3.585,3.585,0,0,1,.534,1.373,7.567,7.567,0,0,1,.206,1.578v2.951a2.059,2.059,0,0,1-.206.792,1.445,1.445,0,0,1-.534.679,1.515,1.515,0,0,1,.534.688,2.068,2.068,0,0,1,.206.792v2.952a7.583,7.583,0,0,1-.206,1.579,3.481,3.481,0,0,1-.534,1.362h11.054l-1.378-3.682A3.353,3.353,0,0,1,399.134,400.323Z" transform="translate(-154.274 -153.992)"/><path class="a" d="M409.634,391.685a5.93,5.93,0,0,1,1.449.206,3.265,3.265,0,0,1,1.224.534l1.379-3.691H402.631a3.608,3.608,0,0,1,.535,1.378,7.673,7.673,0,0,1,.2,1.573v2.951a2.073,2.073,0,0,1-.2.792,1.453,1.453,0,0,1-.535.679,1.523,1.523,0,0,1,.535.688,2.082,2.082,0,0,1,.2.792v2.942a7.708,7.708,0,0,1-.2,1.584,3.5,3.5,0,0,1-.535,1.367h11.055l-1.379-3.682a3.353,3.353,0,0,1-1.224.525,5.979,5.979,0,0,1-1.449.206h-2.581v-2.942h.74a7.755,7.755,0,0,1,1.573.206,3.6,3.6,0,0,1,1.368.525V393.9a3.488,3.488,0,0,1-1.368.535,7.673,7.673,0,0,1-1.573.205h-.74v-2.951Z" transform="translate(-154.274 -153.992)"/></svg>