<?xml version="1.0" encoding="utf-8"?>
<!-- Generator: Adobe Illustrator 25.0.0, SVG Export Plug-In . SVG Version: 6.00 Build 0)  -->
<svg version="1.1" id="Layer_1" xmlns="http://www.w3.org/2000/svg" xmlns:xlink="http://www.w3.org/1999/xlink" x="0px" y="0px"
	 viewBox="0 0 525.1 365.8" style="enable-background:new 0 0 525.1 365.8;" xml:space="preserve">
<style type="text/css">
	.st0{fill:#000;}
</style>
<path class="st0" d="M510,286c-0.6-0.1-1.2-0.3-1.8-0.5c0-0.1,0.2-0.3,0.5-0.6c0.5-0.4,1.1-0.5,1.7-0.4c0,0.3,0.2,0.5,0.4,0.7
	C511,285.4,510.8,285.7,510,286z M88.5,356.7c-0.5,0.1-0.9,0.6-1,1.1c0.5,0.3,1.2,0.3,1.7,0.1c0.6-0.3,1.2-0.7,1.6-1.3
	C90,356.5,89.3,356.5,88.5,356.7L88.5,356.7z M90.8,356.3l0.6,0.4l1.4-0.5l-0.6-0.4L90.8,356.3z M232.9,328.5c1.1-0.1,2-0.6,2.7-1.5
	c-1.9,0-3.9,0.4-5.6,1.4C231,328.5,232,328.5,232.9,328.5L232.9,328.5z M32.8,218c0.2-0.2,0.1-0.5-0.3-0.8c-0.4,0.3-0.6,0.9-0.4,1.4
	C32.4,218.5,32.6,218.3,32.8,218z M122,180.2c0,0.4,0.1,0.8,0.3,1.1c0.1-0.1,0.3-0.4,0.6-0.7c0.3-0.3,0.4-0.6,0.4-1l0-0.3
	C122.4,179.1,121.9,179.4,122,180.2z M123.3,179.2l0-0.2L123.3,179.2z M186.6,185.6c-0.6,0.7-0.9,1.6-0.7,2.5c0.8-0.8,2.1-2,3.9-3.7
	c-0.5,0.2-1,0.3-1.5,0.4C187.6,185,187,185.2,186.6,185.6z M177.9,198.7c-0.9,1.2-1.4,2.8-1.4,4.3c1.3-0.9,2.3-2.1,2.9-3.5
	c0.5-1.2,1.1-2.3,1.8-3.4C179.8,196.5,178.7,197.4,177.9,198.7L177.9,198.7z M240,258.4c0-0.2-0.1-0.4-0.2-0.5l-0.1,0.4L240,258.4z
	 M240.5,258.3c0.3-0.1,0.5-0.4,0.5-0.6c0.1-0.1,0.1-0.3-0.1-0.6s-0.3-0.4-0.4-0.4c-0.4-0.1-0.7,0-0.7,0.4c-0.1,0.2-0.1,0.4-0.1,0.7
	l0.2,0l0,0.1c0,0.1,0,0.1-0.2,0.1C240,258.3,240.3,258.4,240.5,258.3L240.5,258.3z M303.5,162.9c0,0.4,0.1,0.8,0.3,1.1
	c0.1-0.1,0.3-0.4,0.6-0.7c0.3-0.3,0.4-0.6,0.4-1l0-0.3C303.8,161.7,303.4,162.1,303.5,162.9L303.5,162.9z M304.7,161.9l0-0.2
	L304.7,161.9z M417.6,207.8c-0.8,0.3-1.2,0.7-1.2,1.1l0.2,0.5c0.2-0.1,0.4-0.2,0.6-0.4C417.5,208.7,417.7,208.2,417.6,207.8
	L417.6,207.8z M416.8,211.1c-0.1-0.4-0.2-0.7-0.4-1c-0.6,0.7-0.9,1.6-0.8,2.6l0.1,1.2c0.2-0.4,0.4-0.8,0.7-1.1
	C416.7,212.3,416.8,211.7,416.8,211.1L416.8,211.1z M415.6,214.9c0.1-0.3,0.1-0.7,0.1-1C415.5,214.2,415.5,214.6,415.6,214.9
	L415.6,214.9z M415.1,207.6c-0.3-0.1-0.7-0.1-1,0.1c-0.2,0.1-0.3,0.5-0.3,1c0.2,0.7,0.6,1,1.1,0.9l0.8-0.3c-0.2-0.2-0.3-0.5-0.1-1
	c0.2-0.4,0.3-0.8,0.2-1.2c0-0.3-0.3-0.5-0.7-0.6l0-0.2C415,206.8,415,207.2,415.1,207.6L415.1,207.6z M456.1,153.4
	c-0.2,0-0.4,0.1-0.4,0.2c0,0.1,0,0.3,0.1,0.3c-0.1-0.1-0.1-0.2-0.1-0.3c0,0,0,0,0,0C455.9,153.5,456,153.5,456.1,153.4L456.1,153.4z
	 M456.6,152.9c-0.3,0-0.5,0.2-0.5,0.4c0,0,0,0.1,0,0.1c0.1,0,0.2-0.1,0.3-0.1C456.6,153.2,456.6,153.1,456.6,152.9L456.6,152.9z
	 M457.1,152.7c-0.2-0.2-0.4-0.1-0.5,0.2l0.4,0.1L457.1,152.7z M455.7,154c-0.2-0.2-0.5-0.2-0.9,0.1L455.7,154z M457.6,152.2
	c0,0.1,0,0.2,0.1,0.2l0.1,0c0.2,0,0.4-0.1,0.5-0.2l-0.5-0.1L457.6,152.2z M471.8,229.4c-0.1,0.1-0.1,0.2-0.1,0.4c0,0.1,0,0.1,0,0.2
	c0.3,0.2,0.4,0.1,0.4-0.4c0.1,0,0.1,0,0-0.1L471.8,229.4z M525,170.7c-0.1,3.1-0.5,6.2-1.1,9.3c-0.8,3.3-1.8,6.5-3.1,9.6
	c-1,3-2.2,5.9-3.7,8.7c-1.3,3.6-2.9,7.1-4.8,10.4c-0.3,0.5-0.8,1.3-1.4,2.5c-0.6,1.1-1.4,2.2-2.2,3.2l-2.7,4.5
	c-1.2,2-2.2,3.5-2.9,4.5c-3,3.7-5.4,6.4-7.1,8.1c-1.9,1.9-3.9,3.7-6,5.3l-2.6,2.7c-1.1,1.4-2.4,2.7-3.7,3.9
	c-1.3,0.8-2.4,1.7-3.4,2.8l-0.3,0c-0.9,0.1-1.8,0.6-2.4,1.3c-0.7,0.8-1.2,1.3-1.4,1.5c-0.8,0.6-1.6,1.1-2.6,1.5
	c-0.9,0.4-1.7,0.8-2.6,1.3c-0.2,0.1-1.1,0.5-2.5,1.2c-1.3,0.6-2.6,1.4-3.6,2.4c-0.7,0.7-1.7,1.2-2.7,1.3c-1.3,0-2.6,0.2-3.9,0.5
	c-1.5,0.3-2.5,0.5-3,0.5c-1.9,0.5-3.9,0.9-5.8,1.1c-1.6,0.1-3.1,0-4.6-0.4c-1.4-0.4-2.6-1.2-3.6-2.1c-0.1,0-0.3,0.2-0.5,0.5
	s-0.4,0.5-0.7,0.4c-1.1-0.2-2.2-0.6-3.1-1.3c-0.6-0.4-1-1-1.4-1.6c-0.7-1.7-1.7-3.3-3.1-4.6c-1.4-1.5-2.4-2.5-3-3.1
	c-1.1-0.7-1.7-1.9-1.5-3.2c-0.3-0.7-0.1-1.4,0.3-1.9c0.2-0.2,0.4-0.2,0.7-0.2c0.7,0,1.3,0.4,1.7,0.9c0.4,0.5,1.1,0.8,1.8,0.7
	c0.2-4.6,0.7-9.3,1.7-13.8c0.2,0.2,0.5,0.2,0.8,0.1c0.2-0.1,0.4-0.3,0.4-0.6c0-1.9,0-3.4,0-4.5c0-0.9,0-1.8,0.1-2.8
	c0.3,0,0.6,0,0.9,0.1c0.4,0.1,0.6,0.1,0.7-0.1c0.1-0.3,0.2-0.6,0.1-1c0.1-0.6,0.2-1.3,0.3-2.1c0.1-0.7,0.2-1.4,0.1-2.2
	c0.1,0.1,0.2,0.3,0.2,0.5c0.2-0.2,0.3-0.4,0.4-0.4l-0.4-0.1l-0.2,0l-0.1-0.7c0.3,0,0.5,0.1,0.7,0.2c0.2,0.1,0.5,0.2,0.7,0
	c0.4-0.4,0.7-0.8,0.8-1.4c0.1-0.4,0.2-0.8,0.3-1.1c0.2-0.3,0.3-0.6,0.2-0.9c-0.1-0.2-0.1-0.5-0.2-0.7l-0.1-0.7
	c-0.2-1.3,0.3-2.6,1.3-3.5c0.4-0.2,0.7-0.4,0.6-0.7s0-0.5-0.1-0.6c0.1-1.6,0.5-3.1,1.3-4.4c0.2-0.1,0.5-0.2,0.7-0.3
	c0.3-0.2,0.6-0.2,0.9,0l0,0.4c0,0.2-0.1,0.4-0.5,0.6c-0.3,0.1-0.6,0.3-0.8,0.6c0.2,0.3,0.4,0.7,0.5,1.2c0,0.7-0.3,1.4-0.7,2
	c-0.4,0.9-0.7,2-0.7,3c0,0.2-0.1,0.3-0.5,0.2s-0.6,0.1-0.6,0.5c-0.1,0.2,0,0.5,0.2,0.6c0,0,0,0,0,0c0.2,0.1,0.4,0.3,0.4,0.4
	c-0.3,1-0.6,2-1,3c-0.5,1.3-0.9,2.3-1.3,3.1c0.1,0.5,0.5,0.9,1,1.1l0.5-0.2c0.2-1.3,0.6-2.5,1-3.8c0.5-1.6,0.9-2.9,1.1-3.8
	c0.1-0.6,0.3-1.2,0.7-1.7c0.2-0.2,0.6-0.2,1.1,0.2c-0.2-0.4-0.3-0.9-0.3-1.3c-0.1-1,0.1-2,0.6-2.9c0.1-0.2,0.2-0.5,0.4-0.8
	c0.1-0.2,0.2-0.5,0.2-0.8c0.2-2.5,1-4.8,2.5-6.8c0.2-0.3,0.2-0.6,0.3-1c0-0.4,0.2-0.8,0.4-1.2c-0.1-0.3-0.4-0.6-0.7-0.8
	c-0.3-0.2-0.5-0.4-0.7-0.7l0-0.2c0-0.3,0.1-0.5,0.2-0.8c0.1-0.2,0.2-0.5,0.1-0.8c-0.1-0.2-0.4-0.4-0.8-0.5c0.8-1.1,1.4-2.4,1.7-3.7
	c0.3-1.6,1.1-3,2.3-4.1l0.1,0.6c0.2,1.8-0.3,3.5-1.2,5c0,0.3,0.2,0.5,0.5,0.5c0,0,0,0,0,0c0.3,0,0.5,0.2,0.5,0.4
	c0-0.9,0.2-1.8,0.7-2.6c0.5-0.9,0.9-1.6,1.1-2c0.1-1.6,0.7-2.4,1.9-2.7c0.1,0,0.2-0.1,0.2-0.1c0,0,0,0,0,0c0-0.1,0-0.3,0.1-0.4
	c1-3,2.3-5.9,3.7-8.8c-0.1-0.4,0-0.8,0.1-1.2c-2.7,2.1-5.2,4.3-7.6,6.6l-3.6,4c-2.1,2.5-3.7,4.4-4.9,5.6c-0.5,1-1.1,1.4-1.9,1.2
	l0-0.3c-0.4,0.4-0.9,0.5-1.4,0.4c-0.3-0.1-0.6-0.1-0.9-0.2c-0.3,0.1-0.6,0.6-0.7,1.3c0.4-0.3,0.6,0,0.6,0.8l0,0.3
	c0.1,0.9-0.5,1.3-1.8,1.3c-0.3,0-0.6,0.2-0.8,0.4c-0.2,0.2-0.2,0.4,0,0.3c0.5,0.3,0.7,0.6,0.8,0.8s-0.1,0.4-0.4,0.6
	c-0.3,0.2-0.5,0.4-0.6,0.7c-0.4,0.7-0.9,1.6-1.5,2.8c-0.5,0.9-0.9,1.9-1.2,2.9c-0.1,0.8-0.6,1.5-1.2,2c-0.6,0.4-1.1,0.9-1.6,1.5
	c-1,0.1-1.6-0.1-1.9-0.5c-0.7-0.5-2-1.3-3.8-2.3c-1.5-0.8-2.9-1.8-4.2-2.8l0.1,0.7c0.1,0.9-0.2,1.7-0.9,2.2
	c-0.5-0.5-1.2-0.7-1.8-0.6c-0.6,0-1.3,0-1.9-0.1c0.4,0.5,0.8,1.1,1,1.7c0.3,0.8,1,1.5,1.8,1.7c-0.2,0.2-0.3,0.5-0.4,0.7
	c-0.1,0.3-0.4,0.5-0.7,0.4c0,0,0,0,0,0c-0.4,0-0.7-0.2-1-0.5c-0.2-0.3-0.5-0.6-0.8-0.8c0,0.4,0,0.8-0.1,1.3
	c-0.1,0.4-0.2,0.7-0.2,1.1c-0.2-0.2-0.3-0.4-0.3-0.7c0-0.3-0.2-0.5-0.5-0.6c-0.7,0.1-1,0.3-0.9,0.6c0.1,0.2,0.1,0.4,0.1,0.7
	c0,1.3-0.1,2.6-0.4,3.9c-0.4,1.3-0.6,2.7-0.5,4.1c0.1,0.8,0.4,1.7,0.7,2.4l0,0.3c0,0.4-0.1,0.7-0.2,1.1c-0.2,0.3-0.4,0.6-0.8,0.8
	c-0.5,0.4-0.9,0.9-1.1,1.5c-0.2,0.6-0.3,1.2-0.4,1.8c-0.1,0.4-0.1,0.8-0.1,1.2c0.1,0,0.4-0.3,0.7-0.8c0.2-0.4,0.7-0.6,1.1-0.4
	c0.1,0,0.2,0.1,0.2,0.2c-0.2,0.8-0.5,1.5-1,2.1c-0.5,0.6-0.9,1.4-1,2.2c-0.4,0-0.8-0.3-1.1-0.6c-0.3-0.4-0.8-0.6-1.2-0.4
	c-0.2,0.6-0.6,1.9-1.2,3.9c-0.6,1.8-1,3.6-1.1,5.5c0,1.7-0.3,3.4-1,5c-0.4,1.6-0.6,3.2-0.7,4.8l0,0.3c0.1,0.7,0.3,1.3,0.6,1.9
	c0.3,0.7,0.6,1.4,0.8,2.1c-0.3,0.2-0.7,0.3-1,0.3c-0.2-0.1-0.5,0-0.6,0.4c-0.6,0.3-1.2,0.6-1.7,1c-0.2,0.1-0.5,0-0.7-0.1
	c-6.3,0.5-12.7,0.2-18.9-1c-1.6-0.3-3-1.2-4-2.5c-1.2-1.6-2.2-3.4-3.1-5.2c-1.8-4.3-3.1-8.8-3.9-13.4l-1.2-5.3
	c-0.8-2.3-1.3-4.7-1.6-7.1c-0.2-2.1-0.6-4.1-1.1-6.1c-0.5-2.8-0.8-4.7-0.9-5.9c-0.1-1.5-0.1-2.9,0.1-4.4l0-0.3
	c-0.1-1.3-1.2-2.2-3.3-2.7c-0.1-0.2-0.1-0.7,0.2-1.3c0.3-0.5,0.1-1.2-0.4-1.5c-0.6,1-1,2.1-1.1,3.3c0.1,0.5,0.3,1,0.6,1.4
	c0.5,0.9,0.4,1.4-0.4,1.6l-0.3,0.2c-0.1,0-0.2-0.1-0.4-0.5c-0.1-0.3-0.3-0.6-0.4-0.8c-0.3,0.9-0.5,2.2-0.8,3.8
	c-0.2,1.3-0.6,2.5-1.3,3.6c-1.3,1.4-1.8,3.3-1.5,5.2c0.4,1.1,0.4,2.4,0.1,3.5c-0.5,1.4-1.1,2.8-1.7,4.2c-0.4,0.7-0.8,1.4-1.1,2.2
	c-0.3,0.9-0.6,1.5-0.8,1.8c-0.4,0.6-0.6,1.3-0.5,2c0.1,0.9,0.4,1.7,0.8,2.5c0.2-0.6,0.6-1,1.1-1.4c0.4-0.3,0.7-0.6,1-1
	c0.4,0.4,0.8,0.9,1.1,1.4c0.5,0.7,1,1,1.5,0.8l0,0.5c0,0.4-0.1,0.9-0.3,1.2c-0.3,0.4-0.4,0.6-0.5,0.7c-0.1-0.8-0.4-1.3-0.8-1.5
	c-0.7,0.9-1,2-0.7,3.1l0.3,0.8c0.1,0.7-0.5,0.9-1.6,0.7c-0.1-0.2-0.3-0.4-0.6-0.5c-0.2-0.1-0.5-0.1-0.7,0.1
	c-0.3,0.1-0.5,0.4-0.4,0.7c0,0,0,0,0,0c0.1,0.4,0.3,0.7,0.5,1c-0.1,0.8-0.4,1.5-0.7,2.3c-0.3,0.6-0.5,1.3-0.7,1.9
	c-0.8,2-1.3,4-1.5,6.1c-0.2,2.4-0.4,4-0.6,4.8c-0.7,6.2-1,12.3-0.9,18.5c0.7,0.5,1.5,0.7,2.3,0.7c0.8,0,1.4-0.1,1.6-0.1
	c-0.3,0.6-0.6,1.4-1,2.3c-0.3,0.8-0.7,1.5-1.2,2.1c-0.4,0.5-1,0.7-1.7,0.7c-0.7,0.1-1.8,0.2-3.3,0.3c-1.4,0.2-2.8,0.1-4.1-0.3
	c-1.2-0.4-2.3-1.1-3-2.2c-2.4-2.5-3.8-5.8-3.9-9.3c-0.4-6.1-0.4-12.2,0.1-18.2c-0.2,0.4-0.5,0.7-0.9,1c-1,0.7-1.8,1.8-2.1,3
	c-0.2,0.9-0.5,1.7-0.9,2.5c0.2-0.4,0.5-0.4,0.9-0.1c0.2,0.2,0.3,0.4,0,0.5l-0.3,0.2c-0.4,0.4-0.7,0.2-0.8-0.4
	c-0.3-0.1-0.7-0.1-1-0.1c-0.5,0.1-0.9,0.4-1.2,0.7c-0.4,0.4-0.8,0.7-1.3,0.9c0.3,0.2,0.7,0.3,1.1,0.3c0.4-0.1,0.8-0.3,1.1-0.7
	c0.3-0.4,0.7-0.5,1.2-0.5c-0.2,1.5-0.8,2.9-1.8,4.1c-1,0.9-2.3,1.4-3.6,1.4l-0.5,0c-1.1,0.2-2.1,0.8-2.8,1.6c-1,1.2-2.6,1.7-4.1,1.4
	c-0.5,1.4-1.2,2.6-2.2,3.8c-0.9,0.9-2,1.6-3.3,1.7c-2.1,0.4-3.6,0.7-4.5,0.8c-3.1,0.2-6.3,0.1-9.4-0.6c-3.3-0.6-6.5-1.6-9.6-3.1
	c-2.8-1.4-6.7-3.5-11.7-6.5l-4.9-2.9c-1.2-0.7-2.3-1.5-3.2-2.5c-1.1-1.1-1.8-1.9-2.2-2.3l-3-3.1c0.1-0.5,0.3-0.9,0.5-1.3
	c0.3-0.4,0.3-1,0.2-1.4c-0.7-2.5-1.2-5-1.5-7.6c-0.3-3.7-0.2-7.5,0.4-11.2c-0.5,0-1.1,0.1-1.8,0.1c-1,0.1-2,0.2-3,0.1
	c-1.6,0-3.1,0.5-4.4,1.5c-1.2,1.2-2.3,2.7-3,4.3l-3.1,6.5c-2.8,5.6-5.3,11.4-7.4,17.3c-0.2,0.4-0.5,0.8-0.8,1.2
	c-0.3,0.4-0.6,0.8-0.8,1.2c-0.4-0.3-0.8-0.8-0.9-1.3c0-0.4,0-0.8,0-1.2c0-0.5-0.1-1-0.4-1.5l-1.6,8.4c0.5-0.2,1-0.6,1.4-1.1
	c0.4-0.5,1-0.9,1.6-1.1c-0.4,1.4-0.9,2.8-1.4,4.2c-0.7,1.4-1,3-0.9,4.6c0.2,1.3,0,2.7-0.5,4c-0.5,1.1-1.2,2.4-2.1,4
	c-0.4-0.6-0.8-1.3-1-2c-0.7,3.3-1.4,6-2.1,8.1c-1,3.6-1.7,6.5-2.1,8.7c-0.4,2.3-0.6,4.7-0.4,7c0,1.1-0.3,2.2-1,3.1
	c-0.8,1.2-1.3,1.9-1.5,2.2c-0.2,0.3-0.5,0.5-0.8,0.7c-0.8,0.1-1.3-0.5-1.4-1.7c-0.8,0.3-1.3,1-1.2,1.8c0.1,0.4,0.1,0.9,0,1.3
	c0.3,0.5,0.8,0.9,1.4,0.8c0.5-0.1,1,0.1,1.4,0.3l0.3,0c0,0.1,0.1,0.2,0.3,0.3c0.7-0.1,1.6-0.3,2.5-0.4c2.1-0.4,4.3-0.6,6.5-0.8
	c3.5-0.3,6.9-0.7,10.3-1.5c3.6-0.8,6.2-1.3,7.7-1.6c1.1-0.3,2.2-0.5,3.4-0.7c3.6-0.3,7.6-0.7,12-1.3s7.6-1,9.4-1.2
	c5.6-0.9,11.3-1.7,17.2-2.3c7-0.7,17.4-2.1,31.3-4.3l5.6-0.8c2.2-0.2,4.4-0.2,6.6,0c0.4,0.2,0.7,0.2,0.9,0.1c2-0.8,4-1.3,6.1-1.5
	c1.7-0.2,3.7-0.3,6-0.3c1.9,0,3.8-0.1,5.7-0.4c1.5-0.3,3.7-0.6,6.8-0.9c3.6-0.4,8.6-0.8,15-1.2c2.6-0.3,4.6-0.4,5.9-0.4
	c6-0.6,11.9-1.1,17.6-1.3c7.4-0.5,12.8-0.8,16.2-0.8c1.3,0,2.7-0.1,4-0.2c8.2-1.1,16.4-1.8,24.6-1.9c1.3,0,3.3-0.2,5.9-0.4
	c3.2-0.3,6.4-0.5,9.7-0.5c1.1,0,2.3,0,3.4-0.1c1.2-0.2,2.4,0,3.5,0.6c1,0.2,2.1,0.3,3.2,0.2c0.8-0.1,1.7-0.2,2.5-0.4
	c0.7-0.2,1.5-0.3,2.3-0.2c7.5-0.7,15.1-0.6,22.6,0.2c3,0.5,6.1,0.5,9.1,0.1l0.8-0.1c1.8-0.1,3.7,0.1,5.5,0.4
	c-2.4,0.6-5.9,1.3-10.3,2.3c0.3,0.5,0.7,0.9,1.3,1.2c-0.2,0.4-0.6,0.7-1.1,0.8c-1.8-0.3-3.6-0.4-5.5-0.4c-1.8,0-3.6,0-5.4-0.2
	c-0.4-0.1-0.8-0.1-1.1,0c-0.6,0.1-1.2,0.2-1.8,0.4c-0.5,0.2-0.9,0.3-1.2,0.5c-1.4,0.3-2.8,0.6-4.2,0.8c-1.4,0.2-2.8,0-4.1-0.6
	c-0.4,0.1-0.6,0.5-0.6,0.8c-0.1,0.4-0.5,0.8-1.5,1.1l-0.6,0.1c-0.4,0.1-0.8-0.1-0.9-0.5c0-0.1,0-0.1,0-0.2c0-0.1,0-0.4-0.1-0.9
	s-0.5-0.6-1.5-0.4c-0.1,0.6-0.8,1.2-2,1.8c-0.9,0.5-1.7,1-2.6,1.5c-0.4-0.1-1.2-0.2-2.3-0.5c-1-0.3-2.1-0.4-3.2-0.3
	c-1,0.1-1.9,0.4-2.8,0.8c-3.5-0.3-7.1-0.4-10.6-0.1c-0.6,0.1-1.4,0.1-2.4,0.2c-1.2,0.1-2.4,0-3.6-0.1c-1.1,0-2.3,0-3.4,0.2l-6.5,0.8
	c-1.4,0.2-2.8,0.2-4.3,0.1l-0.2,0.4c0,0.1,0.2,0.3,0.6,0.4s0.5,0.5,0.4,0.8c-0.9,0.2-2.2,0.5-3.9,0.8s-3.1,0.6-4.2,0.7
	c-0.8,0.1-1.7,0.1-2.6,0.1c-0.7-0.1-1.3-0.1-2,0c-1.3,0.2-2.6,0.4-3.9,0.7c-1.3,0.4-2.6,0.5-3.9,0.6l-1.1,0.1l-1.8,0.2
	c-0.8,0.1-1.6,0.1-2.4,0.1l-0.6,0.1c-2,0.2-3.8,0.9-5.5,1.9c-2.9,1.4-6,2.2-9.2,2.5c-1.9,0.2-3.8,0.3-5.7,0.2c-1.1,0-2.3,0-3.4,0.2
	c-1.2,0.1-2.5,0.3-3.7,0.5l-1.4,0.1c-1.9,0.3-3.9,0.1-5.8-0.4c-1.5-0.5-3.1-0.6-4.6-0.4c-2.3,0.3-4.5,0.9-6.7,1.7
	c-0.5,0.2-1,0.5-1.5,0.7c-0.6,0.3-1.4,0.5-2.1,0.5c-1.1-0.1-2.3-0.1-3.4,0c-1.1,0.1-2.3,0.3-3.4,0.5c-0.9,0.2-1.8,0.4-2.5,0.6
	c-0.9,0.2-1.9,0.4-2.8,0.5c-1.7,0.2-3.4,0.2-5.1,0.2c-1.6,0-3.2,0.1-4.8,0.3c-1.8,0.2-3.6,0.6-5.3,1.2c-1.6,0.5-3.3,0.9-5,1
	l-4.8,0.5c0.7,1.1,2.6,1.5,5.9,1.4c-3.5,1.2-7.2,2-10.9,2.3c-1.7,0.2-3.9,0.3-6.5,0.5c-2.2,0.1-4.3,0.3-6.5,0.7l0.4-1.7l-2.2,0.4
	l1.3,1.6c-1.2,0.6-2.4,1-3.7,1.3c-1.1,0.3-2.1,0.4-3.2,0.4c-0.8,0-1.5,0-2.3,0.1c-1.2,0.1-2.5,0.4-3.6,0.8c-1.3,0.4-2.2,0.7-2.8,0.9
	l-1.1,0.1c-1.2,0.1-2.4,0-3.6-0.3c-1.1-0.3-2.2-0.3-3.3,0c-0.9,0.4-1.8,0.8-2.5,1.4c-1,0.7-2.2,1.1-3.5,1.1c-1.1,0-2.3,0-3.4,0.2
	l-7,0.9c-1.5,0.2-3,0.2-4.6,0.1l-2,0.2c-10,2.5-20.1,4.3-30.3,5.5c-2,0.3-3.9,0.7-5.9,1.2c-2.2,0.6-4.5,1-6.7,1.3l-2.6,0.1l-0.3,0
	c-0.5,0.1-0.9,0.3-1.2,0.7c-0.3,0.3-0.6,0.6-0.9,0.9c0.8,0.2,1.7,0.3,2.6,0.2c1-0.1,2-0.3,2.9-0.6c0.9-0.3,1.8-0.5,2.6-0.6
	c1-0.1,2,0,2.9,0.4c-2.2,0.7-4.3,1.6-6.3,2.8c-1,0.8-2.3,1.3-3.6,1.4c-0.9,0.1-1.8,0.1-2.6-0.2c-1.4-0.6-2.9-0.8-4.3-0.6
	c-1.7,0.2-3.3,0.7-4.7,1.5c-1.7,1.1-3.6,1.8-5.6,2.2c-2,0.4-3.9,0.7-5.8,0.9l-3.7,0.4l-1.1,0.1c-1,0.1-1.9,0.4-2.8,1
	c-1.1,0.8-2.9,1.3-5.5,1.6c-2.1,0.3-4.1,0.7-6.1,1.3c-2.5,0.7-5,1.1-7.6,1.3l-0.6,0.1c-1.2,0.1-2.4,0.4-3.5,0.7
	c-1.4,0.4-2.6,0.7-3.8,0.9c-2.5,0.8-5.2,1.4-7.8,1.7c-1.4,0.1-2.8,0.1-4.3,0.1l-0.8,0.1c-2,0.4-3.9,0.9-5.8,1.6
	c-5.1,2.2-10.6,3.7-16.1,4.4c-3.9,0.6-7.7,1.4-11.5,2.4c-2,0.9-4.2,1.5-6.4,1.7c-0.8,0.1-1.7,0.1-2.6,0.1l0-0.2
	c-0.1-0.9-0.8-1.4-2-1.6c-0.7-0.1-1.4-0.2-2.2-0.2c0-0.3,0.3-0.6,0.9-0.9c0.5-0.1,0.9-0.4,1.2-0.7c0.2-0.2-0.2-0.7-1-1.2
	c-0.4,1.2-1.4,2-2.6,2.3c-1.2,0.4-2.5,0.6-3.8,0.6c-1.2,0.1-2.1,0.1-2.7,0.2c-1.5,0.1-3,0.5-4.5,1.1c-1.3,0.5-2.5,1.1-3.7,1.7
	c-0.8,0.4-1.6,0.8-2.3,1.3l8.1-1.5c1.2,0.1,2.2,1.1,2.2,2.3c-2.4,0.2-4.8,0.8-6.9,1.8c-1.8,0.8-3.6,1.5-5.5,2
	c-0.4-0.2-0.6-0.4-0.6-0.6s0.2-0.4,0.8-0.6c0.4-0.1,0.7-0.2,1.1-0.3c0.3-0.2,0.5-0.3,0.8-0.4c0.3-0.1,0.6-0.3,0.8-0.6
	c-1.2-0.2-1.8-0.1-2,0.4l-4.3,0.3c0,0.2,0,0.7,0,1.4c0,0.8-0.4,1.5-1.1,1.9c-3.4-0.8-6.8-1.5-10.2-2c-0.7-0.1-1.3,0-2,0
	c-1.4,0.1-2.7,0.5-3.9,1.2c-0.7,0.3-1.5,0.5-2.2,0.6c-1.4,0.1-2.8,0-4.2-0.5c-1.1-0.4-2.2-0.7-3.4-0.9c-1.6-0.5-3.1-1.3-4.4-2.3
	c-1.1-0.9-2.1-1.9-3-3c-0.9-1-1.6-1.9-2.3-2.5c-1.7-1.9-2.6-3.2-2.7-4c-0.1-0.8,0.5-1.5,1.6-2.1c2-1,4.1-1.8,6.2-2.4
	c11.2-3.6,19.5-6.1,24.9-7.3l9.2-2.5c7.2-1.9,12.4-3.1,15.6-3.8l7.8-1.8c6.6-1.2,13.1-2.9,19.5-4.9c0-0.1,0.1-0.2,0.2-0.4
	c0.7-0.2,1.5-0.4,2.2-0.6c1.2-0.1,2.5-0.1,3.7,0c1.3,0.1,2.7,0.1,4-0.2c1-0.3,1.9-0.8,2.9-1.2c1.1-0.6,2.2-0.9,3.5-1.1
	c0.8,0,1.6,0.1,2.3,0.3l2.2-0.6c1.3-0.9,2.8-1.6,4.4-1.9c2-0.4,3.9-0.6,5.9-0.7l0.6-0.1c1.2-0.1,2.4-0.4,3.5-0.8
	c1.2-0.4,2-0.7,2.3-0.8l6.2-1.1c10.3-2,18.3-3.4,24.1-4.2c1.9-0.2,3.9-0.6,5.7-1.2c2.3-0.6,4.2-1.1,5.7-1.4c2.8-0.4,5.2-0.8,7.3-1.3
	c2-0.4,3.8-0.8,5.3-1.1c4.1-0.9,7.3-1.5,9.5-1.8c0.4,0,0.9-0.1,1.4-0.2c-0.2-0.9-0.3-1.8-0.4-2.7c-0.1-1.2-0.2-2.4-0.2-3.7
	c0.6,0.4,0.9,1.1,0.8,1.8c-0.1,0.8,0,1.3,0.2,1.5c0.1-0.4,0.1-0.7,0.1-1.1c-0.1-0.7-0.3-1.4-0.6-2.1c-0.3-0.7-0.5-1.4-0.5-2.1
	c0-0.2-0.1-0.4-0.2-0.5l-0.2-0.2c1-1.2,1.5-2.6,1.4-4.2c-0.2-1-0.4-1.9-0.7-2.8c-0.4-1-0.6-2-0.8-3.1c-0.1-0.8,0.1-1.6,0.4-2.3
	c0.7-1.6,1-3.4,1.1-5.1c0.1-1.8,0.1-2.9,0-3.3c0-2.3,0.1-4.6,0.5-6.8c0.3-0.7,0.6-1.4,1-2c0.4-0.8,0.6-1.7,0.6-2.6l0.3-4.1
	c0.1-1,0.2-2.4,0.3-4.1c0.4-0.2,0.5-0.5,0.2-1.1l-0.6,0.6c-5,3-9.6,6.8-13.3,11.3c-1.1,1.3-2.3,2.4-3.7,3.4c-0.4,0.4-1,0.8-1.6,1.4
	c-0.7,0.6-1.4,1.2-2.1,1.9c-1.9,2.1-4.1,4-6.5,5.6c-0.5,0.6-1.1,1.1-1.8,1.5c-0.5,0.4-1,0.8-1.5,1.2c-2,2-4.9,2.9-7.7,2.4
	c-5.4-1.3-9.7-2.4-13-3.5c-3.3-1.1-6.4-2.7-9.3-4.7c-2.2-1.7-3.7-4.2-4.2-7c-0.2-0.8-0.4-1.7-0.7-2.8c-0.3-1-0.4-1.9-0.5-2.9
	c0-0.9,0-1.8,0.1-2.8c0-0.7,0.2-1.5,0.5-2.1c0.4-0.6,1-0.9,1.7-0.9c-0.6-0.6-1.1-1.4-1.2-2.2c-0.1,0.6-0.3,1.3-0.5,2.3
	c-0.2,1.2-0.8,2.3-1.7,3.1c-1,0.7-1.8,1.8-2.1,3c-0.2,0.9-0.5,1.7-0.9,2.5c0.2-0.4,0.5-0.4,0.9-0.1c0.2,0.2,0.3,0.4,0,0.5l-0.3,0.2
	c-0.4,0.4-0.7,0.2-0.8-0.4c-0.3-0.1-0.7-0.1-1-0.1c-0.5,0.1-0.9,0.4-1.2,0.7c-0.4,0.4-0.8,0.7-1.3,0.9c0.3,0.2,0.7,0.3,1.1,0.3
	c0.4-0.1,0.8-0.3,1.1-0.7c0.3-0.4,0.7-0.5,1.2-0.5c-0.2,1.5-0.8,2.9-1.8,4.1c-1,0.9-2.3,1.4-3.6,1.4l-0.5,0
	c-1.1,0.2-2.1,0.8-2.8,1.6c-1,1.2-2.6,1.7-4.1,1.4c-0.5,1.4-1.2,2.6-2.2,3.8c-0.9,0.9-2,1.6-3.3,1.7c-2.1,0.4-3.6,0.7-4.5,0.8
	c-3.1,0.2-6.3,0.1-9.4-0.6c-3.3-0.6-6.5-1.6-9.6-3.1c-2.1-1-4.7-2.4-8-4.3l-0.8,0.5c-0.2-0.2-0.4-0.4-0.4-0.5
	c0.1-0.2,0.3-0.4,0.4-0.6c-0.9-0.5-1.9-1.1-2.9-1.7l-0.5-0.3c-0.1,0.2-0.1,0.3-0.2,0.5c-0.2,0.9-0.5,1.7-0.8,2.5
	c-0.4,0.7-1,1.3-1.8,1.6c0.6,0.1,1.3,0,1.9-0.2c0.6-0.2,1.3-0.2,1.9,0l-2.9,2.6c-2.2,2.2-4.6,4.2-7.2,5.9c-3.3,2.7-6.5,5.6-9.4,8.7
	c-0.5,0.5-1.2,1.2-2.2,2.2c-0.8,0.9-1.7,1.7-2.7,2.4c-0.9,0.7-1.9,1.2-3,1.5c-0.3,0-0.7,0.5-1.1,1.4c-0.3,0.7-0.6,1.3-1.1,1.9
	c-5.6,5-9.8,8.7-12.8,11.1c-0.9,0.7-1.7,1.6-2.4,2.5c-2.5,3.4-5.9,6.1-9.8,7.8c-1.1,0.6-2.3,0.9-3.6,1c-1.9,0.1-3.8-0.1-5.6-0.7
	c-3.2-0.8-6.3-1.9-9.2-3.3c-2.9-1.4-6.6-3.3-11.1-5.6c-1.7-0.8-3.1-2.3-3.9-4c-0.8-1.9-1.2-3.8-1.4-5.9c-1-7.9-0.6-15.9,1.1-23.6
	c0.2-0.7,0.3-1.4,0.5-2.2s0.3-1.6,0.4-2.5c0.4-3.9,1.2-7.7,2.4-11.5c0.2-0.5,0.5-1.1,0.8-1.9c0.4-0.8,0.9-1.5,1.5-2.2
	c1.2-0.9,1.7-2.4,1.5-3.8c0-0.6-0.2-1.2-0.5-1.7c-0.1-0.3-0.2-0.5-0.3-0.8c-0.1-0.9,0.4-1.8,1.3-2.1c0.5-0.5,0.9-1.1,1.1-1.7
	c0.2-0.6,0.6-1.2,1-1.7c0.6-0.9,1-2,1.1-3.1c0.1-0.9,0.3-1.7,0.7-2.5c0.7-1.6,1.6-3.2,2.6-4.7c1-1.1,2.5-1.8,4-1.8
	c-1.2-0.7-2.1-1.9-2.3-3.3c-0.1-0.9,0.1-1.8,0.5-2.7c0.4-1,0.7-1.7,0.9-2.2c0.3-1,0.7-2,1.1-2.9c0.5-1.2,0.9-2.4,1.2-3.7
	c0-0.7,0.3-1.3,0.9-1.6c0.9-0.3,1.6-1,2.1-1.8c0.4-0.8,0.8-1.7,1-2.6c0.2-0.8,0.5-1.6,0.8-2.4c-0.1-0.2-0.4-0.2-0.8-0.1
	s-0.7,0.1-0.8-0.3c0.7-1.9,2-3.5,3.8-4.4c1.4-0.6,2.5-1.8,3-3.2c0.7-1.8,1.1-3.8,1.3-5.7c0.1-1.3,0.8-2.5,1.8-3.3
	c0.8-0.9,1.5-2,1.9-3.2c0.5-1.4,0.9-2.4,1.2-3.1c0.3-0.6,0.5-1.1,0.7-1.7c0.2-0.7,0.6-1.3,1.1-1.9c0.5-0.5,1.2-0.8,1.8-0.9
	c0.3-0.1,0.4-0.3,0.5-0.6c0-2.3,0.6-4.6,1.7-6.6c1.6-2.6,3.3-5.1,5.2-7.4c0.5,0.1,1.1,0.2,1.6,0.2c0.6,0,1.2-0.4,1.6-0.9
	c0.4-0.6,0.5-1.4,0.2-2.1l0-0.5c0.1-0.8,0.3-1.6,0.6-2.3c0.3-0.8,0.7-2.2,1.3-4c0.5-1.7,1.1-3.3,1.9-4.9c0.7-1.4,1.6-2.7,2.7-3.9
	c1.8,0.6,3.6,1.5,5.3,2.5c1.7,1,3.8,2.5,6.3,4.3c0.3,0.3,0.6,0.6,0.6,1.1c0,0.5-0.2,1-0.6,1.4c-1.5,1.4-2.7,3-3.6,4.8
	c-0.9,1.7-2,4-3.3,6.8c-0.5,1.1-1,2.2-1.4,3.3c-3.9,8.6-8.4,19.2-13.7,32l-4.3,10.1c-2.2,5.2-4.4,11.2-6.8,17.8
	c-2.3,6.6-4.5,13-6.5,19.2c-1.6,4.8-2.9,9.7-3.8,14.6l-1.4,5.7c-0.3,0.8-0.8,1.6-1.3,2.2c-0.5,0.6-1,1.3-1.3,2.1
	c-0.6,1.1-0.8,2.4-0.8,3.6c0.1,0.7,0.3,1.3,0.5,1.9c0.2,0.4,0.3,0.8,0.3,1.2c0.1,0.8,0,1.6-0.3,2.3c-0.2,0.6-0.4,1.3-0.5,2
	c-1.3,2.9-1.8,6.1-1.6,9.3c0.1,1.1,0.3,2.1,0.6,3.1c0.1,0.2,0.2,0.5,0.4,0.7c0.2,0.3,0.4,0.6,0.4,1l0.1,0.9c0,0.8,0.6,1.4,1.3,1.5
	l0.5,0c1.1-0.1,2.1-0.6,2.9-1.4l3.6-4c2.6-3,5.4-5.8,8.6-8.2c1.4-0.9,2.7-2,3.8-3.2c1.3-1.4,2.3-2.4,3-3c0.4-0.3,0.7-0.6,0.9-1
	c0.3-0.4,0.7-0.7,1.1-0.9c0.5-0.2,1.1-0.2,1.6,0.1c0.5,0.2,1.2-0.3,2.1-1.3c0.8-0.9,1.3-2,1.4-3.2c0.9,0.2,1.9,0,2.7-0.5
	c0.8-0.5,1.4-1.1,1.9-1.9c0.6-0.8,1-1.3,1.3-1.7c0.4-0.4,1.8-1.7,4.1-4.1c3.1-3,4.9-4.7,5.4-5.2c0.7-0.5,1.6-0.7,2.5-0.4l0.5,0
	c1.1,0,2.1-0.8,2.1-1.9c-0.2,0-0.5,0.1-0.7,0.2c-0.2,0.1-0.5,0.2-0.7,0.1c0.1-0.6,0.5-0.8,1.4-0.6c0-0.1,0-0.2,0.1-0.2l0.1,0
	c1.2-1.7,3.1-2.7,5.1-2.9c0.2,0,0.4,0,0.6,0l-2.7-2.8c0.1-0.5,0.3-0.9,0.5-1.3c0.3-0.4,0.3-1,0.2-1.4c-0.7-2.5-1.2-5-1.5-7.6
	c-0.4-7.4,0.5-14.8,2.7-21.8c0.6-1.7,1.4-3.3,2.5-4.7c0.2-0.4,0.3-0.8,0.4-1.2c0.1-0.4,0.2-0.8,0.3-1.2c0.5-4.1,2-7.9,4.3-11.3
	c0.2-0.5,0.5-0.6,0.8-0.4c0.4,0.4,0.2,0.7-0.4,0.7c0.3,1,0.3,2.2-0.1,3.2c-0.3,1-0.5,2-0.5,3.1c0,0.5,0.1,1,0.3,1.4
	c0.2-1.1,0.5-1.6,0.9-1.7c0.4,0,0.8,0.1,1.1,0.3c0.4,0.2,0.9,0.2,1.2,0l-0.2-0.5c0-0.5,0.1-1.1,0.2-1.6c0.2-0.7,0-1.4-0.4-1.9
	c-0.1,0-0.3,0.2-0.6,0.5s-0.5,0.3-0.8-0.2c-0.1-0.1-0.2-0.3-0.3-0.5c0-0.3,0.1-0.6,0.3-0.9c0.2-0.3,0.3-0.6,0.5-0.9
	c0-0.1,0-0.4-0.1-0.8c0-0.4-0.2-0.7-0.6-0.9c0.3,0.5,0.1,0.8-0.5,0.7c0-0.1,0-0.3-0.1-0.6s0.2-0.3,0.8-0.2c0.5-1.6,1.1-2.4,1.7-2.5
	c0.3,0,1,0.4,2.1,1.3c0.3,0.4,0.7,0.6,1.1,0.8c0.4,0.2,1,0.2,1.4,0c0.7-0.4,1-1.2,0.9-2c-0.1-1.5-0.6-2.5-1.4-2.9
	c-0.3,0-0.6,0.3-0.7,0.8s-0.4,0.8-0.7,0.7c-0.1,0.5-0.4,0.9-0.9,1.1c-0.4-0.4-0.4-0.8-0.2-1.1l0.5-0.7c0-0.7,0.4-1.5,0.9-1.9
	c0.6-0.5,0.9-1.3,0.9-2.1c1.5,1.6,2.5,2.4,3.2,2.4c0.6-0.1,1.3-0.6,2.2-1.7c-0.7,0-1.4-0.3-1.9-0.8c-0.5-0.5-1.2-0.7-1.9-0.6
	c0.1-1,0.6-1.6,1.4-1.8c1.4,0.1,2.7-0.4,3.7-1.3c0.9-1.1,1.5-2.4,1.7-3.8c0-0.3,0-0.7,0.1-1c0.1-0.6,0.5-0.9,1.5-0.8l0.2,0
	c0.7,0,1.2-0.4,1.6-1c0.4-0.6,0.5-1.2,0.3-1.9l0-0.3c-0.1-0.6,0.1-1.1,0.5-1.5c0.3-0.3,0.5-0.7,0.7-1.1c0.4-0.6,1-1,1.7-1.2
	c0.5,0,0.9,0.3,1.3,0.9c0-0.1,0-0.1,0-0.2c-0.1-0.6,0.3-0.9,0.9-1.1c1.1-0.2,2-1,2.3-2c0.1-0.7,0.8-1.2,1.5-1.1c0.1,0,0.2,0,0.3,0.1
	l0.5,0c1-0.2,1.9-0.8,2.4-1.8l0.4-0.8c0-0.4-0.3-0.7-0.6-0.9c-0.4-0.3-0.8-0.4-1.2-0.5c-0.1-0.3,0-0.6,0.1-0.9
	c1.9-1.6,3.9-3,5.9-4.3c1.7-1,3.5-1.6,5.4-1.9c1.2-0.1,2.4,0.1,3.4,0.8l4.6,2.9c3.8,2.4,7.1,4.6,9.7,6.5c2.6,1.9,5,4.1,7.2,6.6
	l0.6,0.6c0.4,0.2,1,0.5,1.9,0.8c0.8,0.2,1.4,1,1.5,1.8c-0.2,2.2-0.7,4.4-1.5,6.4c-0.8,1.9-1.8,3.8-3,5.5c-1.1,1.5-2.6,2.8-4.2,3.7
	c-1.3,0.5-2.2,1.7-2.2,3.1c-0.1,1.3-0.9,2.1-2.5,2.2l0.3,1c0.1,1.1-0.1,2.2-0.6,3.1c-0.3,0.6-0.7,1.3-1.1,1.8
	c-0.3,0-0.7-0.1-0.9-0.4c-0.2-0.2-0.5-0.4-0.7-0.6c0,0.7-0.3,1.3-0.6,1.8c-0.6,0.8-1.3,1.5-2,2.1c-0.8,0.6-1.4,1.4-1.9,2.4
	c-0.5,0.9-1,1.7-1.6,2.4c-0.7,0.9-1.2,1.6-1.6,2.1c-0.3,0.5-0.6,0.9-0.8,1.4c-0.3,0.7-1,1.2-1.8,1.3c-0.7,0-1.4-0.3-2-0.8l-0.2,0
	c-0.5,0.1-0.9,0.3-1.3,0.6c-0.5,0.3-0.9,0.7-1.2,1.1c-1.8,2.5-3.8,4.8-5.8,7.1l-3.3,3.8c-1.2,1.4-2.5,2.7-3.8,3.9l-3.4,3.4
	c-0.2,0-0.6-0.2-1-0.6s-0.9-0.4-1.4,0.1c-0.3,0.3-0.5,0.8-0.6,1.2c0.1,0.4,0.3,0.8,0.6,1.1c-0.1,0.4-0.5,0.6-0.9,0.5
	c0,0-0.1,0-0.1,0c-0.5-0.1-0.8-0.1-0.9,0c-0.8,1-1.4,2.1-2,3.2c-0.7,1.4-1.5,2.8-2.5,4.1c-0.8,1-1.8,1.8-3,2.3
	c-0.1,0.9-0.1,1.9-0.1,2.8c0.1,1,0.2,2,0.5,2.9c0.2,0.8,0.4,1.5,0.5,2c0.2,1.3,0.7,2.1,1.3,2.4c0.9,0.3,2,0.4,2.9,0.3
	c4.8-0.6,9.3-2.2,13.5-4.6c3.8-2,7.5-4.3,10.9-6.8c3.6-2.7,5.7-4.2,6.4-4.6c0.8-0.9,1.7-1.6,2.7-2.2c3.2-2.5,5.1-4,5.6-4.4
	c0.3-0.1,0.5-0.2,0.7-0.4c0.5-0.3,1.1-0.3,1.5,0l-2.2,2.7c-0.2,0.3-0.3,0.6-0.3,0.9c0,0.3,0.1,0.6,0.3,0.7c0.5,0.5,1.4,0.6,2,0.2
	c0.5-0.5,1-1,1.4-1.5c0.4-0.6,1.1-1.1,1.8-1.4c-0.5,0.3-0.6,0.6-0.1,0.9c0.2,0.2,0.5,0.2,0.6,0c0.1-0.1,0.3-0.2,0.4-0.3
	c0.4-0.3,0.7-0.3,0.9-0.1s0.2,0.5,0,0.9c-0.2,0.4-0.3,0.9-0.2,1.4c0.1,0.8,0.6,1.4,1.2,1.9c0.2-0.9,0.6-1.7,1.1-2.4
	c0.8-1,1.1-2.2,1-3.5c1.1,0.8,1.8,1.9,2.1,3.1c0,1-0.3,1.9-0.9,2.7c-0.4,0.4-0.6,1-0.5,1.6c0.1,0.5,0.3,1,0.6,1.4
	c1.4-4.1,1.9-7.6,1.5-10.5l-0.2,0c-0.2,0-0.3,0.3-0.3,0.7s0,0.7-0.1,0.7c-0.9-0.7-1.3-1.3-1.4-1.8l0.2-2c0-0.7,0.3-1.3,0.7-1.8
	c0.5-0.6,0.6-1.3,0.5-2c0.4,0.1,1.1,0.3,2.2,0.7c0-0.2,0.1-0.5,0.3-0.6c-0.8-0.8-1.4-1.8-1.7-2.9c-0.1-0.7,0.5-1.4,1.6-2.3
	c0.1-0.2,0.2-0.5,0.1-0.8c0-0.3-0.2-0.6-0.6-0.7c-0.3,0-0.6-0.2-0.7-0.5c-0.1-0.2-0.2-0.5-0.1-0.7c0.7-0.9,1.3-1.9,1.8-3
	c0.5-1.2,0.9-2.3,1.3-3.3c0.3-2.3,1.3-4.5,2.8-6.3c0.3-0.5,0.5-1.2,0.3-1.8l-0.1-1.5c-0.1-1.3,0.2-2.1,1-2.4
	c0.4-0.2,0.7-0.5,0.9-0.9c0.2-0.3,0.4-0.5,0.6-0.7l4.8-11l1.6,2.8c0.1-0.3,0.4-0.5,0.7-0.7c0.2-0.1,0.6,0,0.9,0.3
	c-0.2-0.5-0.4-1-0.5-1.6c-0.1-1,0.5-1.9,1.8-2.7c0.9-0.8,1.7-1.7,2.4-2.8c0.7-1.2,1.3-2.4,1.8-3.7c2.6-4.5,5.6-8.8,8.9-12.8
	c0.5-0.5,0.7-1.2,0.8-1.9c-0.1-0.7-0.4-1.3-0.8-1.9c-0.3-0.5-0.7-1-1-1.5l0.9-0.3c0.8-0.1,1.4,0.5,1.9,1.8c0.5-0.3,1.1-0.6,1.6-0.9
	c0.7-0.4,1.3-1,1.8-1.7c0.5-0.6,0.7-1.4,0.7-2.2c-0.2-0.1-0.3-0.2-0.5-0.1l-0.8,0.1c-0.4,0-0.8-0.1-1-0.4c3.4-3.5,6.5-5.4,9.2-5.7
	c2.7-0.3,5.8,0.7,9.3,3c5.3,2.6,9.1,5.3,11.3,7.9c0.7,0.8,1.2,1.7,1.5,2.6c0.4,1.1,1,2.1,1.9,2.9c-0.6,0.6-1.3,1-2.1,1.1
	c-1,0-2-0.4-2.8-1c-2-1.6-3.9-2.3-5.6-2c-1.8,0.2-3.8,1.4-6.2,3.7c-7.7,7.5-14.6,17.5-20.6,30c-1.3,2.8-2.7,5.6-4.5,8.1
	c-1.7,2.4-3.1,5.1-4,7.9c-0.7,2.1-1.6,4.2-2.8,6.1c-0.6,1.2-1.1,2.5-1.6,3.8c-0.5,1.4-1.2,2.7-2.1,3.9c-0.2,0.2-0.3,0.6-0.3,0.9
	c0.1,0.3,0.2,0.6,0.4,0.9c0.3,0.4,0.5,0.7,0.6,1.1c0.1,0.3,0.2,0.5,0.3,0.8c0.1,0.7-0.3,1.2-1.1,1.6c-0.4,0.3-0.7,0.2-0.7-0.1
	l-0.1-0.7c-1.4,5.5-2.2,11.1-2.4,16.8c0.2,0.2,0.3,0.5,0.3,0.8l-0.3,0l-0.2,5.6c0.4-0.2,1.2-0.4,2.4-0.8c1.1-0.3,2-0.9,2.8-1.7
	c2.3-2.9,6.3-6.8,11.9-11.5l3.9-3.4c2.3-2.2,4.4-4.5,6.4-7c1.2-1.5,2.4-3,3.6-4.4c0.4,0.4,0.7,0.9,0.9,1.5c0.2,0.6,0.2,1.2-0.1,1.8
	c0.3-0.3,0.7-0.5,1-0.8c0.3-0.3,0.7-0.5,1-0.8c-0.2-0.4-0.4-0.9-0.5-1.4c-0.2-0.7-0.8-1.2-1.6-1.3c2.7-1.9,5.1-4.2,7.2-6.7
	c1.7-2,3.6-3.8,5.6-5.4c0.3-0.3,0.6-0.5,1-0.5c0.4-0.1,0.8-0.2,1.1-0.4c0.3-0.1,0.3-0.4,0.2-0.9c-0.5-0.8-1.8-0.9-3.9-0.6l-0.7,0.1
	l-2.3,0c-1.1,0-2.1,0.7-2.5,1.7c-3.9-0.8-5.9-3-6.2-6.6c-0.2-1.6,0.1-3.1,0.9-4.5c0.8-1.3,2.1-2.2,3.5-2.4c1.5-0.4,4.2-1.1,8-2.1
	c6.4-2,11.4-3.2,15-3.4c0.1,0.2,0.2,0.4,0.3,0.6c0.3,0.4,0.4,0.9,0.6,1.3c0.3-0.2,0.4-0.5,0.4-0.8c0-0.2-0.1-0.5-0.3-0.7
	c-0.2-0.2-0.3-0.4-0.3-0.7c2.2-0.3,4.4-0.9,6.4-1.7c1.3-0.6,2.2-2,2.6-4.2c1.7,0.4,3.4,0.9,5,1.6c2.4,1.3,4.3,1.9,5.9,1.8
	c5.3-0.5,10.6-0.5,15.9,0c0.2-0.4,0.5-0.7,0.8-1c0.2-0.4,0.3-0.8,0.4-1.2c0.1-0.4,0.2-0.8,0.3-1.2c0.5-4.1,2-7.9,4.3-11.3
	c0.2-0.5,0.5-0.6,0.8-0.4c0.4,0.4,0.2,0.7-0.4,0.7c0.3,1,0.3,2.2-0.1,3.2c-0.3,1-0.5,2-0.5,3.1c0,0.5,0.1,1,0.3,1.4
	c0.2-1.1,0.5-1.6,0.9-1.7c0.4,0,0.8,0.1,1.1,0.3c0.4,0.2,0.9,0.2,1.2,0l-0.2-0.5c0-0.5,0.1-1.1,0.2-1.6c0.2-0.7,0-1.4-0.4-1.9
	c-0.1,0-0.3,0.2-0.6,0.5s-0.5,0.3-0.8-0.2c-0.1-0.1-0.2-0.3-0.3-0.5c0-0.3,0.1-0.6,0.3-0.9c0.2-0.3,0.3-0.6,0.5-0.9
	c0-0.1,0-0.4-0.1-0.8c0-0.4-0.2-0.7-0.6-0.9c0.3,0.5,0.1,0.8-0.5,0.7c0-0.1,0-0.3-0.1-0.6c0-0.3,0.2-0.3,0.8-0.2
	c0.5-1.6,1.1-2.4,1.7-2.5c0.3,0,1,0.4,2.1,1.3c0.3,0.4,0.7,0.6,1.1,0.8c0.4,0.2,1,0.2,1.4,0c0.7-0.4,1-1.2,0.9-2
	c-0.1-1.5-0.6-2.5-1.4-2.9c-0.3,0-0.6,0.3-0.7,0.8s-0.4,0.8-0.7,0.7c-0.1,0.5-0.4,0.9-0.9,1.1c-0.4-0.4-0.4-0.8-0.2-1.1
	s0.4-0.5,0.5-0.7c0-0.7,0.4-1.4,0.9-1.9c0.6-0.5,0.9-1.3,0.9-2.1c1.5,1.6,2.5,2.4,3.2,2.4c0.6-0.1,1.3-0.6,2.2-1.7
	c-0.7,0-1.4-0.3-1.9-0.8c-0.5-0.5-1.2-0.7-1.9-0.6c0.1-1,0.6-1.6,1.4-1.8c1.4,0.1,2.7-0.4,3.7-1.3c0.9-1.1,1.5-2.4,1.7-3.8
	c0-0.3,0-0.7,0.1-1c0.1-0.6,0.5-0.9,1.5-0.8l0.2,0c0.7,0,1.2-0.4,1.6-1c0.4-0.6,0.5-1.2,0.3-1.9l0-0.3c-0.1-0.6,0.1-1.1,0.5-1.5
	c0.3-0.3,0.5-0.7,0.7-1.1c0.4-0.6,1-1,1.7-1.2c0.5,0,0.9,0.3,1.3,0.9c0-0.1,0-0.1,0-0.2c-0.1-0.6,0.3-0.9,0.9-1.1c1.1-0.2,2-1,2.3-2
	c0.1-0.7,0.8-1.2,1.5-1.1c0.1,0,0.2,0,0.3,0.1l0.5,0c1-0.2,1.9-0.8,2.4-1.8l0.4-0.8c0-0.4-0.3-0.7-0.6-0.9c-0.4-0.3-0.8-0.4-1.2-0.5
	c-0.1-0.3,0-0.6,0.1-0.9c1.9-1.6,3.9-3,5.9-4.3c1.7-1,3.5-1.6,5.4-1.9c1.2-0.1,2.4,0.1,3.4,0.8l4.6,2.9c3.8,2.4,7.1,4.6,9.7,6.5
	c2.6,1.9,5,4.1,7.2,6.6l0.6,0.6c0.4,0.2,1,0.5,1.9,0.8c0.8,0.3,1.4,1,1.5,1.8c-0.2,2.2-0.7,4.4-1.5,6.4c-0.8,1.9-1.8,3.8-3,5.5
	c-1.1,1.5-2.6,2.8-4.2,3.7c-1.3,0.5-2.2,1.7-2.2,3.1c-0.1,1.3-0.9,2.1-2.5,2.2l0.3,1c0.1,1.1-0.1,2.2-0.6,3.1
	c-0.3,0.6-0.7,1.2-1.1,1.8c-0.3,0-0.7-0.1-0.9-0.4c-0.2-0.2-0.5-0.4-0.7-0.6c0,0.7-0.3,1.3-0.6,1.8c-0.6,0.8-1.3,1.5-2,2.1
	c-0.8,0.6-1.4,1.4-1.9,2.4c-0.5,0.9-1,1.7-1.6,2.4c-0.7,0.9-1.2,1.6-1.6,2.1c-0.3,0.5-0.6,0.9-0.8,1.4c-0.3,0.7-1,1.2-1.8,1.3
	c-0.7,0-1.4-0.3-2-0.8l-0.2,0c-0.5,0.1-0.9,0.3-1.3,0.6c-0.5,0.3-0.9,0.7-1.2,1.1c-1.8,2.5-3.8,4.8-5.8,7.1l-3.3,3.8
	c-1.2,1.4-2.5,2.7-3.8,3.9l-3.4,3.4c-0.2,0-0.6-0.2-1-0.6s-0.9-0.4-1.4,0.1c-0.3,0.3-0.5,0.8-0.6,1.2c0.1,0.4,0.3,0.8,0.6,1.1
	c-0.1,0.4-0.5,0.6-0.9,0.5c0,0-0.1,0-0.1,0c-0.5-0.1-0.8-0.1-0.9,0c-0.8,1-1.4,2.1-2,3.2c-0.7,1.4-1.5,2.8-2.5,4.1
	c-0.8,1-1.8,1.8-3,2.3c-0.1,0.9-0.1,1.9-0.1,2.8c0.1,1,0.2,2,0.5,2.9c0.2,0.8,0.4,1.5,0.5,2c0.2,1.3,0.7,2.1,1.3,2.4
	c0.9,0.3,2,0.4,2.9,0.3c4.8-0.6,9.3-2.2,13.5-4.6c3.8-2,7.5-4.3,10.9-6.8c3.6-2.7,5.7-4.2,6.4-4.6c0.8-0.9,1.7-1.6,2.7-2.2
	c3.2-2.5,5.1-4,5.6-4.4c0.3-0.1,0.5-0.2,0.7-0.4c0.5-0.3,1.1-0.3,1.5,0l-2.2,2.7c-0.2,0.3-0.3,0.6-0.3,0.9c0,0.3,0.1,0.6,0.3,0.7
	c0.5,0.5,1.4,0.6,2,0.2c0.5-0.5,1-1,1.4-1.5c0.4-0.6,1.1-1.1,1.8-1.4c-0.5,0.3-0.6,0.6-0.1,0.9c0.2,0.2,0.5,0.2,0.6,0
	c0.1-0.1,0.3-0.3,0.4-0.3c0.4-0.3,0.7-0.3,0.9-0.1s0.2,0.5,0,0.9c-0.2,0.4-0.3,0.9-0.2,1.4c0,0.4,0.2,0.7,0.4,1
	c0.1-1,0.2-2.2,0.3-3.8c0.2-2.4,0.7-4.8,1.5-7.1c0.5-1.8,0.8-3.7,0.8-5.6c0.1-0.5,0.2-1.6,0.5-3.4c0.2-1.7,0.7-3.5,1.4-5.1
	c1.3-3.3,2-6.7,2-10.2c0.1-0.7,0.3-1.4,0.6-2.1c0.3-0.8,0.6-1.5,0.7-2.1c1-2.4,1.9-4.8,2.7-7.3c1.1-3.4,2-5.8,2.7-7.3
	c1.7-3.3,3.5-6.5,5.5-9.6c2.1-3.2,3.3-5.2,3.7-6c0.7-1,1.7-2.5,2.9-4.5c0.6-1,1.6-1.2,3.1-0.8c5.9,2,10.2,4.3,12.9,6.8
	c-0.3,1.2-0.7,2.3-1.3,3.4c-0.4,0.5-0.9,0.8-1.5,0.9c0.2,0.3,0.5,0.5,0.8,0.7c0.1,0,0.3-0.2,0.4-0.7s0.4-0.6,0.7-0.5
	c1.1,2.5,3.6,3.8,7.3,4.1c2,0.3,3.1,1.5,3.4,3.7c0.2,4.7,0.4,8.1,0.6,10.2c0.2,2.2,0.4,3.9,0.6,4.9l0,0.2c0,0.4-0.1,0.8-0.4,1.1
	c-0.2,0.3-0.4,0.6-0.6,0.9c1.2,1.2,1.9,2.9,2,4.6c0.3,1.9-0.2,3.8-1.4,5.4c1.2,1.2,1.9,2.8,2,4.5c0.1,0.7,0.1,1.3,0,2
	c-0.5-0.1-0.7-0.4-0.8-1c0-0.1,0-0.3-0.1-0.6c0-0.3-0.2-0.6-0.4-0.8c-0.1,0.5-0.1,1.1,0,1.6c0.1,1,0.4,2,1,2.9l1.9-5.7
	c1.8-5.3,2.9-8.7,3.2-10.2c0.8-3.3,1.8-6.6,3.1-9.7c1-3.1,1.8-6.2,2.3-9.4c0.2-0.6,0.4-1.4,0.6-2.4c0.2-1,0.8-1.9,1.6-2.5
	c0.6-0.7,1-1.7,1-2.6c0.1-0.9,0.3-1.8,0.7-2.6c1.5-2.3,2.7-4.8,3.7-7.4l1.2-0.5c-0.1,0.3-0.1,0.6-0.1,0.9l0.1,0.7
	c0.2-0.5,0.2-1,0-1.5c0-1.5,0.2-3,0.7-4.4c0.6-1.6,1.5-3.2,2.5-4.6l1.9-3.4c0.4-0.6,1.1-1.7,2-3.2c0.8-1.4,1.7-2.7,2.8-3.8
	c1.2-1.9,2.6-3.8,4.2-5.4c1.2-1.1,2.8-1.8,4.5-1.8c4.4-0.2,8.7,0.9,12.4,3.4c0.9,0.4,1.5,1.3,1.6,2.3c0.1,0.8-0.3,1.6-1,2
	c-0.2,0.3-0.4,0.7-0.4,1.1c0,0.4-0.1,0.7-0.2,1.1c-0.2,0.4-0.3,0.9-0.2,1.4l0.4,1.9c0,0.6-0.1,1.1-0.4,1.6c-1.1,1.4-1.7,3.1-1.6,4.9
	c0.1,0.6-0.4,1.2-1.5,1.8l-0.5,0c-0.2,0-0.3-0.1-0.4-0.2c0,0,0-0.1,0-0.1c0-0.2,0-0.4,0.1-0.6c0.1-0.3,0-0.7-0.1-1
	c-0.4,0.9-0.9,1.7-1.4,2.5c-0.6,0.8-1.1,1.7-1.6,2.6c-0.4,0.7-0.5,1.6-0.5,2.4c-0.4,0.4-0.7,0.3-0.7-0.3c-0.1-0.3-0.4-0.4-0.9-0.1
	c-0.6,0.4-0.8,1.1-0.3,2.2c0.2,0.3,0.4,0.7,0.5,1.2c0.1,0.7-0.4,1.6-1.4,2.8c-2.4,2.2-3.6,4.5-3.5,6.9c0.9-1.2,1.8-2.4,2.8-3.5
	c0.4-0.5,0.7-0.9,1-1.4c0.3-0.5,0.7-0.9,1.2-1.1c0.2,0,0.4,0.1,0.4,0.4c0,0.2,0.1,0.4,0.2,0.6c-0.3,0-0.5,0.1-0.7,0.3
	c-0.2,0.2-0.2,0.5-0.2,0.7c0.2-0.1,0.4-0.3,0.6-0.5c0.2-0.2,0.3-0.4,0.4-0.5l0.6-0.1c0.3,0,0.6-0.3,0.6-0.6c0.2-0.4,0.5-0.8,0.7-1.2
	c0.3-0.4,0.6-0.9,0.7-1.4c0-0.3,0-0.6,0.2-0.9c0.1-0.3,0.3-0.4,0.4-0.3c0.1,0,0.4-0.1,1-0.2s0.8-0.3,0.8-0.6
	c-0.1-0.4-0.3-0.8-0.6-1.1c0-0.4,0.1-0.8,0.4-1c0.3-0.3,0.6-0.5,0.8-0.4l0.7,0.2c0.3,0,0.5-0.2,0.6-0.4c0.1-0.2,0.2-0.4,0.4-0.6
	c0.3-0.4,0.9-1,1.7-2c0.8-0.9,1.7-1.7,2.7-2.3c0.3,0.2,0.6,0.6,0.8,0.9c0.1,0.3,0.1,0.7-0.1,1c-0.1,0.3-0.1,0.6,0,0.9
	c0.1,0.3,0.1,0.6,0.2,0.9c0.9-0.4,1.6-1,2.3-1.8c0.6-0.7,1.3-1.2,2.1-1.7c0.3-0.2,0.6-0.5,0.8-0.9c0.3-0.4,0.7-0.4,1.2,0l0.2-0.1
	c0.2-0.1,0.2-0.2,0.2-0.3c0-0.7,0.4-1.3,1-1.7c0.6-0.4,1.2-0.8,1.8-1.2c0.6-0.5,1.3-0.9,2-1.3c0.7-0.4,1.4-0.8,2-1.3
	c0.6-0.2,1-0.7,1-1.3c0-0.6,0-1,0-1.2c0.1-0.3,0.3-0.6,0.5-0.9c0.3-0.5-0.1-0.7-1.1-0.7c0.2-0.4,0.2-0.9,0-1.3
	c2.2-1.1,3.6-1.8,4.2-2.1c1.8-1,3.4-1.8,4.9-2.4c0.5-0.1,1-0.3,1.4-0.6c0.3-0.2,0.7-0.4,1.1-0.5l0.8-0.1c0.7-0.1,1.4-0.3,2.1-0.5
	c0.7-0.3,1.5-0.5,2.2-0.7l0.7-0.1c0.7-0.1,1.4-0.3,2.1-0.5c0.9-0.3,1.6-0.5,2.1-0.7c0.5-0.1,1,0,1.5,0c0.1,0.3,0.1,0.6,0.3,0.8
	c0.2,0.4,0.6,0.7,1.4,0.7c-0.2,0.4-0.4,0.7-0.7,1c-0.3,0.3-0.4,0.8,0,1.2c0,0,0,0,0.1,0.1l-0.3,0.2c0.5,0.2,1,0.2,1.5,0l0-0.3
	c0-0.1,0.2-0.3,0.6-0.5c0.4-0.2,0.5-0.7,0.3-1.1l0-0.3c0-0.4,0.3-0.8,0.6-1.1c0.3-0.2,0.6-0.5,0.8-0.8c0-0.1-0.1-0.2-0.1-0.3
	c-0.1-0.2-0.1-0.4,0-0.5l0.5-0.3c0.6,0.1,1.1,0.3,1.6,0.6l1.5,0.2c0.6,0,1.1-0.4,1.3-1c0.2-0.2,0.8-0.3,1.8-0.2c0.8,0,1.5,0,2.3,0.1
	c0.8,0.1,1.5,0.2,2.3,0.1l1-0.3c1.3,0.1,2.6,0.2,3.9,0.5c2.7,0.2,5.4,1.6,8.1,4.1c1.1,1.3,2.3,2.4,3.5,3.5c1.2,0.9,2.3,2,3.3,3.2
	c0.8,1,1.7,2,2.6,2.9c1.4,1.4,2.6,2.9,3.6,4.5l1.1,2.6C525.2,163.3,525.2,167,525,170.7L525,170.7z M441.3,143.6l0,0.3
	c0.4,0.1,0.6,0,0.7-0.2l-0.4-0.3C441.4,143.2,441.3,143.3,441.3,143.6z M439.2,152.9c0.4,0.3,0.6,0.5,0.7,0.4c0.1,0.1,0.2,0.1,0.3,0
	c0,0,0,0,0,0c0.1-0.1,0.1-0.2,0.1-0.4c0-0.2-0.1-0.3-0.2-0.4c-0.1-0.2-0.2-0.2-0.3-0.1c-0.2,0-0.4,0.1-0.4,0.2
	C439.4,152.8,439.3,152.9,439.2,152.9L439.2,152.9z M181.7,204l0.9,0.1c0.3,0,0.7-0.4,1.1-1.1c-0.2,0-0.6,0.1-1.1,0.2
	C182.2,203.2,181.8,203.6,181.7,204z M180.5,218.5l0,0.2l0.2,0L180.5,218.5z M178.1,209.5c0.6-0.3,1.2-0.4,1.8-0.5l0.1-0.8
	c-0.1-0.8-0.6-1.4-1.3-1.7c0.3,0.1,0.5,0.4,0.5,0.7c0,0.4-0.2,0.8-0.5,1C178.4,208.6,178.2,209.1,178.1,209.5L178.1,209.5z
	 M176.9,213c0.1,0.8,0.1,1.6,0.1,2.4c0.9-0.7,1.3-1.2,1.3-1.7C178.3,213.5,177.8,213.2,176.9,213L176.9,213z M112.1,250.4l-0.4-0.1
	l-0.3,0.2l0.5,0.1L112.1,250.4z M114.4,248.3l-0.2-0.3c-0.1,0-0.2,0-0.2,0.1l0,0.1c0,0.2,0.1,0.3,0.2,0.3l0.1,0
	C114.4,248.5,114.4,248.4,114.4,248.3L114.4,248.3z M122.6,227.1c-0.2,0-0.4,0.1-0.6,0.2c-0.3,0.1-0.5,0.4-0.4,0.7l-0.5,0.6l0.3,0
	c0.1-0.2,0.1-0.4,0.1-0.6C122.4,228.3,122.7,228,122.6,227.1L122.6,227.1z M129.9,176.5c0.6-0.7,0.4-1.3-0.5-1.8
	C129.2,175.6,129.4,176.2,129.9,176.5L129.9,176.5z M127,198.9c0.1,0,0.2-0.2,0.4-0.4c0.1-0.3,0.1-0.6,0-0.9l-0.3,0.4
	C126.5,198.4,126.5,198.7,127,198.9L127,198.9z M104.3,239.7l2,0.7c5.6-5.2,12-12.6,19.2-22.2c5.9-7.8,10.6-16.5,13.8-25.8
	c-0.9,0-1.9,0.6-3,1.8c-0.7,1-1.8,1.7-2.9,2c-0.7,0-1.3-0.1-1.9-0.3c0,0.3-0.3,0.7-1,1.1s-0.8,0.8-0.4,1.2c0.3,0.3,0.4,0.7,0.5,1.1
	c0.1,0.4-0.2,0.8-0.6,0.9c-0.3,0.1-0.6,0.2-0.9,0.3c-0.5,0.2-0.9,0.4-1.3,0.7c-0.3,0.5-0.4,1-0.4,1.6c0,0.2-0.2,0.6-0.7,1.1
	c-0.8,0.7-1.5,1.4-2.1,2.3c-0.7,1-1.4,1.8-1.9,2.5s-0.9,0.9-1.3,1c-0.4-0.2-0.8-0.3-1.2-0.2c-0.7,0.1-1.3,0.5-1.5,1.2
	c-0.2,0.5-0.4,0.9-0.6,1.3c-1.6,4.6-3.3,8.1-5.2,10.4c-0.4,0.6-0.8,1.3-1,2c-0.1,0.4-0.3,1-0.6,2c-0.3,0.9-0.8,1.8-1.3,2.5
	c-0.5,0.7-1.2,1.3-2,1.7c-0.6,0.3-1.1,0.7-1.6,1.3c-0.5,0.5-0.7,1.2-0.6,1.9c0,0.6,0.2,1.1,0.5,1.6l0.2,0.7c0,0.3-0.2,0.6-0.7,0.7
	c-0.3,0-0.6,0.2-0.9,0.3c0.5,0.4,0.8,0.8,0.8,1c0,0.2-0.2,0.5-0.6,0.9C104.7,239,104.5,239.4,104.3,239.7z M33.1,276.2l-0.4-0.5
	c-0.2,0.2-0.3,0.4-0.3,0.5c-0.1,0.1-0.1,0.3,0.1,0.3c0.1,0.1,0.2,0.1,0.3,0C32.9,276.6,33.1,276.5,33.1,276.2
	C33.1,276.3,33.1,276.3,33.1,276.2L33.1,276.2z M32.2,274.2c0,0.1,0.1,0.2,0.1,0.2c0,0,0,0,0,0c0.1,0,0.3,0,0.4,0.1l0.3-0.7
	l-0.2-0.2c-0.1-0.2-0.3-0.2-0.5-0.2L32.2,274.2z M75.6,293.5l-0.4,0c-0.6,0.1-1,0.5-1.3,1c-0.3,0.5-0.6,0.9-0.9,1.3
	c0.8-0.1,1.5-0.3,2.2-0.7C75.5,294.7,75.6,294.1,75.6,293.5L75.6,293.5z M88.9,228.1c0.2,0.6,0.6,1.2,1.1,1.6
	c0.5-0.3,0.6-0.9,0.5-1.5c-0.1-0.5-0.1-0.9-0.1-1.4c0-0.3,0.1-0.5,0.4-0.6c0.3-0.2,0.3-0.5,0-0.8c-0.1,0.1-0.3,0.3-0.5,0.6
	s-0.2,0.5,0.1,0.9C89.4,227,88.9,227.4,88.9,228.1z M92,280.1l-0.3,0c-0.7,0.1-1.3,0.5-1.6,1.1c-0.3,0.5-0.7,1-1.2,1.4
	c0.8-0.2,1.6-0.7,2.1-1.3C91.5,280.7,91.9,280.3,92,280.1L92,280.1z M151,257.4l-0.5-0.1c-0.4,0.2-0.5,0.3-0.4,0.6
	c0,0.3,0.2,0.4,0.4,0.1c0.1,0,0.3-0.1,0.4-0.1C151.1,257.8,151.1,257.6,151,257.4L151,257.4z M159,269.7c-0.1-0.3-0.2-0.6-0.4-0.9
	c-0.2-0.3-0.4-0.7-0.6-1c0,0.4,0,0.8-0.1,1.2c-0.1,0.4,0,0.7,0.1,1.1c0.1,0.2,0.3,0.4,0.6,0.5C158.8,270.4,159,270,159,269.7z
	 M159.2,261.2c-0.1-0.2-0.3-0.3-0.4-0.3c-0.1,0-0.3,0-0.4-0.1l-0.2,1.6C158.9,261.9,159.2,261.5,159.2,261.2L159.2,261.2z
	 M170.1,215.5c0,0.3,0.4,0.5,1,0.6c0.4,0,0.9,0.1,1.3,0.3c0-0.5,0.2-0.9,0.6-1.2c0.4-0.4,0.6-0.9,0.7-1.4l-0.2,0
	c-0.5,0.1-1,0.3-1.5,0.7c-0.6,0.4-1.2,0.5-1.5,0.3L170.1,215.5z M170.6,247.1c0-0.1,0-0.3,0-0.5c0-0.2-0.2-0.4-0.4-0.5
	c-0.3,0.2-0.5,0.4-0.7,0.7c-0.4,0.4-0.8,0.8-1.3,1.1c0.4,0,0.8-0.1,1.2,0c0.3,0,0.6,0,0.9-0.1C170.5,247.7,170.6,247.5,170.6,247.1
	L170.6,247.1z M170.1,238.8l-0.4-2.1c-0.2,0.1-0.4,0.2-0.6,0.3c-0.3,0.2-0.4,0.4-0.4,0.6C168.8,237.9,169.2,238.3,170.1,238.8
	L170.1,238.8z M171.5,219c0.5-1,0.8-1.7,0.9-1.9c-0.7,0-1.2,0.6-1.3,1.2c-0.1,0.7-0.3,1.4-0.6,2c-0.3,0.6-0.9,0.8-2,0.7
	c0.7,0.4,1.1,0.8,1.1,1.3c-0.1,0.6-0.3,1.2-0.6,1.6c-0.5,0.6-0.4,1.4,0.1,1.9c-0.1-1,0.2-1.6,0.9-1.6c0.3,0,0.6,0,0.8,0.1
	c0.3,0.1,0.7,0.1,1,0.1c-0.5-0.7-0.9-1.5-1-2.4C170.9,220.9,171.1,219.9,171.5,219L171.5,219z M173.9,250.4c0.3-0.6,0.4-1.2,0.5-1.9
	c-0.1,0.6-0.6,0.9-1.5,1.1c0,0.4,0,0.8-0.1,1.1c-0.1,0.3-0.1,0.5,0.1,0.6c0.2,0.1,0.4,0.3,0.4,0.5l-0.1,1c0,0.5,0.3,1,0.6,1.4
	c-0.2-0.5-0.3-0.9-0.3-1.4C173.5,252,173.6,251.1,173.9,250.4L173.9,250.4z M69.7,362.3c-0.2-0.1-0.3-0.2-0.2-0.3
	c0.1-0.1,0.1-0.2,0.1-0.4c-0.9,0.4-1.8,0.6-2.8,0.6c-1,0.1-2.1,0.2-3.1,0.2l-0.6,0.1c-0.5,0-0.9,0.2-1.2,0.5
	c-0.2,0.2-0.3,0.6-0.1,0.8c0,0,0,0,0,0c0.5,0.1,1,0.1,1.4,0c1-0.2,2-0.5,2.9-0.9C67.3,362.4,68.5,362.2,69.7,362.3z M147.5,342.1
	c-0.6-0.2-1.3-0.3-2-0.3c-1.1,0.2-2.1,0.8-3,1.5c0.4,0,0.9,0,1.3,0c0.4,0.1,0.9,0.1,1.3,0C146.1,343.3,147,342.9,147.5,342.1
	L147.5,342.1z M153.4,341c-0.4-0.3-0.9-0.5-1.5-0.5c-0.4,0.1-0.9,0.2-1.2,0.5c-0.4,0.3-0.8,0.5-0.9,0.6l0.6-0.1
	c0.4,0,0.9-0.1,1.4-0.1C152.3,341.4,152.9,341.2,153.4,341L153.4,341z M161,339.3c-0.2-0.3-0.5-0.5-0.9-0.4c-0.4,0-0.5,0.3-0.5,0.7
	c0,0.2,0.3,0.3,0.9,0.1L161,339.3z M187.5,334.1c-0.6-0.1-1.1-0.2-1.7-0.2c-0.8,0.2-1.4,0.7-1.9,1.4l1.7,0
	C186.5,335.3,187.2,334.8,187.5,334.1L187.5,334.1z M190.8,334.7l0-0.2l-0.3,0.2L190.8,334.7z M201.1,332.5
	c-1.8-0.5-3.6-0.7-5.5-0.6c-1.8,0.2-3.5,1.2-4.6,2.7c1.1-0.6,2.3-1,3.6-1l2.8-0.1l1.1,0C199.5,333.2,200.3,332.9,201.1,332.5
	L201.1,332.5z M206.3,330.3l-0.8,0.3c-0.2,0.2-0.4,0.4-0.7,0.6c-0.3,0.3,0,0.4,0.8,0.4C206.9,331.4,207.1,331,206.3,330.3
	L206.3,330.3z M487.2,283.6c0.2,0,0.3,0,0.3,0.1c0.2,0.1,0.3,0.2,0.2,0.3s0,0.2,0.2,0.2c0.8,0.1,1.2,0,1.4-0.3l-1.8-0.5
	C487.5,283.5,487.4,283.6,487.2,283.6L487.2,283.6z M457.4,287.9c0.5,0.1,1,0,1.6-0.1c0.5-0.1,0.7-0.2,0.7-0.3
	c-0.4-0.1-0.8-0.2-1.2-0.3c-0.4-0.1-0.9,0.1-1,0.5C457.4,287.7,457.4,287.8,457.4,287.9L457.4,287.9z M447.4,287.9
	c0.5,0.3,1.2,0.3,1.7,0l0.3,0c-0.2,0-0.3,0-0.3-0.1c0-0.2-0.1-0.3-0.2-0.3s-0.1,0.1-0.1,0.4l0.3,0.1c-0.3,0-0.5-0.1-0.7-0.2
	C448.1,287.5,447.7,287.6,447.4,287.9L447.4,287.9z M420.6,288.1l0.6-0.1l0-0.3C420.4,287.8,420.2,287.9,420.6,288.1L420.6,288.1z
	 M397,291.2c0,0.2,0.1,0.4,0.2,0.6c0.1,0.3,0.5,0.4,1,0.5c0.9-0.1,1.5-0.3,1.7-0.5c0.2-0.3,0.3-0.6,0.3-0.9c0-0.2,0.1-0.5,0.1-0.7
	l-0.8,0.1c-0.8,0.1-1.6,0.4-2.2,0.9L397,291.2z M371.5,298.9c0.7,0.3,1.5,0.4,2.3,0.3l0-0.2c-0.3,0-0.7,0-1-0.1
	C372.4,298.9,371.9,298.9,371.5,298.9L371.5,298.9z M365.6,300.1c0.3,0,0.6,0,0.9,0.1c0.4,0.1,0.8-0.1,1.1-0.5
	C366.6,299.5,365.9,299.6,365.6,300.1L365.6,300.1z M334.3,303.5c0,0.1,0.1,0.2,0.2,0.2c0.1,0,0.2,0,0.4-0.1c0.2,0,0.3-0.1,0.2-0.4
	c0-0.1-0.1-0.2-0.3-0.1L334.3,303.5z M331.7,301c0,0.4,0.3,0.8,0.7,0.8c0.1,0,0.1,0,0.2,0c0.8-0.1,1.1-0.3,1.1-0.8
	c0.2-0.2-0.2-0.4-1.2-0.6C332,300.5,331.7,300.7,331.7,301L331.7,301z M311.6,311.1c-0.7,0.1-1.3,0.3-1.9,0.5l1.4,0l1.7,0
	c1.4-0.2,2.8-0.7,4.1-1.3l-0.8,0.1c-0.8,0.1-1.6-0.1-2.2-0.6c-0.4-0.5-1-0.7-1.6-0.7c-0.8,0-1.5,0.3-2.2,0.7
	C310.7,310.1,311.3,310.5,311.6,311.1L311.6,311.1z M249.6,318.3l0.6-0.1l0.3-0.2l-0.6,0.1C249.5,318.2,249.4,318.2,249.6,318.3
	L249.6,318.3z M220.5,300.4c0.4,0.3,0.6,0.5,0.7,0.6c0-0.2,0.1-0.5,0.2-0.7c0.1-0.4,0-0.7-0.5-0.9
	C220.2,299.8,220.1,300.2,220.5,300.4L220.5,300.4z M222.5,306.9c0.6-0.1,1.2-0.2,1.7-0.3c-0.1,0-0.2,0-0.4,0
	c-0.5-0.1-1.1-0.1-1.6,0c0.1-0.1,0.2-0.2,0.4-0.3c0.2-0.1,0.1-0.2-0.1-0.4l-0.3,0.7C222.3,306.6,222.4,306.7,222.5,306.9
	L222.5,306.9z M226.8,306C226.8,306.1,226.8,306.1,226.8,306L226.8,306L226.8,306z M226.9,293.6l0.4-1.2l-0.5-0.1
	C226.4,292.7,226.5,293.2,226.9,293.6L226.9,293.6z M227.3,298.4c-0.2-0.5-0.3-1-0.3-1.5C226.3,297.2,226.5,297.7,227.3,298.4
	L227.3,298.4z M228.1,288.4l-0.3,0.9C228,289.1,228.1,288.7,228.1,288.4L228.1,288.4z M229.5,284.3c-0.9,0.1-1.1,0.6-0.5,1.6
	c0-0.2,0.1-0.5,0.4-0.7c0.3-0.2,0.3-0.5,0.2-0.7C229.6,284.3,229.5,284.3,229.5,284.3L229.5,284.3z M230,266.4l-0.9-0.9l-0.6,1
	c0,0.1,0.1,0.2,0.2,0.3l0.2,0.2L230,266.4z M233.7,266.1c-0.6-0.5-1.1-0.6-1.3-0.3c-0.3,0.3-0.4,0.5-0.5,0.7
	C232.5,266.4,233.1,266.3,233.7,266.1L233.7,266.1z M234,257.7l-0.2,0l-0.1,0.6l0.2,0L234,257.7z M236.5,269.8
	c-0.1-0.6-0.5-1.1-1-1.4c0.1,1,0.2,2.1,0.1,3.2c0.1-0.1,0.3-0.4,0.5-0.7C236.4,270.6,236.5,270.2,236.5,269.8L236.5,269.8z
	 M237.7,263c-1,1.1-1.2,2.7-0.7,4.1C237.9,265.4,238.1,264,237.7,263L237.7,263z M242.4,248.9c-0.5-0.4-0.8-0.6-0.9-0.6
	c-0.1,0-0.2,0.1-0.3,0.2c-0.1,0.1-0.2,0.2-0.3,0.4c0.1,0.1,0.2,0.2,0.4,0.3c0.1,0.1,0.2,0.1,0.4,0.1
	C241.9,249.2,242.2,249,242.4,248.9L242.4,248.9z M293.6,233.1l-0.4-0.1l-0.3,0.2l0.5,0.1L293.6,233.1z M295.9,231l-0.2-0.3
	c-0.1,0-0.2,0-0.2,0.1l0,0.1c0,0.2,0.1,0.3,0.2,0.3l0.1,0C295.9,231.1,295.9,231.1,295.9,231L295.9,231z M304.1,209.8
	c-0.2,0-0.4,0.1-0.6,0.2c-0.3,0.1-0.5,0.4-0.4,0.7l-0.5,0.6l0.3,0c0.1-0.2,0.1-0.4,0.1-0.6C303.8,211,304.2,210.7,304.1,209.8
	L304.1,209.8z M311.4,159.2c0.6-0.7,0.4-1.3-0.5-1.8C310.7,158.3,310.9,158.9,311.4,159.2L311.4,159.2z M308.4,181.6
	c0.1,0,0.2-0.2,0.4-0.4c0.1-0.3,0.1-0.6,0-0.9l-0.3,0.4C308,181.1,308,181.4,308.4,181.6L308.4,181.6z M285.7,222.4l2,0.7
	c5.6-5.2,12-12.6,19.2-22.2c5.9-7.8,10.6-16.5,13.8-25.8c-0.9,0-1.9,0.6-3,1.8c-0.7,1-1.8,1.7-2.9,2c-0.7,0-1.3-0.1-1.9-0.3
	c0,0.3-0.3,0.7-1,1.1c-0.7,0.4-0.8,0.8-0.4,1.2c0.3,0.3,0.4,0.7,0.5,1.1c0.1,0.4-0.2,0.8-0.6,0.9c-0.3,0.1-0.6,0.2-0.9,0.3
	c-0.5,0.2-0.9,0.4-1.3,0.7c-0.3,0.5-0.4,1-0.4,1.6c0,0.2-0.2,0.6-0.7,1.1c-0.8,0.7-1.5,1.4-2.1,2.3c-0.7,1-1.4,1.8-1.9,2.5
	s-0.9,0.9-1.3,1c-0.4-0.2-0.8-0.3-1.2-0.2c-0.7,0.1-1.3,0.6-1.5,1.2c-0.2,0.5-0.4,0.9-0.6,1.3c-1.6,4.6-3.3,8.1-5.2,10.4
	c-0.4,0.6-0.8,1.3-1,2c-0.1,0.4-0.3,1-0.6,2c-0.3,0.9-0.8,1.8-1.3,2.5c-0.5,0.7-1.2,1.3-2,1.7c-0.6,0.3-1.1,0.7-1.6,1.3
	c-0.5,0.5-0.7,1.2-0.6,1.9c0,0.6,0.2,1.1,0.5,1.6l0.2,0.7c0,0.3-0.2,0.6-0.7,0.7c-0.3,0-0.6,0.2-0.9,0.3c0.5,0.4,0.8,0.8,0.8,1
	c0,0.2-0.2,0.5-0.6,0.9C286.2,221.7,285.9,222,285.7,222.4z M270.7,210c0.4,0,0.7,0.1,1.1,0.1c0-0.2,0-0.4,0.1-0.6
	c0-0.3,0.1-0.5,0.4-0.6c0.3-0.2,0.3-0.5,0-0.8l-0.5,0.6c-0.2,0.2-0.2,0.5,0.1,0.9C271.4,209.5,271,209.7,270.7,210L270.7,210z
	 M332.5,240.1l-0.5-0.1c-0.4,0.2-0.5,0.3-0.4,0.6c0,0.3,0.2,0.4,0.4,0.1c0.1,0,0.3-0.1,0.4-0.1C332.6,240.4,332.6,240.3,332.5,240.1
	L332.5,240.1z M365.8,192.1c-0.2-0.1-0.3-0.2-0.5-0.1c-0.3,0.2-0.5,0.5-0.4,0.9c0.1,0.6,0.3,0.7,0.7,0.3c0.2-0.2,0.3-0.4,0.3-0.7
	C365.9,192.4,365.9,192.2,365.8,192.1C365.8,192.1,365.8,192.1,365.8,192.1z M408.9,174.4l-0.3,0l-0.3,0.4l0.3,0L408.9,174.4z
	 M410.3,173.4l-0.3-1.2l0.1,1.2L410.3,173.4z M425,179.4c0,0.3,0.1,0.7,0.3,0.9c0.4-0.6,0.8-1.2,1.1-1.7c0,0-0.1,0-0.1,0
	c-0.5-0.2-0.8-0.2-1-0.1C425.1,178.7,425,179.1,425,179.4z M419.8,188.1c0,0.5,0,1,0,1.4c0.2-0.3,0.5-0.6,0.7-0.9
	c0.3-0.5,0.5-1,0.8-1.5c0.3-0.9,0.5-1.8,0.9-2.7c-0.3,0.3-0.8,0.5-1.3,0.6c-0.4,0-0.8,0-1.2,0C419.7,186,419.7,187,419.8,188.1
	L419.8,188.1z M419.3,198c-0.2-0.2-0.4-0.3-0.5-0.5c-0.3,0.5-0.4,1-0.4,1.5c0,0.5,0.1,1,0.3,1.4c0-0.5,0.2-1,0.4-1.5
	C419.2,198.6,419.3,198.3,419.3,198L419.3,198z M431,173.8c-0.2,0.2-0.3,0.5-0.4,0.7c-0.2,0.3-0.1,0.6,0.2,0.8
	C431.6,175.3,431.7,174.7,431,173.8L431,173.8z M434.3,175l-0.4-0.1l0,0.2l0,0.1c0,0.1,0.1,0.1,0.2,0.1L434.3,175z M435.4,173.9
	c-0.1-0.1-0.2-0.1-0.3-0.1c-0.1,0.1-0.1,0.2,0,0.3L435.4,173.9z M435.5,173.3l0,0.3l0.1-0.1C435.7,173.5,435.7,173.4,435.5,173.3
	L435.5,173.3z M437.3,190l-0.2,0l-0.2,0l0.2,0.2L437.3,190z M440.5,167.5c-0.2,0.2-0.5,0.5-0.8,0.7c-0.4,0.3-0.3,0.8,0.2,1.5
	c0.7-0.4,1-1.3,0.6-2.1C440.5,167.6,440.5,167.6,440.5,167.5L440.5,167.5z M437.9,228c-0.2,0.3-0.4,0.7-0.6,1
	c-0.3,0.5-0.2,1.2,0.3,1.6L437.9,228z M482.5,143.9l0.2,0C482.5,143.8,482.5,143.8,482.5,143.9z M463.2,150.1l0,0.3l0.2,0
	L463.2,150.1z M447.9,236.1c0.3-0.5,0.3-1,0.2-1.6L447.9,236.1z M457.9,243.6c-0.4,0.3-0.9,0.4-1.3,0.5
	C457,244.1,457.5,243.9,457.9,243.6L457.9,243.6z M461.7,241.7c-0.2-0.1-0.4-0.1-0.6-0.1l-0.4,0c0.1,0.1,0.3,0.2,0.5,0.4
	S461.5,242,461.7,241.7L461.7,241.7z M472.5,234.1c-0.5-0.2-0.7,0-0.7,0.6C472.1,234.3,472.4,234.1,472.5,234.1z M473.1,233.4
	c-0.5,0-0.6,0.2-0.5,0.6L473.1,233.4z M473.2,233l0,0.3C473.5,233.3,473.5,233.2,473.2,233L473.2,233z M476.3,231.3l-0.8-0.2
	c-0.5,0-0.9,0.5-1.4,1.3c0.4-0.1,0.8-0.3,1.1-0.7C475.4,231.4,475.8,231.2,476.3,231.3L476.3,231.3z M482,225.3
	c-0.5,0.1-0.9,0.3-1.3,0.6c-0.2,0.3-0.3,0.7-0.2,1.1c-0.6-0.2-1.2,0.1-1.6,0.6c-0.3,0.5-0.7,0.9-1.2,1.3c-0.5,0.4-0.9,1.1-0.9,1.8
	l-0.2-0.1c-0.1,0-0.3,0-0.3,0.1c-0.1,0.1-0.1,0.2-0.1,0.3l0.1,0.1c0-0.1,0-0.2,0.1-0.3c0-0.1,0.2-0.1,0.4,0c0.5-0.7,1.1-1.3,1.8-1.8
	c0.7-0.5,1.4-1.1,1.8-1.9C480.5,226.4,481,225.9,482,225.3L482,225.3z M488.4,218.8l0-0.2l-0.2,0c0-0.3-0.1-0.4-0.2-0.3
	c-0.5,0.3-0.8,0.7-1.1,1.2c0.2,0.2,0.5,0.1,0.7-0.4s0.4-0.6,0.6-0.5C488.2,218.8,488.2,218.9,488.4,218.8L488.4,218.8z M489.9,216.1
	c-0.2-0.1-0.5,0-0.6,0.4c-0.1,0.2-0.1,0.4,0,0.3l0.3,0c0.2,0,0.4-0.1,0.5-0.3C490.2,216.4,490.2,216.2,489.9,216.1L489.9,216.1z
	 M495.5,208.7l-0.2,0l-0.7,0.8c-0.4,0.5-0.6,1.1-0.6,1.8c0.5-0.3,0.9-0.9,1-1.5C495.1,209.3,495.3,208.9,495.5,208.7L495.5,208.7z
	 M500.7,201.3c-0.1-0.2-0.3-0.4-0.3-0.6c-0.1,0.2-0.2,0.5-0.3,0.7c-0.1,0.4-0.1,0.6,0.1,0.7C500.7,201.8,500.9,201.5,500.7,201.3
	L500.7,201.3z M505.7,184.9c-0.2,0.5-0.2,0.8-0.1,0.9C506.1,185.5,506.1,185.2,505.7,184.9L505.7,184.9z M506.4,184L506.4,184
	l-0.2,0.3l0.1,0.1c0.1,0.1,0.1,0.1,0.1-0.1C506.5,184.1,506.5,184,506.4,184L506.4,184z M506.8,183.5c-0.1,0-0.2,0-0.2,0.1
	c-0.1,0.1-0.2,0.1-0.2,0.1c0.1,0.1,0.3,0.1,0.4,0C506.8,183.7,506.8,183.6,506.8,183.5L506.8,183.5z M510,185
	c-0.3-0.1-0.6-0.2-0.9-0.3c-0.1,0-0.3,0.3-0.4,0.9C509,185.4,509.5,185.2,510,185L510,185z M512.5,152.8c-0.5-0.4-1.2-0.7-1.8-0.7
	c-0.5,0-0.9-0.1-1.4,0c-2.9-0.2-5.9-0.1-8.8,0.2c-1.4,0.1-2.8,0.3-4.2,0.6c-1.7,0.3-4.2,0.8-7.4,1.6c-0.9,0.5-1.8,0.8-2.7,1
	c-1,0.3-1.8,0.5-2.2,0.6c-1.3,0.2-2.5,0.6-3.8,1c-0.6,0.3-1.2,0.6-1.8,1c-0.6,0.5-1.3,0.7-2.1,0.8c-0.6,0.1-1.2,0.3-1.6,0.8
	c-0.3,0.3-0.7,0.6-1.1,0.9c0.4,0.5,0.9,0.9,1.5,1.2c0.5,0.2,1,0.6,1.3,1c0.2,0.3,0.4,0.5,0.7,0.6c0.3,0.2,0.5,0.4,0.5,0.6
	c0,0.8-0.1,1.5-0.5,2.2c-1.2,1.6-2.3,3.4-3.2,5.2c-3.2,6.1-5.4,10.6-6.5,13.3c-3,6.4-5.8,12.9-8.3,19.6c-2.2,6.3-3.8,11.1-4.8,14.5
	c-0.9,2.9-1.6,5.8-2.2,8.8l-0.8,3.8c-0.1,1.1-0.7,2.2-1.7,2.8c-0.1,0.4-0.2,0.9-0.3,1.7c-0.1,0.7-0.4,1.3-0.9,1.8l-0.4-0.2l0,0.3
	l-0.2,0.2c-0.2,0.3-0.4,0.6-0.4,1c-0.1,0.3-0.1,0.5-0.1,0.8c-0.1,0.7-0.2,1.4-0.3,2.1c-0.1,0.9-0.3,1.9-0.7,2.7
	c2.9-0.7,5.6-1.9,8.1-3.5c2.5-1,4.1-1.7,4.8-1.9c0.8-0.1,1.6-0.6,1.9-1.4c1.2-1.8,3.1-3,5.2-3.5c0,0.2,0,0.3,0,0.5
	c0,0.2,0,0.4,0.1,0.5c0.4-0.2,0.5-0.3,0.3-0.5s-0.4-0.4-0.4-0.5c0.6-1,1.1-1.4,1.6-1.2c0.4,0.2,0.8,0.2,1.2,0.1
	c0.3-0.1,0.6-0.3,0.8-0.6c-0.4-0.1-0.8-0.4-0.9-0.9c0.4-0.1,0.7-0.3,0.9-0.6c0.4-0.4,0.7-0.5,0.9-0.3c0.4,0.3,0.7,0.4,1,0.2
	c0.2-0.1,0.4-0.3,0.6-0.3c0.1-0.5,0.4-0.9,0.9-1.1c0.5-0.4,1.3-0.9,2.2-1.6c0.8-0.6,1.5-1.2,2.2-2c0.3-0.8,0.7-1.4,1.3-2
	c0.7-0.7,1.2-1.3,1.5-1.6c0.3-0.6,0.7-0.9,1.1-0.8l0.3,0c-0.2-0.1-0.4-0.3-0.6-0.4c-0.3-0.2-0.4-0.5-0.4-0.9
	c0.7-0.7,1.3-1.4,1.8-2.2c0.6-0.8,1.2-1.6,2-2.3c0.4,0.2,0.6,0.6,0.7,1.1c0.1,0.5,0.2,0.8,0.5,0.9c0.4-0.5,0.6-1.1,0.7-1.7
	c0.1-0.6,0.2-1.1,0.5-1.6l-0.4-0.1c-0.1-0.2-0.1-0.5,0-0.8c0.2-0.2,0.3-0.3,0.4-0.5c0.2,0.1,0.4,0.3,0.3,0.6c0,0.2,0,0.4,0,0.6
	l0,0.2c1.5-1.2,2.6-2.9,3.2-4.7l0.2,0c0.4,0.1,0.5-0.1,0.5-0.6c-0.5,0-0.7,0.2-0.6,0.6c-0.1,0.1-0.2,0.3-0.3,0.5
	c-0.1,0.2-0.3,0.2-0.5,0.1c0-0.6,0.1-1.1,0.3-1.7c0.1-0.3,0.5-0.4,1.1-0.4c-0.1-0.4,0.1-0.6,0.5-0.7c0,0.1,0,0.3,0.1,0.6
	s-0.1,0.3-0.4,0.1c0.4,0.3,0.4,0.6,0.1,0.9c1.5-0.8,2.1-1.8,2-3c-0.2,0-0.5,0.3-0.8,0.9s-0.6,0.8-1,0.6c0.8-2.2,2-4.1,3.7-5.8
	c0.3-0.4,0.5-0.6,0.6-0.6l0.7,0.1c0.6-0.1,1-0.4,1.2-1.2s0.4-1.2,0.5-1.5c0.2-0.2,0.2-0.4,0.1-0.5c-0.2,0-0.4,0.2-0.5,0.6
	c-0.1,0.4-0.5,0.4-1.1,0c0.2-0.5,0.4-1,0.7-1.4c0.6-0.8,1.1-1.7,1.5-2.6c0.4-1,1-1.9,1.7-2.7c0.6-0.5,1-1.1,1.2-1.8
	c0.2-0.6,0.5-1.1,0.9-1.5c0.6-0.6,1.1-1.3,1.4-2.1c0.2-0.7,0.3-1.1,0.4-1.4c0.1-0.8,0.3-1.6,0.6-2.3c0.2-0.7,0.4-1.3,0.6-1.8
	c0.6-1.1,1-2.3,1.3-3.5c0.3-0.5,0.6-1.1,0.9-1.8s0.7-1.4,1.1-2.1l1-1.2c0.3-0.4,0.6-0.8,0.8-1.2c0.1-0.3,0.2-0.6,0.3-1
	c0.1-0.4,0.3-0.7,0.6-0.9l-0.2,0l0-0.4c0-0.3,0.1-0.5,0.2-0.8c0.1-0.4,0-0.7-0.5-0.9c-0.1,0.3-0.1,0.7-0.1,1c0,0.3-0.1,0.5-0.3,0.7
	c-0.2,0.2-0.5,0.4-0.8,0.4C512.3,163,513,157.4,512.5,152.8L512.5,152.8z M471.7,230.1c0-0.1,0-0.1,0-0.2l0,0L471.7,230.1z
	 M471,230.2l0.1,0.2c0.1,0.1,0.2,0.2,0.3,0.1c0.2,0,0.3-0.1,0.3-0.3c0,0,0-0.1,0-0.1C471.5,230,471.2,230,471,230.2
	C471,230.1,471,230.2,471,230.2L471,230.2z M447.9,240.3c0.3,0.1,0.6,0.1,0.9,0.1c0.1-0.2,0.2-0.5,0.3-0.8c0.1-0.4,0.1-0.7,0.1-1.1
	l-0.4-0.8l-0.7,0.2l-0.5,1.8C447.5,239.9,447.7,240.2,447.9,240.3L447.9,240.3z M439.5,205.8l0,0.2l0,0.2c0.3,0,0.4-0.1,0.1-0.4
	L439.5,205.8z M447,192.1c-0.7,0.3-1,0.6-0.9,0.9c0.1,0.2,0.1,0.4,0.1,0.6c0.2-0.2,0.4-0.4,0.6-0.7C447,192.6,447.1,192.3,447,192.1
	L447,192.1z M451.8,180.2l-0.5-1.2c-0.1,0.3-0.3,0.5-0.4,0.7c-0.2,0.2-0.2,0.5-0.1,0.7C451.2,180.7,451.6,180.5,451.8,180.2
	L451.8,180.2z M440.1,205.2C440.1,205.1,440.1,205,440.1,205.2l0.3,0l-0.3-0.5l-0.3,0.4C440,205,440.1,205.1,440.1,205.2
	L440.1,205.2z M2.5,86.1l-2.4-1.7c0-0.1,0-0.1-0.1-0.2C0,84.1,0,84,0,84c0-0.8,0.3-1.5,0.8-2c2.3-2.2,4.7-4.2,7.3-5.9
	c0.5-0.4,1-0.8,1.5-1.2c0.5-0.4,0.9-0.7,1.3-1.1c3.4-2.5,6.9-4.7,10.7-6.7c0.5-0.2,1.7-0.7,3.4-1.5c1.9-1,3.9-1.9,5.9-2.6
	c0.8-0.2,1.5-0.5,2.3-0.8c1.1-0.6,2.3-1,3.6-1.2c0.4-0.1,0.7-0.1,1.1-0.1c0.7-0.6,1.6-1,2.5-1.1c0.8-0.1,1.5-0.3,2.3-0.6
	c0.9-0.4,1.9-0.7,2.9-0.8c0.6-0.1,1.3-0.2,2.2-0.2c0.8-0.1,1.5-0.1,1.9-0.1c1.5-0.2,2.9-0.2,4.4-0.1c1.5,0.1,2.9,0.5,4.2,1.2
	c1.4,0.8,2.8,1.7,4.1,2.7c1.4,1.2,2.6,2.5,3.6,4.1c-0.3,0.2-0.7,0.2-1,0.1c0,0,0,0-0.1,0c0.2,0.2,0.4,0.5,0.5,0.8
	c0.1,0.3,0.3,0.6,0.3,1c0.1,0.5,0,1-0.2,1.5c-0.1,0.5-0.3,0.9-0.6,1.3c-0.2,0.4-0.4,0.7-0.6,0.9c-1.8,3.9-3.4,8-4.7,12.1l5.1-2
	c0.9-0.7,2-1.3,3.1-1.6l1.7-0.7c1.7-0.8,3.4-1.6,5.2-2.2c0.3-0.1,0.5-0.3,0.6-0.5c0.1-0.1,0.1-0.3,0.1-0.4c0.1-0.5,0.2-1.1,0.5-1.6
	c0.3-0.4,0.7-0.6,1.1-0.7C77.1,74,77,73.7,77,73.4c-0.1-0.8,0-1.5,0.3-2.2c0.2-0.5,0.4-1.1,0.6-1.7l2.6-8.3l1.8-4.4
	c0.1-0.2,0.3-0.4,0.5-0.5c0.1,0,0.3,0,0.4,0.1c0.1,0,0.2,0.1,0.4,0.2l1.8,0.8c1.9,0.8,3.8,1.8,5.5,3l0.2,0.3
	c0.5,0.1,0.9,0.4,1.2,0.8c0.1,0.3,0.2,0.6,0.4,0.9l0,0.1c0,0.1,0,0.3,0,0.4c0,0.1-0.1,0.3-0.1,0.4c-0.2,0.1-0.4,0.3-0.4,0.6
	c0,0.2,0,0.4-0.1,0.5c-0.2,0.3-0.3,0.6-0.4,0.9l0.2,0.1l0.2-0.9c0.1,0,0.2-0.1,0.3-0.1c0,0.6-0.1,1.1-0.3,1.7
	c-0.2,0.6-0.5,1.2-0.9,1.7c0-0.8,0-1.2,0-1.3c0.3-0.2,0.3-0.4,0.2-0.8l-0.3,0.8l-1,2.7c-0.1,0.2-0.1,0.3-0.1,0.5l-0.4,1l-1,2.7
	l-0.1,0.2l0.2-0.1c0.4-0.3,0.6-0.8,0.6-1.3c0.1-0.5,0.2-0.9,0.3-1.4l0.4-1.1l0.3-0.4l0.4-0.6c0.1,0.5,0,1-0.1,1.4
	c-0.2,0.5-0.4,1-0.6,1.4c-0.2,0.5-0.4,0.9-0.6,1.2c-0.2,0.4-0.3,0.9-0.3,1.3c0,0.3,0.2,0.4,0.5,0.5c0.5,0.1,0.9,0.2,1.4,0.2
	c0.5,0,1.2,0,2-0.1c0.2,0,0.3,0,0.5,0c0.3-1.6,0.9-3.2,1.8-4.6c0.1-0.3,0.2-0.3,0.4-0.2c0.2,0.2,0.1,0.4-0.2,0.4
	c0.2,0.6,0.2,1.2,0,1.7c-0.2,0.5-0.2,1.1-0.2,1.7c0,0.3,0.1,0.5,0.2,0.8c0.1-0.6,0.2-0.9,0.4-1c0.2,0,0.4,0.1,0.6,0.1
	c0.2,0.1,0.5,0.1,0.7-0.1l-0.1-0.3c0-0.3,0-0.6,0.1-0.9c0.1-0.4,0-0.7-0.2-1c-0.1,0-0.2,0.1-0.3,0.3s-0.3,0.1-0.4-0.1
	c-0.1-0.1-0.1-0.2-0.2-0.3c0-0.2,0-0.3,0.1-0.5c0.1-0.2,0.2-0.3,0.2-0.5c0-0.1,0-0.2-0.1-0.4c0-0.2-0.2-0.4-0.4-0.5
	c0.2,0.3,0.1,0.4-0.3,0.4c0-0.1,0-0.2,0-0.3s0.1-0.2,0.4-0.1c0.2-0.9,0.5-1.3,0.8-1.4c0.2,0,0.6,0.2,1.2,0.6
	c0.2,0.2,0.4,0.3,0.6,0.4c0.2,0.1,0.5,0.1,0.7-0.1c0.3-0.3,0.5-0.7,0.5-1.1c-0.1-0.8-0.4-1.3-0.8-1.5c-0.2,0-0.3,0.2-0.4,0.5
	c-0.1,0.3-0.2,0.4-0.4,0.4c0,0.3-0.2,0.5-0.5,0.6c-0.2-0.2-0.3-0.4-0.1-0.6l0.3-0.4c0-0.4,0.2-0.8,0.5-1.1c0.3-0.3,0.5-0.7,0.4-1.2
	c0.8,0.8,1.4,1.2,1.8,1.2c0.3,0,0.7-0.4,1.1-1c-0.4,0-0.8-0.1-1.1-0.4c-0.3-0.3-0.7-0.4-1-0.3c0-0.6,0.3-0.9,0.7-1
	c0.7,0,1.4-0.3,2-0.8c0.5-0.6,0.7-1.3,0.8-2.1c0-0.2,0-0.4,0-0.6c0-0.3,0.3-0.5,0.8-0.5l0.1,0c0.4,0,0.7-0.3,0.8-0.6
	c0.2-0.3,0.2-0.7,0.1-1l0-0.2c0-0.3,0-0.6,0.2-0.8c0.1-0.2,0.2-0.4,0.3-0.6c0.2-0.3,0.5-0.6,0.9-0.7c0.3,0,0.6,0.2,0.8,0.6
	c-0.1-0.1-0.1-0.2-0.1-0.3c0-0.3,0.1-0.5,0.5-0.6c0.6-0.1,1-0.6,1.2-1.2c0-0.4,0.4-0.7,0.8-0.7c0.1,0,0.1,0,0.2,0l0.3,0
	c0.6-0.1,1-0.5,1.3-1l0.2-0.4c0-0.2-0.2-0.4-0.3-0.5c-0.2-0.1-0.4-0.2-0.7-0.2c0-0.2,0-0.3,0-0.5c1-0.9,2-1.7,3.1-2.5
	c0.9-0.6,1.8-1,2.9-1.2c0.6-0.1,1.3,0,1.9,0.3l2.6,1.5c2.1,1.2,4,2.3,5.4,3.3c1.5,1,2.8,2.1,4.1,3.4L131,56c0.2,0.1,0.6,0.2,1.1,0.4
	c0.5,0.1,0.8,0.5,0.9,1c0,1.2-0.2,2.4-0.7,3.5c-0.4,1.1-0.9,2.1-1.5,3c-0.6,0.9-1.3,1.6-2.2,2.1c-0.7,0.3-1.1,1-1.1,1.8
	c0,0.7-0.5,1.1-1.3,1.3l0.2,0.5c0.1,0.6,0,1.2-0.2,1.7c-0.2,0.4-0.3,0.7-0.5,1c-0.2,0-0.4,0-0.5-0.2c-0.1-0.1-0.3-0.2-0.4-0.3
	c0,0.4-0.1,0.7-0.3,1c-0.3,0.4-0.7,0.8-1,1.2c-0.4,0.4-0.7,0.8-1,1.3c-0.2,0.5-0.5,0.9-0.8,1.4c-0.3,0.5-0.6,0.9-0.8,1.2
	c-0.1,0.3-0.3,0.5-0.4,0.8c-0.2,0.4-0.5,0.7-0.9,0.8c-0.4,0-0.8-0.1-1.1-0.4l-0.1,0c-0.3,0.1-0.5,0.2-0.7,0.4
	c-0.2,0.2-0.5,0.4-0.6,0.6c-0.9,1.4-1.9,2.7-3,4l-1.7,2.2c-0.6,0.8-1.3,1.5-2,2.2l-1.7,1.9c-0.1,0-0.3-0.1-0.6-0.3
	c-0.2-0.2-0.5-0.2-0.8,0.1c-0.2,0.2-0.3,0.4-0.3,0.7c0,0.2,0.2,0.4,0.3,0.6c0,0.2-0.2,0.4-0.5,0.3c0,0,0,0-0.1,0
	c-0.3-0.1-0.4,0-0.5,0c-0.4,0.6-0.7,1.2-1,1.8c-0.3,0.8-0.7,1.6-1.2,2.3c-0.4,0.6-0.9,1-1.6,1.4c0,0.5,0,1,0,1.5
	c0.1,0.5,0.2,1.1,0.3,1.6c0.1,0.4,0.2,0.8,0.3,1.1c0.2,0.7,0.4,1.1,0.8,1.3c0.5,0.2,1.1,0.2,1.6,0.1c2.6-0.4,5-1.4,7.2-2.9
	c2-1.2,3.9-2.5,5.7-4c1.9-1.5,3-2.4,3.4-2.7c0.4-0.5,0.9-0.9,1.4-1.3c1.7-1.5,2.7-2.3,2.9-2.5c0.1-0.1,0.3-0.1,0.4-0.2
	c0.3-0.2,0.6-0.2,0.8,0l-1.1,1.5c-0.1,0.1-0.2,0.3-0.2,0.5c0,0.2,0.1,0.3,0.2,0.3c0.3,0.3,0.8,0.3,1.1,0c0.3-0.3,0.5-0.5,0.7-0.9
	c0.2-0.3,0.5-0.6,0.9-0.8c-0.3,0.2-0.3,0.3,0,0.5c0.1,0.1,0.3,0.1,0.4,0c0.1-0.1,0.1-0.1,0.2-0.2c0.2-0.2,0.4-0.2,0.5-0.1
	s0.1,0.3,0,0.5c-0.1,0.2-0.1,0.5-0.1,0.8c0.1,0.4,0.4,0.8,0.8,1.1c-0.1,0.3-0.2,0.9-0.3,1.7c-0.1,0.7-0.3,1.3-0.8,1.7
	c-0.5,0.4-0.9,1-1.1,1.7c-0.1,0.5-0.2,0.9-0.4,1.4c0.1-0.2,0.3-0.2,0.5-0.1c0.1,0.1,0.2,0.2,0,0.3l-0.2,0.1
	c-0.2,0.2-0.4,0.1-0.5-0.2c-0.2,0-0.4-0.1-0.6,0c-0.3,0.1-0.5,0.2-0.6,0.4c-0.2,0.2-0.4,0.4-0.7,0.5c0.2,0.1,0.4,0.2,0.6,0.1
	c0.2-0.1,0.4-0.2,0.6-0.4c0.1-0.2,0.4-0.3,0.6-0.3c0,0.8-0.3,1.6-0.9,2.3c-0.5,0.5-1.2,0.8-1.9,0.9l-0.3,0c-0.6,0.2-1.1,0.5-1.5,1
	c-0.5,0.7-1.3,1-2.2,0.9c-0.2,0.8-0.6,1.5-1.1,2.1c-0.4,0.5-1.1,0.9-1.7,1c-1.1,0.3-1.9,0.5-2.4,0.5c-1.7,0.2-3.4,0.2-5.1-0.1
	c-1.8-0.2-3.6-0.7-5.3-1.4c-1.6-0.7-3.7-1.7-6.5-3.2l-2.7-1.4c-0.7-0.3-1.3-0.8-1.8-1.3c-0.6-0.6-1-1-1.2-1.2l-1.7-1.6
	c0.1-0.2,0.1-0.5,0.2-0.7c0.1-0.2,0.1-0.5,0.1-0.8c-0.5-1.3-0.8-2.7-1-4.1c-0.4-4-0.1-8,0.9-11.9c0.3-0.9,0.7-1.8,1.2-2.6
	c0.1-0.2,0.2-0.4,0.2-0.6c0-0.1,0-0.2,0.1-0.3c-0.2,0-0.5-0.1-0.7-0.2c0.1,0,0.1-0.1,0.1-0.3l-0.1,0.3c-0.2,0.3-0.5,0.5-0.8,0.5
	c-0.3,0-0.6,0-0.9-0.1C90.7,77,90.4,77,90.1,77c-0.4,0.1-0.7,0.4-0.9,1.1c-0.1-0.2-0.1-0.4-0.1-0.6c0-0.3-0.1-0.4-0.3-0.4
	c-0.3,0.1-0.4,0.3-0.3,0.5l0.2,0.3c-0.8,0.6-1.3,1.6-1.3,2.6c0.2,1-0.5,2-1.5,2.1c-0.1,0-0.2,0-0.2,0c-0.2,0-0.3,0.7-0.4,2.1
	c-0.1,0.6-0.3,1.2-0.5,2c-0.2,0.8-0.4,1.3-0.4,1.7c-0.7,2.2-1.1,4.4-1.2,6.7c0,0.1-0.1,0.3-0.2,0.4c-0.1,0.1-0.2,0.2-0.2,0.3
	c-0.1-0.1-0.1-0.2-0.1-0.4L82.1,97c-0.2-0.1-0.4-0.4-0.5-0.6c0-0.2,0-0.5,0.1-0.7c0.1-0.2,0.1-0.4,0-0.7c-0.8,1.1-1.3,2.3-1.5,3.6
	c-0.3,1.2-0.5,2.5-0.3,3.8c0,0.3,0.2,0.7,0.3,0.9c-0.1,0.6-0.2,1-0.3,1.4l-0.5-0.3l-0.3,2.2c-0.1,1.4-0.4,2.8-0.7,4.2
	c-0.3,1.1-0.7,2.2-1.4,3.2l-0.2-0.1L77,114l-0.2-1.7l-0.3,2.3l0.7-0.4c0,0.3-0.1,0.6-0.3,0.8c-0.2,0.2-0.5,0.3-0.8,0.3l-0.1-1.8
	c-0.3,0.4-0.4,0.9-0.5,1.4c0,0.4,0,0.9,0.1,1.3c0.1,0.5,0.2,0.9,0.2,1.2l0,0.8l0.3-0.9c0.3,0.1,0.5,0.4,0.6,0.8c0,0.4,0,0.7-0.2,1.1
	c-0.1,0.2-0.2,0.2-0.3,0s-0.2-0.3-0.3-0.2c0.1,0.2,0.2,0.5,0.2,0.8c0.1,0.5,0,1.1-0.1,1.6c-0.1,0.6-0.2,1.1-0.2,1.3
	c-0.2,0.1-0.4,0.2-0.7,0.2c-2.1,0.3-3.5,0.1-4.2-0.6c-0.6-0.7-1-1.6-1.2-2.5c-0.1-1-0.2-1.6-0.3-2c-0.2-0.6-0.3-1.1-0.3-1.7
	c-0.3-2.1-0.2-4.1,0.2-6.2c0-0.4,0.3-0.4,0.9-0.2c0.3-7.6,1.2-15.2,2.7-22.6c-0.2,0-0.3,0.1-0.5,0.2c-0.2,0.1-0.4,0.1-0.6-0.1
	l-1.6,1.2c0.2,0.1,0.3,0.1,0.5,0c0.3,0,0.5,0.1,0.7,0.5c-0.8-0.2-1.6-0.2-2.4-0.1c-1,0.1-2,0.7-2.6,1.5c-0.6,0.9-1.2,1.9-1.5,2.9
	c-0.4,1.1-0.7,1.9-0.9,2.3c0.1-0.1,0.2-0.2,0.4-0.1c0.1,0,0.1,0.1,0,0.3c-0.1,0.1-0.3,0.2-0.4,0.3c-0.2,0.2-0.5,0.1-0.6-0.1
	c0,0,0,0,0,0l-0.3,0.2c-0.1,0-0.1,0,0,0.1c0.1,0,0.1,0.1,0,0.2c0,0,0,0,0,0c-0.1,0.1,0,0.2,0.1,0.4c0,0,0,0.1,0.1,0.1c0,0,0,0,0,0
	l0,0c0,0,0,0,0,0.1c0,0.2,0,0.3,0,0.5c-0.3,0.7-0.6,1.4-0.8,2.1c-0.3,0.9-0.5,1.5-0.6,2l-0.6,0.1l0,0.3c0.2-0.1,0.4-0.2,0.6-0.2
	l0-0.2l0.6-0.1c-0.1,0.1-0.3,0.2-0.4,0.3l-2,1.1c0.4,0,0.9,0.1,1.3,0.2c-0.1,0.2-0.1,0.5-0.1,0.7c0,0.4,0,0.5-0.1,0.6
	c-0.5,0.2-0.8,0.5-1,1l0.3,0c0.4-0.1,0.5,0.1,0.4,0.5s0,0.6,0.1,0.7c-0.3,0.1-0.5,0.3-0.6,0.6c-0.1,0.3-0.1,0.5-0.2,0.7
	c0.1,0,0.1,0.1,0.1,0.2l0,0.1c0,0.2-0.1,0.4-0.2,0.5c-0.1,0.3-0.1,0.6,0,0.9c-0.2-0.5-0.3-0.8-0.5-1c-0.1-0.2-0.2-0.3-0.2-0.5
	c-0.2,0.3-0.3,0.6-0.4,0.9l-0.1,0.5l0.1,0c0.1-0.1,0.2-0.2,0.1-0.3c0.3,0.3,0.6,0.7,0.6,1.2c0.1,0.3,0,0.7-0.2,1
	c-0.1,0.2-0.1,0.5-0.1,0.7c-0.6,0.3-1.5,0.6-2.7,1c0-0.3,0-0.6,0-0.8c-0.3,0.1-0.5,0.3-0.6,0.6c-0.2,0.3-0.3,0.6-0.6,0.8
	c-0.2,0.2-0.5,0.3-1,0.1c0,0.3-0.2,0.7-0.7,1.3c-0.4,0.4-0.6,0.9-0.6,1.5c0.1,0.4,0.3,0.8,0.5,1.1c-0.4,0.4-0.9,0.6-1.4,0.7
	c-0.8,0.1-1.7,0-2.4-0.3c-0.4-0.1-1-0.2-1.9-0.5c-0.8-0.2-1.5-0.5-2.3-0.8c-0.6-0.3-1.2-0.8-1.5-1.5c-1.1-1.6-1.7-3.5-1.9-5.4
	c-0.2-1.3-0.3-2.6-0.3-3.9c0-1.4,0.1-2.9,0.4-4.3l0.4-3.4l0.4,1.3c-0.2-2.1,0-4.2,0.4-6.2c0.1-0.6,0.3-1.5,0.7-2.7
	c0.3-1.1,0.4-2.2,0.4-3.3c0.3,0.1,0.6,0.1,0.9,0.1c0-0.2,0.1-0.4,0.2-0.7c0.1-0.3,0.1-0.5,0.1-0.8c-0.1-0.3-0.2-0.5-0.5-0.6
	c0-0.6,0.3-1.1,0.7-1.5c0.4-0.3,0.6-0.7,0.8-1.1c-0.3-0.2-0.5-0.6-0.5-1c0-0.5,0.2-1,0.3-1.5c0.2-0.2,0.4-0.4,0.6-0.6
	c0.3-0.2,0.5-0.5,0.7-0.7c0.1-0.3,0.1-0.6-0.1-0.8c0.3-0.2,0.6-0.5,0.7-0.9c0.2-0.5,0.3-1,0.4-1.5c0.1-0.5,0.2-1,0.5-1.4
	c-0.3-0.1-0.2-0.9,0.1-2.1c0.4-1.4,1-2.8,1.7-4c0.4-0.8,0.9-1.5,1.4-2.2c-0.4,0.1-0.8,0.2-1.2,0.2c-0.9,0.2-1.6,0.4-2.2,0.5
	c-1,0.3-1.9,0.6-2.8,1.1c-0.6,0.4-1.3,0.7-2.1,1l-1.8,0.5c-1.1,0.5-2.2,0.8-3.3,1h-0.7c-0.4,0-0.8,0.3-0.9,0.7
	c0.1,0.4,0.3,0.7,0.6,0.9c0.3,0.3,0.6,0.5,0.9,0.6c0,0.6,0,1.1-0.2,1.7c-0.2,0.6-0.2,1.2-0.1,1.8l0,0.2c0,0.4-0.1,0.8-0.4,1.2
	c-0.3,0.4-0.7,0.7-1.2,0.8L36.8,78c-0.5,0.8-0.8,1.7-1,2.6c-0.3,0.9-0.5,1.8-0.5,2.8c0.1,0.1,0.1,0.3,0.2,0.4c0,0.2-0.1,0.5-0.5,0.8
	c-0.1-0.1-0.1-0.2-0.2-0.3c-0.1-0.1-0.2-0.2-0.4-0.2c-0.1,0.5-0.3,0.9-0.5,1.4c-0.2,0.4-0.4,0.9-0.5,1.4c-0.1,1.3-0.5,2.6-1.1,3.7
	c-0.3,0.6-0.6,1.3-1,1.9c-0.5,0.7-0.8,1.6-0.9,2.5c0,0.3-0.2,0.6-0.8,0.9c0,0.1,0,0.3,0,0.4c0,0.2,0,0.3,0.1,0.5
	c-0.2,0.5-0.5,1.6-0.9,3.2c0,0.2-0.2,0.7-0.4,1.4l-0.2,0.4c-0.4,1.4-0.9,2.7-1.6,3.9c-0.4,0.6-0.7,1.3-0.8,2c-0.1,0.5-0.2,1-0.4,1.5
	c-0.3,0.9-0.5,1.8-0.7,2.8c-0.1,0.6-0.3,1.5-0.7,2.7c-0.6,0.8-0.6,1.9-0.2,2.8c0.1,0.6,0,1.1-0.1,1.7c-0.2,0.4-0.3,0.8-0.2,1.2
	c0.1,0.3,0.2,0.7,0.4,0.9c0.2,0.3,0.4,0.6,0.5,0.9c0,0.4-0.1,0.8-0.4,1c0.2,0.2,0.4,0.3,0.7,0.3c0.3,0,0.5,0.1,0.7,0.2
	c0.2,0.1,0.3,0.4,0.3,0.6c0.4-0.2,0.8-0.4,1.1-0.6c0.3-0.3,0.7-0.4,1.1-0.5c0.3,0,0.6,0,0.9,0.2c0,0.6-0.2,1.2-0.4,1.8
	c-0.2,0.6-0.3,1.1-0.4,1.7c-1.9,0.3-3.7,0.2-5.6-0.1c-1.7-0.3-3.2-1.1-4.5-2.3c-0.4-0.4-0.7-0.9-0.9-1.4c-0.3-0.6-0.5-1.1-0.7-1.4
	c-0.4-0.9-0.6-1.9-0.8-2.8c-0.2-2.1-0.1-4.3,0.3-6.4c0.1-0.6,0.2-1.5,0.3-2.7c0.1-1.2,0.2-2.5,0.5-3.7c0.1-0.3,0.2-0.5,0.2-0.8
	c0.2-1.4,0.5-2.7,1.1-4l0.3-0.5c0-0.2,0.1-0.5,0.2-0.8c0.1-0.3,0.2-0.6,0.4-0.8l0-0.3l-0.1-0.6c-0.1-0.3-0.1-0.6,0.1-0.8
	c0.7-1.7,1.1-3.5,1.2-5.3c0-0.5,0.2-1,0.5-1.5c0.3-0.4,0.5-0.9,0.7-1.4l1.4-4.7l1-3.2c0.2-0.6,0.3-1.1,0.6-1.6
	c0.2-0.6,0.4-1.2,0.5-1.8c0.1-0.6,0-1.2-0.1-1.8c-0.4,0.2-1,0.6-1.7,1c-0.7,0.4-1.3,0.8-1.9,1.2c-0.5,0.4-1,0.8-1.4,1.4
	c-0.3,0.3-0.5,0.6-0.7,0.9c-0.2,0.4-0.5,0.6-0.9,0.8c-0.4,0.3-0.7,0.6-1.1,0.9c-0.4,0.4-0.8,0.7-1.3,0.9c-0.2,1-0.9,1.8-1.8,2.1
	c-0.2-0.3-0.3-0.7-0.5-1l-0.2,0c-0.2,0-0.3,0.1-0.5,0.2c-0.1,0.1-0.2,0.2-0.3,0.4c-0.3,0.6-0.7,1.1-1.2,1.5
	c-0.5,0.4-1.1,0.8-1.7,1.1c-0.6,0.3-1.1,0.6-1.7,1l-0.3,0c-0.3,0-0.6,0-0.8-0.1c-0.3-0.1-0.5-0.2-0.7-0.2L2.5,86.1z M43.3,100.1
	c-0.3,0.2-0.4,0.5-0.4,0.8c0.1,0.3,0.2,0.7,0.3,1L43.3,100.1z M49.3,81.7l-0.2-1.1l-0.2,0c-0.3,0.1-0.5,0.2-0.7,0.4
	c-0.1,0.2-0.3,0.3-0.6,0.4C48.2,81.9,48.8,81.9,49.3,81.7z M127.3,93.4c0,0.2,0.1,0.2,0.2,0.1c0.1,0,0.2,0,0.2-0.1
	c0.1,0,0.1-0.1,0-0.2l-0.3-0.1C127.3,93.1,127.3,93.2,127.3,93.4z M106.6,90.3l-0.2-0.1l-0.2,0.1l0.3,0.1L106.6,90.3z M107.7,89.1
	l-0.1-0.2c-0.1,0-0.1,0-0.1,0.1l0,0c0,0.1,0.1,0.2,0.1,0.2L107.7,89.1C107.7,89.2,107.7,89.2,107.7,89.1L107.7,89.1z M111.6,77.4
	c-0.1,0-0.2,0.1-0.3,0.1c-0.2,0.1-0.2,0.2-0.2,0.4l-0.2,0.4l0.2,0c0-0.1,0.1-0.2,0-0.3C111.5,78.1,111.7,77.9,111.6,77.4L111.6,77.4
	z M114.2,49.8c0.3-0.4,0.2-0.7-0.3-0.9C113.8,49.3,113.9,49.7,114.2,49.8L114.2,49.8z M113.2,62c0.1,0,0.1-0.1,0.2-0.2
	c0.1-0.2,0.1-0.3,0-0.5l-0.2,0.2C113,61.8,113,61.9,113.2,62L113.2,62z M102,84.8l1.1,0.3c3.6-3.9,6.9-8.1,9.8-12.5
	c3-4.4,5.3-9.2,6.8-14.3c-0.7,0.1-1.2,0.5-1.6,1.1c-0.4,0.5-0.9,1-1.5,1.1c-0.4,0-0.7,0-1-0.1c0,0.2-0.1,0.4-0.5,0.6
	c-0.4,0.2-0.4,0.5-0.2,0.7c0.1,0.2,0.3,0.4,0.3,0.6c0,0.2-0.1,0.5-0.3,0.5c-0.2,0.1-0.3,0.1-0.5,0.2c-0.2,0.1-0.5,0.3-0.7,0.4
	c-0.1,0.3-0.2,0.6-0.2,0.9c0,0.1-0.1,0.3-0.3,0.6c-0.4,0.4-0.8,0.8-1.1,1.3c-0.4,0.6-0.7,1-0.9,1.4c-0.3,0.4-0.5,0.5-0.7,0.6
	c-0.2-0.1-0.4-0.1-0.7-0.1c-0.4,0.1-0.7,0.3-0.8,0.7c-0.1,0.2-0.2,0.5-0.3,0.7c-0.5,2.1-1.4,4-2.5,5.8c-0.2,0.3-0.4,0.7-0.5,1.1
	c0,0.2-0.1,0.6-0.3,1.1c-0.1,0.5-0.4,1-0.7,1.4c-0.3,0.4-0.6,0.7-1,1c-0.3,0.2-0.6,0.4-0.8,0.7c-0.2,0.3-0.4,0.7-0.3,1
	c0,0.3,0.1,0.6,0.3,0.8l0.1,0.4c0,0.2-0.1,0.3-0.4,0.4c-0.2,0-0.3,0.1-0.5,0.2c0.3,0.2,0.4,0.4,0.5,0.5c0,0.1-0.1,0.3-0.3,0.5
	C102.2,84.4,102.1,84.6,102,84.8z M94.3,77.3c-0.1,0.1-0.1,0.2-0.2,0.3s-0.1,0.3,0.1,0.5c-0.5,0.1-0.8,0.4-0.8,0.7
	c0.1,0.3,0.4,0.6,0.6,0.8c0.2-0.2,0.3-0.5,0.2-0.8c-0.1-0.2-0.1-0.5-0.1-0.8c0-0.1,0.1-0.3,0.2-0.4C94.5,77.6,94.5,77.5,94.3,77.3
	L94.3,77.3z M87,79.1l0.2,0.1l0.2-0.5l-0.2-0.1L87,79.1z M86.7,80.4c0.1,0.1,0.2,0.1,0.3,0.1c0.1-0.5,0.2-0.9,0.2-1L87,79.3
	C86.9,79.7,86.8,80.1,86.7,80.4L86.7,80.4z M74.2,100.2c0.1,0.2,0.2,0.4,0.3,0.7c0.1,0.3,0.4,0.5,0.7,0.4c0,0,0,0,0,0
	c0.3,0,0.4-0.1,0.3-0.3s-0.1-0.4-0.1-0.4c0-0.1-0.1-0.3-0.1-0.6c-0.1-0.3-0.3-0.4-0.6-0.4c-0.1,0.1-0.2,0.2-0.3,0.3
	C74.2,100.1,74.1,100.2,74.2,100.2z M53.8,105c0-0.4-0.1-0.8,0-1.1c-0.1,0.6-0.3,1.8-0.6,3.6c0.3-0.3,0.5-0.7,0.6-1.1
	C53.8,105.9,53.8,105.4,53.8,105z M59.9,104.1c-0.1,0.1-0.3,0-0.5-0.2l0.5,1.2l-0.1-0.1l0,0c0,0,0,0,0,0.1l0.2,0l0.8-1.6
	C60.4,103.7,60.2,103.9,59.9,104.1z M62.3,95.3c-0.3,0.2-0.5,0.5-0.5,0.9l1.3-0.8l-0.1-0.6l0.1-0.2L63,94.7
	C63,94.9,62.7,95,62.3,95.3L62.3,95.3z M59.7,93.7c-0.3,0.3-0.6,0.7-0.8,0.9c-0.8,1-1.5,1.8-1.9,2.4c-0.5,0.6-0.8,1.3-1,2.1
	l-0.4,3.2l-0.3-1.1l-1.1,4c0.5-0.7,1.6-2.5,3.4-5.3c0.2-0.3,0.8-1.2,1.8-2.8c0.9-1.5,2-3,3.1-4.4l-1.7-0.1c0,0.3,0,0.6,0,0.8l-0.3,0
	l0-0.7C60.3,93,60,93.4,59.7,93.7L59.7,93.7z M14.1,83.4c0.2,0,0.4,0,0.6,0c0.2,0,0.3-0.2,0.3-0.4l0.6,0c0-0.1,0.1-0.3,0.2-0.3
	c0.1-0.1,0.1-0.3,0-0.4c0,0-0.1,0-0.1-0.1c-0.4,0-0.7,0.3-0.7,0.7c-0.1,0-0.3,0.1-0.4,0.1C14.2,83.1,14.1,83.2,14.1,83.4z
	 M13.3,84.1c0.6,0.2,0.9,0,0.8-0.6l-0.3,0C13.6,83.6,13.4,83.8,13.3,84.1z M70.1,109.2L70.1,109.2L70.1,109.2L70.1,109.2
	C70.1,109.1,70.1,109.2,70.1,109.2z M78,115.7c0.2-0.1,0.3-0.2,0.3-0.2s-0.1-0.1-0.2-0.2c-0.1-0.1-0.3-0.1-0.6,0.1s-0.5,0.3-0.7,0.4
	l1.2,0.8c-0.3-0.3-0.4-0.5-0.4-0.6C77.7,115.9,77.8,115.8,78,115.7L78,115.7z M92.5,63.3l-0.1,1.1C92.9,64.2,93,63.8,92.5,63.3z
	 M80.3,102.7c-0.1,0.2-0.1,0.4-0.1,0.7l0.2,0.2L80.3,102.7z M80.9,103.5c0-0.3-0.2-0.5-0.4-0.7l-0.1,0.8l0.2,1.3
	C80.8,104.4,80.9,104,80.9,103.5z M48.9,81.4L48.9,81.4l0.1,0.1C49,81.5,49,81.4,48.9,81.4L48.9,81.4z M80.1,106.4l0.3,0.8l0.2-1.8
	C80.2,105.6,80,106,80.1,106.4z M110,52c0,0.2,0.1,0.4,0.2,0.6c0.1-0.1,0.2-0.2,0.3-0.4c0.1-0.2,0.2-0.4,0.2-0.6l0-0.2
	C110.2,51.4,110,51.6,110,52z M110.7,51.4L110.7,51.4L110.7,51.4z M277.2,112.4c-0.3,0.3-0.5,0.7-0.5,1.2c0,1.8-0.4,3.5-1.1,5.1
	c-0.8,1.7-1.3,3.5-1.3,5.3c0,0.5-0.1,1.1-0.4,1.5c-0.3,0.3-0.8,0.5-1.2,0.7c-0.5,0.1-1,0.3-1.4,0.6c0.4,0.3,0.6,0.8,0.7,1.2
	c0,0.4-0.1,0.7-0.3,1c-0.2,0.4-0.6,0.6-1,0.8c-0.8,0.2-1.2,0.5-1.3,0.9c-0.1,0.6-0.1,1.3,0.2,1.9c0.3,1,0.3,2.1,0.1,3.2
	c-0.2,0.9-0.3,1.8-0.3,2.7l0,6.4c-2.6-1.5-4.7-3.9-5.8-6.7c-1.6-4-2.8-8.1-3.4-12.3c-0.1-1.1-0.2-3-0.5-5.7c-0.3-2.5-0.4-5-0.2-7.5
	l0.4-4.6c0.1-0.8,0.3-3.2,0.7-7.3c0.3-3.9,0.9-7.7,1.7-11.5l1.4-6.6c0.8-5.3,2-10.6,3.6-15.8c0.4-0.9,0.6-1.8,0.7-2.8
	c0.1-0.8,0.3-1.6,0.5-2.4l0.8-3.6c0.1-0.6,0.4-1.2,0.9-1.7c0.5-0.3,1.2-0.4,1.8-0.2c5,1.2,11.2,3.8,18.5,7.8c0.6,0.4,1,0.9,1.3,1.6
	c0,0.5-0.1,1.1-0.3,1.6c-3,8.9-5.2,18.2-6.4,27.5c-0.1,1.1-0.6,2.1-1.2,2.9c-0.6,0.8-1.1,1.7-1.6,2.7c-0.7,1.9-1,3.9-1.1,5.9
	c-0.1,2.3-0.5,4.6-1.4,6.8l-1.9-1.5C277.8,111.7,277.6,112,277.2,112.4z M269.3,138.5l-0.5,0.1c0,0.2,0.1,0.3,0.2,0.3L269.3,138.5z
	 M304.7,54.4c0.1,0.2,0.2,0.4,0.3,0.6c0.2-0.2,0.3-0.5,0.3-0.8c0-0.2,0-0.4,0-0.6c-0.2,0-0.5,0.1-0.6,0.3
	C304.5,53.9,304.5,54.1,304.7,54.4z M306.1,50.6c0.4-0.2,0.8-0.6,1-1c0.2-0.6,0.4-1.2,0.4-1.8c-0.1-1.8,1.1-3.6,3.5-5.2
	c3.1-2.1,5.6-4.8,7.4-8.1c0.2-0.7,0.5-1.4,1.1-1.9c1.1-0.5,2.1-1.1,3-1.9c1.6-1.2,3.4-2.1,5.3-2.7c1.4-0.4,2.9-0.5,4.3-0.2
	c1.6,0.3,2.7,0.6,3.4,0.7c3.1,0.2,6.1,1.1,8.9,2.6c2.6,1.4,6.2,3.6,10.7,6.5c1.6,1.3,3.1,2.8,4.5,4.3l2.5,2.7
	c0.5,0.6,0.6,1.5,0.2,2.2c-0.6,0.9-0.9,2-1.2,3c-0.2,1.1-0.7,2.2-1.5,3.1c-1.1,1.3-1.7,3-1.7,4.8c-0.1,1.5-0.5,3.1-1.2,4.4
	c-0.7,1.3-1.5,2.5-2.3,3.7c-0.8,1.2-1.3,1.9-1.6,2.3c-0.3,0.4-0.6,0.8-1,1.1c-0.4,0.4-0.7,0.9-0.9,1.4c-0.2,0.7-0.6,1.1-1,1.2
	c-0.5,0.1-1,0-1.4-0.3c-0.5-0.2-1.1-0.3-1.6-0.3c-1.1,0.2-2,1-2.4,2.1c-0.8,1.5-1.8,2.9-2.9,4.1c-1.2,1.3-2.1,2.3-2.6,2.8
	c-1.6-0.7-3.4,0-4.1,1.6c0,0,0,0,0,0c-0.5,0.8-1.1,1.5-1.8,2.1c-1.3,0.9-2.5,2.1-3.4,3.5c-1.1,1.6-2,2.7-2.6,3.5
	c-1.9,2-4.3,3.7-6.9,4.7c-1.2,0.4-2.2,1.2-2.7,2.3c-1.2,2.1-2.4,3.4-3.7,3.9c-0.3,0.1-0.6,0.3-0.7,0.8c-0.5,1.4-0.7,2.9-0.4,4.4
	c0.5,2.9,1.5,5.1,3.1,6.4c0.7,0.5,1.7,0.6,2.4,0.1c5.2-1.6,10.7-4.7,16.7-9.3l10.4-7.8l7.6-5.7c1,0.6,1.6,1.5,1.8,2.7
	c0.1,0.8,0.1,1.5-0.2,2.3c-0.2,0.6-0.3,1.3-0.2,1.9c0.2,1,0.8,1.9,1.6,2.5c-0.2,0.7-0.7,1.3-1.4,1.7c-0.8,0.3-1.6,0.5-2.4,0.6
	c-0.7,0.1-1.3,0.3-2,0.5c-0.7,0.2-1.2,0.7-1.5,1.3c0.4,0.1,0.8,0.2,1.2,0.2c0.4,0,0.8,0.1,1.2,0.3c0.3,0.4,0.4,0.9,0.3,1.3
	c-1.1,0.7-2.2,1.6-3.2,2.5c-0.8,0.9-1.3,2-1.3,3.2c-0.2,0.9-0.8,1.7-1.7,2c-0.6,0.3-1.2,0.6-1.8,1c0.2,0.5,0.5,0.8,0.8,0.9
	c0.2,0.1,0.5,0.1,0.7,0.1c-0.2,0.4-0.6,0.8-1.1,0.9c-0.4,0.1-0.8,0.1-1.1,0c-0.3-0.1-0.6-0.1-0.8-0.2c-0.1,0.3-0.1,0.6,0,1
	c0.1,0.3-0.1,0.7-0.4,0.8c-0.9,0.5-2.2,1.4-4.1,2.6c-1.6,1.2-3.5,2-5.5,2.3c-1.4,0.3-2.9,0.2-4.4-0.2c-6.5-1.7-12.8-4-18.9-6.7
	c-6.4-3-10.4-7.4-12.1-13c-0.3-0.8-0.5-1.7-0.6-2.5c-0.2-1.2-0.2-2.5-0.2-3.8l-0.1-3.8c0-5.3,0.1-9.4,0.2-12.3
	c0.2-3.1,0.7-6.1,1.6-9.1l1.9-5.3c1.1-2.5,2-5.2,2.7-7.9c0.9-0.1,1.5,0.1,1.8,0.6c0.1-0.7,0.4-1.4,0.8-2c0.3-0.4,0.6-0.8,0.9-1.2
	c0.6-0.6,1.1-1.4,1.5-2.1c0.3-0.7,0.4-1.4,0.3-2.1c-0.4,0.3-0.7,0.6-1,1c-0.2,0.4-0.7,0.7-1.2,0.7c-0.2-0.3-0.4-0.6-0.5-1
	C304.6,51.7,305.1,51,306.1,50.6L306.1,50.6z M358.1,52.5l0.5,1.3c0.4-0.4,0.7-0.8,0.9-1.4c0.1-0.4,0-0.8-0.3-1.2
	C358.5,51.6,358.1,52,358.1,52.5L358.1,52.5z M335.8,43.6l0.3-0.1c0.9-0.2,1.6-0.9,1.8-1.8C337.2,42.3,336.5,42.9,335.8,43.6
	L335.8,43.6z M319.8,37.3c0.4-0.7,0.2-1.5-0.3-2c0,0.3,0,0.6-0.1,0.9C319.2,36.5,319.4,37,319.8,37.3L319.8,37.3z M316,80.6
	c10.6-10.4,19.3-23.2,26-38.3c-1.6,0.9-3.1,1.9-4.4,3.1c-1.3,1.1-2.4,2.2-3.5,3.2c-0.7,0.7-1.4,1.4-2,2.1c-1.2,1.2-2.3,2.6-3.2,4.1
	c-0.8,1.3-1.7,2.5-2.7,3.7c-0.8,1-1.8,1.8-2.9,2.4c-0.9,0.4-1.3,1.5-0.9,2.5c0,0,0,0.1,0,0.1l0.1,0.5c0,0.6-0.1,1.1-0.4,1.6
	c-0.2,0.5-0.6,1-1.1,1.4c-0.8,0.4-1.4,1-1.8,1.8c-0.4,0.8-0.7,1.7-0.8,2.6c-0.2,0.9-0.4,1.8-0.8,2.7c-0.3,0.8-0.6,1.7-0.6,2.5
	c-0.2,0.6-0.4,1.2-0.7,1.8C316.1,79.1,315.9,79.8,316,80.6z M363.8,38.3c-0.1-1.1,0.2-2.1,0.8-3c0.7-1.5,1.1-2.6,1.3-3.3
	c0.2-1.4,0.8-2.7,1.7-3.9c0.4-0.7,1-1.7,1.7-3c0.5-1.1,1.3-2.1,2.2-2.8c0.1-0.2,0.1-0.3,0.1-0.5c0-0.2,0-0.4,0.1-0.5
	c0.3-0.3,0.6-0.2,0.9,0.1c0.3,0.3,0.5,0.4,0.6,0.2c0.2-1.1,0.8-2.1,1.5-3c0.7-0.8,1.5-1.4,2.3-2c0.6-0.4,1.2-0.7,1.8-1
	c0.7-0.5,2-1.3,3.9-2.5c1.5-1.1,3.2-1.8,5-2.2c2.1-0.3,4.1-1,5.9-2.1c0.6-0.2,1.2-0.5,1.7-0.8c0.6-0.3,1.2-0.6,1.9-0.8
	c0.8-0.3,1.6-0.4,2.4-0.5c2.4-0.4,4.9-0.3,7.2,0.3c3.1,1,6.1,2.3,9.1,3.7c0.7,0.3,2,0.9,3.9,1.5c1.6,0.6,3.2,1.4,4.5,2.5
	c1,0.8,2.2,1.5,3.4,1.9c0.2,0.1,0.9,0.3,1.9,0.8c0.9,0.4,1.7,1,2.2,1.9c1.9,2.1,3.1,4.8,3.5,7.6l0.2,2.4c0.1,1.5,0.1,3.1-0.2,4.6
	c-0.2,1.5-0.5,2.9-0.8,4.2c-0.3,1.3-0.5,2.2-0.7,2.7c-0.3,0.8-0.7,2.1-1.2,3.8l-0.3,0.1c-1,0.2-1.9,0.9-2.6,2.3
	c-1.2,2.7-2.6,5.2-4.1,7.7c-0.9,0.9-1.7,2-2.3,3.1c-0.6,1.4-1.5,2.6-2.5,3.7c-0.2,0.2-0.5,0.4-0.9,0.4c-0.4,0-0.7-0.2-1-0.4l-0.2,1
	c-1.5,0.8-2.8,2.5-3.9,5.2c-0.7,1.9-1.9,3.5-3.4,4.8c-0.7,0.5-1.3,1.1-1.8,1.8c-0.7,0.8-1.8,1.4-2.9,1.4c0.2,0.2,0.4,0.3,0.5,0.5
	c0.2,0.3,0.1,0.5-0.3,0.8c-0.6,0.8-1.3,1.4-2.1,2c-0.9,0.7-1.7,1.2-2.2,1.7c-1.4,1.2-2,2.5-1.8,3.9c0.2,1.1,1,2.3,2.6,3.7
	c0.3,0.3,0.4,0.6,0.5,0.9l-0.1,0.7l0.5-0.2c0.5,0.1,0.9,0.3,1.3,0.6c0.4,0.2,0.7,0.4,0.8,0.5c-0.4,0.3-0.5,0.6-0.4,1
	c0.1,0.2,0.2,0.5,0.3,0.7c1.7,0.6,3.1,1.7,4,3.2c0-0.3,0.2-0.6,0.4-0.9c0.2-0.2,0.3-0.5,0.4-0.7c0.3,0.1,0.6,0.3,0.9,0.5
	c0.2,0.2,0.5,0.3,0.8,0.4c0.1,0.2,0.1,0.4-0.2,0.5s-0.3,0.4,0,0.6c0.3,0.3,0.6,0.6,0.9,1c0.3,0.4,0.7,0.7,1.2,0.7
	c0.3,0.1,1,0.1,1.9,0.2c0.8,0,1.7,0.3,2.4,0.8c0.7,0.5,1.2,1.2,1.5,1.9c0.5,0.4,1.1,0.6,1.8,0.7c0.7,0.2,1.5,0.1,2.1-0.3
	c0,0.3,0,0.5-0.1,0.7c-0.1,0.3,0,0.5,0.4,0.7c0.3-0.3,3.7,0.4,10.1,1.9c6.4,1.5,9.8,2.5,10.1,2.9c0.1,0,0.2-0.2,0.2-0.6
	s0.2-0.5,0.5-0.3c0.5,0.6,1.3,1,2.1,1c0.5,0.1,1,0.1,1.6,0.1c0.5,0,1,0,1.5,0.1c0.7,0.1,1.4,0.4,2,1c0.1-0.3,0.4-0.6,0.7-0.6
	c0.4,0,0.8,0,1.2,0.1c0.4,0.1,0.9,0,1.3-0.3c0.2,0.1,0.3,0.3,0.2,0.6s-0.1,0.6,0.2,0.6l2-0.5c1.5-0.2,2.9-0.2,4.4,0
	c0.1,0.2,0.3,0.3,0.5,0.3c0.3-0.1,0.7-0.2,1-0.4c0.2-0.2,0.5-0.3,0.8-0.2c0.2,0,0.4,0.2,0.5,0.6c0.1,0.5,0.4,0.7,0.8,0.6
	c0.2,0,0.4-0.2,0.4-0.5c0-0.2,0.1-0.5,0.2-0.7c0.1,0,0.3,0.1,0.6,0.5c0.2,0.3,0.5,0.4,0.8,0.2c0,0,0,0,0.1,0
	c-0.3-0.3-0.6-0.7-0.6-1.1c0-0.3,0.3-0.5,1-0.5l2.4-0.2c2.7-0.4,5.3-1.2,7.8-2.2c2.6-1.1,4.2-1.8,4.7-2c2-0.7,3.8-1.8,5.4-3.1
	c0.7-0.6,1.4-1.1,2-1.5c1.7-3.4,3.1-7,4.2-10.6l1.6-6.3c0.3-1.1,0.9-3.4,1.7-7.1s1.5-7.2,2-10.6c0.2-1,0.4-3.5,0.6-7.5
	c-0.2-2.8,0-5.6,0.4-8.3c-0.6,0.3-1.1,0.7-1.6,1.2c-0.6,0.5-1.3,0.9-2,1.1c0.2,0.3,0.3,0.6,0.3,0.9c0,0.3-0.2,0.8-0.6,1.3
	c-0.3,0.3-0.6,0.7-0.8,1.1c-0.5,2.2-1.9,4.1-3.8,5.2c-0.9,0.4-1.6,1.1-2.2,1.9c-0.5,0.9-1,1.8-1.4,2.7c-0.4,1-0.8,1.7-1,2.2
	c-0.1,0.2-0.2,0.6-0.4,0.9s-0.3,0.8-0.5,1.3c-0.4,0.9-0.9,1.7-1.7,2.3c-0.7,0.6-1.3,1.3-1.8,2c-0.2,0.9-0.4,1.8-0.4,2.6
	c0,1.1-0.5,2.1-1.3,2.8c-0.5,0.4-0.8,0.9-0.9,1.5c-0.1,0.6-0.2,1.1-0.2,1.4c-0.4,1.8-1.3,3.5-2.5,4.9c-1.1,0.9-2,1.9-2.8,3.1
	c-0.4,0.4-0.8,0.9-1.3,1.4c-0.5,0.6-1.1,1.1-1.7,1.7c-2.2,2.1-4.2,3.2-6,3.5c-1.2,0.1-2.5,0-3.7-0.3c-0.7-0.1-1.4-0.1-2,0.2
	c-0.7,0.2-1.3,0.3-2,0.3c-2.5-0.1-4.9-0.6-7.3-1.3c-2.3-0.7-5.4-1.7-9.3-3.1c-1.5-0.7-2.7-1.8-3.6-3.1c-0.9-1.3-1.4-2.8-1.4-4.4
	c0-1.1-0.2-2.1-0.4-3.2c-0.2-1.2-0.4-2.1-0.5-2.7c-0.2-1.2-0.3-2.4-0.4-3.6c0-0.6,0.1-1.2,0.2-1.7c0.6-3,1-6,1.2-9.1
	c0.2-3.2,0.4-5.7,0.7-7.5c0.2-0.6,0.5-1.2,0.9-1.7c0.4-0.5,0.6-1.2,0.7-1.8c0.2-0.7,0.4-1.5,0.6-2.2c0.4-1,0.5-2.1,0.5-3.2
	c-0.1-1.3,0.1-2.6,0.5-3.8c0.5-1.2,1.1-2.4,1.8-3.4c0.7-1.2,1.3-2.1,1.6-2.8c-0.2-0.2-0.3-0.5-0.5-0.8c-0.2-0.4-0.3-0.7-0.3-1.1
	c-0.1-0.5,0.2-1.1,0.6-1.4c0.3-0.4,0.4-0.9,0.3-1.4l-0.1-0.7c-0.2-0.6,0-1.3,0.5-1.7c0.5-0.4,0.8-0.9,0.9-1.5
	c0.2-0.7,0.8-1.3,1.5-1.4c0.3,0,0.5-0.3,0.5-0.5c0,0,0-0.1,0-0.1c0-0.4-0.1-0.7-0.1-0.9c0.2-0.8,0.4-2,0.7-3.6
	c0.2-1.4,0.6-2.7,1.3-4c2.8-4.6,4.4-7.2,4.7-7.7c0.3-0.7,1-1.1,1.8-1.1c1.1-0.2,2.2,0,3.1,0.5c0.3,0.6,1,0.9,2.1,0.8
	c0.8,0,2.1,0.6,4.1,1.7c1.4,0.9,3,1.4,4.7,1.5c2.3,0.1,4.3,1.6,5.1,3.7c-1.7,0.6-3.2,1.8-4.1,3.4c-0.9,1.6-1.3,3.5-1.2,5.3
	c0.4,2.7-0.3,4.4-2.1,5.2c-2.4,1.2-3.7,3.4-4,6.6c-0.1,2-0.6,4-1.5,5.8c-0.2,0.7-0.7,2-1.5,3.9c-0.7,1.7-1.2,3.5-1.4,5.3
	c-0.3,2.5-0.8,4.2-1.6,5.2c-0.4,0.8-0.5,1.8-0.3,2.7c0.1,0.9,0.1,1.8,0,2.7c-0.1,0.6-0.4,2.4-0.8,5.4c-0.1,2.1-0.5,4.3-1,6.3
	c-0.1,0.3-0.1,0.6,0,0.9c0.2,0.5,0.4,1,0.8,1.5c0.5,0.6,0.6,1.3,0.2,2c1.1-1.2,2.1-2.4,3-3.8c0.6-1.1,1.3-2.1,2-3.1
	c0.3-0.4,1.1-1.4,2.4-3.2c1.2-1.6,2.2-3.3,3.1-5.1c0.8-1.8,1.8-3.5,2.9-5.1c1.2-1.6,1.9-2.6,2.1-2.8c1.8-2.5,3.4-5.1,4.9-7.8
	c1.8-3.9,4-7.5,6.8-10.8c1.1-1.4,2.2-2.9,3.1-4.5c0.5-1.1,1.2-2.2,1.9-3.3c0.9-1.3,1.8-2.6,2.5-4c0.8-1.6,1.7-3,2.8-4.4
	c1.4-1.6,2.7-3.4,3.8-5.2l2.9-3.9c0.2-0.3,0.5-0.7,0.9-1.4c0.4-0.6,0.6-1.2,0.8-1.9c0.5-1.4,1.1-2.1,1.8-2.1c0.8,0,1.5,0.3,2.2,0.7
	l5.4,1.6c1.9,0.3,3.7,0.8,5.4,1.5c1.5,0.7,2.8,1.7,3.7,3.1c0.4,0.3,0.9,0.5,1.3,0.8c0.6,0.2,1,0.7,1.3,1.3c0.2,3.6-0.5,7.1-2,10.4
	c-0.5,1.1-0.6,2.3-0.5,3.5c0.2,1.8,0.1,3.6-0.5,5.3c-0.6,1.9-1,3.3-1.1,4.3c-0.1,0.7-0.4,1.9-0.8,3.5c-0.4,1.5-0.5,3.1-0.3,4.7
	l0.1,0.5c0,0.6-0.1,1.2-0.4,1.8c-0.5,0.5-0.9,1.2-1.1,1.9c-0.1,0.7,0.1,1.4,0.5,2c0.1,0.1,0.2,0.2,0.2,0.3c0,0.1,0,0.3-0.1,0.4
	c-0.8,2.3-1.1,4.8-1,7.2c0.1,1.7,0,3.4-0.2,5.1c-0.1,0.9-0.5,1.8-1.1,2.5c-0.8,0.6-1.7,1-2.7,1c0.8,2.2,0.4,4.8-1.1,7.8
	c-0.2,0.4-0.5,1-1,1.9c-0.5,0.7-0.7,1.5-0.6,2.3c0.3,0.7,0.8,1.4,1.4,1.8l-0.1,0.6c-0.9,2.1-1.5,4.4-1.6,6.7c-0.1,1.7-0.4,3.4-0.8,5
	c-0.9,2.5-2,5-3.3,7.3c-0.8,1.3-1.4,2.6-1.7,4.1c-0.3,1-0.7,2-1.2,2.9c-0.4,0.7-1,1.4-1.7,1.8l-0.6,0.1c-0.2,0.6-0.3,1.2-0.3,1.9
	c0,0.7-0.2,1.3-0.5,1.9c-0.4,0.6-1.1,1-1.8,1.1c-0.6,0.3-1.1,0.8-1.3,1.4c-0.3,0.6-0.5,1.3-0.7,2c-0.1,0.6-0.3,1.1-0.4,1.6
	c-1.2,2.8-2.6,4.7-4.4,5.6c-1.1,0.6-2,1.5-2.6,2.6c-1.6,2.1-4,3.5-6.7,3.8c-1.2,0.1-2.4,0.2-3.6,0.2c-3.4,0.2-7.4-0.9-11.9-3.3
	c-0.5-0.2-0.9-0.7-1-1.3c0-0.6,0.1-1.2,0.4-1.8c0.2-0.1,0.5-0.1,0.7,0.1c1.3,0.6,2.7,1,4.1,0.9c0.7-0.1,1.4-0.5,2-1
	c1-0.8,1.8-1.7,2.7-2.7c4.9-6.4,9-13.3,12.3-20.6l1.7-3.9c-2,1.6-4.3,3-6.6,4.1c-2.8,1.3-6.2,2.8-10.2,4.4c-2.8,1.3-5.8,2.2-8.9,2.7
	c-3.3,0.6-5.2,1-5.8,1.1c-4.3,0.5-8.6,0.9-12.9,1c-3.2,0.2-6.5,0.2-9.7,0c-1.7-0.2-2.9-0.3-3.7-0.4c-3-0.1-5.9-0.5-8.8-1.3l-4.4-0.9
	c-1.5-0.4-2.9-0.8-4.3-1.3c-1.7-0.6-3-1.1-4.1-1.4l-3.7-1.4c-4.8-1.8-7.6-2.9-8.5-3.3c-2.9-1.4-5.7-3.2-8.1-5.3
	c-2.5-1.9-5.2-3.5-8.2-4.7c-0.6,0.6-1.1,1.4-1.3,2.3c-0.2,1.1-0.2,2.2-0.1,3.3c0.2,1.6,0,3.2-0.6,4.7l-0.5,0.1
	c0.4,0.3,0.6,0.4,0.6,0.5c-0.5,0.8-0.4,1.9,0.2,2.7c-1,1.2-1.6,2.7-1.7,4.3c-0.1,1.4,0,2.9,0.3,4.3c0.3,1.4,0.5,2.5,0.6,3.2
	c1.2-1.1,2.4-2.2,3.4-3.5c-0.1,0.8-0.2,1.8-0.2,2.9c0,0.9-0.2,1.9-0.4,2.8c-0.3,0.8-0.9,1.5-1.6,2c0,0.1,0.2,0.3,0.5,0.4
	s0.3,0.4,0,0.7c-0.9-0.1-1.9-0.1-2.9-0.1c-1,0-2-0.1-2.9-0.1c-2-0.2-4-0.9-5.6-2c-1.1-1-2.3-3.1-3.6-6.2c-0.5-1.3-0.8-2.6-1-4
	c-0.2-1.5-0.4-3.7-0.6-6.7c-0.2-2.6,0.2-5.2,1-7.6c0.3-0.7,0-1.9-1-3.6c-1-1.6-1.9-2.6-2.8-2.8c-1.1-0.5-1.7-1.8-1.3-2.9
	c1.4,0.4,2.8,0.9,4.1,1.6c0.5-0.9,0.6-1.9,0.4-2.8l-0.5-2.2c-0.1-0.8-0.1-1.6,0.2-2.4c0.2-0.4,0.4-0.8,0.7-1.2
	c0.3-0.4,0.5-0.9,0.4-1.5c-0.3-1.8-0.3-3.7,0-5.5c0.2-2.1,0.4-3.7,0.5-4.8c0.1-0.9,0.4-1.8,0.8-2.6c0.4-0.9,0.7-1.9,0.7-2.9
	l-0.1-0.7c-0.1-0.5-0.2-0.9-0.4-1.3c-0.2-0.4-0.3-0.9-0.4-1.3c-0.1-0.7,0-1.4,0.4-2c0.1-0.1,0.1-0.3,0-0.4c-0.1-0.1-0.1-0.3-0.1-0.4
	c0.6-0.1,1.1-0.5,1.4-1c0.2-0.5,0.2-1.1,0.1-1.7l-0.2-1.3c-0.2-1.3,0.1-2.1,1-2.4c-0.1-0.3-0.3-0.7-0.5-0.9c0.1-0.2,0.4-0.3,0.6-0.2
	c0,0,0,0,0,0c0.2,0.1,0.4,0.1,0.5,0l-0.3-1c-0.3-1.7,0.5-3,2.4-3.8l-0.5-0.1c-0.3,0.1-0.5,0.3-0.7,0.5c-0.2,0.3-0.5,0.4-0.7,0.2
	c0-1.8-0.1-3.7-0.5-5.5c-0.4,0.2-0.8,0.3-1.2,0.4c-1.1,0-2.2-0.4-3.1-1.2C364.5,39.6,364.1,39,363.8,38.3z M405.4,93.5
	c0.1,0.2,0.2,0.4,0.4,0.6c0.2,0.3,0.2,0.7,0.1,1c0.7-0.2,1.2-0.9,1-1.6c0-0.1-0.1-0.2-0.1-0.4C406.5,93.3,406.1,93.5,405.4,93.5
	L405.4,93.5z M400.7,62.5c-0.1,0.4-0.2,0.9-0.4,1.2c-0.2,0.5-0.5,1.1-0.8,1.9c0.5-0.5,1.1-1.1,1.7-1.5c0.2,0.2,0.3,0.5,0.3,0.8
	c0-0.4,0-0.9,0.1-1.3C401.7,63,401.4,62.6,400.7,62.5L400.7,62.5z M403.3,59.7c0.1,0.3-0.2,0.6-0.7,0.7s-0.7,0.4-0.5,0.8
	c0.1,0.2,0.2,0.3,0.3,0.4c0.2,0.2,0.3,0.2,0.5,0.2C403.7,61.4,403.8,60.7,403.3,59.7L403.3,59.7z M385.5,69.4
	c0.5,0.6,0.9,1.3,1.2,2.1c0.1,0.7-0.3,1.4-0.9,1.8c0.6,0.1,0.9,0.4,1,0.9c-0.1,0.7-0.3,1.4-0.7,2.1c0.3-0.3,0.5-0.6,0.9-0.8
	c0.3-0.2,0.6-0.5,0.7-0.9c0.1-0.3-0.2-0.7-0.9-1.2l-0.1-0.3c1.1-1.8,2.7-3.3,4.6-4.3c0.2-0.2,0.5-0.3,0.8-0.3l0.9-0.1
	c0.4,0,0.8-0.4,0.8-0.8c0.4-1.7,1.2-3.4,2.3-4.7c1.4-1.8,2.6-2.8,3.7-3c0.2-0.3,0.3-0.7,0.3-1c0-0.4,0.2-0.8,0.5-1.1
	c0.4-0.2,0.8-0.4,1.2-0.4c1.3,0,1.6-0.4,0.8-1.3c-0.4-0.3-0.4-0.9-0.1-1.3c0,0,0,0,0,0l2.7-3.9c0.9-1.2,1.9-2.5,3-4.1
	c-0.1,0.1,0.5-0.9,1.8-3.1c1.2-1.8,2.2-3.7,2.9-5.7c0.4-1,0.7-2.1,0.9-3.2c0.2-1,0.4-2,0.8-3c1.3-4,1.6-8.2,0.9-12.3
	c-0.1-0.6-0.4-1.1-0.9-1.5c-0.5-0.3-0.9-0.3-1.2-0.1c-1,0.5-2.1,0.9-3.2,1.2c-1.3,0.3-2.3,0.6-3,0.8c-0.4,0.2-0.6,0.4-0.4,0.7
	c0.2,0.3,0.4,0.5,0.6,0.7c-0.8,0.2-1.5,0.4-2.2,0.8c-0.8,0.4-1.7,0.6-2.6,0.7c-0.7,0-1.4,0.3-1.9,0.8c-0.7,0.6-1.4,1-2,1.4
	c-0.6,0.4-1.4,0.5-2.1,0.2c-0.1,0-0.3,0.2-0.4,0.4s0,0.5,0.5,0.8c0.1,0.1,0.1,0.2,0.1,0.5c-0.1,0.2-0.2,0.4-0.4,0.5
	c-2,1.3-3.3,3.4-3.7,5.7c-0.3,2-1,4-2.1,5.7c-0.3,0.3-0.4,0.7-0.3,1.1c0.1,0.4,0.3,0.7,0.6,1c0.3,0.3,0.5,0.7,0.4,1.1
	c0.3,1.2,0.3,2.4,0,3.6c-0.3,1.3-0.5,2.1-0.5,2.3c-0.5,1.8-0.7,3.8-0.6,5.7c0,0.9-0.2,1.9-0.7,2.7c-0.5,0.7-0.7,1.5-0.8,2.4
	c0,1.2-0.2,2.4-0.6,3.6c-0.3,1.2-0.5,2.3-0.5,3.5c-0.2,0.1-0.5,0.1-0.8-0.2s-0.5-0.2-0.7,0.3c-0.1,0.1-0.3,0.6-0.7,1.3
	C385,67.6,385,68.6,385.5,69.4z M382.1,16.6c0.1,0.5,0.4,1,0.8,1.3c-0.1-0.5,0.1-0.9,0.5-1c0.2,0,0.5,0,0.7,0.1
	c0.3,0.1,0.6,0,0.7-0.1c-0.7-0.7-1-1.2-0.9-1.5c-0.3,0.1-0.7,0.2-1,0.3C382.3,15.9,382,16.2,382.1,16.6z M380.2,20l-0.4-0.6
	c0,0.1,0.1,0.2,0,0.3l-0.3,0.4L380.2,20z M378.9,18.5c0,0.1,0.2,0.3,0.5,0.5c0.1,0.1,0.3,0.2,0.4,0.3c0-0.2,0.2-0.5,0.5-0.8
	c0.4-0.3,0.6-0.7,0.5-0.9c-0.3,0.1-0.5,0-0.7-0.2c-0.2,0.1-0.4,0.2-0.6,0.3c-0.2,0-0.3,0.1-0.4,0.2C379,18.2,378.9,18.4,378.9,18.5z
	 M377.1,114.2c0,0.3,0.2,0.6,0.4,0.9c0.2,0.1,0.4,0.1,0.7-0.2C378.1,114.8,377.8,114.6,377.1,114.2L377.1,114.2z M133,139.9l1.7-1.7
	c0.3-0.4,0.6-0.5,1-0.2s0.6,0.4,0.8,0.3c0.7-0.5,1.3-1.2,1.9-1.9c0.4-0.6,0.6-1.4,0.4-2.1c0.9-0.4,1.7-0.9,2.5-1.5
	c2-1.3,3.7-2.9,5.2-4.7c0.3-0.3,0.6-0.6,1-0.9c1.1-0.7,2.5-0.9,3.8-0.6c0.4,0.1,0.8,0.1,1.2-0.1l0.4-0.4c0.4-0.5,0.8-1,1.1-1.5
	c0.3-0.4,0.5-0.8,0.7-1l-0.5-0.5l1.5-1c0.8-0.5,1.7-0.8,2.6-0.9c0.2-0.3,0.4-0.7,0.4-1.1c0-0.4,0.2-0.8,0.5-1l0.1-0.1
	c0.8-0.4,1.5-0.9,2.2-1.4c0.4-0.3,0.7-0.5,1-0.7c0,0,0-0.1,0-0.1c0.1-0.8,0.3-1.7,0.5-2.8s0.4-2.2,0.6-3.3c0-0.5,0.4-1,0.9-1.2
	c0.1-1,0.4-2,0.7-2.9c0-0.1,0.1-0.1,0.3-0.1c-0.2,0-0.3,0.1-0.1,0.2c0.4,0.6,1.2,0.8,1.9,0.6l1.1-4c0.7-2.1,1.2-4.3,1.6-6.5l-0.1,0
	c-0.1,0,0-0.1,0.1-0.2l0.1-0.4l0.1-0.5c1.8-1,2.7-1.9,2.5-2.8c-0.2-0.7-0.7-1.3-1.2-1.8c0.7-1.1,1.2-2.4,1.4-3.7
	c0-0.4,0.1-0.8,0.3-1.2c0.3-0.3,0.7-0.4,1.1-0.5c0.5-0.1,0.9-0.4,1.2-0.9c0.3-0.5,0.5-1,0.4-1.6c0.1-1.3,0.4-3.3,0.9-5.9
	c0.7-2.4,1.1-4.8,1.3-7.3c0.4,0.2,0.8,0.2,1.2,0.1c0.4-0.1,0.8-0.3,1.1-0.7c0.3-0.3,0.5-0.7,0.5-1.1c0.5-2,1.3-3.9,2.2-5.8
	c0.3-0.8,0.2-1.7-0.4-2.3c-0.3-0.2-0.6-0.3-0.9-0.2c-0.4,0.2-0.8,0.5-1.1,0.9c-2.2,2-5,4.2-8.2,6.8l-4.2,3.4c-1.1,0.9-2,1.9-2.9,3
	c-0.7,1-1.2,2.2-1.4,3.4c-0.7-1.3-1.7-2.4-2.8-3.4c-1.1-1-1.7-1.6-2-1.8c-1.7-1.3-3.1-2.8-4.3-4.5c-1.5-2.1-3.5-3.9-5.9-5.2
	c-0.5-0.2-0.9-0.7-1-1.2c-0.1-0.4,0.3-1.1,1-1.9c1.1-1.3,2.4-2.6,3.8-3.7c1.6-1.3,2.7-2.2,3.5-2.8c-0.8,1.1-1.7,2.1-2.7,3
	c-2.1,2.1-3.3,3.9-3.6,5.5c0.7,0.2,1.5,0,1.9-0.6c0.1-0.1,0.3-0.4,0.7-0.9c0.3-0.4,0.8-0.8,1.2-1c0.5-0.2,1-0.2,1.5-0.1l0.3-0.4
	c0,0.2,0.3,0.2,0.7-0.1c0.5-0.6,0.9-1.3,1.2-2c0.3-0.7,0.7-1.3,1.2-1.8c0.5-0.6,1-1.1,1.3-1.3c0.7,1,1.7,1.1,2.8,0.4
	c0.4-0.3,1.2-0.9,2.3-1.8c1-0.8,2.1-1.3,3.3-1.6c0.3-0.2,0.6-0.5,0.8-0.9c0.1-0.3,0.3-0.6,0.6-0.9c0.2-0.3,0.5-0.7,1-1.5
	c0.4-0.6,1-1.2,1.7-1.6c0.6-0.3,1.4-0.5,2.1-0.5c0.4-0.7,1.1-1.3,1.8-1.6c0.8-0.4,1.6-0.6,2.5-0.8c0.7-0.1,1.4-0.3,2.1-0.6
	c0.3-0.1,0.5-0.2,0.4-0.4c0.1-0.7,0.4-1.4,0.8-2c0.6-0.7,1.3-1.3,2.1-1.8c0.7-0.5,1.4-1.1,2-1.8c0.4-0.6,0.9-1.1,1.5-1.6
	c0.6-0.3,1.3-0.4,1.9-0.1c0.2,0.1,0.5-0.1,0.8-0.5c0.9-1.5,2.7-2.6,5.4-3.3l0.3-0.1c0.4-0.1,0.8-0.2,1.1-0.4
	c0.4-0.2,0.8-0.4,1.2-0.4c1,0.8,2.3,1.2,3.6,1c1.6-0.2,2.5-1,2.7-2.1c0.2-0.4,0.3-0.7,0.4-1.1c0.2-0.6,0.4-1,0.7-1.1
	c0.3-0.1,0.8,0,1.4,0.5c1.5-0.9,3.1-1.4,4.8-1.7l2.3-0.4c1.1-0.2,2.3-0.5,3.3-0.9c1-0.4,1.8-1,2.5-1.7c0.2-0.3,0.5-0.4,0.8-0.5
	c0.5-0.1,1-0.1,1.5-0.1c0.5,0,1.1-0.1,1.6-0.3c1.2-0.6,2.5-1.2,3.8-1.6c1.4-0.4,2.3-0.7,2.7-0.9c1.9-0.4,3.8-1,5.6-1.7
	c0.6-0.6,1.5-0.7,2.3-0.4c0.2,0.2,0.5,0.3,0.8,0.3c0.3,0,0.6-0.1,0.7-0.4c0.6-0.7,1.4-1.2,2.3-1.4c0.9-0.1,1.8-0.1,2.6,0.2
	c1,0.2,1.7,0.4,2,0.4c0.7,0.1,1.4,0.1,2,0c0.8-0.2,1.6-0.6,2.1-1.3c0.6-1,1.5-1.7,2.7-1.9c0.8-0.1,1.7,0.1,2.4,0.5
	c3.1,1.1,6.2,2.5,9.1,4c2.5,1.3,4.8,3.1,6.7,5.2c0.8,0.8,1.7,1.5,2.7,2.2c1,0.7,1.9,1.4,2.8,2.2c0.5,0.5,0.9,1,1.3,1.6
	c0.1-2.9,0.6-5.8,1.5-8.6c1.1-3.7,2.6-7.2,4.6-10.4c2.1-4.3,3.3-6.9,3.7-8c0.1-0.3,0.3-0.6,0.6-0.8c0.3-0.3,0.6-0.5,0.9-0.8
	c0.9,1,1.8,1.8,2.6,2.6s1.4,1.4,2,2c2.4,2,4.6,4.4,6.4,6.9c0.1,0.1,0.2,0.3,0.2,0.4c0,0.2,0.1,0.3,0.3,0.4c1.8,1,2.9,2.1,3.1,3.5
	c0.1,0.9,0,1.8-0.3,2.7c-0.3,1-0.7,2-1.1,3c-3.2,6.2-5.4,11-6.6,14.2l-0.3,0.1l-0.8-2c-0.4,0.2-0.6,0.6-0.6,1.4
	c0,0.6-0.1,1.3-0.3,1.9c-0.2,0.5-0.7,0.8-1.3,0.9l-1.4-0.1c-0.1,0-0.4,0.4-1,1c-0.4,0.6-1,1-1.6,1.1c-0.8,0-1.6-0.4-2.1-1.1
	c-0.1,0.6-0.1,1.3,0,1.9c-0.2-0.1-0.4-0.1-0.6-0.1c-0.2,0-0.3,0-0.4-0.1c-0.1-0.6-0.4-1-0.9-1.3c-0.5-0.3-0.8-0.6-0.9-0.7
	c-0.6-0.6-1.3-1.1-2.1-1.6c-0.8-0.5-1.5-1.1-2.1-1.7c-0.6-0.7-1-1.5-1.1-2.4c0-0.2,0-0.3-0.1-0.5l0,0c-0.3,0.8-0.7,1.5-1.2,2.3
	c-2,3.7-4.6,7-7.6,10l-2.7,3c-0.5,0.8-1.3,1.3-2.2,1.6c-0.8,0.3-1.6,0.7-2.4,1.2c-1.5,0.6-2.9,1.4-4.2,2.3c-1.8,1.4-3.5,3-5.1,4.6
	c-1.3,1-2.9,1.8-4.5,2.2c-1.8,0.5-3.1,0.8-4,1.1l-0.2,0c-0.9,0.1-1.8-0.2-2.4-0.9c-0.7-0.8-1.1-1.2-1.3-1.4
	c-0.2-0.1-0.5-0.2-0.7-0.4c-0.2-0.2-0.4-0.4-0.7-0.5l0-0.2c0-0.5,0.1-1,0.4-1.4c0.2-0.4,0.4-0.8,0.4-1.2c-0.1-0.3-0.4-0.7-1-1.1
	c-0.2-0.1-0.1-0.4,0.5-0.9c2.1-3.8,5.6-8.2,10.6-13.2l4.8-5.6l2.3-3c0.5-0.6,0.4-1.2-0.1-1.6c-4,0.1-8.1,0.3-12.1,0.9
	c-1.1,0.2-2.8,0.5-5.1,1.1c-7.7,2-15.3,4.5-22.8,7.3c-6.4,2.5-12.6,5.6-18.3,9.4c0.8,0.2,1.6,0.7,2.3,1.3c0.7,0.7,1.3,1.5,1.8,2.4
	c0.5,0.9,1.1,1.6,1.8,2.3c-1.2,1.4-2.3,2.9-3.1,4.5c-0.5,1.1-1.1,2.1-1.7,3.1c-0.8,1.7-1.7,3.3-2.7,4.9c-0.6,1.2-1.1,2.5-1.3,3.8
	l-1.3,3.5c-1.9,4.3-3.5,8.7-4.9,13.3l0,0.1c0,0.1,0,0.1-0.2,0.1c-1,1.1-1.7,2.4-2.1,3.8c-0.5,1.5-0.7,2.4-0.8,2.8
	c-0.2,0.4-0.3,0.9-0.3,1.4c0,0.5-0.2,1-0.4,1.4c-0.3,0.4-0.7,0.6-1.2,0.7l0.1,0.3c0,0.9-0.2,1.7-0.5,2.5c-0.4,0.8-0.5,1.7-0.4,2.5
	c0.3,0.1,0.6,0.1,0.9,0c0.3-0.1,0.6-0.3,0.8-0.4c0.7-0.3,1.3-0.6,1.9-0.9c2.9-1.8,5.4-3.3,7.4-4.5c2.3-1.3,4.8-2.3,7.3-3
	c4-1.3,7.5-2.4,10.3-3.1c4.4-1.3,10.6-3.4,18.4-6.2c5.8-1.9,11.7-3.3,17.7-4.2c2.1-0.5,4.2-0.6,6.3-0.3c-0.1,0.8-0.1,1.7-0.1,2.8
	c0,1.1,0,2,0,2.6c0.2,4-0.2,7.1-1.2,9.4c-0.6,0.1-1.2,0.3-1.8,0.5c-0.1,0-0.3,0.3-0.6,0.9c-0.1,0.2,0,0.4,0.2,0.5c0,0,0.1,0,0.1,0
	l0.6,0.1c-0.1,0-0.4-0.1-0.8-0.1s-0.5,0.2-0.5,0.6c0,0.3-0.1,0.5-0.3,0.7c-0.2,0.3-0.2,0.6,0,0.9l0.2,0.2c0.2,0.2,0.2,0.5,0,0.7
	c-0.2,0.3-0.4,0.5-0.7,0.7c-0.3,0.2-0.5,0.4-0.5,0.5c-0.1,0.1-0.2,0-0.4-0.1c-0.3-0.3-0.4-0.5-0.2-0.8c0.2-0.2,0.3-0.4,0.2-0.7
	c-1.6-0.7-3.5-0.9-5.2-0.4c0.1,0.2,0.2,0.4,0.2,0.7c0,0.2,0.1,0.5,0.3,0.6c0.5,0,0.9-0.1,1.4-0.1c0.5-0.1,1.1-0.1,1.6,0.1
	c-0.1,0.5-0.4,0.9-0.8,1.2c-0.2,0.1-0.4,0.2-0.6,0.2c-1.8,0-3.6,0.5-5.3,1.4c-1.7,0.9-3.6,1.4-5.6,1.2c-1.5,0.1-3,0.4-4.4,0.9
	c-1.6,0.5-3,1-4.4,1.6c-7.1,3-12.1,4.9-14.9,5.8l-4.8,1.8c-2.2,0.9-3.7,1.5-4.5,1.8c-2.5,0.8-4.8,1.9-7,3.3
	c-0.7,0.4-1.3,0.9-1.9,1.4c-0.1,0.1-0.3,0.1-0.4,0.1c-0.2,0-0.3,0-0.4,0.1c-0.8,0.4-1.7,0.8-2.7,1.3c-1,0.4-1.8,0.8-2.3,1l-0.6,0.3
	c-0.5,0.4-0.9,0.7-1.4,1.1l-2.9,2.5c-0.3,0.5-0.8,1-1.3,1.3c-0.4,0.1-0.9-0.2-1.4-0.9c-0.3-0.4-0.8-0.4-1.1-0.2
	c-0.2,0.1-0.3,0.3-0.3,0.6c-0.8,0.9-1.3,2-1.6,3.2l0,4c-0.2,2-0.2,3.9-0.1,5.9v4.3c-0.1,2.3-0.1,4.1-0.1,5.3c0,0.6-0.1,1.2-0.4,1.8
	c-0.3,0.6-0.4,1.3-0.4,2c0.1,1.3,0.2,2.5,0.4,3.7c0.3,1.7,0.7,3.3,1.3,5c0.2,0.8,0.3,1.6,0.2,2.5c-0.1,0.9,0,1.8,0.1,2.7
	c0.1,0.6,0.3,1.2,0.6,1.8c-0.1,0.4-0.5,0.7-1,0.6c0,0,0,0,0,0c-0.5-0.1-0.9,0-1.1,0.2l0.1,0.5c0.2,0.9,0.9,1.6,1.7,1.8
	c1,0.4,1.6,0.9,1.7,1.5c-0.3,0.2-0.6,0.3-0.9,0.4c-0.6,0.1-1.2,0-1.8-0.1c-0.8-0.1-1.4-0.2-1.9-0.3c-1.7-0.4-3.4-0.7-5.1-0.9
	c-2.9-0.6-5.6-2.1-7.6-4.3c-2-2.3-3.3-5.1-3.7-8.1c-0.2-0.9-0.3-1.8-0.3-2.7c0.1-1.5,0.1-3.1,0-4.6c-0.2-1.2-0.5-2.4-1-3.5
	c-0.4-1.2-0.5-2.5-0.2-3.7c0.2-1.6,0.3-2.7,0.3-3.3c0.1-0.9,0.3-2.6,0.6-5.1c0.1-0.6,0.1-1.2,0.2-1.7c-0.2,0.1-0.4,0.1-0.5,0.2
	c0.1,0.8-0.1,1.7-0.4,2.4c-0.4,0.9-0.4,2-0.1,2.9c-0.3-0.4-0.7-0.6-1.2-0.7c-0.4,0-0.8,0-1.1,0.1c-0.8,0.3-1.7,0.1-2.4-0.4
	c0.1-1.1-0.1-2.2-0.5-3.2c-0.3-0.3-0.7-0.5-1.1-0.4c-0.7,0-1.3,0-2,0c-0.2,0.7-0.2,1.4,0,2c0.1,0.5,0.3,1,0.3,1.5
	c-0.3,0.3-0.6,0.7-1.1,1.1c-0.5,0.5-1.1,0.9-1.6,1.3c-0.6,0.4-1.2,0.6-1.9,0.9c-0.2-0.3-0.2-0.6-0.1-0.9c0.1-0.3,0.1-0.5-0.1-0.8
	c-0.1-0.1-0.2-0.2-0.4-0.3c-0.8-0.1-1.5,0.6-2.2,2c-0.3,0.9-0.9,1.6-1.6,2.1c-0.7,0.4-1.5,0.7-2.3,0.8c-0.6,0.2-1.2,0.6-1.7,1.1
	c-0.4,0.4-0.8,0.8-1.2,1.2l-0.5,0.3c-0.8,0.2-1.6,0.4-2.4,0.4c-1.1,0.1-2.1,0.5-3,1c-0.5,0.4-1,0.7-1.5,1.2c-0.5,0.4-1,0.8-1.5,1.2
	c-0.7,0.5-1.4,0.8-2.2,0.9l-0.9-1.3c0.5-0.2,0.9-0.5,1.3-0.9c0.2-0.3,0.2-0.7-0.1-1.1l-0.2-0.2c-0.3-0.4-0.3-0.9,0-1.3
	c0.5-0.8,1-1.6,1.3-2.4c0.4-1,0.9-1.9,1.5-2.7c0.5-0.7,1.2-1.2,1.9-1.6c0.2-0.2,0.4-0.4,0.5-0.7c0.1-0.3,0.3-0.5,0.5-0.7
	c0.2-0.1,0.4-0.1,0.7-0.1c0.6,0.1,1.3,0,1.9-0.4c0.6-0.4,1-0.9,1.4-1.4c0.1-0.1,0.1-0.2,0.1-0.2c0-0.1-0.1-0.2-0.2-0.2
	c-0.2,0-0.5,0.1-0.7,0.2C133.6,140,133.3,140.1,133,139.9z M242.4,53.1l-0.1-0.5l-0.1,0.2c-0.1,0.1-0.1,0.3,0.1,0.5
	C242.2,53.2,242.2,53.1,242.4,53.1L242.4,53.1z M244.4,50.8c-0.3-0.1-0.6-0.2-0.8-0.3c-0.3-0.2-0.8-0.2-1,0.2c0,0-0.1,0.1-0.1,0.1
	c-0.4,0.5-0.2,1.1,0.6,1.8C243.9,52.3,244.4,51.6,244.4,50.8z M264.1,49.6c0.3,0.2,0.5,0,0.7-0.6l0.3-0.2c0.2-0.1,0.1-0.3-0.2-0.5
	c-0.1-0.2-0.3-0.2-0.5,0c-0.1,0.1-0.3,0.3-0.5,0.3c0,0.2,0,0.4-0.1,0.5C263.8,49.3,263.8,49.4,264.1,49.6
	C264,49.5,264.1,49.6,264.1,49.6z M161.1,54.7l-0.2-0.1l-0.1,0.4l0.2,0.3L161.1,54.7z M174.9,160c-0.2-1.5-0.5-3-0.9-4.5
	c-0.4,2.7-0.4,5.5-0.1,8.3c0.5,3.5,1.7,5.5,3.6,6C176.3,166.7,175.4,163.4,174.9,160z M154.8,136.9c0,0.4,0.1,0.8,0.3,1.1l0.2,0.4
	c0.3-0.4,0.7-0.7,1.2-0.9c0.5-0.2,0.9-0.4,1.3-0.6c0.5-0.3,0.8-0.8,0.9-1.3c-0.4-0.1-0.9,0-1.2,0.3l-1,0.7c-0.5,0.4-1.1,0.4-1.6,0
	C154.9,136.3,154.8,136.5,154.8,136.9z M140.6,134.2c0.5,0.1,0.9,0,0.9-0.4c-0.1-0.3-0.3-0.3-0.7,0
	C140.7,133.8,140.6,134,140.6,134.2L140.6,134.2z M153.8,123.3c-0.1,0.1-0.3,0.3-0.4,0.4c0.4-0.1,0.7-0.3,1.1-0.5
	C154.2,123,154,123.1,153.8,123.3L153.8,123.3z M1.3,166.6l0.1-0.2l-0.1,0C1.3,166.5,1.3,166.5,1.3,166.6z M1.3,166.7l-0.1-0.1
	L1.3,166.7L1.3,166.7z M5.3,162.2l0.1-0.2C5.4,162.1,5.4,162.1,5.3,162.2z M34.7,153.7c0,0-0.1,0.1-0.1,0.2l0.1,0.2
	c0-0.1,0.1-0.2,0.2-0.3l-0.1-0.1C34.8,153.7,34.7,153.7,34.7,153.7z M8.8,163.4c-0.4-0.2-0.7-0.3-1.1-0.4L7,162.6
	c-0.3-0.2-0.5-0.2-0.7-0.2c-0.2,0.1-0.2,0.5-0.1,1.3c0,0.1-0.1,0.2-0.2,0.2l-0.2,0.1c-0.4,0-0.9,0.1-1.2,0.3c-0.5,0.3-1,0.6-1.5,1
	c-0.5,0.4-1,0.7-1.6,0.9c0.1-0.2,0.2-0.5,0.3-0.8c0.1-0.3,0.2-0.6,0.3-0.9c0-0.4,0-0.8-0.2-1.1c-0.1-0.3-0.3-0.6-0.5-0.9
	c0.4-0.1,0.7-0.3,0.9-0.6c0.3-0.3,0.6-0.6,0.9-0.7c0.2-0.1,0.5-0.2,0.8-0.1c0.3-0.7,0.9-1.3,1.6-1.6c1-0.4,2.1-0.7,3.2-0.8
	c0-0.4,0.1-0.8,0-1.1c0-0.4,0.1-0.7,0.3-1c0.3-0.2,0.7-0.5,1.1-0.9c0.3-0.3,0.7-0.6,1.1-0.8c0.3-0.2,0.7-0.3,1.1-0.3
	c0.4,0,0.8-0.2,1.1-0.5c1.1-1.2,2.3-2.1,3.8-2.8c0.5-0.2,1.1-0.4,1.7-0.6c0.8,0,1.5-0.3,2.1-0.7c0-0.2,0-0.4-0.1-0.6s0-0.4-0.1-0.6
	c0.7-0.2,1.4-0.4,2-0.7c0.7-0.3,1.4-0.9,1.9-1.5l0.8-0.5c0.4-0.2,1-0.3,1.4-0.1c0.3,0.2,0.6,0.1,0.9,0c0.3-0.2,0.6-0.5,0.7-0.8
	c0-0.3,0.2-0.6,0.5-0.8l0.2-0.1c0.4-0.1,0.7-0.2,1-0.5c0.3-0.2,0.6-0.4,0.9-0.6c0.5-0.3,1.1-0.3,1.6-0.1c0.2,0.1,0.4,0,0.5-0.1
	c0,0,0,0,0,0c0-0.1,0.1-0.2,0.2-0.3c0.4-0.7,1-1.2,1.6-1.6c0.3-0.1,0.6-0.2,0.9-0.1c0.4,0,0.8,0,1.2-0.1c0.4-0.1,0.8-0.1,1.2-0.1
	c-0.1,0.1-0.2,0.1-0.3,0.1c-0.1,0-0.2,0.1-0.3,0.2c-0.1,0.3-0.1,0.6,0,0.8c0.2-0.1,0.3-0.2,0.5-0.3c0.2-0.2,0.3-0.4,0.1-0.8
	c0.4-0.4,0.9-0.7,1.4-1c0.5-0.2,0.9-0.5,1.3-0.8c0.4-0.2,0.9-0.3,1.3-0.2c0.4,0.1,0.8,0.1,1.2,0c0.3-0.2,0.5-0.5,0.5-0.8
	c0.3,0.1,0.5,0.3,0.7,0.5c0.3,0.3,0.6,0.4,0.8,0.3c0-0.4,0-0.8,0.1-1.2c0-0.5,0.3-0.9,0.7-1.2c0.4-0.1,0.8-0.1,1.2,0.1
	c0.1,0.1,0.2,0,0.2-0.2s0.1-0.3,0.1-0.3c0.3-0.4,0.7-0.7,1.2-0.9c0.7-0.3,1.5-0.6,2.2-0.8c1.2-0.7,2.6-1.2,4-1.4
	c1.1-0.2,2.2-0.6,3.2-1c0.4-0.2,0.8-0.4,1.2-0.7c0-0.3,0.4-0.3,1-0.1c0.3,0,0.5,0,0.8-0.1c1.1-0.6,2.3-1.1,3.5-1.4
	c1.4-0.3,2.3-0.6,2.9-0.8c0.2,0,0.5-0.1,0.8-0.1c0.3,0,0.5,0,0.8,0c0.3,0.1,0.6,0.4,0.8,0.7c0.5,0.3,0.8,0.2,1-0.3
	c0.1-0.4,0.3-0.7,0.7-0.9c0.3-0.1,0.5-0.2,0.8-0.2c0.3,0,0.6-0.1,0.8-0.2c0.3-0.1,0.5-0.3,0.6-0.6c0.6,0.2,1.3,0.1,1.9-0.2
	c0.3-0.2,0.6-0.4,0.9-0.6c0.3-0.2,0.6-0.4,0.9-0.5c2.6-0.8,5.3-1.2,8-1.3c0.6,0.1,1.1,0.1,1.7-0.1c0.4-0.1,0.8-0.2,1.2-0.3
	c1-0.5,2.1-0.8,3.2-1c1.1-0.1,2.1,0.2,3,0.8c0.3-0.1,0.5-0.3,0.4-0.7s-0.1-0.6-0.1-0.6c7.4-0.9,14.9-1.2,22.4-0.9
	c0.3,1.5,0.5,3.1,0.6,4.6c0.2,1.6,0.3,2.6,0.3,2.9c0.5,3,0,5.1-1.4,6.4c-0.2,0.2-0.5,0.5-0.7,0.6l-0.3,0.1c-0.6,0.1-1.2,0.2-1.7,0.3
	l-1.7,0.4c0,0.9-0.6,1.7-1.3,2.1c-0.6,0.3-1.2,0.3-1.7-0.1c-0.7-0.4-1.6-0.6-2.5-0.6c-0.8,0-1.7-0.2-2.4-0.6c-0.1,0-0.1-0.1-0.2,0
	c-0.1,0-0.1,0.1-0.1,0.2c0,0.4-0.1,0.6-0.3,0.7c-0.2,0.1-0.4,0.1-0.6,0.1c-0.2,0-0.4,0-0.6,0c-0.7,0.2-1.3,0.3-2,0.4l-2,0.3
	c-0.5,0.1-1,0.2-1.4,0.3c-0.7,0.2-1.4,0.2-2,0.1c-0.8-0.1-1.5,0-2.2,0.3c-0.3,0.1-0.7,0.2-1.2,0.3c-0.4,0.1-0.8,0.2-1.3,0.1
	c-0.4,0-0.9-0.4-1.4-1.1c-0.1,0.6-0.5,1.1-1.1,1.4l-1.3,0.5c-0.2,0.1-0.5,0.3-0.6,0.4c-0.3-0.1-0.6-0.4-0.8-0.7
	c-0.1-0.3-0.4-0.6-0.7-0.7c-0.9,0-1.8,0.2-2.6,0.6c-0.5,0.2-0.9,0.5-1.2,0.9c-0.1,0-0.1,0.1-0.2,0.1c-0.1,0.1-0.2,0.1-0.4,0
	c-0.3-0.2-0.8-0.3-1.2-0.3c-0.5,0-0.9-0.1-1.4-0.3c-0.3-0.2-0.7-0.3-1-0.1c-0.3,0.1-0.5,0.4-0.6,0.7c-0.1,0.4-0.3,0.7-0.7,0.9
	c-0.3,0.1-0.6,0.2-0.8,0.3c-0.2,0-0.5,0.1-0.7,0.1c-0.2-0.1-0.4-0.2-0.5-0.4c-0.2-0.2-0.3-0.3-0.4-0.3c-0.6-0.1-1.2,0-1.7,0.1
	c-1.1,0.2-2.2,0.1-3.1-0.4c-0.4,0-0.8-0.1-1.1-0.4c-0.5-0.4-0.8-0.6-1.1-0.4c-0.2,0.1-0.4,0.4-0.4,0.6c-0.1,0.3-0.3,0.5-0.6,0.7
	c-0.3,0.1-0.5,0.1-0.8,0.1c-1.2,0-2.4,0.2-3.5,0.5c-1.2,0.4-2,0.6-2.5,0.7c-1.6,0.8-3.3,1.4-5.1,1.7c-0.5,0.2-1.1,0.3-1.7,0.3
	c-0.7-0.1-1.3-0.5-1.7-1c0.2,0.9,0.1,1.4-0.2,1.5c-0.2,0.1-0.5,0.1-0.7,0.1c-0.3,0-0.7,0.1-0.9,0.4c-0.2,0.2-0.4,0.3-0.6,0.5
	c-0.2,0.5-0.5,0.7-1,0.4c-0.3-0.1-0.5-0.1-0.8-0.2c-0.3,0-0.5-0.1-0.8-0.2c-0.8-0.3-1.7,0.1-2,0.8c-0.1,0.1-0.1,0.3-0.1,0.5
	c-0.1,0.2-0.1,0.4-0.1,0.6c0,0.3-0.1,0.5-0.2,0.5l-0.2,0.1c-1.2-0.4-2.6-0.2-3.7,0.4l-2.4,1.2c-0.1-0.3-0.2-0.6-0.1-0.9
	c0-0.3,0-0.5-0.1-0.8c-0.1-0.2-0.4-0.4-0.6-0.5c-0.3,0.1-0.6,0.4-0.6,0.7c0,0.3-0.1,0.6-0.2,0.9c0.1-0.1,0.2-0.2,0.2-0.3
	c0.1-0.1,0.2-0.1,0.4,0.2c0.1,0.1,0.2,0.4,0.1,0.8c-0.3,0.1-0.5-0.1-0.8-0.6c-0.4,0.3-0.8,0.6-1.2,0.9c-0.3,0.1-0.7,0.2-1.1,0.3
	c-0.3-0.1-0.7,0-0.9,0.2c-0.2,0.2-0.3,0.4-0.6,0.5c-0.2,0-0.3,0.2-0.2,0.7s0,0.7-0.1,0.8l-0.2,0.1c-0.3,0-0.7,0-1,0.1
	c-0.2,0.1-0.3,0.3-0.3,0.4c-0.2,0.3-0.5,0.4-0.8,0.2c-0.2-0.1-0.4-0.1-0.7-0.1l-0.1,0c-0.6,0.3-1.3,0.6-2,0.8
	c-0.7,0.1-1.3-0.1-1.8-0.6c-0.2-0.2-0.5-0.2-0.8,0c-0.1,0.3,0,0.6,0.2,0.9c0.2,0.4,0.2,0.6,0.2,0.8c-0.9-0.6-1.5-0.8-1.9-0.6
	c-0.3,0.1-0.5,0.3-0.6,0.6c-0.3,0.4-0.7,0.7-1.1,0.9c-0.5,0.3-0.8,0.7-1,1.1c0,0.2-0.2,0.3-0.4,0.4c-0.3,0-0.6,0-0.9-0.1
	c-0.5-0.1-1.1-0.1-1.6,0.2l-0.6,0.3c-0.5,0.3-1.1,0.4-1.7,0.4c-0.1,0-0.2,0.1-0.3,0.4c-0.1,0.2-0.1,0.4-0.2,0.6
	c0,0.5-0.2,0.9-0.6,1.2c-0.6-0.4-1.2-0.8-1.8-1.1c-0.3,0-0.5,0-0.8,0.1c-0.2,0.1-0.4,0.4-0.2,0.7c0,0,0,0,0,0
	c0.2,0.6,0.2,0.9,0.1,0.9c-0.1,0-0.3,0-0.4,0C9.1,163.6,9,163.5,8.8,163.4z M110,137.8c0.9,0.5,1.5,0.7,1.9,0.5
	c0.3-0.1,0.5-0.4,0.6-0.6C111.8,137.6,110.9,137.6,110,137.8L110,137.8z M54.1,134.2c0.1,0.1,0.1,0.3,0,0.4c0.3,0.3,0.5,0.4,0.5,0.2
	c0.1-0.1,0.2-0.2,0.1-0.3c0-0.1-0.1-0.2-0.2-0.2c-0.1,0-0.2-0.1-0.2,0C54.3,134.2,54.2,134.2,54.1,134.2z M16.9,155.1
	c0,0.5,0.3,0.7,0.7,0.6c0-0.4-0.2-0.7-0.4-0.9C16.8,154.9,16.7,154.9,16.9,155.1z M3.6,163.1c-0.1-0.3-0.3-0.6-0.5-0.9
	c0,0.3-0.2,0.6-0.4,0.9c-0.2,0.2-0.3,0.5-0.4,0.8c0,0.3,0,0.7,0.2,1c0.3,0,0.6-0.1,0.8-0.3C3.9,164.3,4,163.8,3.6,163.1z M5.4,162
	L5.4,162c-0.2-0.5-0.4-0.8-0.7-0.6c-0.2-0.1-0.3-0.1-0.3,0.1c0,0.2,0,0.4,0.1,0.5c0.1,0.2,0.3,0.3,0.4,0.3c0.1,0,0.2,0,0.3-0.1
	l0.1,0.1l0.2,0C5.7,162,5.6,161.9,5.4,162L5.4,162z"/>
</svg>
