<?xml version="1.0" encoding="utf-8"?>
<!-- Generator: Adobe Illustrator 25.2.0, SVG Export Plug-In . SVG Version: 6.00 Build 0)  -->
<svg version="1.1" id="Layer_1" xmlns="http://www.w3.org/2000/svg" xmlns:xlink="http://www.w3.org/1999/xlink" x="0px" y="0px"
	 viewBox="0 0 368.4 107.9" style="enable-background:new 0 0 368.4 107.9;" xml:space="preserve">
<style type="text/css">
	.st0{fill:#030402;}
</style>
<path class="st0" d="M37.2,56.7c0.1,0.8-0.4,1.6-1.3,1.7c-0.1,0-0.3,0-0.4,0h-7.7c-0.8,0.1-1.6-0.4-1.7-1.3c0-0.1,0-0.3,0-0.4
	L26,27.6c0-2-0.3-3-0.8-3.2c-0.6-0.1-1.3,0.6-2.3,2.3L20,32c-0.5,0.8-0.9,1.2-1.4,1.2c-0.5,0-1-0.4-1.4-1.2l-2.8-5.2
	c-1-1.8-1.7-2.5-2.3-2.4s-0.8,1.2-0.8,3.2l-0.1,29c0.1,0.8-0.4,1.6-1.3,1.7c-0.1,0-0.3,0-0.4,0H1.7c-0.8,0.1-1.6-0.4-1.7-1.3
	c0-0.1,0-0.3,0-0.4V2.4c-0.1-0.8,0.4-1.6,1.3-1.7c0.1,0,0.3,0,0.4,0h8.2c0.6,0,1.2,0.3,1.4,0.9L17,13.5c0.5,1,1,1.4,1.5,1.4
	s1.1-0.5,1.5-1.4l5.8-11.9c0.2-0.6,0.8-1,1.4-0.9h8.2c0.8-0.1,1.6,0.4,1.7,1.3c0,0.1,0,0.3,0,0.4L37.2,56.7z"/>
<path class="st0" d="M57,56.7c0.1,0.8-0.4,1.6-1.3,1.7c-0.1,0-0.3,0-0.4,0h-8c-0.8,0.1-1.6-0.4-1.7-1.3c0-0.1,0-0.3,0-0.4V2.4
	c-0.1-0.8,0.4-1.6,1.3-1.7c0.1,0,0.3,0,0.4,0h8c0.8-0.1,1.6,0.4,1.7,1.3c0,0.1,0,0.3,0,0.4V56.7z"/>
<path class="st0" d="M93.8,56.7c0.1,0.8-0.4,1.6-1.3,1.7c-0.1,0-0.3,0-0.4,0h-26c-0.8,0.1-1.6-0.4-1.7-1.3c0-0.1,0-0.3,0-0.4V2.4
	c-0.1-0.8,0.4-1.6,1.3-1.7c0.1,0,0.3,0,0.4,0h8.1c0.8-0.1,1.6,0.4,1.7,1.3c0,0.1,0,0.3,0,0.4v44c-0.1,0.8,0.4,1.6,1.3,1.7
	c0.1,0,0.3,0,0.4,0h14.6c0.8-0.1,1.6,0.4,1.7,1.3c0,0.1,0,0.3,0,0.4L93.8,56.7z"/>
<path class="st0" d="M136.2,55.9c0.5,0.7,0.5,1.3,0.3,1.8c-0.4,0.5-1.1,0.8-1.7,0.7h-9.2c-0.6,0-1.2-0.3-1.4-0.9l-8.7-17.2
	c-1-1.9-1.7-2.7-2.3-2.6c-0.6,0.1-0.9,1.3-0.9,3.4l-0.1,15.7c0.1,0.8-0.4,1.6-1.3,1.7c-0.1,0-0.3,0-0.4,0h-8
	c-0.8,0.1-1.6-0.4-1.7-1.3c0-0.1,0-0.3,0-0.4V2.4c-0.1-0.8,0.4-1.6,1.3-1.7c0.1,0,0.3,0,0.4,0h8c0.8-0.1,1.6,0.4,1.7,1.3
	c0,0.1,0,0.3,0,0.4l0.1,14.7c0.1,2.1,0.4,3.2,0.9,3.3s1.3-0.7,2.3-2.5l8.3-16.2c0.2-0.6,0.8-1,1.4-0.9h8c0.6-0.1,1.3,0.2,1.7,0.7
	c0.3,0.5,0.2,1-0.3,1.8l-12.9,24c-0.3,0.5-0.3,1.1,0,1.5L136.2,55.9z"/>
<path class="st0" d="M160.2,39.8c-1-1.3-2.2-2.5-3.6-3.3l-8.4-6c-2.6-1.7-4.7-3.9-6.3-6.5c-3.5-6.4-2.4-14.3,2.6-19.5
	c3.2-3,7.4-4.6,11.8-4.4c4.9,0,8.8,1.5,11.5,4.4c2.8,3,4.2,7,4.2,12.1v1c0.1,0.5-0.3,0.9-0.8,1c-0.1,0-0.2,0-0.3,0h-8.6
	c-0.6,0.1-1.1-0.3-1.2-0.9c0-0.1,0-0.2,0-0.3v-1.2c0.1-1.6-0.5-3.1-1.4-4.3c-1-1.1-2.4-1.7-3.8-1.7c-2.5-0.1-4.6,1.8-4.7,4.3
	c0,0.1,0,0.3,0,0.4c-0.1,1.2,0.2,2.5,0.8,3.6c0.5,0.9,2,2.3,4.5,4.3l7.8,5.9c2.5,1.8,4.7,4.1,6.4,6.6c1.3,2.2,1.9,4.7,1.9,7.3
	c0.2,4.5-1.6,8.8-4.8,11.9c-3.2,3.1-7.6,4.8-12,4.6c-4.3,0.2-8.5-1.4-11.6-4.4c-3.1-2.9-4.8-7-4.7-11.2v-1.5
	c-0.1-0.7,0.4-1.4,1.1-1.5c0.1,0,0.3,0,0.4,0h8.1c0.5-0.1,1,0.3,1.1,0.8c0,0.1,0,0.2,0,0.3v1.2c-0.1,1.6,0.5,3.2,1.6,4.3
	c1,1.2,2.5,1.8,4.1,1.8c1.3,0,2.6-0.6,3.5-1.6c1-1.1,1.5-2.5,1.4-4C161.2,42,160.9,40.8,160.2,39.8z"/>
<path class="st0" d="M213.3,56.7c0.1,0.8-0.4,1.6-1.3,1.7c-0.1,0-0.3,0-0.4,0h-8.1c-0.8,0.1-1.6-0.4-1.7-1.3c0-0.1,0-0.3,0-0.4V36
	c0.1-0.8-0.4-1.6-1.3-1.7c-0.1,0-0.3,0-0.4,0h-7.3c-0.8-0.1-1.6,0.5-1.7,1.3c0,0.1,0,0.3,0,0.4v20.6c0.1,0.8-0.4,1.6-1.3,1.7
	c-0.1,0-0.3,0-0.4,0h-8.1c-0.8,0.1-1.6-0.4-1.7-1.3c0-0.1,0-0.3,0-0.4V2.4c-0.1-0.8,0.4-1.6,1.3-1.7c0.1,0,0.3,0,0.4,0h8.1
	c0.8-0.1,1.6,0.4,1.7,1.3c0,0.1,0,0.3,0,0.4v20c-0.1,0.8,0.4,1.6,1.3,1.7c0.1,0,0.3,0,0.4,0h7.3c0.8,0.1,1.6-0.4,1.7-1.3
	c0-0.1,0-0.3,0-0.4v-20c-0.1-0.8,0.4-1.6,1.3-1.7c0.1,0,0.3,0,0.4,0h8.1c0.8-0.1,1.6,0.4,1.7,1.3c0,0.1,0,0.3,0,0.4L213.3,56.7z"/>
<path class="st0" d="M254.5,56.3c0.1,0.5,0,1-0.3,1.5c-0.3,0.4-0.8,0.6-1.4,0.6h-8.4c-0.8,0.1-1.6-0.5-1.7-1.4l-0.7-4.3
	c-0.1-0.8-0.9-1.4-1.7-1.4h-7.7c-0.8-0.1-1.6,0.5-1.7,1.4l-0.7,4.3c-0.1,0.8-0.9,1.4-1.7,1.4h-7.8c-0.9,0.1-1.7-0.5-1.8-1.4
	c0-0.2,0-0.4,0.1-0.7L231.1,2c0.1-0.8,0.8-1.4,1.6-1.3h8.7c0.8-0.1,1.5,0.5,1.6,1.4c0,0,0,0,0,0L254.5,56.3z M238.5,42.1
	c0.5,0,1-0.1,1.4-0.5c0.3-0.4,0.4-0.9,0.3-1.4l-1.7-10.8c-0.5-3.1-0.9-5.3-1.1-6.9s-0.4-2.3-0.5-2.3c-0.1,0-0.3,0.8-0.5,2.3
	s-0.6,3.8-1.2,6.9l-2,10.8c-0.2,1.3,0.4,2,1.7,2H238.5z"/>
<path class="st0" d="M295.8,55.9c0.5,0.7,0.5,1.3,0.3,1.8c-0.4,0.5-1.1,0.8-1.7,0.7h-9.2c-0.6,0-1.2-0.3-1.4-0.9L275,40.2
	c-1-1.9-1.7-2.7-2.3-2.6s-0.9,1.3-0.9,3.4l-0.1,15.7c0.1,0.8-0.4,1.6-1.3,1.7c-0.1,0-0.3,0-0.4,0h-8c-0.8,0.1-1.6-0.4-1.7-1.3
	c0-0.1,0-0.3,0-0.4V2.4c-0.1-0.8,0.4-1.6,1.3-1.7c0.1,0,0.3,0,0.4,0h8c0.8-0.1,1.6,0.4,1.7,1.3c0,0.1,0,0.3,0,0.4l0.1,14.7
	c0.1,2.1,0.4,3.2,0.9,3.3c0.6,0.1,1.3-0.7,2.3-2.5l8.3-16.2c0.2-0.6,0.8-1,1.4-0.9h8c0.6-0.1,1.3,0.2,1.7,0.7c0.3,0.5,0.2,1-0.3,1.8
	l-12.9,24c-0.3,0.5-0.3,1.1,0,1.5L295.8,55.9z"/>
<path class="st0" d="M331.2,56.7c0.1,0.8-0.4,1.6-1.3,1.7c-0.1,0-0.3,0-0.4,0h-26.2c-0.8,0.1-1.6-0.4-1.7-1.3c0-0.1,0-0.3,0-0.4V2.4
	c-0.1-0.8,0.4-1.6,1.3-1.7c0.1,0,0.3,0,0.4,0h26.2c0.8-0.1,1.6,0.4,1.7,1.3c0,0.1,0,0.3,0,0.4v6.9c0.1,0.8-0.4,1.6-1.3,1.7
	c-0.1,0-0.3,0-0.4,0h-14.8c-0.8-0.1-1.6,0.5-1.7,1.3c0,0.1,0,0.3,0,0.4v9.7c-0.1,0.8,0.4,1.6,1.3,1.7c0.1,0,0.3,0,0.4,0h5.9
	c0.8-0.1,1.6,0.4,1.7,1.3c0,0.1,0,0.3,0,0.4v6.9c0.1,0.8-0.4,1.6-1.3,1.7c-0.1,0-0.3,0-0.4,0h-5.9c-0.8-0.1-1.6,0.5-1.7,1.3
	c0,0.1,0,0.3,0,0.4v10.3c-0.1,0.8,0.4,1.6,1.3,1.7c0.1,0,0.3,0,0.4,0h14.8c0.8-0.1,1.6,0.4,1.7,1.3c0,0.1,0,0.3,0,0.4L331.2,56.7z"
	/>
<path class="st0" d="M355.8,39.8c-1-1.3-2.2-2.5-3.6-3.3l-8.4-6c-2.6-1.7-4.7-3.9-6.3-6.5c-3.5-6.4-2.4-14.3,2.6-19.5
	c3.2-3,7.4-4.6,11.8-4.4c4.9,0,8.8,1.5,11.5,4.4c2.8,3,4.2,7,4.2,12.1v1c0.1,0.5-0.3,0.9-0.8,1c-0.1,0-0.2,0-0.3,0h-8.6
	c-0.6,0.1-1.1-0.3-1.2-0.9c0-0.1,0-0.2,0-0.3v-1.2c0.1-1.6-0.5-3.1-1.4-4.3c-1-1.1-2.4-1.7-3.8-1.7c-2.5-0.1-4.6,1.8-4.7,4.3
	c0,0.1,0,0.3,0,0.4c-0.1,1.2,0.2,2.5,0.8,3.6c0.5,0.9,2,2.3,4.5,4.3l7.8,5.9c2.5,1.8,4.7,4.1,6.4,6.6c1.3,2.2,1.9,4.7,1.9,7.3
	c0.2,4.5-1.6,8.8-4.8,11.9c-3.2,3.1-7.6,4.8-12,4.6c-4.3,0.2-8.5-1.4-11.6-4.4c-3.1-2.9-4.8-7-4.7-11.2v-1.5
	c-0.1-0.7,0.4-1.4,1.1-1.5c0.1,0,0.3,0,0.4,0h8.1c0.5-0.1,1,0.3,1.1,0.8c0,0.1,0,0.2,0,0.3v1.2c-0.1,1.6,0.5,3.2,1.6,4.3
	c1,1.2,2.5,1.8,4.1,1.8c1.3,0,2.6-0.6,3.5-1.6c1-1.1,1.5-2.5,1.4-4C356.7,42,356.4,40.8,355.8,39.8z"/>
<path class="st0" d="M90.4,107.3c0,0.3-0.2,0.5-0.4,0.6c0,0-0.1,0-0.1,0H88c-0.3,0-0.5-0.2-0.6-0.4c0,0,0-0.1,0-0.1V83.5
	c0-0.3,0.2-0.5,0.4-0.6c0,0,0.1,0,0.1,0h1.8c0.3,0,0.5,0.2,0.6,0.4c0,0,0,0.1,0,0.1V107.3z"/>
<path class="st0" d="M9.5,102.9c-1.2,1.1-2.7,1.7-4.3,1.7H0.6c-0.3,0-0.5-0.2-0.6-0.4c0,0,0-0.1,0-0.1V85.5c0-0.3,0.2-0.5,0.4-0.6
	c0,0,0.1,0,0.1,0h4.6c1.5-0.1,3,0.5,4.1,1.5c1.1,1,1.7,2.4,1.6,3.9c0,0.8-0.2,1.6-0.5,2.3c-0.2,0.5-0.5,0.9-0.9,1.3
	c-0.3,0.2-0.3,0.6-0.1,0.9c0,0,0.1,0.1,0.1,0.1c0.4,0.4,0.8,0.8,1.1,1.4C11.7,98.5,11.2,101.2,9.5,102.9L9.5,102.9z M3.8,92.4
	c0,0.3,0.2,0.5,0.4,0.6c0,0,0.1,0,0.1,0h0.7c0.6,0,1.2-0.2,1.6-0.7c0.4-0.5,0.6-1.1,0.6-1.7c0-0.6-0.2-1.2-0.6-1.6
	c-0.5-0.4-1.1-0.6-1.7-0.6H4.4c-0.3,0-0.5,0.2-0.6,0.4c0,0,0,0.1,0,0.1L3.8,92.4z M3.8,100.6c0,0.3,0.2,0.5,0.4,0.6c0,0,0.1,0,0.1,0
	h0.7c0.6,0,1.3-0.3,1.7-0.7c0.9-0.9,0.9-2.5,0-3.4c-0.5-0.5-1.1-0.7-1.7-0.7H4.4c-0.3,0-0.5,0.2-0.6,0.4c0,0,0,0.1,0,0.1V100.6z"/>
<path class="st0" d="M24.3,103.9c0,0.2,0,0.4-0.1,0.5c-0.1,0.1-0.3,0.2-0.5,0.2h-2.9c-0.3,0-0.5-0.2-0.6-0.5l-0.2-1.5
	c0-0.3-0.3-0.5-0.6-0.5h-2.6c-0.3,0-0.5,0.2-0.6,0.5l-0.2,1.5c0,0.3-0.3,0.5-0.6,0.5h-2.7c-0.3,0-0.6-0.2-0.6-0.5c0-0.1,0-0.2,0-0.2
	l4.1-18.5c0-0.3,0.3-0.5,0.5-0.4h3c0.3,0,0.5,0.2,0.5,0.5c0,0,0,0,0,0L24.3,103.9z M18.9,99c0.2,0,0.3,0,0.5-0.2
	c0.1-0.1,0.1-0.3,0.1-0.5l-0.6-3.7c-0.2-1-0.3-1.8-0.4-2.3c-0.1-0.5-0.1-0.8-0.2-0.8s-0.1,0.3-0.2,0.8s-0.2,1.3-0.4,2.3l-0.7,3.7
	C17,98.8,17.2,99,17.7,99H18.9z"/>
<path class="st0" d="M37.9,104c0,0.3-0.2,0.5-0.4,0.6c0,0-0.1,0-0.1,0h-2.7c-0.2,0-0.5-0.1-0.5-0.4l-3.1-8.5
	c-0.3-0.9-0.6-1.4-0.8-1.3c-0.2,0-0.3,0.5-0.3,1.5l0,8.1c0,0.3-0.2,0.5-0.4,0.6c0,0-0.1,0-0.1,0h-2.4c-0.3,0-0.5-0.2-0.6-0.4
	c0,0,0-0.1,0-0.1V85.5c0-0.3,0.2-0.5,0.4-0.6c0,0,0.1,0,0.1,0h2.7c0.2,0,0.5,0.1,0.5,0.4l3.1,8.4c0.3,0.9,0.6,1.4,0.8,1.3
	c0.2,0,0.3-0.5,0.3-1.5l0-8c0-0.3,0.2-0.5,0.4-0.6c0,0,0.1,0,0.1,0h2.4c0.3,0,0.5,0.2,0.6,0.4c0,0,0,0.1,0,0.1L37.9,104z"/>
<path class="st0" d="M51.9,103.9c0,0.2,0,0.4-0.1,0.5c-0.1,0.1-0.3,0.2-0.5,0.2h-2.9c-0.3,0-0.5-0.2-0.6-0.5l-0.2-1.5
	c0-0.3-0.3-0.5-0.6-0.5h-2.6c-0.3,0-0.5,0.2-0.6,0.5l-0.2,1.5c0,0.3-0.3,0.5-0.6,0.5h-2.7c-0.3,0-0.6-0.2-0.6-0.5c0-0.1,0-0.2,0-0.2
	l4.1-18.5c0-0.3,0.3-0.5,0.5-0.4h3c0.3,0,0.5,0.2,0.5,0.5L51.9,103.9z M46.4,99c0.3,0,0.5-0.1,0.6-0.4c0-0.1,0-0.2,0-0.2l-0.6-3.7
	c-0.2-1-0.3-1.8-0.4-2.3c-0.1-0.5-0.1-0.8-0.2-0.8s-0.1,0.3-0.2,0.8s-0.2,1.3-0.4,2.3l-0.7,3.7c-0.1,0.4,0.1,0.7,0.6,0.7H46.4z"/>
<path class="st0" d="M65.4,104c0,0.3-0.2,0.5-0.4,0.6c0,0-0.1,0-0.1,0h-2.7c-0.2,0-0.5-0.1-0.5-0.4l-3.1-8.5
	c-0.3-0.9-0.6-1.4-0.8-1.3c-0.2,0-0.3,0.5-0.3,1.5l0,8.1c0,0.3-0.2,0.5-0.4,0.6c0,0-0.1,0-0.1,0h-2.4c-0.3,0-0.5-0.2-0.6-0.4
	c0,0,0-0.1,0-0.1V85.5c0-0.3,0.2-0.5,0.4-0.6c0,0,0.1,0,0.1,0h2.7c0.2,0,0.5,0.1,0.5,0.4l3.1,8.4c0.3,0.9,0.6,1.4,0.8,1.3
	c0.2,0,0.3-0.5,0.3-1.5l0-8c0-0.3,0.2-0.5,0.4-0.6c0,0,0.1,0,0.1,0h2.4c0.3,0,0.5,0.2,0.6,0.4c0,0,0,0.1,0,0.1L65.4,104z"/>
<path class="st0" d="M79.4,103.9c0,0.2,0,0.4-0.1,0.5c-0.1,0.1-0.3,0.2-0.5,0.2H76c-0.3,0-0.5-0.2-0.6-0.5l-0.2-1.5
	c0-0.3-0.3-0.5-0.6-0.5H72c-0.3,0-0.5,0.2-0.6,0.5l-0.2,1.5c0,0.3-0.3,0.5-0.6,0.5h-2.7c-0.2,0-0.4-0.1-0.5-0.2
	c-0.1-0.1-0.1-0.3-0.1-0.5l4.1-18.5c0-0.3,0.3-0.5,0.5-0.4h3c0.3,0,0.5,0.2,0.5,0.5c0,0,0,0,0,0L79.4,103.9z M74,99
	c0.3,0,0.5-0.1,0.6-0.4c0-0.1,0-0.2,0-0.2l-0.6-3.7c-0.2-1-0.3-1.8-0.4-2.3c-0.1-0.5-0.1-0.8-0.2-0.8s-0.1,0.3-0.2,0.8
	s-0.2,1.3-0.4,2.3l-0.7,3.7c-0.1,0.4,0.1,0.7,0.6,0.7H74z"/>
<path class="st0" d="M243.8,107.3c0,0.3-0.2,0.5-0.4,0.6c0,0-0.1,0-0.1,0h-1.8c-0.3,0-0.5-0.2-0.6-0.4c0,0,0-0.1,0-0.1V83.5
	c0-0.3,0.2-0.5,0.4-0.6c0,0,0.1,0,0.1,0h1.8c0.3,0,0.5,0.2,0.6,0.4c0,0,0,0.1,0,0.1L243.8,107.3z"/>
<path class="st0" d="M262.4,98.4c0.2,0,0.3,0.1,0.3,0.2c0,0,0,0.1,0,0.1v0.3c0,3.2-2.6,5.7-5.8,5.7c-1.4,0-2.8-0.6-3.9-1.6
	c-1.1-1-1.7-2.4-1.6-3.9v-9.2c0-1.5,0.6-2.9,1.6-3.9c1.1-1,2.6-1.6,4.2-1.5c2.9-0.2,5.3,2,5.5,4.9c0,0.2,0,0.4,0,0.6v0.4
	c0,0.2-0.1,0.4-0.3,0.4c0,0-0.1,0-0.1,0h-2.9c-0.2,0-0.4-0.1-0.5-0.3c0,0,0-0.1,0-0.1v-0.5c0-0.5-0.2-1-0.5-1.4
	c-0.3-0.3-0.8-0.5-1.3-0.5c-0.5,0-1,0.2-1.3,0.5c-0.3,0.4-0.5,0.9-0.5,1.4v9.3c0,0.5,0.2,1,0.5,1.3c0.7,0.7,1.8,0.7,2.5,0.1
	c0,0,0.1-0.1,0.1-0.1c0.3-0.4,0.5-0.9,0.5-1.4v-0.4c0-0.2,0.1-0.4,0.3-0.4c0,0,0.1,0,0.1,0L262.4,98.4z"/>
<path class="st0" d="M276.4,104c0,0.3-0.2,0.5-0.4,0.6c0,0-0.1,0-0.1,0h-2.8c-0.3,0-0.5-0.2-0.6-0.4c0,0,0-0.1,0-0.1v-7
	c0-0.3-0.2-0.5-0.4-0.6c0,0-0.1,0-0.1,0h-2.5c-0.3,0-0.5,0.2-0.6,0.4c0,0,0,0.1,0,0.1v7c0,0.3-0.2,0.5-0.4,0.6c0,0-0.1,0-0.1,0h-2.7
	c-0.3,0-0.5-0.2-0.6-0.4c0,0,0-0.1,0-0.1V85.5c0-0.3,0.2-0.5,0.4-0.6c0,0,0.1,0,0.1,0h2.7c0.3,0,0.5,0.2,0.6,0.4c0,0,0,0.1,0,0.1
	v6.8c0,0.3,0.2,0.5,0.4,0.6c0,0,0.1,0,0.1,0h2.5c0.3,0,0.5-0.2,0.6-0.4c0,0,0-0.1,0-0.1v-6.8c0-0.3,0.2-0.5,0.4-0.6c0,0,0.1,0,0.1,0
	h2.8c0.3,0,0.5,0.2,0.6,0.4c0,0,0,0.1,0,0.1L276.4,104z"/>
<path class="st0" d="M289.5,86.2c1.1,1,1.7,2.5,1.6,4v9c0,1.5-0.6,3-1.6,4c-1.1,1.1-2.6,1.6-4.2,1.6c-1.5,0.1-3-0.5-4.2-1.6
	c-1.1-1-1.7-2.5-1.6-4v-9c0-1.5,0.6-3,1.7-4c1.1-1.1,2.6-1.6,4.2-1.6C286.8,84.7,288.3,85.2,289.5,86.2z M286.7,100.8
	c0.4-0.4,0.5-1,0.5-1.5v-8.6c0-0.6-0.1-1.3-0.5-1.8c-0.3-0.4-0.9-0.7-1.4-0.6c-0.6,0-1.1,0.2-1.4,0.7c-0.4,0.5-0.6,1.2-0.5,1.8v8.2
	c0,0.6,0.1,1.3,0.5,1.8c0.3,0.4,0.9,0.7,1.4,0.7C285.8,101.3,286.3,101.1,286.7,100.8L286.7,100.8z"/>
<path class="st0" d="M304.8,98.4c0.2,0,0.3,0.1,0.3,0.2c0,0,0,0.1,0,0.1v0.3c0,3.2-2.6,5.7-5.8,5.7c-1.4,0-2.8-0.6-3.9-1.6
	c-1.1-1-1.7-2.4-1.6-3.9v-9.2c0-1.5,0.6-2.9,1.6-3.9c1.1-1,2.6-1.6,4.2-1.5c2.9-0.2,5.3,2,5.5,4.9c0,0.2,0,0.4,0,0.6v0.4
	c0,0.2-0.1,0.4-0.3,0.4c0,0-0.1,0-0.1,0h-2.9c-0.2,0-0.4-0.1-0.5-0.3c0,0,0-0.1,0-0.1v-0.5c0-0.5-0.2-1-0.5-1.4
	c-0.3-0.3-0.8-0.5-1.3-0.5c-0.5,0-1,0.2-1.3,0.5c-0.3,0.4-0.5,0.9-0.5,1.4v9.3c0,0.5,0.2,1,0.5,1.3c0.7,0.7,1.8,0.7,2.5,0.1
	c0,0,0.1-0.1,0.1-0.1c0.3-0.4,0.5-0.9,0.5-1.4v-0.4c0-0.2,0.1-0.4,0.3-0.4c0,0,0.1,0,0.1,0L304.8,98.4z"/>
<path class="st0" d="M317.1,86.2c1.1,1,1.7,2.5,1.6,4v9c0,1.5-0.6,3-1.6,4c-1.1,1.1-2.6,1.6-4.2,1.6c-1.5,0.1-3-0.5-4.2-1.6
	c-1.1-1-1.7-2.5-1.6-4v-9c0-1.5,0.6-3,1.7-4c1.1-1,2.6-1.6,4.2-1.6C314.4,84.7,315.9,85.2,317.1,86.2z M314.3,100.8
	c0.4-0.4,0.5-1,0.5-1.5v-8.6c0-0.6-0.1-1.3-0.5-1.8c-0.3-0.4-0.9-0.7-1.4-0.6c-0.6,0-1.1,0.2-1.4,0.7c-0.4,0.5-0.6,1.2-0.5,1.8v8.2
	c0,0.6,0.1,1.3,0.5,1.8c0.3,0.4,0.9,0.7,1.4,0.7C313.4,101.3,313.9,101.1,314.3,100.8L314.3,100.8z"/>
<path class="st0" d="M331.7,104c0,0.3-0.2,0.5-0.4,0.6c0,0-0.1,0-0.1,0h-8.9c-0.3,0-0.5-0.2-0.6-0.4c0,0,0-0.1,0-0.1V85.5
	c0-0.3,0.2-0.5,0.4-0.6c0,0,0.1,0,0.1,0h2.7c0.3,0,0.5,0.2,0.6,0.4c0,0,0,0.1,0,0.1v15c0,0.3,0.2,0.5,0.4,0.6c0,0,0.1,0,0.1,0h5
	c0.3,0,0.5,0.2,0.6,0.4c0,0,0,0.1,0,0.1V104z"/>
<path class="st0" d="M344.4,103.9c0,0.2,0,0.4-0.1,0.5c-0.1,0.1-0.3,0.2-0.5,0.2h-2.9c-0.3,0-0.5-0.2-0.6-0.5l-0.2-1.5
	c0-0.3-0.3-0.5-0.6-0.5h-2.6c-0.3,0-0.5,0.2-0.6,0.5l-0.2,1.5c0,0.3-0.3,0.5-0.6,0.5h-2.7c-0.2,0-0.4-0.1-0.5-0.2
	c-0.1-0.1-0.1-0.3-0.1-0.5l4.1-18.5c0-0.3,0.3-0.5,0.5-0.4h3c0.3,0,0.5,0.2,0.5,0.5c0,0,0,0,0,0L344.4,103.9z M338.9,99
	c0.3,0,0.5-0.1,0.6-0.4c0-0.1,0-0.2,0-0.2l-0.6-3.7c-0.2-1-0.3-1.8-0.4-2.3c-0.1-0.5-0.1-0.8-0.2-0.8s-0.1,0.3-0.2,0.8
	s-0.2,1.3-0.4,2.3l-0.7,3.7c-0.1,0.4,0.1,0.7,0.6,0.7H338.9z"/>
<path class="st0" d="M351.9,104c0,0.3-0.2,0.5-0.4,0.6c0,0-0.1,0-0.1,0h-2.7c-0.3,0-0.5-0.2-0.6-0.4c0,0,0-0.1,0-0.1V89
	c0-0.3-0.2-0.5-0.4-0.6c0,0-0.1,0-0.1,0h-2.8c-0.3,0-0.5-0.2-0.6-0.4c0,0,0-0.1,0-0.1v-2.3c0-0.3,0.2-0.5,0.4-0.6c0,0,0.1,0,0.1,0
	h10.6c0.3,0,0.5,0.2,0.6,0.4c0,0,0,0.1,0,0.1v2.3c0,0.3-0.2,0.5-0.4,0.6c0,0-0.1,0-0.1,0h-2.8c-0.3,0-0.5,0.2-0.6,0.4
	c0,0,0,0.1,0,0.1L351.9,104z"/>
<path class="st0" d="M368,104c0,0.3-0.2,0.5-0.4,0.6c0,0-0.1,0-0.1,0h-8.9c-0.3,0-0.5-0.2-0.6-0.4c0,0,0-0.1,0-0.1V85.5
	c0-0.3,0.2-0.5,0.4-0.6c0,0,0.1,0,0.1,0h8.9c0.3,0,0.5,0.2,0.6,0.4c0,0,0,0.1,0,0.1v2.3c0,0.3-0.2,0.5-0.4,0.6c0,0-0.1,0-0.1,0h-5
	c-0.3,0-0.5,0.2-0.6,0.4c0,0,0,0.1,0,0.1v3.3c0,0.3,0.2,0.5,0.4,0.6c0,0,0.1,0,0.1,0h2c0.3,0,0.5,0.2,0.6,0.4c0,0,0,0.1,0,0.1v2.3
	c0,0.3-0.2,0.5-0.4,0.6c0,0-0.1,0-0.1,0h-2c-0.3,0-0.5,0.2-0.6,0.4c0,0,0,0.1,0,0.1v3.5c0,0.3,0.2,0.5,0.4,0.6c0,0,0.1,0,0.1,0h5
	c0.3,0,0.5,0.2,0.6,0.4c0,0,0,0.1,0,0.1V104z"/>
<path class="st0" d="M105.3,98.2c-0.3-0.5-0.7-0.8-1.2-1.1l-2.9-2c-0.9-0.6-1.6-1.3-2.1-2.2c-1.2-2.2-0.8-4.9,0.9-6.6
	c1.1-1,2.5-1.6,4-1.5c1.5-0.1,2.9,0.5,3.9,1.5c1,1.1,1.5,2.6,1.4,4.1v0.3c0,0.2-0.1,0.3-0.3,0.3c0,0-0.1,0-0.1,0h-2.9
	c-0.2,0-0.4-0.1-0.4-0.3c0,0,0-0.1,0-0.1v-0.4c0-0.5-0.2-1.1-0.5-1.5c-0.3-0.4-0.8-0.6-1.3-0.6c-0.8,0-1.6,0.6-1.6,1.4
	c0,0,0,0.1,0,0.1c0,0.4,0.1,0.8,0.3,1.2c0.4,0.6,0.9,1.1,1.5,1.5l2.7,2c0.9,0.6,1.6,1.4,2.2,2.3c0.4,0.8,0.6,1.6,0.6,2.5
	c0.1,1.5-0.5,3-1.6,4c-1.1,1.1-2.6,1.6-4.1,1.6c-1.5,0.1-2.9-0.5-4-1.5c-1.1-1-1.6-2.4-1.6-3.8V99c0-0.3,0.1-0.5,0.4-0.5
	c0,0,0.1,0,0.1,0h2.8c0.2,0,0.3,0.1,0.4,0.3c0,0,0,0.1,0,0.1v0.4c0,0.5,0.2,1.1,0.5,1.5c0.3,0.4,0.9,0.6,1.4,0.6
	c0.5,0,0.9-0.2,1.2-0.5c0.3-0.4,0.5-0.9,0.5-1.4C105.6,99,105.5,98.6,105.3,98.2z"/>
<path class="st0" d="M118.4,104c0,0.3-0.2,0.5-0.4,0.6c0,0-0.1,0-0.1,0h-2.7c-0.3,0-0.5-0.2-0.6-0.4c0,0,0-0.1,0-0.1V89
	c0-0.3-0.2-0.5-0.4-0.6c0,0-0.1,0-0.1,0h-2.8c-0.3,0-0.5-0.2-0.6-0.4c0,0,0-0.1,0-0.1v-2.3c0-0.3,0.2-0.5,0.4-0.6c0,0,0.1,0,0.1,0
	h10.6c0.3,0,0.5,0.2,0.6,0.4c0,0,0,0.1,0,0.1v2.3c0,0.3-0.2,0.5-0.4,0.6c0,0-0.1,0-0.1,0H119c-0.3,0-0.5,0.2-0.6,0.4
	c0,0,0,0.1,0,0.1L118.4,104z"/>
<path class="st0" d="M136,103.8c0.2,0.2,0.1,0.5-0.1,0.7c-0.1,0.1-0.2,0.1-0.4,0.1h-3c-0.2,0-0.5-0.1-0.5-0.4l-2.6-7.2
	c-0.1-0.2-0.3-0.4-0.5-0.4c-0.3,0-0.4,0.1-0.4,0.4v7c0,0.3-0.2,0.5-0.4,0.6c0,0-0.1,0-0.1,0H125c-0.3,0-0.5-0.2-0.6-0.4
	c0,0,0-0.1,0-0.1V85.5c0-0.3,0.2-0.5,0.4-0.6c0,0,0.1,0,0.1,0h4.8c1.6-0.1,3.1,0.5,4.3,1.5c1.1,1.1,1.7,2.6,1.6,4.2
	c0,1-0.2,2.1-0.8,3c-0.4,0.7-1,1.3-1.7,1.8c-0.3,0.1-0.4,0.4-0.3,0.7L136,103.8z M128.4,92.8c0,0.3,0.2,0.5,0.4,0.6c0,0,0.1,0,0.1,0
	h0.6c0.6,0,1.2-0.3,1.6-0.8c0.4-0.5,0.7-1.1,0.6-1.8c0-0.6-0.2-1.3-0.6-1.8c-0.4-0.4-1-0.7-1.6-0.7h-0.6c-0.3,0-0.5,0.2-0.6,0.4
	c0,0,0,0.1,0,0.1V92.8z"/>
<path class="st0" d="M148.8,103.9c0,0.2,0,0.4-0.1,0.5c-0.1,0.1-0.3,0.2-0.5,0.2h-2.9c-0.3,0-0.5-0.2-0.6-0.5l-0.2-1.5
	c0-0.3-0.3-0.5-0.6-0.5h-2.6c-0.3,0-0.5,0.2-0.6,0.5l-0.2,1.5c0,0.3-0.3,0.5-0.6,0.5h-2.7c-0.3,0-0.6-0.2-0.6-0.5c0-0.1,0-0.2,0-0.2
	l4.1-18.5c0-0.3,0.3-0.5,0.5-0.4h3c0.3,0,0.5,0.2,0.5,0.5c0,0,0,0,0,0L148.8,103.9z M143.4,99c0.3,0,0.5-0.1,0.6-0.4
	c0-0.1,0-0.2,0-0.2l-0.6-3.7c-0.2-1-0.3-1.8-0.4-2.3c-0.1-0.5-0.1-0.8-0.2-0.8s-0.1,0.3-0.2,0.8s-0.2,1.3-0.4,2.3l-0.7,3.7
	c-0.1,0.4,0.1,0.7,0.6,0.7H143.4z"/>
<path class="st0" d="M163.3,104.1c0,0.3-0.3,0.5-0.5,0.5c0,0,0,0,0,0h-2.3c-0.3,0-0.5-0.2-0.5-0.5c0,0,0,0,0,0l-1.6-8.4
	c-0.2-0.8-0.3-1.3-0.5-1.3c-0.2,0-0.4,0.4-0.6,1.2l-1.7,8.4c0,0.3-0.3,0.5-0.5,0.5c0,0,0,0,0,0h-2.3c-0.3,0-0.5-0.2-0.5-0.5
	c0,0,0,0,0,0l-3.3-18.5c-0.1-0.4,0.1-0.7,0.6-0.7h2.7c0.3,0,0.6,0.2,0.6,0.5c0,0,0,0,0,0l1.2,7.8c0.2,1,0.3,1.5,0.5,1.5
	s0.4-0.5,0.6-1.5l1.5-7.8c0-0.3,0.3-0.5,0.5-0.5c0,0,0,0,0,0h1.8c0.3,0,0.5,0.2,0.5,0.5c0,0,0,0,0,0l1.4,7.9c0.2,1,0.4,1.5,0.6,1.5
	s0.4-0.5,0.6-1.5l1.3-7.9c0-0.3,0.3-0.5,0.6-0.5h2.5c0.4,0,0.6,0.2,0.6,0.7L163.3,104.1z"/>
<path class="st0" d="M178.5,102.9c-1.2,1.1-2.7,1.7-4.3,1.7h-4.6c-0.3,0-0.5-0.2-0.6-0.4c0,0,0-0.1,0-0.1V85.5
	c0-0.3,0.2-0.5,0.4-0.6c0,0,0.1,0,0.1,0h4.6c1.5-0.1,3,0.5,4.1,1.5c1.1,1,1.7,2.4,1.6,3.9c0,0.8-0.2,1.6-0.5,2.3
	c-0.2,0.5-0.5,0.9-0.9,1.3c-0.3,0.2-0.3,0.6-0.1,0.9c0,0,0.1,0.1,0.1,0.1c0.4,0.4,0.8,0.8,1.1,1.4
	C180.7,98.5,180.3,101.2,178.5,102.9L178.5,102.9z M172.8,92.4c0,0.3,0.2,0.5,0.4,0.6c0,0,0.1,0,0.1,0h0.7c0.6,0,1.2-0.2,1.6-0.7
	c0.4-0.5,0.6-1.1,0.6-1.7c0-0.6-0.2-1.2-0.6-1.6c-0.5-0.4-1.1-0.6-1.7-0.6h-0.6c-0.3,0-0.5,0.2-0.6,0.4c0,0,0,0.1,0,0.1V92.4z
	 M172.8,100.6c0,0.3,0.2,0.5,0.4,0.6c0,0,0.1,0,0.1,0h0.7c0.6,0,1.3-0.3,1.7-0.7c0.9-0.9,0.9-2.5,0-3.4c-0.5-0.5-1.1-0.7-1.7-0.7
	h-0.7c-0.3,0-0.5,0.2-0.6,0.4c0,0,0,0.1,0,0.1V100.6z"/>
<path class="st0" d="M192.8,104c0,0.3-0.2,0.5-0.4,0.6c0,0-0.1,0-0.1,0h-8.9c-0.3,0-0.5-0.2-0.6-0.4c0,0,0-0.1,0-0.1V85.5
	c0-0.3,0.2-0.5,0.4-0.6c0,0,0.1,0,0.1,0h8.9c0.3,0,0.5,0.2,0.6,0.4c0,0,0,0.1,0,0.1v2.3c0,0.3-0.2,0.5-0.4,0.6c0,0-0.1,0-0.1,0h-5
	c-0.3,0-0.5,0.2-0.6,0.4c0,0,0,0.1,0,0.1v3.3c0,0.3,0.2,0.5,0.4,0.6c0,0,0.1,0,0.1,0h2c0.3,0,0.5,0.2,0.6,0.4c0,0,0,0.1,0,0.1v2.3
	c0,0.3-0.2,0.5-0.4,0.6c0,0-0.1,0-0.1,0h-2c-0.3,0-0.5,0.2-0.6,0.4c0,0,0,0.1,0,0.1v3.5c0,0.3,0.2,0.5,0.4,0.6c0,0,0.1,0,0.1,0h5
	c0.3,0,0.5,0.2,0.6,0.4c0,0,0,0.1,0,0.1L192.8,104z"/>
<path class="st0" d="M206.5,103.8c0.2,0.2,0.1,0.5-0.1,0.7c-0.1,0.1-0.2,0.1-0.4,0.1h-3c-0.2,0-0.5-0.1-0.5-0.4l-2.6-7.2
	c-0.1-0.2-0.3-0.4-0.5-0.4c-0.3,0-0.4,0.1-0.4,0.4v7c0,0.3-0.2,0.5-0.4,0.6c0,0-0.1,0-0.1,0h-2.7c-0.3,0-0.5-0.2-0.6-0.4
	c0,0,0-0.1,0-0.1V85.5c0-0.3,0.2-0.5,0.4-0.6c0,0,0.1,0,0.1,0h4.8c1.6-0.1,3.1,0.5,4.3,1.5c1.1,1.1,1.7,2.6,1.6,4.2
	c0,1-0.2,2.1-0.8,3c-0.4,0.7-1,1.3-1.7,1.8c-0.3,0.1-0.4,0.4-0.3,0.7L206.5,103.8z M198.9,92.8c0,0.3,0.2,0.5,0.4,0.6
	c0,0,0.1,0,0.1,0h0.6c0.6,0,1.2-0.3,1.6-0.8c0.4-0.5,0.7-1.1,0.6-1.8c0-0.6-0.2-1.3-0.6-1.8c-0.4-0.4-1-0.7-1.6-0.7h-0.6
	c-0.3,0-0.5,0.2-0.6,0.4c0,0,0,0.1,0,0.1V92.8z"/>
<path class="st0" d="M220.3,103.8c0.2,0.2,0.1,0.5-0.1,0.7c-0.1,0.1-0.2,0.1-0.4,0.1h-3c-0.2,0-0.5-0.1-0.5-0.4l-2.6-7.2
	c-0.1-0.2-0.3-0.4-0.5-0.4c-0.3,0-0.4,0.1-0.4,0.4v7c0,0.3-0.2,0.5-0.4,0.6c0,0-0.1,0-0.1,0h-2.7c-0.3,0-0.5-0.2-0.6-0.4
	c0,0,0-0.1,0-0.1V85.5c0-0.3,0.2-0.5,0.4-0.6c0,0,0.1,0,0.1,0h4.8c1.6-0.1,3.1,0.5,4.3,1.5c1.1,1.1,1.7,2.6,1.6,4.2
	c0,1-0.2,2.1-0.8,3c-0.4,0.7-1,1.3-1.7,1.8c-0.3,0.1-0.4,0.4-0.3,0.7L220.3,103.8z M212.7,92.8c0,0.3,0.2,0.5,0.4,0.6
	c0,0,0.1,0,0.1,0h0.6c0.6,0,1.2-0.3,1.6-0.8c0.4-0.5,0.7-1.1,0.6-1.8c0-0.6-0.2-1.3-0.6-1.8c-0.4-0.4-1-0.7-1.6-0.7h-0.6
	c-0.3,0-0.5,0.2-0.6,0.4c0,0,0,0.1,0,0.1V92.8z"/>
<path class="st0" d="M229.1,104c0,0.3-0.2,0.5-0.4,0.6c0,0-0.1,0-0.1,0h-2.7c-0.3,0-0.5-0.2-0.6-0.4c0,0,0-0.1,0-0.1v-7
	c0-0.1,0-0.1,0-0.2l-4-11.2c-0.1-0.2-0.1-0.4,0-0.5c0.1-0.2,0.3-0.2,0.5-0.2h2.8c0.3,0,0.5,0.1,0.5,0.4l1.5,5.2
	c0.2,0.5,0.3,0.8,0.5,0.8c0.2,0,0.4-0.3,0.6-0.8l1.6-5.2c0-0.2,0.3-0.4,0.5-0.4h2.7c0.2,0,0.4,0.1,0.5,0.2c0.1,0.2,0.1,0.4,0,0.5
	l-4,11c0,0.1,0,0.1,0,0.2L229.1,104z"/>
</svg>
