<svg xmlns="http://www.w3.org/2000/svg" viewBox="0 0 720.758 301.689"><defs><style>.a{fill:#030402;}</style></defs><path class="a" d="M181.4,445.623a21.469,21.469,0,0,0,3.345,2.665c.428.214.867.435,5.855.435,1.467,0,3.327-.02,5.7-.064,6.809-.128,11.757-.312,15.2-.57,3.159-.365,7.329-.677,12.412-.926,6.506-.381,7.1-.529,7.474-.624l2.577-.736V427.186l-9.78.229c-1.909,0-7.247.184-16.364.564l-7.487.511-2.619-2.311c-6.89-6.139-8.489-7.981-8.858-8.5-.18-1.234-.452-7.4-.452-33.321,0-26.475.185-33.114.347-34.058.237-1.364,2.1-4.86,11.957-13l1.456-1.31,10.289-1.248a193.984,193.984,0,0,1,4.955,23.907q.185,1.314.469,3.189c.195,1.3.353,2.248.48,2.879.087.441.143.734.154.783v.212l.05.206c.4,1.612,1.722,2.081,9.731,2.081h9.594v-9.408a101.449,101.449,0,0,0-.951-14.244c-2.171-15.663-4.123-24.957-5.981-28.413l-.5-.922h-.857l-.758-1.138-11.043.2c-29.038.569-29.715.976-30.44,1.414a13.045,13.045,0,0,0-1.947,1.525,2.534,2.534,0,0,1-.994.511l-.1.036a2.8,2.8,0,0,0-2.024,2.35,2.046,2.046,0,0,1-.241.276c-.116.116-.433.4-.955.866q-.845.75-1.419,1.321c-4.814,4.04-7.694,7.151-8.8,9.511l-.041.094a28.662,28.662,0,0,0-1.425,6.273c-.257,2.686-.321,18.471-.194,48.257.164,39.279.4,45.5.594,46.548a10.718,10.718,0,0,0,3.28,5.19,52.057,52.057,0,0,0,4.254,3.865l.116.085a24.921,24.921,0,0,1,1.964,1.633c1.336,1.182,1.757,1.576,1.889,1.707Z" transform="translate(-60.762 -147.034)"/><path class="a" d="M317.793,390.008q-.179-7.8-.313-13.923l.1.3-.159-11.285c-.372-26.4-.814-42.594-1.316-48.138l-.346-3.444h-5.5c-2.4,0-5.027.128-7.739.376l-5.59.265v9.7c0,5.025.126,9.709.376,13.921l.011.11c.117.961.239,2.862.361,5.65.125,2.909.186,4.778.186,5.77l.129,3.98h-3.046a96.2,96.2,0,0,0-10.82.756c-8.069.819-11.7,1.09-13.324,1.165-.142-2.792-.427-10.347-.993-28.583l-.219-12.264-5.613.282c-2.653.243-5.238.366-7.683.366h-5.673v14.071c0,7.638.126,15.384.375,23.039.37,8.99.809,34.479,1.306,75.755l.2,20.78H271.89L271.672,436c-.124-2.825-.312-15.244-.559-36.906l-.174-24.291,1.513-.089.181-.02c.38-.063,2.24-.215,10.458-.54,7.343-.412,12.21-.78,14.8-1.126l.161,12.333c.126,3.085.283,8.008.466,14.634.185,6.738.279,11.088.28,12.974.247,9.687.373,17.462.373,23.108v11.648h19.374V435.516c0-5.917-.126-14.349-.373-25.021C318.171,407.886,318.045,401.185,317.793,390.008Z" transform="translate(-60.762 -147.034)"/><path class="a" d="M407.82,447.093q8.867,0,19.045-.094t17.552-.093q7.376,0,14.845-.093t9.99-.094h3.828V431.034l-106.246-.373.373-.747q-6.721-1.68-9.523-5.975-2.8-4.1-3.921-18.486-.187-2.052.093-10.83t.654-16.525a70.461,70.461,0,0,1,.56-7.936l10.27-.373q2.613-.183,8.122-.467t9.337-.467q3.825-.183,5.135-.186V352.984l-12.511.187q-14.565.375-16.618.56l-4.108.186-.374-8.962q-.376-8.775,0-9.15.744-.744,27.822-.187l15.311.374V320.123l-9.149-.186q-31-.744-41.639-.187a64.027,64.027,0,0,0-8.59.747l-.933.187v7.655q0,7.844.373,7.843.185,0,.56,2.614,0,1.121-.28,12.044t-.56,25.3q-.281,14.382-.093,22.406.559,32.679,3.921,39.959,3.173,7.284,14.751,8.4a59.773,59.773,0,0,0,6.162.187q4.853,0,11.67.093t16.058,0Q398.95,447.092,407.82,447.093Z" transform="translate(-60.762 -147.034)"/><path class="a" d="M417.436,320.494a64.027,64.027,0,0,0-8.589.747l-.934.186v7.656q0,7.842.373,7.843.185,0,.561,2.614,1.3,19.983,1.493,32.3.561,32.678,3.922,39.959,3.173,7.284,14.751,8.4,12.324,1.121,37.158-.933l7.282-.56V403.023l-7.282-.744a144.194,144.194,0,0,0-15.312.747q-8.03.75-10.643.187-6.721-1.68-9.523-5.976t-3.922-18.485q-.187-2.054-.467-4.015c-.186-1.307-.344-2.27-.467-2.894v-.934l10.27-.373q2.613-.185,8.123-.467t9.336-.467q3.825-.183,5.135-.187V353.734l-12.511.186q-14.564.376-16.618.561l-4.108.186-.373-8.962q-.377-8.775,0-9.15.744-.744,27.821-.187l15.312.374V320.867l-9.15-.186Q428.077,319.934,417.436,320.494Z" transform="translate(-60.762 -147.034)"/><path class="a" d="M512.771,315.475c-16.621-.1-17.027.039-17.455.181l-.4.13-.3.294c-.187.187-.471.47-5.216,6.924a87.708,87.708,0,0,1-6.175,7.828l-2.007,2.254v41.348l1.633,1.633a30.194,30.194,0,0,0,8.541,5.4c8.663,3.954,11.522,5.539,12.4,6.177.587.422,2.343,1.51,10.762,6.057a11.674,11.674,0,0,0,1.241.716,4.7,4.7,0,0,1,.664.4,6.273,6.273,0,0,0,1.016.633l.192.1a30.257,30.257,0,0,0,3.914,2.144c2.709,1.358,4.368,2.216,4.925,2.549,1.267.762,2.312,1.35,3.02,1.7,5.629,3.215,7.123,4.357,7.516,4.722a23.146,23.146,0,0,1,.192,3.92l.153,3.336-.948.946-.07.075c-3.961,4.454-6.262,7-6.839,7.582-.529.529-1.654,1.778-3.452,3.833l-1.7,1.986-8.359-.171h-8.025l-.975-1.462a28.917,28.917,0,0,0-3.578-4.373,11.427,11.427,0,0,1-1.837-2.2c-.092-.634-.264-3.251-.264-13.924V390.444H482.571l-.222,10.49c-.124,5.559-.188,12.388-.188,20.3,0,10.724.114,12.974.2,13.709a9,9,0,0,0,2.659,5.083c1.562,1.805,2.783,3.329,3.619,4.52l2.176,3.143,5.425.225h45.049l1.792-2.049c.779-.782,2.013-2.14,3.774-4.151,3.2-3.664,4.263-4.819,4.588-5.144a50.1,50.1,0,0,0,3.672-3.871l1.509-1.76V418.523c0-7.3-.127-13.926-.375-19.648l-.2-8.637-1.683-1.4a18.573,18.573,0,0,0-2.255-1.648,28.6,28.6,0,0,0-2.519-1.366c-1.3-.844-5.718-3.3-13.439-7.464-1.5-.873-4.468-2.515-8.793-4.864-.924-.525-1.723-.955-2.439-1.316l-2.362-1.446c-2.08-1.3-7.027-3.773-15.085-7.551a42.577,42.577,0,0,1-4.146-2.531l-2.164-1.353v-9.234l1.284-1.569c1.117-1.364,2.9-3.707,5.472-7.17l3.716-5.067c.711-.056,2.5-.113,6.965-.006l6.689.167.613.716.085.092c.127.129.745.821,3.459,4.011l.093.1c.324.326,1.028,1.078,2.532,2.807,1.288,1.482,2.171,2.46,2.66,2.944l2.327,2.482v27.213l9.373-1.875,9.358.223.455-9.559c.249-5.753.376-12.5.376-20.055,0-12.731-.284-13.3-.557-13.851l-.085-.15c-.443-.706-1.837-2.491-8.756-9.747-1.759-2.006-2.837-3.206-3.379-3.758l-1.368-1.642-6.556-.423C531.392,315.693,523.82,315.54,512.771,315.475Z" transform="translate(-60.762 -147.034)"/><path class="a" d="M617.934,337.37l17.106.417V318.4l-10.859-.221c-20.637-.5-34.69-.558-41.773-.185-6.4.331-8.163.6-8.9.79l-2.282.457v9.089c0,5.2,0,7.743.642,8.851.059.272.157.8.3,1.789.367,5.59.867,24.447,1.486,56.05.381,22.235,1.716,35.536,4.067,40.628,2.378,5.459,7.825,8.637,16.2,9.448q4.4.4,10.394.4c7.3,0,16.352-.444,27.055-1.331l8.9-.684V424.423h-9.035c-4.854,0-9.4.19-13.558.565v-.735l-1.918.181c-6.415.6-9.04.449-10.057.232-4.02-1.006-6.874-2.767-8.481-5.233-1.166-1.788-2.744-6.3-3.639-17.626-.127-2.263-.346-8.124-.651-17.419-.246-7.394-.321-10.889-.333-12.536l8.694-.317c1.806-.127,4.6-.288,8.089-.465q5.5-.279,9.331-.466c2.59-.125,4.242-.185,5.051-.185h1.752v-19.21l-14.308.213c-9.837.255-15.309.44-16.652.562l-2.352.107-.3-7.209c-.189-4.4-.2-6.546-.176-7.587C593.794,337.134,599.925,337,617.934,337.37Z" transform="translate(-60.762 -147.034)"/><path class="a" d="M669.33,446.558l.791,1.356.456-.3,36.249-.161c27.295-.1,45.611-.528,54.437-1.265l.052-.005c2.555-.306,6.229-.571,10.89-.779l6.629-.2v-16l-13.953.176c-8.426.215-14.328.474-18.055.794-7.467.727-16.636,1.095-27.254,1.095h-4.328l.315-23.62H699.69l-.324,2.6c-.526,5.8-.793,12.677-.793,20.444v1.044h-4.349c-5.655,0-7.475-.08-8-.146l-.087-.009a6.629,6.629,0,0,1-1.189-.162c-.048-1.218-.107-5.186-.107-17.258V395.528H668.512L668.341,414C668.024,444.316,668.875,445.776,669.33,446.558Z" transform="translate(-60.762 -147.034)"/><path class="a" d="M764.386,325.986c0,.045-.018.343-.219,1.68-.156,1.053-.283,1.8-.381,2.29l-.356,1.769h.348a2.537,2.537,0,0,1-.129.38l-.085.1c-.321.267-1.772,1.246-8.28,4.434l-6.761,3.381c-.534-.83-1.864-2.393-5.555-6.024a71.369,71.369,0,0,0-7.874-6.986,10.338,10.338,0,0,0-5.287-1.7c-4.94-.525-12.186-.9-21.537-1.11-9.521-.213-15.169-.156-17.256.173-2.324.349-6.01,2.116-11.276,5.408-8.085,5.106-9.982,6.717-10.674,7.475-.523.528-.854,1.067-1.821,15.418-1.065,18.353-1.265,28.928-.612,32.291l.363,2.18H674.7c2.2,0,3.808-.026,4.914-.08a6.439,6.439,0,0,0,2.1-.327c1.678-.179,11.793-.38,48.884-.38h50.916v-6.046a53.032,53.032,0,0,0-.323-6.773l-.259-3.379-28.7.311V369.3a29.239,29.239,0,0,0-.336-4.811l-.022-.109a15.813,15.813,0,0,1-.28-1.924c-.129-1.24-.149-1.572-.15-1.658l-.048-.727h.3c1.506,0,3.576-.669,6.288-2.025,16.547-7.637,19.606-9.556,20.419-10.371.594-.592,1.227-1.752,1.837-6.191a81.964,81.964,0,0,0,.487-10.6v-8.4H764.91l-.507,3.3Zm-60.4,15.186c1.635,0,4.592.155,8.787.467,4.857.36,6.146.513,6.486.566.952.473,3.538,2.329,10.45,9.24l1.7,1.7a8.621,8.621,0,0,1,1.721,2.762c.336,1,.9,3.73,1.661,10.992.145,1.73.251,2.779.333,3.437H682.948c.213-1.541.418-4.333.628-8.537.26-6.171.43-8.086.527-8.607a2.164,2.164,0,0,1,.93-1.3l.09-.073a42.044,42.044,0,0,1,6.807-4.687c.178-.091.687-.386,3.841-2.4C700.946,341.635,703.142,341.172,703.986,341.172Z" transform="translate(-60.762 -147.034)"/><path class="a" d="M671.442,293.664l-3.73.249v15.776l41.944-.163c26,0,44.441-.1,54.809-.315l15.788-.174V293.026l-53.916.162C679.492,293.467,672.337,293.593,671.442,293.664Z" transform="translate(-60.762 -147.034)"/><path class="a" d="M760.927,240.287H760.3l.151,1.614c.5,5.408.378,7.623.195,8.479-.848,3.39-2.332,5.8-4.413,7.151-1.5.987-5.315,2.315-14.863,3.069-1.9.107-6.841.292-14.69.55-6.178.208-9.154.271-10.57.281l-.268-7.332c-.108-1.543-.243-3.9-.392-6.821q-.235-4.641-.393-7.868c-.1-2.185-.156-3.581-.156-4.256v-1.479h-16.2l.181,12.064c.212,8.219.368,12.822.475,14.074l.089,1.951-6.078.254c-3.712.159-5.52.171-6.4.148-.132-1.742-.25-6.911.065-22.1l.352-14.424H671.049l-.187,9.157c-.424,17.649-.475,29.174-.156,35.223.279,5.4.5,6.884.666,7.506l.384,1.925h7.667c2.253,0,3.9-.027,5.03-.081a5.414,5.414,0,0,0,2.4-.454c.218-.047.663-.132,1.542-.259,4.714-.312,20.615-.731,47.263-1.253,18.751-.322,29.966-1.447,34.262-3.429,4.6-2,7.283-6.6,7.965-13.659q.338-3.707.337-8.764c0-6.157-.375-13.79-1.122-22.816l-.577-7.5H760.451v7.616C760.451,232.946,760.61,236.783,760.927,240.287Z" transform="translate(-60.762 -147.034)"/><path class="a" d="M731.621,148.513l-1.18,1.419a15.553,15.553,0,0,0-1.389,1.9,24.147,24.147,0,0,0-1.154,2.129c-.709,1.095-2.777,4.819-6.293,11.332-.737,1.267-2.121,3.77-4.1,7.413-.437.77-.8,1.444-1.11,2.058l-1.22,1.985c-1.1,1.755-3.184,5.926-6.368,12.718a36.258,36.258,0,0,1-2.134,3.5l-1.142,1.824h-7.787L696.42,193.7c-1.153-.943-3.129-2.451-6.046-4.614l-4.273-3.133c-.047-.6-.1-2.109,0-5.873l.141-5.64.6-.519.078-.072c.108-.107.693-.628,3.382-2.916l.084-.078c.4-.4,1.194-1.115,2.367-2.136,1.228-1.066,2.048-1.806,2.5-2.259l2.077-1.946h22.944l-1.58-7.9.187-7.89-8.06-.384c-4.849-.21-10.538-.316-16.911-.316-10.735,0-11.212.239-11.68.467l-.127.071c-.6.374-2.1,1.55-8.242,7.4-1.648,1.445-2.679,2.372-3.145,2.829l-1.385,1.154-.356,5.528c-.208,3.778-.343,10.345-.4,19.518-.078,14.012.034,14.356.153,14.718l.11.335.249.248c.148.149.4.4,5.837,4.4a73.906,73.906,0,0,1,6.6,5.208l1.9,1.693h34.867l1.376-1.382a25.463,25.463,0,0,0,4.552-7.2c3.333-7.3,4.672-9.716,5.209-10.459.357-.5,1.274-1.978,5.106-9.074a10.147,10.147,0,0,0,.605-1.046,3.813,3.813,0,0,1,.332-.561,5.2,5.2,0,0,0,.533-.855l.081-.162a25.352,25.352,0,0,0,1.808-3.3c1.142-2.284,1.869-3.679,2.151-4.153.629-1.048,1.118-1.917,1.454-2.582,2.694-4.714,3.653-5.97,3.96-6.3a19.077,19.077,0,0,1,3.24-.162l2.879-.13.8.8.064.059c3.752,3.337,5.9,5.277,6.392,5.766.443.444,1.467,1.366,3.233,2.911l1.675,1.436-.144,7.048v6.774l-1.233.822a24.638,24.638,0,0,0-3.686,3.017,9.531,9.531,0,0,1-1.857,1.548c-.533.079-2.738.225-11.741.225H731.8v15.838l8.845.188c4.672.1,10.434.156,17.116.156,9.046,0,10.941-.095,11.56-.165A7.605,7.605,0,0,0,773.6,208.4c1.526-1.321,2.81-2.35,3.81-3.052l2.652-1.835.187-4.516V160.951l-1.727-1.512c-.66-.655-1.806-1.7-3.5-3.181-3.089-2.7-4.064-3.594-4.338-3.868a42.089,42.089,0,0,0-3.265-3.1l-1.483-1.271H755.472c-6.161,0-11.744.1-16.568.315Z" transform="translate(-60.762 -147.034)"/><path class="a" d="M69.636,286.86l.125.092a26.094,26.094,0,0,1,2.129,1.769c1.45,1.283,1.9,1.71,2.047,1.85l.1.091c3.026,2.6,3.352,2.755,3.625,2.888.464.232.939.469,6.352.469,1.589,0,3.6-.02,6.167-.067,7.377-.139,12.74-.339,16.471-.62,3.416-.394,7.936-.73,13.451-1,7.055-.413,7.7-.574,8.1-.677l2.794-.8v-20.17l-10.6.247c-2.073,0-7.857.2-17.734.611l-8.112.554-2.839-2.5c-7.489-6.673-9.209-8.661-9.6-9.215-.2-1.33-.491-8-.491-36.11,0-28.691.2-35.886.377-36.91.261-1.477,2.272-5.265,12.961-14.088l1.578-1.42,11.149-1.351a210.028,210.028,0,0,1,5.37,25.906c.133.95.3,2.1.508,3.457.211,1.407.381,2.43.521,3.119.087.444.145.749.166.917l.055.385c.429,1.747,1.865,2.255,10.545,2.255h10.4v-10.2a109.8,109.8,0,0,0-1.03-15.437c-2.352-16.971-4.472-27.045-6.485-30.789l-.537-1h-.928l-.822-1.233-11.967.221c-31.467.617-32.2,1.059-32.989,1.534a14.156,14.156,0,0,0-2.109,1.653,2.769,2.769,0,0,1-1.077.552l-.11.04a3.035,3.035,0,0,0-2.192,2.551,2.591,2.591,0,0,1-.263.3c-.126.125-.469.436-1.033.936q-.915.816-1.537,1.432c-5.213,4.373-8.339,7.745-9.542,10.3l-.045.1a31.041,31.041,0,0,0-1.543,6.8c-.283,2.913-.349,20.018-.211,52.294.177,42.569.434,49.3.643,50.445.348,1.744,1.511,3.585,3.555,5.625A56.76,56.76,0,0,0,69.636,286.86Z" transform="translate(-60.762 -147.034)"/><path class="a" d="M150.871,271.434l.221,22.519H172.1l-.238-13.718c-.134-3.062-.338-16.521-.6-40l-.2-26.319,1.64-.1.2-.022c.41-.067,2.424-.232,11.334-.585,7.958-.446,13.232-.846,16.034-1.22l.174,13.365c.137,3.344.307,8.68.5,15.859.2,7.3.3,12.016.3,14.059.268,10.49.4,18.915.4,25.043v12.619h21V279.7c0-6.4-.136-15.538-.4-27.114,0-2.816-.133-10.077-.406-22.2q-.192-8.442-.338-15.063l.106.319-.172-12.253c-.4-28.619-.882-46.165-1.426-52.166l-.373-3.73h-5.968c-2.595,0-5.444.139-8.386.407l-6.058.288v10.513c0,5.445.137,10.522.408,15.086l.011.119c.088.718.227,2.363.392,6.123.135,3.152.2,5.177.2,6.253l.139,4.313h-3.3a104.263,104.263,0,0,0-11.726.819c-8.743.887-12.674,1.182-14.438,1.263-.155-3.026-.464-11.214-1.077-30.975l-.237-13.292-6.083.306c-2.877.263-5.678.4-8.326.4h-6.148v15.251c0,8.286.137,16.681.406,24.967C149.859,199.089,150.333,226.711,150.871,271.434Z" transform="translate(-60.762 -147.034)"/><path class="a" d="M242.735,272.852l.224,20.291h20.577l-.208-69.292c-.358-60.186-.521-69.393-.612-70.546l-.32-4.8H242.121l.21,53.9C242.331,235.823,242.471,259.528,242.735,272.852Z" transform="translate(-60.762 -147.034)"/><path class="a" d="M72.8,431.1l-10.853.181v16.638L99,447.746c32.19-.289,37.114-.421,37.731-.5l2.567-.258V430.6l-28.828.17C92.6,430.768,79.921,430.881,72.8,431.1Z" transform="translate(-60.762 -147.034)"/><path class="a" d="M350.171,291.653l2.794-.8v-20.17l-10.6.247c-2.072,0-7.857.2-17.734.611l-8.112.554-2.839-2.5c-7.489-6.673-9.209-8.661-9.6-9.215-.195-1.33-.491-8-.491-36.11,0-28.691.2-35.886.377-36.91.256-1.477,2.272-5.265,12.957-14.088l1.578-1.42L329.65,170.5a210.028,210.028,0,0,1,5.37,25.906c.133.95.3,2.1.508,3.457.211,1.407.382,2.43.521,3.119.087.444.145.749.166.917l.055.385c.429,1.747,1.865,2.255,10.545,2.255h10.4v-10.2a109.956,109.956,0,0,0-1.029-15.437c-2.349-16.969-4.469-27.045-6.482-30.789l-.537-1h-.929l-.821-1.233-11.968.221c-31.467.617-32.2,1.059-32.989,1.534a14.032,14.032,0,0,0-2.108,1.653,2.794,2.794,0,0,1-1.078.552l-.109.04a3.037,3.037,0,0,0-2.193,2.547,2.278,2.278,0,0,1-.263.3q-.187.189-1.033.936-.915.815-1.537,1.432c-5.217,4.377-8.339,7.749-9.542,10.307l-.045.1a31.041,31.041,0,0,0-1.543,6.8c-.28,2.913-.349,20.018-.211,52.294.177,42.569.434,49.3.643,50.445.348,1.744,1.511,3.585,3.555,5.625a56.775,56.775,0,0,0,4.61,4.189l.125.092a26.094,26.094,0,0,1,2.129,1.769c1.451,1.283,1.9,1.71,2.047,1.85l.1.091c3.026,2.595,3.352,2.755,3.625,2.888.464.232.939.469,6.352.469,1.589,0,3.6-.02,6.167-.067,7.377-.139,12.74-.339,16.472-.62,3.416-.394,7.935-.73,13.45-1C349.129,291.917,349.771,291.756,350.171,291.653Z" transform="translate(-60.762 -147.034)"/><path class="a" d="M372.034,241.25c-.134,18.535-.2,35.832-.2,51.411v.787l.556.555c.66.66.961.961,10.044.961H392.6l.228-15.607c.27-9.976.406-17.142.406-21.3v-5.589h2.351c5.7,0,12.108.338,19.012,1,.757.085,1.192.155,1.432.2.07.11.166.274.286.511,1.163,2.587,3.1,8.826,5.757,18.5.677,2.711,1.808,6.836,3.454,12.6a47.76,47.76,0,0,1,1.346,5.358c0,2.4,2.327,2.5,10.4,2.5h10.6v-10.4a55.677,55.677,0,0,0-2.114-16.351c-.815-2.579-1.562-5.018-2.194-7.167-2.578-10.442-4.925-18.166-6.989-22.98a5.513,5.513,0,0,0-3.159-3.256c-.683-.227-2.074-.512-6.762-.7q-1.062-.06-2.066-.123A62.746,62.746,0,0,0,436.1,217.9c2.956-5.347,5.868-15.524,8.908-31.135.264-1.455.735-3.748,1.4-6.815.688-3.166,1.093-5.195,1.224-6.116a85.139,85.139,0,0,0,1.046-15.129V147.769l-19.859-.735-1.1,6.069-.016.1c-.089.718-.616,3.773-2.608,14.231a245.372,245.372,0,0,1-6.223,25.689c-2.179,6.66-7.169,13.46-14.864,20.242-3.568,3.3-6.662,6-9.121,7.942-.664.475-1.215.877-1.673,1.22l-.182-34.7q-.2-21.249-.4-38.652l-.026-1.877H371.814l.22,22.373C372.3,183.347,372.3,207.434,372.034,241.25Z" transform="translate(-60.762 -147.034)"/><path class="a" d="M463.909,175.091c.4,6.127.93,26,1.611,60.742.413,24.1,1.859,38.51,4.407,44.029,2.577,5.916,8.479,9.36,17.554,10.238q4.764.433,11.264.433c7.913,0,17.723-.482,29.321-1.443l9.645-.741V267.694H527.92c-5.261,0-10.192.206-14.693.613v-.8l-2.075.194c-6.948.648-9.795.486-10.9.251-4.355-1.089-7.446-3-9.189-5.671-1.265-1.939-2.977-6.835-3.945-19.1-.136-2.4-.373-8.754-.707-18.875-.263-7.939-.346-11.766-.36-13.585l9.422-.343c1.933-.136,4.965-.311,8.766-.5q5.963-.3,10.112-.5c2.8-.135,4.59-.2,5.473-.2h1.9V188.344l-15.5.232c-10.661.275-16.592.476-18.047.609l-2.548.115-.327-7.811c-.2-4.769-.22-7.093-.19-8.221,2.239-.17,8.882-.32,28.4.083l18.538.452v-21l-11.769-.241c-22.685-.544-37.492-.61-45.266-.2-6.943.359-8.849.645-9.649.857l-2.472.494v9.853c0,5.639,0,8.393.7,9.594C463.649,173.45,463.759,174.023,463.909,175.091Z" transform="translate(-60.762 -147.034)"/><path class="a" d="M550.909,213.975c.533,35.037,1.009,59.216,1.417,71.869l.264,7.906h20.53V281.329c0-5.945-.133-13.772-.4-23.877,0-2.1-.066-6.249-.2-12.688-.135-6.215-.273-10.628-.4-13.042l-.083-4.953c1.672,2.848,5.562,8.761,15.062,22.086q3.232,4.452,6.878,9.508a227.67,227.67,0,0,0,14.245,18.092,3.522,3.522,0,0,0,.715.947,3.649,3.649,0,0,1,.509.718,7.194,7.194,0,0,0,1,1.4l1.2,1.648.448,12.38h20.931V273.64c0-51.294-.332-88.609-.989-110.935l.4-.4-.265-13.841-10.159.248c-9.083,0-9.384.3-10.042.959-.774.772-.982.98-.558,23,0,1.642.1,8.427.3,20.166.209,12.107.374,20.485.506,25.581l.153,18.2q-1.245-1.7-2.816-3.793c-3.46-4.52-6.3-8.435-8.427-11.636-3.011-4.513-4.809-7.177-5.488-8.129-5.522-7.884-7.415-11.3-8.01-12.769a4.132,4.132,0,0,0-.522-1.19,6.636,6.636,0,0,0-.608-.872c-.919-1.469-2.492-4.43-4.673-8.8a223.9,223.9,0,0,1-9.046-20.716l-1.5-3.743-.666-16.866H550.077l.225,19.1C550.3,168.982,550.506,184.717,550.909,213.975Z" transform="translate(-60.762 -147.034)"/><path class="a" d="M69.087,416.245a46.036,46.036,0,0,0,4.933,4.681l1.619,1.215,22.467-.158c20.042,0,22.519-.217,23.247-.691a31.935,31.935,0,0,1,5.394-.386l7.249-.19V406.5l-1.959-3.739-.156-.156a34.562,34.562,0,0,1-2.434-2.571,2.463,2.463,0,0,0-1.316-1.228l-.2-.1a4.282,4.282,0,0,0-.566-.754c-.11-.817-.29-3.767-.29-14.313V367.428H112.182c.419-.338.94-.757,1.588-1.276a44.943,44.943,0,0,0,3.657-3.182,39.6,39.6,0,0,1,3.028-2.58,24.046,24.046,0,0,1,2.009-1.5,3.255,3.255,0,0,0,1.574-1c.575-.575,1.03-1.029,1.192-15.29.291-13.017.1-14.58-.029-15.1-.155-.877-.932-2.332-6.391-7.794l-6.243-6.243-8.4-.329c-6.642-.306-12.752-.408-18.164-.309-6.9.132-8.693.548-9.352,1.252-1.136.135-2.511.922-3.3,3.61a8.473,8.473,0,0,1-.85,2.172l-.138.221c-.529,1.056-1.1,2.35-1.746,3.968l-1.176,3.023.157,35.616.854,1.28a5.7,5.7,0,0,1,.386.645,1.691,1.691,0,0,0,1.286,1.484,10.265,10.265,0,0,1,1.093,1.744,2.471,2.471,0,0,0,.639.956,2.812,2.812,0,0,1,.388.545,5.414,5.414,0,0,0,.778,1.081,3.344,3.344,0,0,1,.448.731.538.538,0,0,1-.122.089,9.169,9.169,0,0,0-2.289,1.566C69,376.059,66.191,378.207,64.7,379.2a5.489,5.489,0,0,0-2.23,2.356c-.487,1.215-.92,4.674.054,20.782l.491,7.037,1.193,1.591C64.971,411.945,66.565,413.671,69.087,416.245Zm30.63-85.8a11.719,11.719,0,0,1,1.454,1.459,1.725,1.725,0,0,0,1.37,1.3c.289.24,1.024.909,2.837,2.765a42.109,42.109,0,0,1,3.271,3.565,9.139,9.139,0,0,1,.013,2.174l-.111,1.666-1.61,1.266c-1.409,1.034-1.931,1.382-2.112,1.5a4.919,4.919,0,0,0-1.592,1.261c-.478.478-1.434,1.332-2.839,2.538-1.445,1.237-2.4,2.09-2.851,2.537-.093.093-.328.3-.7.627-.416.366-.935.834-1.562,1.406-.59.542-1.134,1.012-1.683,1.454-1.334,1.206-2.123,1.864-2.582,2.222A64.251,64.251,0,0,0,86,351.813a11.087,11.087,0,0,1-1.44-2.007,6.432,6.432,0,0,0-.542-1.29,36.452,36.452,0,0,1-.152-4.555,23.336,23.336,0,0,1,.356-4.985l.348-.556a5.654,5.654,0,0,0,.976-2.368c.067-.185.261-.68.817-1.979.311-.723.777-1.864,1.428-3.5.393-1.183.76-1.337.76-1.337.126-.048.959-.289,4.945-.289h4.378L98,329.1a2.668,2.668,0,0,0,1.72,1.343ZM86.242,387.623c.527.472,1.963,1.875,5.677,5.7l9.749,10.054,2.723,2.906c-1.568.028-4.041.048-7.9.048-5.676,0-7.856-.045-8.689-.081a11.394,11.394,0,0,0-1.687-1.233,5.732,5.732,0,0,1-1.04-.78,1.749,1.749,0,0,0-1.25-1.529,26.771,26.771,0,0,1-2.055-1.931c-3.132-3.264-3.76-4-3.888-4.175a3.2,3.2,0,0,1-.329-1.4l-.088-1.05,1.256-.943a15.693,15.693,0,0,1,1.453-1.1,6.193,6.193,0,0,0,1.864-1.155c1.154-.839,2.213-1.684,3.148-2.514Zm25.185-10.63-.089,4.681-2.216-2.291c-3.291-3.291-4.453-4.575-4.845-5.044l1.154-1.066a21.643,21.643,0,0,1,1.757-1.642,3.323,3.323,0,0,0,1.655-1.5c.113-.17.2-.284.257-.358a3.52,3.52,0,0,0,1.4-.953c.055-.053.25-.225.925-.777Z" transform="translate(-60.762 -147.034)"/></svg>