<svg xmlns="http://www.w3.org/2000/svg" viewBox="0 0 709.574 239.158"><defs><style>.a{fill:#fff;}</style></defs><path class="a" d="M106.132,44.9a16.772,16.772,0,0,0,1.683-7.424,17.4,17.4,0,0,0-5.791-13.412,20.544,20.544,0,0,0-14.4-5.294H70.4a1.705,1.705,0,0,0-1.238.543,1.818,1.818,0,0,0-.544,1.337V84.193a1.817,1.817,0,0,0,.544,1.337,1.706,1.706,0,0,0,1.238.544H87.425q9.2,0,15.193-5.643a18.518,18.518,0,0,0,5.989-14.056,17.024,17.024,0,0,0-1.931-7.967,16.037,16.037,0,0,0-5.3-5.99.894.894,0,0,1,0-1.485A18.215,18.215,0,0,0,106.132,44.9ZM81.881,31.336a1.5,1.5,0,0,1,.446-1.188,1.8,1.8,0,0,1,1.237-.4h2.871a8.759,8.759,0,0,1,6.383,2.178,8.187,8.187,0,0,1,2.227,6.135,9.059,9.059,0,0,1-2.177,6.287,7.577,7.577,0,0,1-5.938,2.424H83.564a1.786,1.786,0,0,1-1.237-.4,1.5,1.5,0,0,1-.446-1.188ZM93.165,72.464a8.611,8.611,0,0,1-6.433,2.523H83.564a1.784,1.784,0,0,1-1.237-.4,1.5,1.5,0,0,1-.446-1.188V58.951a1.511,1.511,0,0,1,.446-1.188,1.8,1.8,0,0,1,1.237-.4h3.267a8.694,8.694,0,0,1,6.433,2.376,8.436,8.436,0,0,1,2.375,6.236A8.874,8.874,0,0,1,93.165,72.464Zm36.229-51.819V67.266a9.11,9.11,0,0,0,1.732,5.84,5.679,5.679,0,0,0,4.7,2.178,5.786,5.786,0,0,0,4.8-2.178,9.118,9.118,0,0,0,1.732-5.84V20.645a1.818,1.818,0,0,1,.544-1.337,1.705,1.705,0,0,1,1.238-.543h9.6a1.856,1.856,0,0,1,1.88,1.832V68.553q0,8.417-5.4,13.363t-14.4,4.949q-8.712,0-14.2-5.048t-5.5-13.264V20.645a1.818,1.818,0,0,1,.544-1.337,1.7,1.7,0,0,1,1.237-.543h9.6a1.858,1.858,0,0,1,1.881,1.835v.045Zm69.187,34.347a19.127,19.127,0,0,0,6.484-7.127,21.013,21.013,0,0,0,2.029-9.5q0-9.4-5.692-14.5t-16.084-5.1H168.985a1.7,1.7,0,0,0-1.237.543,1.814,1.814,0,0,0-.545,1.337V84.193a1.814,1.814,0,0,0,.545,1.337,1.7,1.7,0,0,0,1.237.544h9.7a1.712,1.712,0,0,0,1.237-.544,1.823,1.823,0,0,0,.545-1.337V61.822a1.339,1.339,0,0,1,.247-.939,1.73,1.73,0,0,1,1.138-.249h2.772a1.608,1.608,0,0,1,.941.2,2.566,2.566,0,0,1,.544.99l8.215,22.965a1.681,1.681,0,0,0,.643.99,1.831,1.831,0,0,0,1.039.3H206.4a1.852,1.852,0,0,0,1.633-.792,1.8,1.8,0,0,0,.149-1.782l-10.1-25.836a3.458,3.458,0,0,1-.3-1.632A1.736,1.736,0,0,1,198.581,54.992Zm-7.375-9.255a7.75,7.75,0,0,1-6.086,2.622h-2.969a1.542,1.542,0,0,1-1.683-1.387,1.615,1.615,0,0,1,0-.3V31.732a1.818,1.818,0,0,1,.445-1.338,1.673,1.673,0,0,1,1.238-.444h2.969a8.019,8.019,0,0,1,6.136,2.424,9.236,9.236,0,0,1,2.277,6.582A9.836,9.836,0,0,1,191.206,45.737Zm35.883-9.157V68.256a6.663,6.663,0,0,0,2.079,5.048,7.046,7.046,0,0,0,5.048,1.98,7.3,7.3,0,0,0,5.246-1.881,6.76,6.76,0,0,0,1.979-5.147V62.911a1.74,1.74,0,0,0-.5-1.287,1.625,1.625,0,0,0-1.187-.5H236.1a1.813,1.813,0,0,1-1.335-.543,1.7,1.7,0,0,1-.545-1.239v-6.83a1.742,1.742,0,0,1,.594-1.335,1.876,1.876,0,0,1,1.286-.546h16.432a1.863,1.863,0,0,1,1.881,1.845V67.959a17.689,17.689,0,0,1-5.742,13.612q-5.742,5.3-14.549,5.294a20.669,20.669,0,0,1-14.5-5.294,17.612,17.612,0,0,1-5.791-13.612V36.976a17.738,17.738,0,0,1,5.84-13.61,20.763,20.763,0,0,1,14.651-5.393q9,0,14.549,5.246t5.544,13.856a4.121,4.121,0,0,1-.446,2.178,1.577,1.577,0,0,1-1.435.692h-9.4a1.639,1.639,0,0,1-1.237-.593,1.979,1.979,0,0,1-.545-1.386,9.172,9.172,0,0,0-1.93-6.135,6.459,6.459,0,0,0-5.2-2.277,7,7,0,0,0-5,2.028,6.628,6.628,0,0,0-2.133,5Zm50.976-4.452V44.5a2.05,2.05,0,0,0,1.881,1.881h7.918a1.861,1.861,0,0,1,1.881,1.841v7.76a1.705,1.705,0,0,1-.545,1.239,1.821,1.821,0,0,1-1.336.543h-7.918a1.88,1.88,0,0,0-1.287.546,1.742,1.742,0,0,0-.594,1.335V72.71a2.05,2.05,0,0,0,1.881,1.881h18.015a1.86,1.86,0,0,1,1.88,1.842v7.859a1.706,1.706,0,0,1-.544,1.238,1.825,1.825,0,0,1-1.336.544H266.583a1.7,1.7,0,0,1-1.237-.544,1.814,1.814,0,0,1-.545-1.337V20.645a1.814,1.814,0,0,1,.545-1.337,1.7,1.7,0,0,1,1.237-.543h31.378a1.856,1.856,0,0,1,1.88,1.832v7.868A1.708,1.708,0,0,1,299.3,29.7a1.817,1.817,0,0,1-1.336.545H279.946a1.873,1.873,0,0,0-1.287.543A1.747,1.747,0,0,0,278.065,32.128Zm60.776,22.864a19.127,19.127,0,0,0,6.484-7.127,21.013,21.013,0,0,0,2.029-9.5q0-9.4-5.692-14.5t-16.084-5.1H309.245a1.7,1.7,0,0,0-1.237.543,1.814,1.814,0,0,0-.545,1.337V84.193a1.814,1.814,0,0,0,.545,1.337,1.7,1.7,0,0,0,1.237.544h9.7a1.712,1.712,0,0,0,1.237-.544,1.823,1.823,0,0,0,.545-1.337V61.822a1.339,1.339,0,0,1,.247-.939,1.734,1.734,0,0,1,1.139-.249h2.771a1.608,1.608,0,0,1,.941.2,2.553,2.553,0,0,1,.544.99l8.215,22.965a1.681,1.681,0,0,0,.643.99,1.831,1.831,0,0,0,1.039.3H346.66a1.851,1.851,0,0,0,1.633-.792,1.8,1.8,0,0,0,.149-1.782l-10.1-25.836a3.458,3.458,0,0,1-.3-1.632A1.736,1.736,0,0,1,338.841,54.992Zm-7.374-9.255a7.752,7.752,0,0,1-6.087,2.622h-2.969a1.542,1.542,0,0,1-1.683-1.387,1.615,1.615,0,0,1,0-.3V31.732a1.818,1.818,0,0,1,.445-1.338,1.673,1.673,0,0,1,1.238-.444h2.969a8.019,8.019,0,0,1,6.136,2.424,9.23,9.23,0,0,1,2.277,6.582A9.848,9.848,0,0,1,331.467,45.737Zm98.352,20.2-.009,1.386a7.259,7.259,0,0,0,1.945,5.309,6.749,6.749,0,0,0,5.035,2.061,6.593,6.593,0,0,0,4.812-1.751,6.323,6.323,0,0,0,1.861-4.739,6.982,6.982,0,0,0-1.162-3.967,17.666,17.666,0,0,0-4.328-4.087l-9.358-7.089q-6.009-4.493-8.408-8.516a16.951,16.951,0,0,1-2.368-8.975,17.164,17.164,0,0,1,5.629-13.127q5.575-5.111,14.188-5.056,8.51.055,13.775,5.138t5.208,13.593l-.01,1.484a1.876,1.876,0,0,1-.553,1.284,1.746,1.746,0,0,1-1.34.585l-8.81-.057a1.7,1.7,0,0,1-1.233-.551,1.81,1.81,0,0,1-.536-1.341l.007-1.188a7.986,7.986,0,0,0-1.648-5.354,5.666,5.666,0,0,0-4.539-2.009,5.994,5.994,0,0,0-4.515,1.753,6.255,6.255,0,0,0-1.762,4.539,7.558,7.558,0,0,0,1.457,4.266,18.511,18.511,0,0,0,4.229,4.284l9.062,6.79a31.715,31.715,0,0,1,7.963,8.466,17.323,17.323,0,0,1,2.613,9.223,16.7,16.7,0,0,1-5.776,12.981q-5.726,5.061-14.533,5t-14.072-5.238q-5.262-5.181-5.2-13.991l.007-1.188a1.746,1.746,0,0,1,.6-1.331,1.874,1.874,0,0,1,1.29-.538l8.711.057a1.71,1.71,0,0,1,1.234.553,1.822,1.822,0,0,1,.534,1.337ZM473.6,77.105a1.715,1.715,0,0,1,.6-1.184,1.845,1.845,0,0,1,1.191-.388l10.788.069a1.8,1.8,0,0,1,1.234.4,1.838,1.838,0,0,1,.537,1.192l1.34,7.136a1.756,1.756,0,0,0,.587,1.044,1.711,1.711,0,0,0,1.185.452l9.9.064a1.755,1.755,0,0,0,1.489-.633,1.94,1.94,0,0,0,.308-1.632L489.011,20.09a2.573,2.573,0,0,0-.636-1.144,1.544,1.544,0,0,0-1.135-.451l-11.085-.072a1.6,1.6,0,0,0-1.092.437,2.367,2.367,0,0,0-.7,1.135L459.3,83.249a1.9,1.9,0,0,0,.187,1.734,1.869,1.869,0,0,0,1.58.653l9.3.06a1.937,1.937,0,0,0,1.239-.289,2.208,2.208,0,0,0,.552-1.184Zm2.361-13.051,5.119-26.3c.066-.26.133-.4.2-.394s.129.136.2.4l4.481,26.36a1.622,1.622,0,0,1-.206,1.187,1.281,1.281,0,0,1-1.09.389l-7.424-.048a1.3,1.3,0,0,1-1.037-.4,1.459,1.459,0,0,1-.24-1.194ZM521.28,20.6l-.3,46.619a9.12,9.12,0,0,0,1.7,5.852,5.681,5.681,0,0,0,4.687,2.208,5.792,5.792,0,0,0,4.814-2.147,9.117,9.117,0,0,0,1.77-5.829l.3-46.619a1.815,1.815,0,0,1,.553-1.334,1.7,1.7,0,0,1,1.24-.535l9.6.062a1.856,1.856,0,0,1,1.869,1.843v.05l-.31,47.906q-.055,8.417-5.481,13.328T527.289,86.86q-8.712-.056-14.172-5.14a17.171,17.171,0,0,1-5.408-13.3l.31-47.906a1.815,1.815,0,0,1,.553-1.334,1.7,1.7,0,0,1,1.241-.535l9.6.062a1.858,1.858,0,0,1,1.867,1.849Zm62.838,17.826.01-1.485a6.893,6.893,0,0,0-1.9-5.109,6.516,6.516,0,0,0-4.787-1.96,6.269,6.269,0,0,0-4.764,1.949,7.033,7.033,0,0,0-1.913,5.034l-.206,31.774a6.766,6.766,0,0,0,1.9,5.012,6.515,6.515,0,0,0,4.788,1.961,6.247,6.247,0,0,0,4.714-2,6.978,6.978,0,0,0,1.963-4.988l.011-1.682a2.1,2.1,0,0,1,.405-1.482,1.927,1.927,0,0,1,1.388-.387l9.4.06A1.862,1.862,0,0,1,597,66.976v.038q-.06,9.307-5.441,14.765t-14.486,5.4a20.1,20.1,0,0,1-14.121-5.386A17.346,17.346,0,0,1,557.3,68.44l.2-31.279a17.989,17.989,0,0,1,5.73-13.621q5.676-5.308,14.387-5.252t14.169,5.338q5.46,5.283,5.405,13.792l-.007,1.089a1.872,1.872,0,0,1-.553,1.283,1.746,1.746,0,0,1-1.34.585l-9.4-.061a1.7,1.7,0,0,1-1.234-.551,1.813,1.813,0,0,1-.539-1.341ZM618.5,32.707l-.08,12.371a2.05,2.05,0,0,0,1.869,1.893l7.917.051a1.863,1.863,0,0,1,1.869,1.857v.036l-.05,7.721a1.7,1.7,0,0,1-.553,1.235,1.819,1.819,0,0,1-1.339.535l-7.918-.052a1.874,1.874,0,0,0-1.29.538,1.737,1.737,0,0,0-.6,1.331l-.084,13.066a2.049,2.049,0,0,0,1.868,1.893l18.014.116a1.863,1.863,0,0,1,1.869,1.857v.036l-.051,7.82a1.708,1.708,0,0,1-.552,1.235,1.822,1.822,0,0,1-1.34.535l-31.377-.2a1.705,1.705,0,0,1-1.234-.552,1.819,1.819,0,0,1-.536-1.341l.411-63.546a1.824,1.824,0,0,1,.553-1.334,1.709,1.709,0,0,1,1.241-.535l31.377.2a1.858,1.858,0,0,1,1.869,1.847v.046l-.051,7.82a1.7,1.7,0,0,1-.552,1.232,1.809,1.809,0,0,1-1.34.537l-18.01-.116a1.871,1.871,0,0,0-1.29.535A1.743,1.743,0,0,0,618.5,32.707ZM361.812,78.935a18.627,18.627,0,0,1,3.335-24.95,1.532,1.532,0,0,1,2.15.258q.033.042.063.087l19.458,27.9a1.53,1.53,0,0,1-.346,2.137c-.031.022-.062.043-.094.063A18.629,18.629,0,0,1,361.812,78.935Zm31.3-34.745L377.569,22.1a1.59,1.59,0,0,1,.578-2.309,15.171,15.171,0,0,1,17.338,24.638,1.588,1.588,0,0,1-2.244-.086,1.413,1.413,0,0,1-.125-.153Zm.557,37.317L366.548,42.433a12.868,12.868,0,0,1,3.171-17.92h0a1.539,1.539,0,0,1,2.143.38l40.109,57.643a1.539,1.539,0,0,1-.379,2.143h0a12.869,12.869,0,0,1-17.92-3.172Zm-32.344,71.778a4.979,4.979,0,0,0-6.595-3.249,5.407,5.407,0,0,0-2.982,2.635l-3.9,7.2q-1.949,3.6-4.192,6.937-.744,1.164-2.315,3.281t-3.29,4.11a21.946,21.946,0,0,1-3.491,3.293,4.12,4.12,0,0,1-2.35.964,2.061,2.061,0,0,1-.7-.12c-.944-.3-1.464-1.157-1.57-2.579a20.507,20.507,0,0,1,.219-4.577,32.668,32.668,0,0,1,1.043-4.636q.668-2.192.886-3.034a107,107,0,0,1,4.688-11.468q2.636-5.508,5.416-10.966a25.063,25.063,0,0,0,1.511-2.944,26.033,26.033,0,0,1,1.515-2.943q3.642-6.9,6.467-13.6a67.533,67.533,0,0,0,4.13-13.43l-.01-.137a4.883,4.883,0,0,0-.759-3.814,5.435,5.435,0,0,0-3.272-2.248,5.3,5.3,0,0,0-1.006-.1,5.2,5.2,0,0,0-2.941.936,4.507,4.507,0,0,0-2.113,3.2,48.579,48.579,0,0,1-3.279,10.951q-2.3,5.346-4.842,10.369a3.818,3.818,0,0,1-2.274,1.963,6.071,6.071,0,0,1-1.967.336,5.811,5.811,0,0,1-1.124-.11,9.547,9.547,0,0,0-3.221-.594q-1.658-.015-3.181-.044a24.157,24.157,0,0,0-8.145,2.045,33.393,33.393,0,0,0-7.143,4.322,49.248,49.248,0,0,0-9.072,9.229,100.332,100.332,0,0,0-7.147,10.888c-.024.045-.046.1-.07.143a4.745,4.745,0,0,0-.682.877,89.352,89.352,0,0,1-6.3,9.372,61.844,61.844,0,0,1-8.2,8.892,46.328,46.328,0,0,1-9.4,6.557,20.768,20.768,0,0,1-9.707,2.521H259.7a6.661,6.661,0,0,1-3.523-.911,7.864,7.864,0,0,1-2.452-2.31,10.729,10.729,0,0,1-1.385-2.938,9.471,9.471,0,0,1-.424-2.939,18.306,18.306,0,0,1,.394-2.241,7.051,7.051,0,0,1,1.935-3.734,3.51,3.51,0,0,1,2.516-.916,6.966,6.966,0,0,1,1.581.2,24.5,24.5,0,0,0,7.475,1.1h.2a18.543,18.543,0,0,0,6.378-1.64,26.046,26.046,0,0,0,5.686-3.526,30.822,30.822,0,0,0,8.036-9.154,20.738,20.738,0,0,0,2.021-4.5,21.269,21.269,0,0,0,.947-4.974,13.568,13.568,0,0,0-.564-4.864,12.059,12.059,0,0,0-2.236-4.191,14.522,14.522,0,0,0-1.861-1.8,13.571,13.571,0,0,0-2.1-1.366,10.636,10.636,0,0,0-4.168-1.285q-.869-.075-1.7-.075a17.024,17.024,0,0,0-2.377.163,25.659,25.659,0,0,0-7.974,2.45,33.857,33.857,0,0,0-6.982,4.654,42.1,42.1,0,0,0-5.9,6.236,52.843,52.843,0,0,0-4.6,7.037,43.641,43.641,0,0,0-2.578,5.372c-.6,1.512-1.183,3.048-1.755,4.587-1.372,2.228-2.813,4.5-4.386,6.846a86.622,86.622,0,0,1-6.361,8.409,39.365,39.365,0,0,1-6.534,6.144,10.435,10.435,0,0,1-6.033,2.319h-.153q-3.6-.012-4.7-1.87a8.385,8.385,0,0,1-1.029-4.622,23.177,23.177,0,0,1,.691-4.678q.59-2.325,1.254-4.583c.338-.955.728-1.9,1.1-2.839a5.306,5.306,0,0,0,.348-.894c.717-1.743,1.479-3.473,2.325-5.18q2.165-4.373,4.476-8.687,1.573-3.016,3.016-6.024t3.012-6.023a10.863,10.863,0,0,1,7.718-5.954,2.74,2.74,0,0,1,.817-.2,2.519,2.519,0,0,0,.814-.2A31.608,31.608,0,0,0,249.294,131a5.454,5.454,0,0,0,1.125-.706,5.861,5.861,0,0,1,1.125-.7,5.925,5.925,0,0,0,2.113-3.194,5.105,5.105,0,0,0-.014-2.071,4.4,4.4,0,0,0-.824-1.875,5.421,5.421,0,0,0-3.269-2.178,4.76,4.76,0,0,0-3.884.766,8.422,8.422,0,0,0-.985.692,5.423,5.423,0,0,1-1.125.7c-.267.112-.759.288-1.481.524a6,6,0,0,1-1.741.366c-.391,0-.639-.107-.745-.323a2.237,2.237,0,0,1,.147-1.807l1.029-2.977a10.7,10.7,0,0,0,.479-1.9,4.249,4.249,0,0,0-.215-1.99A6.2,6.2,0,0,0,240,112.538a3.91,3.91,0,0,0-1.539-1.2,10.4,10.4,0,0,0-2.038-.473,4.442,4.442,0,0,0-.565-.036,4.121,4.121,0,0,0-1.425.251,6.351,6.351,0,0,0-1.788,1.029,3.636,3.636,0,0,0-1.19,1.676q-.59,1.427-1.1,2.843c-.341.943-.711,1.943-1.1,2.982a26.82,26.82,0,0,1-2.384,4.252,5.737,5.737,0,0,1-3.751,2.554,44.458,44.458,0,0,0-6.336,2.121,6.4,6.4,0,0,0-1.73.955,4.375,4.375,0,0,0-1.262,1.613,5.9,5.9,0,0,0-.411,1.962,4.843,4.843,0,0,0,1.9,4.217,2.851,2.851,0,0,0,1.85.809,2.13,2.13,0,0,0,.619-.093,4.092,4.092,0,0,1,.847-.1q1.1,0,1.218.921a5.529,5.529,0,0,1-.813,3.1q-1.206,2.439-2.281,4.657t-2.3,4.521q-1.206,2.439-2.421,4.667a39.127,39.127,0,0,0-2.151,4.648c-.355.8-.624,1.657-.958,2.471q-.965,1.7-1.931,3.338-.99,1.659-1.973,3.252c-.332.487-.92,1.334-1.751,2.546s-1.809,2.6-2.941,4.153-2.376,3.144-3.731,4.763-2.656,3.052-3.9,4.292a15.867,15.867,0,0,1-3.461,2.74,3.039,3.039,0,0,1-1.442.435,1.759,1.759,0,0,1-1.184-.45,2.486,2.486,0,0,1-.766-1.946,15.516,15.516,0,0,1,.209-2.781,21.558,21.558,0,0,1,.629-2.739c.263-.85.468-1.507.619-1.98a55.427,55.427,0,0,1,4.018-9.276q2.441-4.46,4.452-9.03a24.17,24.17,0,0,0,1.2-2.575q.708-1.709,1.4-3.557t1.194-3.542a13.722,13.722,0,0,0,.564-2.666,6.077,6.077,0,0,0-.838-3.947,4.157,4.157,0,0,0-3.2-2.114,5.038,5.038,0,0,0-1.017-.106,5.722,5.722,0,0,0-2.936.877,4.316,4.316,0,0,0-2.247,3.273,11.254,11.254,0,0,1-.29,1.681c-.147.562-.288,1.126-.428,1.689a70.317,70.317,0,0,1-3.785,8.772c-.876,1.7-1.7,3.427-2.54,5.144a5.194,5.194,0,0,0-1.5,1.856,77.824,77.824,0,0,1-16.834,23.063,11.479,11.479,0,0,1-3.823,2.558,3.608,3.608,0,0,1-1.035.177,1.472,1.472,0,0,1-1.123-.434,3.109,3.109,0,0,1-.526-2.448,15.608,15.608,0,0,1,1.08-4.157,56.586,56.586,0,0,1,4.839-10.371,71.95,71.95,0,0,0,5-10.106,24.42,24.42,0,0,0,1.894-11.885,13.383,13.383,0,0,0-3.642-8.232,10.842,10.842,0,0,0-7.894-2.876H159.2q-4.97.024-10.887,4.182a6.931,6.931,0,0,1-3.146,1.334,3.61,3.61,0,0,1-.559.043,5.216,5.216,0,0,1-3.049-1.16,11.151,11.151,0,0,0-2.1-1.229q-1.071-.472-2.209-.945a10.053,10.053,0,0,0-2.982-.453,11.382,11.382,0,0,0-3.771.671,10.377,10.377,0,0,0-2.329,1.206,11.181,11.181,0,0,1-1.928,1.109,3.885,3.885,0,0,1-1.566.352,2.225,2.225,0,0,1-.271-.011,3.873,3.873,0,0,1-2.086-1.093,5.561,5.561,0,0,0-3.4-1.255,5.326,5.326,0,0,0-1.785.32,5.232,5.232,0,0,0-3.457,3.778,16.008,16.008,0,0,1-.992,3.389q-1.719,4.965-3.778,9.811t-4.206,9.566l-.117.251c-.074.121-.186.2-.253.328q-.984,1.73-1.966,3.392t-1.973,3.252q-.5.729-1.751,2.546t-2.94,4.153q-1.7,2.334-3.731,4.763t-3.9,4.292a15.911,15.911,0,0,1-3.46,2.739,3.043,3.043,0,0,1-1.443.435,1.757,1.757,0,0,1-1.183-.451,2.491,2.491,0,0,1-.763-1.945,15.5,15.5,0,0,1,.209-2.78,20.2,20.2,0,0,1,.629-2.739c.263-.85.465-1.508.615-1.982a55.332,55.332,0,0,1,4.022-9.273q2.436-4.463,4.452-9.031a25.612,25.612,0,0,0,1.2-2.575c.468-1.141.936-2.325,1.4-3.558s.858-2.413,1.193-3.541A13.507,13.507,0,0,0,95.5,155.5a6.1,6.1,0,0,0-.841-3.946,4.154,4.154,0,0,0-3.2-2.115,4.993,4.993,0,0,0-1.013-.1,5.722,5.722,0,0,0-2.939.876,4.311,4.311,0,0,0-2.247,3.274,11.247,11.247,0,0,1-.287,1.681c-.147.56-.291,1.125-.431,1.687a70.34,70.34,0,0,1-3.782,8.775q-2.18,4.236-4.216,8.529a38.018,38.018,0,0,0-2.264,4.933q-.924,2.486-1.833,5.179a31.836,31.836,0,0,0-1.173,4.784,28.225,28.225,0,0,0-.331,4.859,13.307,13.307,0,0,0,1.131,5.1A13.95,13.95,0,0,0,74.94,203.3a13.251,13.251,0,0,0,4.076,2.809,7.91,7.91,0,0,0,3.231.695,8.341,8.341,0,0,0,1.512-.141,14.872,14.872,0,0,0,7.228-3.153c.359-.284.674-.574,1.02-.86a4.778,4.778,0,0,0,2.421,2.543,5.012,5.012,0,0,0,2.337.585,5.543,5.543,0,0,0,1.622-.252,4.387,4.387,0,0,0,2.921-2.631q1.42-3.284,2.834-6.562t2.842-6.564a131.887,131.887,0,0,1,7.721-14.384,146.733,146.733,0,0,1,8.945-12.813q.627-.874,2.155-2.645t3.2-3.479a32.4,32.4,0,0,1,3.242-2.932,3.927,3.927,0,0,1,2.033-1.031.816.816,0,0,1,.241.034,2.609,2.609,0,0,1,1.5,2.585,18.626,18.626,0,0,1-.434,4.454,40.575,40.575,0,0,1-1.248,4.651c-.493,1.467-.852,2.48-1.091,3.052q-6.673,14.582-12.533,28.964a6.082,6.082,0,0,0-.256,4.028,4.554,4.554,0,0,0,2.568,2.991,4.79,4.79,0,0,0,2.233.559,5.387,5.387,0,0,0,1.72-.3,4.58,4.58,0,0,0,2.913-2.7q3.9-8.994,7.2-16.834t6.887-15.425q1.334-2.586,2.52-5.229a36.834,36.834,0,0,1,2.807-5.108,18.366,18.366,0,0,1,3.635-4.136,16.318,16.318,0,0,1,4.483-2.953,4.046,4.046,0,0,1,1.5-.341,1.9,1.9,0,0,1,1.564.738q.99,1.24-.465,5.909A48.859,48.859,0,0,1,155.268,168a72.858,72.858,0,0,0-4.962,9.619,34.777,34.777,0,0,0-1.99,6.847,24.111,24.111,0,0,0-.308,7.138,13.263,13.263,0,0,0,2.247,6.125,9.377,9.377,0,0,0,5.792,3.652,12.107,12.107,0,0,0,2.409.242,13.368,13.368,0,0,0,4.731-.9,25.7,25.7,0,0,0,7.02-4.1,53.891,53.891,0,0,0,6.221-5.968c.09.241.134.488.239.728a13.873,13.873,0,0,0,2.865,4.281,13.257,13.257,0,0,0,4.076,2.811,7.9,7.9,0,0,0,3.225.694,8.286,8.286,0,0,0,1.515-.142,14.859,14.859,0,0,0,7.228-3.153,57.261,57.261,0,0,0,5.834-5.261c1.451-1.511,2.842-3.116,4.215-4.753a17.253,17.253,0,0,0,2.617,5.566,12.179,12.179,0,0,0,5.27,4.038,13.351,13.351,0,0,0,5.118.931,20.119,20.119,0,0,0,2.675-.187,27.467,27.467,0,0,0,10.976-3.91,45.236,45.236,0,0,0,8.857-7.349c.65-.692,1.242-1.464,1.865-2.194a18.783,18.783,0,0,0,1.79,4,15.689,15.689,0,0,0,4.418,4.65,14.873,14.873,0,0,0,6.466,2.43,36.155,36.155,0,0,0,4.122.242,30.173,30.173,0,0,0,10.879-1.961,44.451,44.451,0,0,0,12.594-7.345,66.463,66.463,0,0,0,5.51-5.129c.091.554.113,1.127.242,1.67a12.37,12.37,0,0,0,4.521,7,10.246,10.246,0,0,0,4.872,2.406,14.792,14.792,0,0,0,5.324.027,15.891,15.891,0,0,0,5.048-1.819,15.208,15.208,0,0,0,4.048-3.266,8.8,8.8,0,0,1,5.608-2.334,8.5,8.5,0,0,1,5.287,2.09,22.726,22.726,0,0,0,4.329,2.515,8.911,8.911,0,0,0,3.633.761,10.049,10.049,0,0,0,1.25-.079,13.815,13.815,0,0,0,5.752-1.734,25.833,25.833,0,0,0,5.05-3.684,36.908,36.908,0,0,0,4.22-4.659q1.887-2.488,3.378-4.808,2.873-4.216,5.27-8.262t4.445-8.2a4.893,4.893,0,0,0,.27-3.972ZM260.554,152.7a43.775,43.775,0,0,1,4.712-5.455q1.036-.906,2.418-1.905a32.478,32.478,0,0,1,2.9-1.871,14.681,14.681,0,0,1,3.085-1.33,6.42,6.42,0,0,1,1.8-.273,5.369,5.369,0,0,1,1.158.126,2.2,2.2,0,0,1,1.733,1.05,3.231,3.231,0,0,1,.414,1.835,12.855,12.855,0,0,1-3.382,7.637,22.64,22.64,0,0,1-6.469,5.1,12.031,12.031,0,0,1-3.447,1.01,6.676,6.676,0,0,1-.787.047,7.793,7.793,0,0,1-2.486-.43,3.737,3.737,0,0,1-2.325-2.455A4.106,4.106,0,0,1,260.554,152.7Zm69.125-10.85a6.844,6.844,0,0,1-.414,1.9,16.752,16.752,0,0,1-.711,1.639q-2.518,5.3-4.757,9.607a92.493,92.493,0,0,1-4.729,8.086,76.992,76.992,0,0,1-5.478,7.307,73.195,73.195,0,0,1-7.01,7.145q-3.66,2.889-5.609,2.89a2.33,2.33,0,0,1-.4-.033q-1.964-.338-1.833-6.153A32.94,32.94,0,0,1,301.4,164.3a57.551,57.551,0,0,1,4.948-8.86q1.882-2.624,4.223-5.629a43.589,43.589,0,0,1,5.054-5.483,23.914,23.914,0,0,1,5.792-3.944,11.777,11.777,0,0,1,5.134-1.206c.379,0,.76.019,1.141.057a2.093,2.093,0,0,1,1.655.915,3.117,3.117,0,0,1,.333,1.7ZM707.805,125.7a5.335,5.335,0,0,0-3.59-1.109h-.154a4.092,4.092,0,0,0-3.649,2.062,89.21,89.21,0,0,1-6.3,9.373,62.062,62.062,0,0,1-8.193,8.891,46.4,46.4,0,0,1-9.4,6.557A20.784,20.784,0,0,1,666.8,154h-.254a6.654,6.654,0,0,1-3.523-.914,7.76,7.76,0,0,1-2.445-2.309,10.537,10.537,0,0,1-1.392-2.938,9.438,9.438,0,0,1-.42-2.939,17.174,17.174,0,0,1,.39-2.24,7.047,7.047,0,0,1,1.935-3.734,3.51,3.51,0,0,1,2.518-.918,6.94,6.94,0,0,1,1.578.2,24.492,24.492,0,0,0,7.493,1.1h.184a18.566,18.566,0,0,0,6.377-1.64,26.1,26.1,0,0,0,5.687-3.527,30.81,30.81,0,0,0,8.036-9.154,20.786,20.786,0,0,0,2.021-4.5,21.314,21.314,0,0,0,.947-4.972,13.552,13.552,0,0,0-.564-4.865,11.981,11.981,0,0,0-2.237-4.19,14.319,14.319,0,0,0-1.86-1.8,13.5,13.5,0,0,0-2.1-1.366A10.59,10.59,0,0,0,685,102.013q-.87-.075-1.7-.075a16.67,16.67,0,0,0-2.373.164,25.621,25.621,0,0,0-7.974,2.448,33.891,33.891,0,0,0-6.983,4.654,42.152,42.152,0,0,0-5.9,6.236,52.843,52.843,0,0,0-4.6,7.037,44.37,44.37,0,0,0-2.578,5.372q-1.109,2.775-2.148,5.613c-.034.107-.056.222-.091.33-.492.829-1.01,1.649-1.5,2.481q-2.837,4.839-5.943,9.486-2,2.91-3.932,5.744t-4.09,5.482q-1.745,2.358-3.084,2.358a1.5,1.5,0,0,1-.767-.213q-1.594-.919-.1-5.172,1.877-6.36,3.406-12t3.046-11.278a3.949,3.949,0,0,0-.386-3.357,5.742,5.742,0,0,0-2.383-2.382,5.317,5.317,0,0,0-2.308-.555,4.931,4.931,0,0,0-1.649.29,5.048,5.048,0,0,0-2.913,2.7q-2.211,3.761-4.534,6.966t-4.863,6.3q-3.293,4.112-5.861,6.784a32.971,32.971,0,0,1-5.331,4.534,2.453,2.453,0,0,1-1.335.5,1.4,1.4,0,0,1-.289-.03,2.289,2.289,0,0,1-1.228-.741,3.724,3.724,0,0,1-.793-1.392,6.351,6.351,0,0,1-.315-1.5,18.858,18.858,0,0,1,.414-5.625,35.157,35.157,0,0,1,1.744-5.449,44.781,44.781,0,0,1,2.527-5.16q1.405-2.452,2.91-4.634a59,59,0,0,1,6.435-8.347,31.032,31.032,0,0,1,7.848-6.1,34.534,34.534,0,0,1,4.042-1.4,12.973,12.973,0,0,1,3.5-.468q.373,0,.751.02a14.252,14.252,0,0,1,4,.812,10.27,10.27,0,0,1,3.245,1.836,4.93,4.93,0,0,0,3.327,1.262,4.043,4.043,0,0,0,.424-.015,5.163,5.163,0,0,0,3-9.064,20.618,20.618,0,0,0-5.639-3.457,22.321,22.321,0,0,0-6.473-1.6q-1.327-.123-2.611-.123a24.1,24.1,0,0,0-6.8.945,34.094,34.094,0,0,0-8.234,3.642,38.384,38.384,0,0,0-9.6,8.441,101.7,101.7,0,0,0-7.4,10.35,65.649,65.649,0,0,0-4.2,8.077,5.155,5.155,0,0,0-1.57,1.879,86.972,86.972,0,0,1-5.266,9.229q-3.129,4.512-6.484,8.694a35,35,0,0,1-7.7,7.127,4.256,4.256,0,0,1-1.962.659,1.319,1.319,0,0,1-1.143-.572,3.529,3.529,0,0,1-.67-2.575,21.364,21.364,0,0,1,2.291-7.354q1.76-3.3,3.72-6.765A91.693,91.693,0,0,0,582.71,132.9q1.045-2.7,1.928-5.807a22.09,22.09,0,0,0,.859-6.144,12.858,12.858,0,0,0-1.231-5.576,10.205,10.205,0,0,0-4.114-4.259,9.013,9.013,0,0,0-4.312-1.344c-.218-.01-.435-.015-.653-.015a13.908,13.908,0,0,0-3.868.552,20.462,20.462,0,0,0-4.226,1.76,21.218,21.218,0,0,0-3.55,2.47,3.018,3.018,0,0,1-1.551.6,1.11,1.11,0,0,1-.343-.051,3.007,3.007,0,0,1-1.306-.872,10.539,10.539,0,0,1-1.146-1.5,3.982,3.982,0,0,0-1.412-1.348,5.3,5.3,0,0,0-2.182-.471,6.076,6.076,0,0,0-1.771.276,4.378,4.378,0,0,0-2.916,2.631q-5.356,13.656-10.639,26.547c-.119.292-.238.586-.357.877-.834,1.48-1.725,3.065-2.741,4.878q-2.385,4.249-4.992,8.309a49.282,49.282,0,0,1-5.293,6.95q-2.7,2.893-4.753,3.044c-.068,0-.135.007-.2.007q-1.482,0-1.862-1.724a14.167,14.167,0,0,1-.236-4.2,27.246,27.246,0,0,1,.7-4.543c.356-1.453.605-2.414.756-2.886a42.878,42.878,0,0,1,2.6-5.994,4.764,4.764,0,0,0,.27-3.89,5.043,5.043,0,0,0-2.7-2.98,4.747,4.747,0,0,0-2.284-.622,4.5,4.5,0,0,0-1.74.362,5.058,5.058,0,0,0-2.473,2.113,28.432,28.432,0,0,1-1.874,2.765c-.328.485-1.019,1.481-2.061,2.983s-2.3,3.254-3.762,5.249-3.067,4.049-4.8,6.155a69.284,69.284,0,0,1-5.05,5.55,22.046,22.046,0,0,1-4.449,3.5,3.84,3.84,0,0,1-1.812.579,1.658,1.658,0,0,1-1.215-.494,6.28,6.28,0,0,1-1.675-4.922,23.3,23.3,0,0,1,1.251-6.518,43.535,43.535,0,0,1,2.712-6.415,42.433,42.433,0,0,1,2.7-4.618,64.726,64.726,0,0,1,8.86-10.181,53.127,53.127,0,0,1,10.577-7.545q.927-.483,2.462-1.216A16.289,16.289,0,0,1,520,123.8a14.7,14.7,0,0,1,3.081-.433h.121a3.258,3.258,0,0,1,2.211.732,5.119,5.119,0,0,0,3.237,1.129c.143,0,.289-.006.435-.016a4.895,4.895,0,0,0,3.464-1.775,5.162,5.162,0,0,0-.526-7.281l0,0a8.46,8.46,0,0,0-3.181-1.909,15.6,15.6,0,0,0-3.512-.782q-1.168-.1-2.326-.1a25.951,25.951,0,0,0-7.751,1.185,40.157,40.157,0,0,0-9.424,4.349,56.323,56.323,0,0,0-8.313,6.342,73.033,73.033,0,0,0-6.739,7.056,78.244,78.244,0,0,0-6.668,9.885,49.84,49.84,0,0,0-4.9,11.48,28.024,28.024,0,0,0-.893,11.4,14.9,14.9,0,0,0,5.324,9.492,11.489,11.489,0,0,0,7.291,2.5h.075a9.7,9.7,0,0,0,3.614-.68q1.677-.675,3.276-1.482c.438-.306.875-.595,1.32-.855s.879-.551,1.32-.857a3.585,3.585,0,0,0,.858-.545c.479-.361,1-.742,1.573-1.154s1.094-.792,1.577-1.149a3.222,3.222,0,0,1,.854-.547,4.115,4.115,0,0,1,2.141-.985c.093-.007.186-.011.278-.011a3.975,3.975,0,0,1,1.613.355,9.79,9.79,0,0,1,2.028,1.3A22.156,22.156,0,0,0,514,172.183a13.951,13.951,0,0,0,10.932,2.105,17.5,17.5,0,0,0,5.43-2.59,5.6,5.6,0,0,0,1.676,1.516,4.914,4.914,0,0,0,2.142.512,4.859,4.859,0,0,0,1.876-.39,4.512,4.512,0,0,0,2.852-2.556q2.712-4.479,5.29-8.884t5.3-8.887q1.713-3.027,4.541-7.792t5.875-9.48q3.038-4.711,5.8-8.508a18.483,18.483,0,0,1,4.616-4.9,6.076,6.076,0,0,1,3.248-1.071h.059q1.59.024,1.32,1.977a20.842,20.842,0,0,1-1.939,6.567q-1.509,3.083-3.067,6.232-1.581,3.018-3.283,6.114a56.4,56.4,0,0,0-3,6.3,33.633,33.633,0,0,0-1.881,6.422,19.821,19.821,0,0,0-.065,6.641,13.443,13.443,0,0,0,1.737,4.845,7.636,7.636,0,0,0,2.7,2.98A13.534,13.534,0,0,0,569.88,171a12.8,12.8,0,0,0,2.739.3,11.894,11.894,0,0,0,4.538-.9,28.439,28.439,0,0,0,6.565-3.8,38.206,38.206,0,0,0,5.618-5.318q2.553-2.946,4.579-5.445c.189-.242.36-.493.547-.736a13.833,13.833,0,0,0,6.6,7.812,7.482,7.482,0,0,0,3.49.907h.241a12.323,12.323,0,0,0,3.611-.677,15.766,15.766,0,0,0,3.338-1.626q1.579-1.012,2.9-1.939a3.723,3.723,0,0,1,1.969-.937.868.868,0,0,1,.838.592q.581,1.344-.944,5.044a78.027,78.027,0,0,1-4.219,8.463,25.04,25.04,0,0,1-5.584,6.764q-5.757,4.976-12.249,4.978c-.264,0-.53-.006-.8-.018a8.1,8.1,0,0,1-2.353-1,4.1,4.1,0,0,1-1.32-2.045,9.453,9.453,0,0,0-2.038-3.307,4,4,0,0,0-3.02-1.284,3.659,3.659,0,0,0-.389.014,5.367,5.367,0,0,0-3.6,1.783,4.453,4.453,0,0,0-1.241,3.82,12.747,12.747,0,0,0,1.85,5.464,14.1,14.1,0,0,0,3.669,3.876,16.222,16.222,0,0,0,4.732,2.349,14.193,14.193,0,0,0,4.184.622q.549,0,1.11-.04l3.436-.252A42.4,42.4,0,0,0,616,188.577a89.365,89.365,0,0,0,14.6-11.086,111.287,111.287,0,0,0,10-10.677q4.565-5.589,8.555-11.543c.322-.481.605-.975.923-1.456a18.68,18.68,0,0,0,1.553,3.212,15.7,15.7,0,0,0,4.418,4.649,14.838,14.838,0,0,0,6.466,2.429,35.977,35.977,0,0,0,4.124.243,30.167,30.167,0,0,0,10.878-1.961,44.594,44.594,0,0,0,12.594-7.343,67.231,67.231,0,0,0,10.213-10.556q4.545-5.858,8.149-11.375a6.409,6.409,0,0,0,1.1-3.809A5.059,5.059,0,0,0,707.805,125.7Zm-40.4-2.712a44.181,44.181,0,0,1,4.712-5.456c.691-.6,1.5-1.236,2.417-1.9a32.457,32.457,0,0,1,2.9-1.869,14.577,14.577,0,0,1,3.085-1.33,6.385,6.385,0,0,1,1.8-.274,5.423,5.423,0,0,1,1.157.125,2.193,2.193,0,0,1,1.73,1.05,3.228,3.228,0,0,1,.414,1.834,12.814,12.814,0,0,1-3.382,7.64,22.61,22.61,0,0,1-6.466,5.1,12.088,12.088,0,0,1-3.45,1.013,6.874,6.874,0,0,1-.785.046,7.837,7.837,0,0,1-2.488-.429,3.739,3.739,0,0,1-2.325-2.456A4.128,4.128,0,0,1,667.4,122.988ZM484.834,195.532a5.087,5.087,0,0,1-.331,3.962,5.169,5.169,0,0,1-4.637,2.874,6.276,6.276,0,0,1-2.233-.438,122.406,122.406,0,0,1-12.3-5.666,74.56,74.56,0,0,1-12.406-8.145,57.541,57.541,0,0,1-10.173-10.587,28.731,28.731,0,0,1-5.444-13.007,4.364,4.364,0,0,1,1.313-3.825,5.447,5.447,0,0,1,3.532-1.78,25.734,25.734,0,0,0,8.419-2.065,37.027,37.027,0,0,0,7.937-4.794,30.3,30.3,0,0,0,7.762-11.967,26.575,26.575,0,0,0,.827-14.223,25.03,25.03,0,0,0-3.234-8.333,27.737,27.737,0,0,0-5.738-6.7,29.746,29.746,0,0,0-7.523-4.632,27.4,27.4,0,0,0-8.727-2.127q-1.47-.093-2.912-.093a41.078,41.078,0,0,0-10.605,1.356,37.938,37.938,0,0,0-20.941,14.106,42.474,42.474,0,0,0-6.247,11.925,34.291,34.291,0,0,0-1.3,16.193,68.576,68.576,0,0,0,4.637,16.174,4.341,4.341,0,0,1-.2,3.883,5.268,5.268,0,0,1-2.91,2.7,4.719,4.719,0,0,1-1.634.292,5.851,5.851,0,0,1-2.391-.552,5.262,5.262,0,0,1-2.561-2.852,59.8,59.8,0,0,1-5.512-21.568,46.194,46.194,0,0,1,3.98-22.123,43.886,43.886,0,0,1,9.551-13.963A55.314,55.314,0,0,1,417.2,99.113a52.98,52.98,0,0,1,16.892-5.24,38.935,38.935,0,0,1,5.208-.355,36.116,36.116,0,0,1,11.91,2.008,36.757,36.757,0,0,1,13.476,7.651,38.955,38.955,0,0,1,13.261,27.358,33.436,33.436,0,0,1-3.126,15.914,35.887,35.887,0,0,1-7.66,11.406,40.994,40.994,0,0,1-11.362,8.084,6.93,6.93,0,0,0-3.28,3.349,4.441,4.441,0,0,0,.52,4.314A40.79,40.79,0,0,0,465.9,185.031a98.3,98.3,0,0,0,16.3,7.585A4.373,4.373,0,0,1,484.834,195.532ZM101.411,225.12a5.7,5.7,0,0,1,1.782,3.6,5.3,5.3,0,0,1-4.7,5.528,5.454,5.454,0,0,1-.557.029,4.618,4.618,0,0,1-3.27-1.341,53.271,53.271,0,0,0-11.082-8.863,73.327,73.327,0,0,0-13.233-6.22,91.54,91.54,0,0,0-11.9-3.069,77.935,77.935,0,0,0-13.3-1.376q-.693-.013-1.384-.013a72.864,72.864,0,0,0-12.017.992A40.534,40.534,0,0,0,19.8,218.229q-1.338.649-2.923,1.595a19.079,19.079,0,0,0-3.016,2.225,13.917,13.917,0,0,0-2.421,2.8,5.806,5.806,0,0,0-1.009,3.184c.041.547.38.87,1.036.96a4.467,4.467,0,0,0,.633.042,6.721,6.721,0,0,0,1.566-.2A25.163,25.163,0,0,0,16.1,228.1c.81-.289,1.347-.491,1.617-.6a24.879,24.879,0,0,0,4.548-2.958,55.087,55.087,0,0,0,4.083-3.751,5.5,5.5,0,0,1,3.536-1.71,5.353,5.353,0,0,1,.58-.031,4.713,4.713,0,0,1,3.168,1.209,5.062,5.062,0,0,1,1.781,3.6,4.628,4.628,0,0,1-1.251,3.685,51.568,51.568,0,0,1-6.931,6.311,27.479,27.479,0,0,1-9,4.525,17.6,17.6,0,0,1-4.918.775h-.349a16.945,16.945,0,0,1-4.742-.668,12.244,12.244,0,0,1-4.456-2.37,10.237,10.237,0,0,1-3.022-4.478,11.211,11.211,0,0,1,.147-8.369,22.463,22.463,0,0,1,4.52-7.171,32.142,32.142,0,0,1,11.514-7.888,65.842,65.842,0,0,1,13.6-3.9,13.71,13.71,0,0,0,6.347-3.02,13.239,13.239,0,0,0,4.048-6.03q2.95-8.784,6.039-17.576t6.679-18.313q1.846-4.969,3.929-9.616t4.64-9.251a30.233,30.233,0,0,0,1.549-3.428,4.973,4.973,0,0,0,.359-2.653,2.079,2.079,0,0,0-1.426-1.553,5.423,5.423,0,0,0-1.9-.272,15.617,15.617,0,0,0-1.908.134A26.666,26.666,0,0,0,48.8,135.69a18.946,18.946,0,0,0-7.964,7.352,22.734,22.734,0,0,0-2.927,6.293,14.41,14.41,0,0,0-.393,6.938,4.285,4.285,0,0,1-1.248,3.683,5.362,5.362,0,0,1-3.6,1.783c-.151.012-.3.017-.445.017a4.53,4.53,0,0,1-3.241-1.266,5.716,5.716,0,0,1-1.768-3.464,24.524,24.524,0,0,1,.339-8.592,31.106,31.106,0,0,1,2.992-8.234,34.332,34.332,0,0,1,5.136-7.213,29.127,29.127,0,0,1,6.918-5.55,38.3,38.3,0,0,1,11.424-4.427,45.536,45.536,0,0,1,9.414-.978q1.4,0,2.817.084a57.184,57.184,0,0,1,7.031.73,34,34,0,0,1,6.7,1.86,3.99,3.99,0,0,1,2.059,1.717,5.477,5.477,0,0,1,.871,2.491,4.5,4.5,0,0,1-.564,2.667,8.339,8.339,0,0,1-1.713,2.061,2.874,2.874,0,0,0-.65.6,42.445,42.445,0,0,0-6.5,7.519A103.637,103.637,0,0,0,66.68,154.42q-2.975,6.573-5.451,13.387T56.439,181.7q-2.315,7.082-4.7,14.162c-.845,2.366-.725,4.247.342,5.642A8.3,8.3,0,0,0,57.33,204.3c1.491.256,2.985.518,4.476.776s2.992.564,4.49.916a87.2,87.2,0,0,1,18.9,7.12A62.451,62.451,0,0,1,101.411,225.12Zm338.16-98.76a83.254,83.254,0,0,0-3.9,8.162q-1.76,4.274-3.3,8.67t-2.914,8.364q-2.41,6.677-4.849,14.035a123.815,123.815,0,0,1-5.727,14.306,84.505,84.505,0,0,1-7.807,13.214,45.179,45.179,0,0,1-10.963,10.751,27.963,27.963,0,0,1-13.384,4.982q-1.4.129-2.8.129a33.342,33.342,0,0,1-11.5-2.122,20.693,20.693,0,0,1-6.692-4.555,26.742,26.742,0,0,1-4.688-6.5,25.273,25.273,0,0,1-2.5-7.764,26.862,26.862,0,0,1,.01-8.362,4.322,4.322,0,0,1,2.178-3.267,5.448,5.448,0,0,1,2.875-.874,5,5,0,0,1,1.006.1c1.867.328,2.965,1.166,3.3,2.524a26.5,26.5,0,0,1,.667,4.375,19.278,19.278,0,0,0,1.316,7.641,13.162,13.162,0,0,0,4.8,6.143,16.708,16.708,0,0,0,8.637,2.565,15.031,15.031,0,0,0,3-.3,23.724,23.724,0,0,0,10.8-5.416,36.274,36.274,0,0,0,7.088-7.911,78.4,78.4,0,0,0,5.451-9.587,102.1,102.1,0,0,0,4.285-10.4q1.881-5.388,3.583-10.488,1.81-5.522,3.755-11.051t4.182-10.878q2.23-5.345,4.9-10.445a70.293,70.293,0,0,1,6.193-9.779,4.653,4.653,0,0,1,3.6-1.854h.256a4.782,4.782,0,0,1,3.431,1.327,4.9,4.9,0,0,1,1.774,3.462,5.723,5.723,0,0,1-1.241,3.822A40.383,40.383,0,0,0,439.571,126.36Zm-338.146,5.279a6.479,6.479,0,0,1-3.8,11.4c-.191.014-.38.021-.565.021a6.2,6.2,0,0,1-4.178-1.539,6.479,6.479,0,0,1,3.8-11.4c.192-.014.38-.021.565-.021a6.2,6.2,0,0,1,4.178,1.539ZM206.02,124a6.48,6.48,0,0,1-3.8,11.4c-.191.014-.38.02-.565.02a6.2,6.2,0,0,1-4.181-1.54,6.479,6.479,0,0,1,3.8-11.4q.286-.021.564-.021A6.2,6.2,0,0,1,206.02,124Zm269.494-19.439a47.053,47.053,0,0,0-4.458-4.945H614.8c-.176.105-.372.18-.547.287A46.5,46.5,0,0,0,608,104.561H582.72a15.836,15.836,0,0,0-6.533-1.781c-.335-.016-.662-.023-.99-.023a20.99,20.99,0,0,0-5.809.826,28.3,28.3,0,0,0-2.772.978h-7.234a12.221,12.221,0,0,0-3.769-.664,13.087,13.087,0,0,0-3.8.577c-.072.022-.132.064-.2.087ZM360.84,100.269c-.16-.236-.361-.43-.535-.653h43.248a62.984,62.984,0,0,0-5.621,4.945H362.641A11.859,11.859,0,0,0,360.84,100.269Zm-310.864,1.82V2.472A2.472,2.472,0,0,1,52.448,0H656.522a2.472,2.472,0,0,1,2.472,2.472v99.617a2.472,2.472,0,0,1-2.472,2.472H655a12.216,12.216,0,0,0-2.749-3.394c-.664-.573-1.406-1.044-2.121-1.551h3.922V4.945H54.92V99.616H341.156a11.175,11.175,0,0,0-2.271,4.945h-98.8a17.3,17.3,0,0,0-2.778-.645,11.712,11.712,0,0,0-1.45-.091,11.094,11.094,0,0,0-3.838.679c-.042.016-.08.041-.122.057H52.448a2.472,2.472,0,0,1-2.472-2.472Z" transform="translate(-0.002 0)"/></svg>