<svg xmlns="http://www.w3.org/2000/svg" viewBox="0 0 377.46 59.029"><defs><style>.a{fill:#030402;}</style></defs><path class="a" d="M113.369,393.6a12.106,12.106,0,0,0-3.562-3.308l-8.4-6.022a20.569,20.569,0,0,1-6.277-6.53,16.609,16.609,0,0,1,2.629-19.507,16.484,16.484,0,0,1,11.789-4.41q7.378,0,11.534,4.41,4.242,4.5,4.242,12.128v1.018a.9.9,0,0,1-1.018,1.017h-8.566a1.049,1.049,0,0,1-1.188-1.187v-1.187a6.457,6.457,0,0,0-1.441-4.326A4.927,4.927,0,0,0,109.3,364a4.506,4.506,0,0,0-4.749,4.665,6.644,6.644,0,0,0,.848,3.562q.765,1.357,4.5,4.326l7.8,5.936a26.654,26.654,0,0,1,6.446,6.615,14.306,14.306,0,0,1,1.866,7.294,15.758,15.758,0,0,1-4.75,11.874,16.459,16.459,0,0,1-12.043,4.58,15.886,15.886,0,0,1-11.62-4.41,14.739,14.739,0,0,1-4.664-11.195v-1.527a1.35,1.35,0,0,1,1.527-1.527H102.6a.976.976,0,0,1,1.1,1.1v1.187a5.84,5.84,0,0,0,1.611,4.326,5.092,5.092,0,0,0,4.07,1.781,4.34,4.34,0,0,0,3.478-1.612A5.96,5.96,0,0,0,114.3,397,6.1,6.1,0,0,0,113.369,393.6Z" transform="translate(-92.929 -353.826)"/><path class="a" d="M159.082,358.321a15.486,15.486,0,0,1,4.75,11.788v26.377A15.415,15.415,0,0,1,159,408.19a17.169,17.169,0,0,1-12.3,4.665,16.862,16.862,0,0,1-12.213-4.58,15.343,15.343,0,0,1-4.834-11.789V370.109a15.284,15.284,0,0,1,4.919-11.7,17.055,17.055,0,0,1,12.213-4.579A17.54,17.54,0,0,1,159.082,358.321Zm-8.227,42.66a6.458,6.458,0,0,0,1.526-4.5V371.212a8.821,8.821,0,0,0-1.441-5.343A5.088,5.088,0,0,0,146.784,364a5,5,0,0,0-4.156,1.951,8.092,8.092,0,0,0-1.527,5.258v24.172a8.459,8.459,0,0,0,1.527,5.344,4.85,4.85,0,0,0,4.156,1.95A5.552,5.552,0,0,0,150.855,400.981Z" transform="translate(-92.929 -353.826)"/><path class="a" d="M180.625,410.48a1.5,1.5,0,0,1-1.7,1.7h-8.057a1.5,1.5,0,0,1-1.7-1.7V356.2a1.5,1.5,0,0,1,1.7-1.7h26.715a1.5,1.5,0,0,1,1.7,1.7v6.87a1.5,1.5,0,0,1-1.7,1.7H182.32a1.5,1.5,0,0,0-1.695,1.7v9.753a1.5,1.5,0,0,0,1.695,1.7h9.33a1.5,1.5,0,0,1,1.7,1.7v6.871a1.5,1.5,0,0,1-1.7,1.7h-9.33a1.5,1.5,0,0,0-1.695,1.7Z" transform="translate(-92.929 -353.826)"/><path class="a" d="M225.981,410.48a1.5,1.5,0,0,1-1.7,1.7h-8.058a1.5,1.5,0,0,1-1.7-1.7V366.463a1.5,1.5,0,0,0-1.7-1.7h-8.141a1.5,1.5,0,0,1-1.7-1.7V356.2a1.5,1.5,0,0,1,1.7-1.7h31.126a1.5,1.5,0,0,1,1.7,1.7v6.87a1.5,1.5,0,0,1-1.7,1.7h-8.142a1.5,1.5,0,0,0-1.7,1.7Z" transform="translate(-92.929 -353.826)"/><path class="a" d="M260.668,412.177a1.5,1.5,0,0,1-1.7-1.7V356.2a1.5,1.5,0,0,1,1.7-1.7h15.691a16.017,16.017,0,0,1,11.449,4.241q4.41,4.157,4.41,11.11V396.91a14.442,14.442,0,0,1-4.41,11.027,16.016,16.016,0,0,1-11.449,4.24Zm20.1-41.559a5.918,5.918,0,0,0-1.526-4.24,5.02,5.02,0,0,0-3.9-1.7h-3.223a1.5,1.5,0,0,0-1.7,1.7V400.3a1.5,1.5,0,0,0,1.7,1.7h3.223a5.014,5.014,0,0,0,3.9-1.7,5.987,5.987,0,0,0,1.526-4.156Z" transform="translate(-92.929 -353.826)"/><path class="a" d="M333.216,409.887a1.491,1.491,0,0,1-1.527,2.29h-8.82a1.586,1.586,0,0,1-1.611-1.1l-7.634-21.288a1.59,1.59,0,0,0-1.611-1.1q-1.272,0-1.272,1.187V410.48a1.5,1.5,0,0,1-1.7,1.7h-8.058a1.5,1.5,0,0,1-1.7-1.7V356.2a1.5,1.5,0,0,1,1.7-1.7h13.994q7.971,0,12.722,4.5,4.664,4.581,4.665,12.3a17.6,17.6,0,0,1-2.2,8.82,16.531,16.531,0,0,1-5,5.259,1.691,1.691,0,0,0-.763,2.12Zm-22.475-32.4a1.5,1.5,0,0,0,1.7,1.7h1.781a6.2,6.2,0,0,0,4.835-2.206,7.677,7.677,0,0,0,1.865-5.257,7.181,7.181,0,0,0-1.865-5.174,6.572,6.572,0,0,0-4.835-1.951h-1.781a1.5,1.5,0,0,0-1.7,1.7Z" transform="translate(-92.929 -353.826)"/><path class="a" d="M350.534,410.48a1.5,1.5,0,0,1-1.7,1.7h-7.973a1.5,1.5,0,0,1-1.7-1.7V356.2a1.5,1.5,0,0,1,1.7-1.7h7.973a1.5,1.5,0,0,1,1.7,1.7Z" transform="translate(-92.929 -353.826)"/><path class="a" d="M392.447,410.48a1.5,1.5,0,0,1-1.7,1.7h-7.972a1.587,1.587,0,0,1-1.612-1.1l-9.159-24.849q-1.443-4.073-2.332-3.9t-.891,4.494l.084,23.663a1.5,1.5,0,0,1-1.7,1.7h-6.955a1.5,1.5,0,0,1-1.7-1.7V356.2a1.5,1.5,0,0,1,1.7-1.7h7.8a1.592,1.592,0,0,1,1.612,1.1l9.245,24.766q1.527,4.071,2.417,3.9t.806-4.5l-.085-23.578a1.5,1.5,0,0,1,1.7-1.7h7.039a1.5,1.5,0,0,1,1.7,1.7Z" transform="translate(-92.929 -353.826)"/><path class="a" d="M435.734,409.717q.68,1.1.255,1.781a1.849,1.849,0,0,1-1.7.679h-9.16a1.473,1.473,0,0,1-1.442-.933l-8.735-17.217q-1.443-2.8-2.29-2.587t-.933,3.35l-.085,15.69a1.5,1.5,0,0,1-1.7,1.7h-7.973a1.5,1.5,0,0,1-1.7-1.7V356.2a1.5,1.5,0,0,1,1.7-1.7h7.973a1.5,1.5,0,0,1,1.7,1.7l.085,14.673q.084,3.14.933,3.308t2.29-2.544l8.312-16.2a1.469,1.469,0,0,1,1.441-.934h7.973a1.851,1.851,0,0,1,1.7.679q.423.68-.255,1.781l-12.892,24a1.478,1.478,0,0,0,0,1.526Z" transform="translate(-92.929 -353.826)"/><path class="a" d="M457.752,393.6a12.093,12.093,0,0,0-3.562-3.308l-8.4-6.022a20.554,20.554,0,0,1-6.276-6.53,16.607,16.607,0,0,1,2.628-19.507,16.486,16.486,0,0,1,11.79-4.41q7.377,0,11.534,4.41,4.24,4.5,4.241,12.128v1.018a.9.9,0,0,1-1.018,1.017h-8.566a1.049,1.049,0,0,1-1.188-1.187v-1.187A6.457,6.457,0,0,0,457.5,365.7a4.926,4.926,0,0,0-3.817-1.7,4.5,4.5,0,0,0-4.749,4.665,6.644,6.644,0,0,0,.847,3.562q.765,1.357,4.5,4.326l7.8,5.936a26.654,26.654,0,0,1,6.446,6.615,14.3,14.3,0,0,1,1.867,7.294,15.758,15.758,0,0,1-4.75,11.874,16.461,16.461,0,0,1-12.043,4.58,15.886,15.886,0,0,1-11.62-4.41,14.737,14.737,0,0,1-4.665-11.195v-1.527a1.35,1.35,0,0,1,1.527-1.527h8.141a.976.976,0,0,1,1.1,1.1v1.187a5.84,5.84,0,0,0,1.611,4.326,5.093,5.093,0,0,0,4.071,1.781,4.338,4.338,0,0,0,3.477-1.612A5.961,5.961,0,0,0,458.686,397,6.105,6.105,0,0,0,457.752,393.6Z" transform="translate(-92.929 -353.826)"/></svg>