<svg xmlns="http://www.w3.org/2000/svg" viewBox="0 0 566.929 97.335"><path d="M564.628,97.335H2.3a2.3,2.3,0,0,1-2.3-2.3V2.3A2.3,2.3,0,0,1,2.3,0H564.628a2.3,2.3,0,0,1,2.3,2.3V95.033A2.3,2.3,0,0,1,564.628,97.335ZM4.6,92.732H562.326V4.6H4.6Z"/><path d="M54.579,61.788A17.241,17.241,0,0,1,49,74.873a19.806,19.806,0,0,1-14.143,5.252H19.012a1.587,1.587,0,0,1-1.152-.506,1.687,1.687,0,0,1-.507-1.245V19.219a1.693,1.693,0,0,1,.507-1.246,1.586,1.586,0,0,1,1.152-.5H35.045A19.124,19.124,0,0,1,48.451,22.4a16.191,16.191,0,0,1,5.391,12.485,15.6,15.6,0,0,1-1.567,6.911,16.936,16.936,0,0,1-4.423,5.621.833.833,0,0,0,0,1.382,14.941,14.941,0,0,1,4.93,5.576A15.843,15.843,0,0,1,54.579,61.788ZM31.267,43.543H34.4a7.053,7.053,0,0,0,5.528-2.257,8.433,8.433,0,0,0,2.027-5.852,7.625,7.625,0,0,0-2.073-5.711A8.156,8.156,0,0,0,33.939,27.7H31.267a1.676,1.676,0,0,0-1.152.369A1.4,1.4,0,0,0,29.7,29.17v12.9a1.4,1.4,0,0,0,.414,1.1A1.662,1.662,0,0,0,31.267,43.543Zm0,26.262h2.949A8.018,8.018,0,0,0,40.2,67.456a8.264,8.264,0,0,0,2.3-6.037,7.846,7.846,0,0,0-2.212-5.8A8.093,8.093,0,0,0,34.308,53.4H31.267a1.676,1.676,0,0,0-1.152.368,1.409,1.409,0,0,0-.414,1.106V68.33a1.4,1.4,0,0,0,.414,1.106A1.666,1.666,0,0,0,31.267,69.805Z"/><path d="M79.919,70.081a5.388,5.388,0,0,0,4.468-2.027A8.491,8.491,0,0,0,86,62.617v-43.4a1.7,1.7,0,0,1,.506-1.246,1.59,1.59,0,0,1,1.152-.5H96.6a1.728,1.728,0,0,1,1.751,1.751v44.6q0,7.834-5.022,12.44T79.919,80.862q-8.109,0-13.223-4.7a15.979,15.979,0,0,1-5.114-12.348v-44.6a1.7,1.7,0,0,1,.507-1.246,1.586,1.586,0,0,1,1.152-.5h8.938a1.728,1.728,0,0,1,1.751,1.751v43.4a8.485,8.485,0,0,0,1.612,5.437A5.288,5.288,0,0,0,79.919,70.081Z"/><path d="M119.815,80.125h-9.03a1.587,1.587,0,0,1-1.152-.506,1.691,1.691,0,0,1-.507-1.245V19.219a1.7,1.7,0,0,1,.507-1.246,1.586,1.586,0,0,1,1.152-.5h15.2q9.673,0,14.972,4.744t5.3,13.5a19.554,19.554,0,0,1-1.889,8.846,17.8,17.8,0,0,1-6.036,6.635,1.623,1.623,0,0,0-.737.969,3.2,3.2,0,0,0,.277,1.519l9.4,24.05a1.674,1.674,0,0,1-.138,1.659,1.721,1.721,0,0,1-1.52.737h-9.676a1.7,1.7,0,0,1-.967-.277,1.557,1.557,0,0,1-.6-.921l-7.647-21.378a2.362,2.362,0,0,0-.507-.921,1.49,1.49,0,0,0-.875-.185h-2.58a1.616,1.616,0,0,0-1.06.232,1.242,1.242,0,0,0-.23.874V78.374a1.7,1.7,0,0,1-.507,1.245A1.594,1.594,0,0,1,119.815,80.125Zm3.225-35.108H125.8a7.213,7.213,0,0,0,5.666-2.441,9.163,9.163,0,0,0,2.166-6.313,8.59,8.59,0,0,0-2.12-6.126A7.463,7.463,0,0,0,125.8,27.88H123.04a1.553,1.553,0,0,0-1.152.414,1.693,1.693,0,0,0-.414,1.245V43.451a1.435,1.435,0,0,0,1.566,1.566Z"/><path d="M190.305,48.887V63.262a16.465,16.465,0,0,1-5.345,12.671,21.012,21.012,0,0,1-27.044,0,16.4,16.4,0,0,1-5.39-12.671V34.42a16.509,16.509,0,0,1,5.436-12.669,19.33,19.33,0,0,1,13.638-5.02q8.382,0,13.544,4.883t5.161,12.9a3.842,3.842,0,0,1-.415,2.027,1.469,1.469,0,0,1-1.336.645H179.8a1.527,1.527,0,0,1-1.152-.553,1.845,1.845,0,0,1-.507-1.29,8.541,8.541,0,0,0-1.8-5.711,6.01,6.01,0,0,0-4.836-2.119,6.523,6.523,0,0,0-4.654,1.888,6.169,6.169,0,0,0-1.981,4.652V63.539a6.2,6.2,0,0,0,1.935,4.7,6.563,6.563,0,0,0,4.7,1.843,6.788,6.788,0,0,0,4.882-1.751,6.289,6.289,0,0,0,1.843-4.791V58.563a1.628,1.628,0,0,0-.46-1.2,1.516,1.516,0,0,0-1.106-.461h-3.409a1.682,1.682,0,0,1-1.243-.506,1.577,1.577,0,0,1-.507-1.153V48.887a1.618,1.618,0,0,1,.553-1.242,1.739,1.739,0,0,1,1.2-.508h15.3a1.733,1.733,0,0,1,1.751,1.75Z"/><path d="M232.6,71.187v7.279a1.588,1.588,0,0,1-.506,1.153,1.7,1.7,0,0,1-1.244.506h-29.21a1.587,1.587,0,0,1-1.151-.506,1.687,1.687,0,0,1-.507-1.245V19.219a1.693,1.693,0,0,1,.507-1.246,1.586,1.586,0,0,1,1.151-.5h29.21a1.726,1.726,0,0,1,1.75,1.751V26.5a1.589,1.589,0,0,1-.506,1.151,1.69,1.69,0,0,1-1.244.508h-16.77a1.745,1.745,0,0,0-1.2.5,1.629,1.629,0,0,0-.553,1.245V41.424a1.909,1.909,0,0,0,1.751,1.75h7.371a1.733,1.733,0,0,1,1.751,1.751v7.187a1.589,1.589,0,0,1-.507,1.153,1.693,1.693,0,0,1-1.244.506h-7.371a1.749,1.749,0,0,0-1.2.508,1.623,1.623,0,0,0-.553,1.243V67.685a1.909,1.909,0,0,0,1.751,1.751h16.77a1.731,1.731,0,0,1,1.75,1.751Z"/><path d="M250.382,80.125h-9.031a1.591,1.591,0,0,1-1.152-.506,1.69,1.69,0,0,1-.506-1.245V19.219a1.7,1.7,0,0,1,.506-1.246,1.59,1.59,0,0,1,1.152-.5h15.2q9.675,0,14.973,4.744t5.3,13.5a19.541,19.541,0,0,1-1.889,8.846,17.8,17.8,0,0,1-6.035,6.635,1.619,1.619,0,0,0-.737.969,3.206,3.206,0,0,0,.276,1.519l9.4,24.05a1.674,1.674,0,0,1-.138,1.659,1.722,1.722,0,0,1-1.521.737h-9.675a1.7,1.7,0,0,1-.967-.277,1.557,1.557,0,0,1-.6-.921l-7.647-21.378a2.375,2.375,0,0,0-.507-.921,1.491,1.491,0,0,0-.876-.185h-2.58a1.61,1.61,0,0,0-1.059.232,1.241,1.241,0,0,0-.231.874V78.374a1.7,1.7,0,0,1-.507,1.245A1.592,1.592,0,0,1,250.382,80.125Zm3.225-35.108h2.764a7.213,7.213,0,0,0,5.666-2.441,9.163,9.163,0,0,0,2.165-6.313,8.59,8.59,0,0,0-2.119-6.126,7.464,7.464,0,0,0-5.712-2.257h-2.764a1.55,1.55,0,0,0-1.152.414,1.689,1.689,0,0,0-.415,1.245V43.451a1.436,1.436,0,0,0,1.567,1.566Z"/><path d="M378.917,63.567a15.543,15.543,0,0,1-5.376,12.084q-5.331,4.713-13.529,4.657t-13.1-4.876q-4.9-4.823-4.845-13.025l.007-1.1a1.622,1.622,0,0,1,.561-1.24,1.75,1.75,0,0,1,1.2-.5l8.109.053a1.591,1.591,0,0,1,1.148.515,1.693,1.693,0,0,1,.5,1.246l-.008,1.29a6.757,6.757,0,0,0,1.811,4.943,6.283,6.283,0,0,0,4.687,1.918,6.134,6.134,0,0,0,4.479-1.63,5.89,5.89,0,0,0,1.733-4.411,6.507,6.507,0,0,0-1.082-3.693,16.451,16.451,0,0,0-4.029-3.8l-8.711-6.6q-5.595-4.184-7.828-7.929a15.788,15.788,0,0,1-2.2-8.354,15.974,15.974,0,0,1,5.239-12.22,18.6,18.6,0,0,1,13.208-4.706q7.921.051,12.822,4.782t4.848,12.654L378.549,35a1.744,1.744,0,0,1-.514,1.2,1.623,1.623,0,0,1-1.248.544l-8.2-.053a1.585,1.585,0,0,1-1.148-.513,1.687,1.687,0,0,1-.5-1.248l.007-1.106a7.432,7.432,0,0,0-1.534-4.984,5.275,5.275,0,0,0-4.226-1.87,5.583,5.583,0,0,0-4.2,1.632,5.828,5.828,0,0,0-1.64,4.226,7.034,7.034,0,0,0,1.357,3.971,17.2,17.2,0,0,0,3.936,3.988l8.436,6.32a29.527,29.527,0,0,1,7.413,7.881A16.123,16.123,0,0,1,378.917,63.567Z"/><path d="M419.816,79.958,410.6,79.9a1.591,1.591,0,0,1-1.1-.421,1.638,1.638,0,0,1-.547-.972l-1.247-6.643a1.712,1.712,0,0,0-.5-1.109,1.683,1.683,0,0,0-1.149-.376l-10.043-.065a1.724,1.724,0,0,0-1.108.362,1.6,1.6,0,0,0-.56,1.1L393.012,78.4a2.064,2.064,0,0,1-.514,1.1,1.813,1.813,0,0,1-1.153.269l-8.662-.056a1.74,1.74,0,0,1-1.47-.608,1.769,1.769,0,0,1-.174-1.615l14.019-58.882a2.2,2.2,0,0,1,.652-1.056,1.474,1.474,0,0,1,1.016-.407l10.319.067a1.434,1.434,0,0,1,1.057.42,2.42,2.42,0,0,1,.592,1.065l12.794,59.147a1.805,1.805,0,0,1-.286,1.52A1.633,1.633,0,0,1,419.816,79.958ZM405.849,59.687l-4.171-24.538c-.062-.244-.123-.37-.182-.37s-.126.125-.187.367l-4.766,24.481a1.358,1.358,0,0,0,.223,1.107,1.212,1.212,0,0,0,.966.375l6.91.044a1.19,1.19,0,0,0,1.015-.362A1.511,1.511,0,0,0,405.849,59.687Z"/><path d="M444.393,70.073a5.393,5.393,0,0,0,4.481-2,8.484,8.484,0,0,0,1.647-5.426l.281-43.4a1.689,1.689,0,0,1,.515-1.241,1.591,1.591,0,0,1,1.155-.5l8.938.058a1.728,1.728,0,0,1,1.739,1.762l-.288,44.6q-.051,7.835-5.1,12.407t-13.436,4.52q-8.109-.052-13.192-4.784A15.98,15.98,0,0,1,426.1,63.688l.289-44.595a1.69,1.69,0,0,1,.515-1.242,1.584,1.584,0,0,1,1.155-.5l8.938.057a1.728,1.728,0,0,1,1.739,1.762l-.28,43.4a8.48,8.48,0,0,0,1.577,5.447A5.289,5.289,0,0,0,444.393,70.073Z"/><path d="M490.831,70.373a5.815,5.815,0,0,0,4.388-1.86,6.494,6.494,0,0,0,1.827-4.642l.01-1.567a1.963,1.963,0,0,1,.378-1.38,1.8,1.8,0,0,1,1.292-.36l8.754.057a1.733,1.733,0,0,1,1.739,1.762q-.055,8.664-5.065,13.744t-13.485,5.026a18.71,18.71,0,0,1-13.145-5.014A16.146,16.146,0,0,1,472.26,63.71l.189-29.117a16.745,16.745,0,0,1,5.334-12.68,18.644,18.644,0,0,1,13.393-4.889q8.106.053,13.19,4.969T509.4,34.832l-.006,1.013a1.744,1.744,0,0,1-.515,1.2,1.624,1.624,0,0,1-1.247.545l-8.754-.057a1.591,1.591,0,0,1-1.149-.513,1.686,1.686,0,0,1-.5-1.248l.009-1.383a6.419,6.419,0,0,0-1.766-4.756,6.069,6.069,0,0,0-4.457-1.824,5.832,5.832,0,0,0-4.435,1.814A6.553,6.553,0,0,0,484.8,34.3l-.191,29.578a6.3,6.3,0,0,0,1.767,4.666A6.063,6.063,0,0,0,490.831,70.373Z"/><path d="M549.24,71.856l-.047,7.28a1.589,1.589,0,0,1-.514,1.149,1.7,1.7,0,0,1-1.248.5l-29.208-.189a1.589,1.589,0,0,1-1.149-.513,1.685,1.685,0,0,1-.5-1.248l.382-59.155a1.693,1.693,0,0,1,.515-1.241,1.591,1.591,0,0,1,1.155-.5l29.209.189a1.73,1.73,0,0,1,1.739,1.762l-.047,7.28a1.589,1.589,0,0,1-.514,1.147,1.69,1.69,0,0,1-1.247.5L531,28.708a1.746,1.746,0,0,0-1.2.5,1.632,1.632,0,0,0-.561,1.242l-.074,11.516a1.909,1.909,0,0,0,1.739,1.762l7.371.047a1.733,1.733,0,0,1,1.739,1.763l-.046,7.187a1.586,1.586,0,0,1-.515,1.149,1.694,1.694,0,0,1-1.247.5l-7.37-.048a1.747,1.747,0,0,0-1.2.5,1.618,1.618,0,0,0-.561,1.239l-.079,12.163a1.909,1.909,0,0,0,1.739,1.762l16.77.108a1.733,1.733,0,0,1,1.739,1.762Z"/><path d="M313.563,76.546a1.424,1.424,0,0,1-.41,2.044A17.339,17.339,0,0,1,293.39,50.254a1.426,1.426,0,0,1,2.06.321Z"/><path d="M304.953,20.569a1.478,1.478,0,0,1,.539-2.149,14.122,14.122,0,0,1,16.139,22.935,1.478,1.478,0,0,1-2.2-.219Z"/><path d="M336.626,78.827h0a1.433,1.433,0,0,0,.353-2l-37.337-53.66a1.434,1.434,0,0,0-2-.353h0A11.978,11.978,0,0,0,294.694,39.5l25.251,36.374A11.978,11.978,0,0,0,336.626,78.827Z"/></svg>