<svg xmlns="http://www.w3.org/2000/svg" viewBox="0 0 151.111 105.036"><path d="M3.141,91.254A10.158,10.158,0,0,0,6.588,93.29a13.131,13.131,0,0,0,8.566-.025,9.664,9.664,0,0,0,3.395-2.09,9.793,9.793,0,0,0,2.219-3.267,10.862,10.862,0,0,0,.81-4.306v-.838a.7.7,0,0,0,0-.2.737.737,0,0,0-.836-.627H14.474a.811.811,0,0,0-.241,0,.876.876,0,0,0-.751.988v1a3.176,3.176,0,0,1-.7,2.037,2.778,2.778,0,0,1-.239.247A2.515,2.515,0,0,1,8.992,86a2.693,2.693,0,0,1-.784-1.983v-16.4a2.812,2.812,0,0,1,.73-1.985,2.528,2.528,0,0,1,1.931-.77,2.539,2.539,0,0,1,1.881.73,2.99,2.99,0,0,1,.73,2.035v.942a.866.866,0,0,0,0,.249.876.876,0,0,0,.992.742H20.74c.557,0,.837-.294.837-.888v-.835a11.129,11.129,0,0,0-.784-4.248A9.019,9.019,0,0,0,18.6,60.378a9.836,9.836,0,0,0-3.343-2.01,12.386,12.386,0,0,0-4.282-.705,12.685,12.685,0,0,0-4.283.705,10.562,10.562,0,0,0-3.476,2.01,9.4,9.4,0,0,0-2.35,3.188A10.133,10.133,0,0,0,0,67.847V83.828a10.312,10.312,0,0,0,.842,4.213A9.515,9.515,0,0,0,3.141,91.254Z"/><path d="M32.227,58.868a.925.925,0,0,0-1.045-.786h-6.11a.885.885,0,0,0-.262,0,.921.921,0,0,0-.782,1.045V92.542a.816.816,0,0,0,0,.261.923.923,0,0,0,1.044.784H42.411a.943.943,0,0,0,.26,0,.925.925,0,0,0,.784-1.045V87.477a.924.924,0,0,0-1.044-1.044h-9.14a1.148,1.148,0,0,1-.262,0,.922.922,0,0,1-.782-1.045V59.127A1.02,1.02,0,0,0,32.227,58.868Z"/><path d="M45.768,93.255a1.062,1.062,0,0,0,.861.339h6.013a.964.964,0,0,0,1.037-.888l.365-2.51v-.01a.967.967,0,0,1,1.045-.878h4.387a.673.673,0,0,1,.091-.006.9.9,0,0,1,.9.894l.418,2.51a.776.776,0,0,0,0,.095.9.9,0,0,0,.987.793H68.3a1,1,0,0,0,.837-.339,1.124,1.124,0,0,0,.156-.916L62.087,58.918v-.006a.914.914,0,0,0-.993-.83H54.143a.9.9,0,0,0-.991.782L45.579,92.339A1.059,1.059,0,0,0,45.768,93.255ZM56.392,76.411q.478-2.921.707-4.359c.152-.959.282-1.438.386-1.438a4.288,4.288,0,0,1,.313,1.462q.212,1.463.627,4.335L59.262,82c.1.8-.246,1.2-1.045,1.2H56.44q-1.149,0-.99-1.191Z"/><path d="M70.751,63.59a10.139,10.139,0,0,0-.836,4.206,9.258,9.258,0,0,0,1.514,5.248,14.792,14.792,0,0,0,3.918,3.941l5.065,3.553a12.139,12.139,0,0,1,1.7,1.489,2.89,2.89,0,0,1,.7,2.06,3.139,3.139,0,0,1-.626,1.906,2.013,2.013,0,0,1-1.722.864,2.771,2.771,0,0,1-2.168-.889,3.194,3.194,0,0,1-.81-2.244v-.888a.81.81,0,0,0,0-.22.787.787,0,0,0-.888-.668H70.908a.965.965,0,0,0-.263,0,.923.923,0,0,0-.782,1.045l0,1.044a9.981,9.981,0,0,0,.836,4.152,9.178,9.178,0,0,0,2.271,3.13,10.29,10.29,0,0,0,3.4,1.987,12.161,12.161,0,0,0,4.153.7,12.327,12.327,0,0,0,4.281-.732,10.117,10.117,0,0,0,3.422-2.062A9.761,9.761,0,0,0,90.488,88a10.282,10.282,0,0,0,.836-4.23,8.173,8.173,0,0,0-1.618-5.065A19.111,19.111,0,0,0,85.844,74.9l-4.8-3.605A8.805,8.805,0,0,1,78.794,69.1a3.357,3.357,0,0,1-.628-1.983,2.269,2.269,0,0,1,.68-1.672,2.575,2.575,0,0,1,1.722-.626,2.407,2.407,0,0,1,2.04.889,3.433,3.433,0,0,1,.677,2.139v.836a.764.764,0,0,0,0,.224.783.783,0,0,0,.889.664h5.953q.785,0,.784-.836V67.96a11.641,11.641,0,0,0-.732-4.231A9.128,9.128,0,0,0,84.851,58.4a11.557,11.557,0,0,0-4.229-.732,12.313,12.313,0,0,0-4.2.7A9.662,9.662,0,0,0,70.751,63.59Z"/><path d="M94.8,63.59a10.153,10.153,0,0,0-.834,4.206,9.235,9.235,0,0,0,1.514,5.248A14.77,14.77,0,0,0,99.4,76.985l5.067,3.553a12.312,12.312,0,0,1,1.7,1.489,2.9,2.9,0,0,1,.7,2.06,3.145,3.145,0,0,1-.626,1.906,2.015,2.015,0,0,1-1.724.864,2.776,2.776,0,0,1-2.167-.889,3.192,3.192,0,0,1-.811-2.244v-.888a.689.689,0,0,0,0-.222.784.784,0,0,0-.886-.666H94.958a.958.958,0,0,0-.262,0,.923.923,0,0,0-.782,1.045l0,1.042a9.979,9.979,0,0,0,.834,4.152,9.172,9.172,0,0,0,2.273,3.132,10.265,10.265,0,0,0,3.394,1.987,12.155,12.155,0,0,0,4.152.7,12.33,12.33,0,0,0,4.283-.732,10.113,10.113,0,0,0,3.421-2.062A9.676,9.676,0,0,0,114.54,88a10.282,10.282,0,0,0,.836-4.23,8.156,8.156,0,0,0-1.62-5.065,19.034,19.034,0,0,0-3.862-3.812l-4.8-3.605a8.757,8.757,0,0,1-2.246-2.194,3.328,3.328,0,0,1-.627-1.983,2.263,2.263,0,0,1,.678-1.672,2.577,2.577,0,0,1,1.724-.626,2.4,2.4,0,0,1,2.039.889,3.434,3.434,0,0,1,.678,2.139v.836a.689.689,0,0,0,0,.222.781.781,0,0,0,.886.666h5.955c.524,0,.782-.278.782-.836V67.96a11.618,11.618,0,0,0-.73-4.231A9.124,9.124,0,0,0,108.9,58.4a11.571,11.571,0,0,0-4.231-.732,12.312,12.312,0,0,0-4.2.7A9.658,9.658,0,0,0,94.8,63.59Z"/><path d="M118.929,58.082a.885.885,0,0,0-.262,0,.921.921,0,0,0-.782,1.045V92.55a.816.816,0,0,0,0,.261.924.924,0,0,0,1.044.784h6.11a1.139,1.139,0,0,0,.261,0,.923.923,0,0,0,.784-1.045V59.127a1.052,1.052,0,0,0,0-.263.924.924,0,0,0-1.045-.782Z"/><path d="M142.9,68.82a.879.879,0,0,0,.994.742h6.264q.84,0,.84-.888v-.835a11.048,11.048,0,0,0-.786-4.248,8.973,8.973,0,0,0-2.191-3.213,9.875,9.875,0,0,0-3.347-2.01,12.372,12.372,0,0,0-4.281-.705,12.669,12.669,0,0,0-4.281.705,10.547,10.547,0,0,0-3.475,2.01,9.4,9.4,0,0,0-2.354,3.188,10.192,10.192,0,0,0-.86,4.281V83.828a10.267,10.267,0,0,0,.831,4.223,9.5,9.5,0,0,0,2.3,3.213A10.1,10.1,0,0,0,136,93.3a13.128,13.128,0,0,0,8.565-.025,9.633,9.633,0,0,0,3.4-2.089,9.778,9.778,0,0,0,2.221-3.267,10.934,10.934,0,0,0,.811-4.306v-.838a.8.8,0,0,0,0-.207.744.744,0,0,0-.84-.628h-6.266a1.142,1.142,0,0,0-.248,0,.876.876,0,0,0-.743.991v.995a3.169,3.169,0,0,1-.707,2.035,2.178,2.178,0,0,1-.241.249,2.51,2.51,0,0,1-3.545-.2,2.679,2.679,0,0,1-.771-1.985v-16.4a2.665,2.665,0,0,1,4.542-2.035,3,3,0,0,1,.73,2.035v.942A1.037,1.037,0,0,0,142.9,68.82Z"/><path d="M73.167,27.071a10.748,10.748,0,0,0,.767-4.053,11.66,11.66,0,0,0-1.013-4.913,11.025,11.025,0,0,0-2.764-3.747,12.447,12.447,0,0,0-4.084-2.364,14.558,14.558,0,0,0-4.913-.829H50.106a1.086,1.086,0,0,0-1.228,1.228V51.7a1.085,1.085,0,0,0,1.228,1.228H61.038a14.759,14.759,0,0,0,5.128-.89,13.3,13.3,0,0,0,4.268-2.518,11.824,11.824,0,0,0,3.992-9,10.806,10.806,0,0,0-.891-4.33,9.654,9.654,0,0,0-2.61-3.531,1.341,1.341,0,0,1-.061-2.149A10.288,10.288,0,0,0,73.167,27.071ZM58.4,20.315A.977.977,0,0,1,59.5,19.21h1.1a4.24,4.24,0,0,1,3.132,1.105,4.236,4.236,0,0,1,1.1,3.132A4.947,4.947,0,0,1,63.8,26.61a3.611,3.611,0,0,1-3.01,1.321H59.625A1.086,1.086,0,0,1,58.4,26.7ZM64.016,43.5a4.332,4.332,0,0,1-3.285,1.32H59.564A1.031,1.031,0,0,1,58.4,43.652V36.835a1.032,1.032,0,0,1,1.167-1.167h1.167a4.32,4.32,0,0,1,4.544,4.545A4.576,4.576,0,0,1,64.016,43.5Z"/><path d="M98.6,11.165H78.46a1.086,1.086,0,0,0-1.228,1.228V51.7a1.085,1.085,0,0,0,1.228,1.228H98.6A1.085,1.085,0,0,0,99.832,51.7V45.74A1.086,1.086,0,0,0,98.6,44.512H88.1a1.085,1.085,0,0,1-1.228-1.228V37.265A1.085,1.085,0,0,1,88.1,36.037h4.115a1.086,1.086,0,0,0,1.228-1.228V28.852a1.086,1.086,0,0,0-1.228-1.228H88.1A1.085,1.085,0,0,1,86.874,26.4V20.868A1.085,1.085,0,0,1,88.1,19.64H98.6a1.086,1.086,0,0,0,1.228-1.228V12.393A1.086,1.086,0,0,0,98.6,11.165Z"/><path d="M123.819,11.165H103.676a1.085,1.085,0,0,0-1.228,1.228V51.7a1.084,1.084,0,0,0,1.228,1.228h20.143a1.085,1.085,0,0,0,1.228-1.228V45.74a1.086,1.086,0,0,0-1.228-1.228h-10.5a1.085,1.085,0,0,1-1.229-1.228V37.265a1.086,1.086,0,0,1,1.229-1.228h4.114a1.085,1.085,0,0,0,1.228-1.228V28.852a1.085,1.085,0,0,0-1.228-1.228h-4.114a1.086,1.086,0,0,1-1.229-1.229V20.868a1.085,1.085,0,0,1,1.229-1.228h10.5a1.086,1.086,0,0,0,1.228-1.228V12.393A1.086,1.086,0,0,0,123.819,11.165Z"/><path d="M149.526,11.165H128.891a1.086,1.086,0,0,0-1.228,1.228V51.7a1.085,1.085,0,0,0,1.228,1.228h7.186a1.085,1.085,0,0,0,1.228-1.228V37.265a1.086,1.086,0,0,1,1.228-1.228h6.019a1.086,1.086,0,0,0,1.228-1.228V28.852a1.086,1.086,0,0,0-1.228-1.228h-6.019a1.085,1.085,0,0,1-1.228-1.229V20.868a1.085,1.085,0,0,1,1.228-1.228h10.993a1.086,1.086,0,0,0,1.228-1.228V12.393A1.086,1.086,0,0,0,149.526,11.165Z"/><path d="M3.665,41.541a1.023,1.023,0,0,0,1.149.874H8.64a1.109,1.109,0,0,0,.282,0,1.022,1.022,0,0,0,.87-1.152V17.523a1,1,0,0,1,0-.278,1.02,1.02,0,0,1,1.149-.872h1.107a1.093,1.093,0,0,0,.28,0,1.019,1.019,0,0,0,.87-1.15V12.229a.877.877,0,0,0,0-.28,1.022,1.022,0,0,0-1.15-.872H1.406a.939.939,0,0,0-.28,0,1.02,1.02,0,0,0-.872,1.152v2.994a1.093,1.093,0,0,0,0,.28,1.022,1.022,0,0,0,1.152.872H2.513a1.093,1.093,0,0,1,.28,0h0a1.021,1.021,0,0,1,.87,1.152V41.263A1,1,0,0,0,3.665,41.541Z"/><path d="M20.288,11.959a1.021,1.021,0,0,0-1.152-.87H15.317a.939.939,0,0,0-.28,0,1.023,1.023,0,0,0-.872,1.152V41.263a1.093,1.093,0,0,0,0,.28,1.022,1.022,0,0,0,1.152.872H19.14a1.109,1.109,0,0,0,.282,0,1.022,1.022,0,0,0,.87-1.152V30.116a.943.943,0,0,1,.278-.693.983.983,0,0,1,.737-.275h.053a.942.942,0,0,1,.913.968V41.263a1.093,1.093,0,0,0,0,.28,1.023,1.023,0,0,0,1.152.872h3.821a1.109,1.109,0,0,0,.282,0,1.022,1.022,0,0,0,.87-1.152l0-29.014a.889.889,0,0,0,0-.282,1.022,1.022,0,0,0-1.152-.87H23.427a.939.939,0,0,0-.28,0h0a1.023,1.023,0,0,0-.87,1.152V22.89a1,1,0,0,1-.275.737.951.951,0,0,1-.691.276,1.009,1.009,0,0,1-.269,0,.9.9,0,0,1-.752-1.021V12.241A1.109,1.109,0,0,0,20.288,11.959Z"/><path d="M36.132,17.257a1.022,1.022,0,0,1,1.152-.87h2.579a1.109,1.109,0,0,0,.282,0,1.02,1.02,0,0,0,.87-1.152V12.241a1.109,1.109,0,0,0,0-.282,1.021,1.021,0,0,0-1.152-.87H31.157a.939.939,0,0,0-.28,0,1.022,1.022,0,0,0-.872,1.152V41.263a1.093,1.093,0,0,0,0,.28,1.022,1.022,0,0,0,1.152.872h8.706a1.109,1.109,0,0,0,.282,0,1.02,1.02,0,0,0,.87-1.152V38.257a1.109,1.109,0,0,0,0-.282,1.021,1.021,0,0,0-1.152-.87H37.284a1.093,1.093,0,0,1-.28,0,1.022,1.022,0,0,1-.872-1.152V30.344a1.086,1.086,0,0,1,0-.279,1.021,1.021,0,0,1,1.152-.87h1.105a1.109,1.109,0,0,0,.282,0,1.023,1.023,0,0,0,.87-1.152V25.094a1.109,1.109,0,0,0,0-.282,1.02,1.02,0,0,0-1.152-.87H37.284a1.093,1.093,0,0,1-.28,0,1.021,1.021,0,0,1-.872-1.152V17.537A1.093,1.093,0,0,1,36.132,17.257Z"/><path d="M.253,51.873c-.045.509.47.95,1.152.989H39.87c.684-.039,1.2-.48,1.152-.989V48.351c.047-.509-.468-.953-1.152-.991H1.405c-.684.039-1.2.482-1.152.991Z"/><path d="M150.07.008,1.291.013A.985.985,0,0,0,.249.951V4.286a.987.987,0,0,0,1.042.936H150.07a.985.985,0,0,0,1.041-.936V.945A.983.983,0,0,0,150.07.008Z"/><path d="M150.07,99.814,1.291,99.82a.985.985,0,0,0-1.042.938v3.335a.987.987,0,0,0,1.042.936H150.07a.985.985,0,0,0,1.041-.936v-3.341A.984.984,0,0,0,150.07,99.814Z"/></svg>