<svg xmlns="http://www.w3.org/2000/svg" viewBox="0 0 73.018 79.694"><defs><style>.a{fill:#00ccbc;fill-rule:evenodd;}</style></defs><path class="a" d="M52.65,0,48.906,35.142,42.516,5.514,22.49,9.714l6.384,29.625L0,45.39,5.1,69.054l50.777,10.64L67.49,53.98,73.018,2.113ZM36.607,50.98c-1.048.946-2.433.86-3.9.377s-2.118-2.23-1.564-4.343c.414-1.57,2.363-1.8,3.337-1.82a2.5,2.5,0,0,1,1.07.216c.69.308,1.856.964,2.093,1.965a3.458,3.458,0,0,1-1.035,3.6h0v0Zm14.7,1.63c-.76,1.3-2.758,1.476-4.722.528-1.324-.64-1.314-2.268-1.17-3.26a3.063,3.063,0,0,1,.642-1.482,3.241,3.241,0,0,1,2.175-1.385,3.828,3.828,0,0,1,3.482,1.8c.724,1.184.362,2.49-.4,3.8h-.007Z" transform="translate(0 0)"/></svg>