<svg xmlns="http://www.w3.org/2000/svg" viewBox="0 0 299.934 79.694"><defs><style>.a{fill:#00ccbc;fill-rule:evenodd;}</style></defs><path class="a" d="M109.547,59.7h6.837l-1.132-5.26V23.082h-6.54v14.3a10.2,10.2,0,0,0-7.87-3.587c-6.543,0-11.608,5.356-11.608,13.22s5.065,13.22,11.607,13.22a10.24,10.24,0,0,0,8.02-3.735l.687,3.2Zm129.3-18.87a6.269,6.269,0,0,1,3.687,1.127l3.1-6.928a8.972,8.972,0,0,0-4.723-1.278,7.983,7.983,0,0,0-6.982,3.784l-.69-3.2H226.5l1.083,4.964V59.693h6.538V43.525a5.115,5.115,0,0,1,4.723-2.7v0h0Zm19.178,12.58c-3.784,0-6.59-2.507-6.59-6.39,0-3.932,2.806-6.388,6.59-6.388,3.838,0,6.593,2.456,6.593,6.387,0,3.884-2.754,6.39-6.59,6.39h0Zm-162.45-6.39c0-3.932,2.8-6.388,6.59-6.388,3.838,0,6.59,2.456,6.59,6.387,0,3.884-2.752,6.39-6.588,6.39-3.787,0-6.592-2.506-6.592-6.39ZM287,53.406c-3.786,0-6.59-2.507-6.59-6.39,0-3.932,2.8-6.388,6.59-6.388,3.836,0,6.59,2.456,6.59,6.387,0,3.884-2.754,6.39-6.59,6.39ZM132.27,40.233c3.394,0,5.608,1.572,6.3,4.472h-12.59c.738-2.9,2.95-4.472,6.294-4.472Zm78.25,0c3.394,0,5.608,1.572,6.3,4.472h-12.59c.738-2.9,2.95-4.472,6.294-4.472ZM178.6,59.7h10.525l6.838-25.36h-7.132L183.817,54.88,178.8,34.336h-7.036L178.6,59.7Zm-16.87,0h6.538V34.336H161.73Zm-28.46.47a19.053,19.053,0,0,0,10.232-2.9L141,51.664a16.6,16.6,0,0,1-7.624,1.966c-3.44,0-5.85-1.327-6.885-3.785h18.393a14.048,14.048,0,0,0,.3-3c0-7.863-5.46-13.122-12.788-13.122-7.376,0-12.786,5.308-12.786,13.22,0,8.06,5.36,13.22,13.673,13.22h0Zm166.664-13.15c0-7.864-5.51-13.22-12.935-13.22s-12.937,5.356-12.937,13.22S279.57,60.236,287,60.236s12.935-5.356,12.935-13.22ZM211.4,60.236a19.062,19.062,0,0,0,10.232-2.9l-2.51-5.6A16.58,16.58,0,0,1,211.5,53.7c-3.44,0-5.85-1.325-6.884-3.784h18.4a14.06,14.06,0,0,0,.294-3c0-7.864-5.46-13.122-12.788-13.122-7.376,0-12.786,5.306-12.786,13.22,0,8.06,5.362,13.22,13.674,13.22v0Zm46.625,0c7.427,0,12.933-5.356,12.933-13.22S265.455,33.8,258.027,33.8s-12.935,5.356-12.935,13.22,5.508,13.22,12.934,13.22h0ZM149.335,59.7h6.54V23.08h-6.54V59.7Zm15.688-28.852a4.129,4.129,0,1,0-4.131-4.129,4.023,4.023,0,0,0,4.131,4.129h0ZM52.65,0,48.906,35.142,42.516,5.514,22.49,9.714l6.384,29.625L0,45.39,5.1,69.054l50.777,10.64L67.49,53.98,73.018,2.113ZM36.607,50.98c-1.048.946-2.433.86-3.9.377s-2.118-2.23-1.564-4.343c.414-1.57,2.363-1.8,3.337-1.82a2.5,2.5,0,0,1,1.07.216c.69.308,1.856.964,2.093,1.965a3.458,3.458,0,0,1-1.035,3.6h0v0Zm14.7,1.63c-.76,1.3-2.758,1.476-4.722.528-1.324-.64-1.314-2.268-1.17-3.26a3.063,3.063,0,0,1,.642-1.482,3.241,3.241,0,0,1,2.175-1.385,3.828,3.828,0,0,1,3.482,1.8c.724,1.184.362,2.49-.4,3.8h-.007Z" transform="translate(0 0)"/></svg>