<svg xmlns="http://www.w3.org/2000/svg" viewBox="0 0 620.968 252.745"><defs><style>.a{isolation:isolate;}</style></defs><polygon points="31.238 152.033 31.238 137.471 12.984 137.471 12.984 131.549 27.963 131.549 27.963 121.099 12.984 121.099 12.984 114.758 31.238 114.758 31.238 100.197 1.07 100.197 1.07 152.033 1.209 152.033 31.238 152.033"/><polygon points="69.486 136.426 46.634 136.426 46.634 100.197 34.72 100.197 34.72 152.033 69.486 152.033 69.486 136.426"/><rect y="160.471" width="71.463" height="15.626"/><path d="M277.526,279.977a22.734,22.734,0,0,0,1.685-9.192v-26.81a10.925,10.925,0,0,0-1.149-5.209,9.959,9.959,0,0,0-3.14-3.524,16.694,16.694,0,0,0-6.052-2.6,53.692,53.692,0,0,0-7.124-1.073,69.21,69.21,0,0,0-7.2-.229q-3.526.078-5.975.076a9.2,9.2,0,0,1-5.439-1.379,11.182,11.182,0,0,1-2.987-3.064,8.353,8.353,0,0,1-1.3-3.14c-.153-.97-.23-1.556-.23-1.762V208.888q0-4.9,1.685-7.431t6.281-2.528q4.9,0,6.435,2.451t1.532,7.508v12.26h22.061V198.014a31.36,31.36,0,0,0-1.226-9.192,12.581,12.581,0,0,0-4.825-6.588,25.812,25.812,0,0,0-9.882-3.906,83.712,83.712,0,0,0-16.392-1.3,71.364,71.364,0,0,0-15.321,1.379A28.987,28.987,0,0,0,219,182.391a14.484,14.484,0,0,0-5.438,6.511,23.82,23.82,0,0,0-1.608,9.115v28.036a23.864,23.864,0,0,0,1.378,8.426q2.143,5.516,8.426,8.35t18.384,3.293h4.98q1.608,0,3.063-.076c.972-.052,1.71-.077,2.222-.077a15.736,15.736,0,0,1,3.83.46,5.68,5.68,0,0,1,2.91,1.915,4.994,4.994,0,0,1,.766,2.834v7.507a4.284,4.284,0,0,1-2.544,4.06q-2.546,1.3-9.175,1.3-6.786,0-9.255-1.3a4.3,4.3,0,0,1-2.466-4.06v-4.6h-22.52v16.7a23.26,23.26,0,0,0,1.608,9.039,13.559,13.559,0,0,0,5.516,6.281,30.138,30.138,0,0,0,10.417,3.677,89.216,89.216,0,0,0,16.163,1.225,92.585,92.585,0,0,0,15.933-1.149,29.092,29.092,0,0,0,10.341-3.6A14.033,14.033,0,0,0,277.526,279.977Z" transform="translate(-129.03 -94.799)"/><path d="M294.224,282.964a24.317,24.317,0,0,0,10.5,6.052,56.628,56.628,0,0,0,16.316,1.991,58.062,58.062,0,0,0,16.163-1.915,24.329,24.329,0,0,0,10.57-5.974,22.566,22.566,0,0,0,5.746-10.342,58.577,58.577,0,0,0,1.685-15.013V185.452H331.146q-.155,19.3-.153,34.47V254.7q0,4.136-2.451,6.128a8.227,8.227,0,0,1-5.286,1.991,7.963,7.963,0,0,1-7.895-8.032c0-.081,0-.161.006-.241v-77.52h-28.5v80.738a57.665,57.665,0,0,0,1.685,14.86A22.871,22.871,0,0,0,294.224,282.964Z" transform="translate(-129.03 -94.799)"/><path d="M429.959,241.447a27,27,0,0,0,1.685-10.035v-31.1a35.919,35.919,0,0,0-1.3-10.188,14.336,14.336,0,0,0-4.979-7.277,25.253,25.253,0,0,0-10.264-4.366,82.185,82.185,0,0,0-17.16-1.456H362.857V291.007h26.2V253.473q1.989.154,4.213.23t4.672.076a83.183,83.183,0,0,0,16.01-1.3,27.221,27.221,0,0,0,10.418-4.059A15.439,15.439,0,0,0,429.959,241.447Zm-26.044-17.542q0,4.905-2.146,7.124t-7.66,2.222a15.644,15.644,0,0,1-5.055-.613V202a12.131,12.131,0,0,1,5.055-.765q6.126,0,7.967,2.451t1.839,7.2Z" transform="translate(-129.03 -94.799)"/><path d="M465.5,257.3h12.1a2.761,2.761,0,0,1,2.145,1.073,5.3,5.3,0,0,1,1.532,4.136l-.306,28.5h26.2l.46-28.189a25.079,25.079,0,0,0-1.456-9.268,18.271,18.271,0,0,0-3.677-5.9,19.74,19.74,0,0,0-4.979-3.753q-2.757-1.455-5.362-3.141,2.6-.763,5.516-1.685a18.893,18.893,0,0,0,5.285-2.6,13.235,13.235,0,0,0,3.906-4.443,14.76,14.76,0,0,0,1.531-7.2V197.555a28.209,28.209,0,0,0-1.3-9.039,12.552,12.552,0,0,0-4.98-6.358,27.722,27.722,0,0,0-10.265-3.83,91.757,91.757,0,0,0-17.159-1.3H439.3V285.339h26.2Zm0-58.37a17.281,17.281,0,0,1,5.209-.613q6.279,0,8.12,2.069t1.838,6.511v11.337q0,4.446-2.145,6.358t-7.813,1.915a17.182,17.182,0,0,1-5.209-.613Z" transform="translate(-129.03 -94.799)"/><polygon points="453.362 196.208 453.362 164.189 413.223 164.189 413.223 151.167 446.162 151.167 446.162 128.187 413.223 128.187 413.223 114.245 453.362 114.245 453.362 82.226 387.026 82.226 387.026 196.208 387.333 196.208 453.362 196.208"/><polygon points="516.786 187.476 530.879 118.075 530.879 196.208 553.707 196.208 553.707 82.226 519.39 82.226 508.972 143.047 498.095 82.226 461.02 82.226 461.02 196.208 487.217 196.208 487.217 115.011 501.312 187.476 516.786 187.476"/><rect x="561.367" y="172.768" width="59.596" height="23.44"/><path d="M748.843,191.274a16.23,16.23,0,0,0-4.443-7.967,20.1,20.1,0,0,0-9.117-4.749,61.5,61.5,0,0,0-15.167-1.533,52.461,52.461,0,0,0-14.093,1.609,21.849,21.849,0,0,0-9.117,4.826,18.415,18.415,0,0,0-4.978,7.966,35.952,35.952,0,0,0-1.533,11.031v33.7a35.424,35.424,0,0,0,1.455,10.8,16.365,16.365,0,0,0,4.9,7.507,22.064,22.064,0,0,0,9.116,4.443,58.409,58.409,0,0,0,14.248,1.455,61.81,61.81,0,0,0,14.172-1.379,21.424,21.424,0,0,0,9.19-4.366,16.913,16.913,0,0,0,4.98-7.507,34.364,34.364,0,0,0,1.532-10.954v-33.7A48.05,48.05,0,0,0,748.843,191.274Zm-14.631,33.244q0,4.6-2.682,6.664t-9.728,2.069q-7.2,0-9.882-2.145t-2.681-6.588v-11.95q0-4.442,2.681-6.741t9.882-2.3q7.813,0,10.111,2.222t2.3,6.817Z" transform="translate(-129.03 -94.799)"/><path d="M295.946,315.874a8.42,8.42,0,0,0-3.728-1.933,24.6,24.6,0,0,0-6.213-.645,21.512,21.512,0,0,0-5.8.668,8.983,8.983,0,0,0-3.751,1.978,7.5,7.5,0,0,0-2.023,3.246,14.745,14.745,0,0,0-.621,4.51V337.55a14.785,14.785,0,0,0,.6,4.464,6.69,6.69,0,0,0,2,3.107,9.028,9.028,0,0,0,3.751,1.818,24.076,24.076,0,0,0,5.844.6,24.8,24.8,0,0,0,5.8-.575,9.028,9.028,0,0,0,3.774-1.8,6.8,6.8,0,0,0,2.047-3.107,14.467,14.467,0,0,0,.622-4.51v-2.989h-6.49a3.857,3.857,0,0,1-1.151,3.037q-1.1.924-3.957.921-2.9,0-4-.99a4.1,4.1,0,0,1-1.1-3.2v-6.9a4.4,4.4,0,0,1,1.128-3.245q1.126-1.126,3.981-1.127a10.021,10.021,0,0,1,2.6.276,3.439,3.439,0,0,1,1.541.828,2.889,2.889,0,0,1,.76,1.358,7.724,7.724,0,0,1,.207,1.91v4h6.489V323.7a19.223,19.223,0,0,0-.483-4.579A6.614,6.614,0,0,0,295.946,315.874Z" transform="translate(-129.03 -94.799)"/><polygon points="188.04 235.479 181.367 235.479 181.367 218.497 172.438 218.497 172.438 252.736 181.367 252.736 181.367 245.281 188.04 245.281 188.04 252.736 194.896 252.736 194.896 218.497 188.04 218.497 188.04 235.479"/><polygon points="198.118 225.4 202.674 225.4 202.674 243.9 198.118 243.9 198.118 252.736 215.099 252.736 215.099 243.9 210.543 243.9 210.543 225.4 215.099 225.4 215.099 218.497 198.118 218.497 198.118 225.4"/><path d="M369.44,315.874a8.42,8.42,0,0,0-3.728-1.933,24.558,24.558,0,0,0-6.213-.645,21.516,21.516,0,0,0-5.8.668,9,9,0,0,0-3.751,1.978,7.5,7.5,0,0,0-2.023,3.246,14.745,14.745,0,0,0-.621,4.51V337.55a14.785,14.785,0,0,0,.6,4.464,6.69,6.69,0,0,0,2,3.107,9.028,9.028,0,0,0,3.751,1.818,24.076,24.076,0,0,0,5.844.6,24.8,24.8,0,0,0,5.8-.575,9.018,9.018,0,0,0,3.773-1.8,6.79,6.79,0,0,0,2.048-3.107,14.466,14.466,0,0,0,.621-4.51v-2.989h-6.489A3.857,3.857,0,0,1,364.1,337.6q-1.1.924-3.957.921-2.9,0-4-.99a4.1,4.1,0,0,1-1.1-3.2v-6.9a4.4,4.4,0,0,1,1.127-3.245q1.127-1.126,3.982-1.127a10.013,10.013,0,0,1,2.6.276,3.448,3.448,0,0,1,1.542.828,2.9,2.9,0,0,1,.759,1.358,7.724,7.724,0,0,1,.207,1.91v4h6.489V323.7a19.223,19.223,0,0,0-.483-4.579A6.62,6.62,0,0,0,369.44,315.874Z" transform="translate(-129.03 -94.799)"/><path d="M396.914,330.853a5.683,5.683,0,0,0-2.945-2.186,4.858,4.858,0,0,1,1.012-.621,4.841,4.841,0,0,0,1.035-.644,3.255,3.255,0,0,0,.829-1.059,5.52,5.52,0,0,0,.482-1.863l1.06-11.184h-8.514l-.967,9.435a8.006,8.006,0,0,1-1.288,3.888,3.088,3.088,0,0,1-2.531,1.128,2.64,2.64,0,0,1-1.427-.369V313.3h-8.7v34.24h8.7V333.177a3.166,3.166,0,0,1,1.656-.368,3.565,3.565,0,0,1,2.923,1.266,6.514,6.514,0,0,1,1.034,4.118l.323,9.343h9.158l-.966-13.07A6.763,6.763,0,0,0,396.914,330.853Z" transform="translate(-129.03 -94.799)"/><polygon points="272.946 252.736 273.038 252.736 292.873 252.736 292.873 243.118 280.815 243.118 280.815 239.206 290.709 239.206 290.709 232.303 280.815 232.303 280.815 228.115 292.873 228.115 292.873 218.497 272.946 218.497 272.946 252.736"/><polygon points="310.59 237.412 307.231 218.497 296.093 218.497 296.093 252.736 303.963 252.736 303.963 228.392 308.704 252.736 317.493 252.736 317.493 218.497 310.59 218.497 310.59 237.412"/><path d="M482.408,328.667a4.289,4.289,0,0,0,1.341-1.748,6.4,6.4,0,0,0,.417-2.439v-5.2a8.353,8.353,0,0,0-.367-2.623,3.765,3.765,0,0,0-1.409-1.864,7.321,7.321,0,0,0-2.9-1.127,26.078,26.078,0,0,0-4.865-.369H461.249v7.916h2.117V340.68h-2.117v6.857h13.76a29.51,29.51,0,0,0,5.661-.437,8.82,8.82,0,0,0,3.382-1.312,4.36,4.36,0,0,0,1.657-2.186,9.731,9.731,0,0,0,.437-3.06v-6.075a6.95,6.95,0,0,0-.843-3.613A5.511,5.511,0,0,0,482.408,328.667Zm-10.345-8.974a4.359,4.359,0,0,1,1.427-.184,3.018,3.018,0,0,1,2.278.621,2.822,2.822,0,0,1,.53,1.864v3.314a2.5,2.5,0,0,1-.6,1.863,3.2,3.2,0,0,1-2.209.576,6.017,6.017,0,0,1-.8-.046,3.291,3.291,0,0,1-.622-.138Zm4.925,19.007a2.686,2.686,0,0,1-.621,1.932,3.806,3.806,0,0,1-2.646.645,5.226,5.226,0,0,1-1.658-.23v-8.1a7.814,7.814,0,0,1,1.658-.138,4.208,4.208,0,0,1,2.553.575,2.262,2.262,0,0,1,.714,1.864Z" transform="translate(-129.03 -94.799)"/><path d="M502.621,326.182v10.447a2.238,2.238,0,0,1-.736,1.841,2.473,2.473,0,0,1-1.589.6,2.391,2.391,0,0,1-2.371-2.412c0-.024,0-.048,0-.073V313.3h-8.56v24.253a17.385,17.385,0,0,0,.506,4.464,6.876,6.876,0,0,0,1.7,3.107,7.322,7.322,0,0,0,3.152,1.818,17.035,17.035,0,0,0,4.9.6,17.47,17.47,0,0,0,4.855-.575,7.306,7.306,0,0,0,3.175-1.8,6.767,6.767,0,0,0,1.726-3.107,17.478,17.478,0,0,0,.506-4.51V315.828h-7.225Q502.621,321.627,502.621,326.182Z" transform="translate(-129.03 -94.799)"/><path d="M531.981,314.838a8.353,8.353,0,0,0-3.083-1.15,27.557,27.557,0,0,0-5.154-.392H513.113v32.537h7.868v-8.422h3.635a.837.837,0,0,1,.646.322,1.6,1.6,0,0,1,.46,1.243l-.092,8.56H533.5l.139-8.468a7.539,7.539,0,0,0-.438-2.784,5.5,5.5,0,0,0-1.1-1.772,5.991,5.991,0,0,0-1.5-1.128q-.828-.437-1.611-.943c.522-.153,1.073-.322,1.657-.506a5.659,5.659,0,0,0,1.587-.783,3.971,3.971,0,0,0,1.174-1.334,4.446,4.446,0,0,0,.46-2.163v-8.192a8.5,8.5,0,0,0-.391-2.715A3.766,3.766,0,0,0,531.981,314.838Zm-6.443,10.838a2.442,2.442,0,0,1-.645,1.91,3.576,3.576,0,0,1-2.346.575,5.177,5.177,0,0,1-1.566-.184v-8.1a5.178,5.178,0,0,1,1.566-.185,3.351,3.351,0,0,1,2.438.622,2.89,2.89,0,0,1,.553,1.956Z" transform="translate(-129.03 -94.799)"/><path d="M558.856,315.667a9.033,9.033,0,0,0-3.773-1.795,24.8,24.8,0,0,0-5.8-.576,24.134,24.134,0,0,0-5.845.6,9.047,9.047,0,0,0-3.75,1.817,6.7,6.7,0,0,0-2,3.107,14.785,14.785,0,0,0-.6,4.464v13.852a14.741,14.741,0,0,0,.621,4.51,7.475,7.475,0,0,0,2.025,3.245,8.986,8.986,0,0,0,3.75,1.978,21.432,21.432,0,0,0,5.8.668,24.513,24.513,0,0,0,6.213-.645,8.4,8.4,0,0,0,3.727-1.932,6.609,6.609,0,0,0,1.819-3.245,19.372,19.372,0,0,0,.482-4.579v-8.648H548.686v7.456h6.351a7.037,7.037,0,0,1-.276,1.748,2.785,2.785,0,0,1-.783,1.243,3.537,3.537,0,0,1-1.542.759,10.319,10.319,0,0,1-2.507.253q-2.856,0-3.982-1.1a4.367,4.367,0,0,1-1.127-3.268v-9.066a4.1,4.1,0,0,1,1.1-3.2q1.1-.987,4-.99,2.852,0,3.958.921a3.866,3.866,0,0,1,1.151,3.037h6.487v-2.993a14.5,14.5,0,0,0-.62-4.51A6.786,6.786,0,0,0,558.856,315.667Z" transform="translate(-129.03 -94.799)"/><polygon points="435.717 252.736 435.809 252.736 455.644 252.736 455.644 243.118 443.586 243.118 443.586 239.206 453.481 239.206 453.481 232.303 443.586 232.303 443.586 228.115 455.644 228.115 455.644 218.497 435.717 218.497 435.717 252.736"/><path d="M606.763,314.838a8.353,8.353,0,0,0-3.083-1.15,27.574,27.574,0,0,0-5.155-.392H587.894v32.537h7.87v-8.422H599.4a.836.836,0,0,1,.645.322,1.594,1.594,0,0,1,.46,1.243l-.092,8.56h7.869l.139-8.468a7.539,7.539,0,0,0-.438-2.784,5.5,5.5,0,0,0-1.1-1.772,5.991,5.991,0,0,0-1.5-1.128q-.831-.437-1.612-.943.783-.228,1.658-.506a5.659,5.659,0,0,0,1.587-.783,3.957,3.957,0,0,0,1.173-1.334,4.446,4.446,0,0,0,.46-2.163v-8.192a8.528,8.528,0,0,0-.39-2.715A3.776,3.776,0,0,0,606.763,314.838Zm-6.443,10.838a2.457,2.457,0,0,1-.644,1.91,3.582,3.582,0,0,1-2.347.575,5.167,5.167,0,0,1-1.565-.184v-8.1a5.168,5.168,0,0,1,1.565-.185,3.353,3.353,0,0,1,2.438.622,2.9,2.9,0,0,1,.553,1.956Z" transform="translate(-129.03 -94.799)"/><polygon class="a" points="10.542 218.941 10.528 218.929 8.018 221.57 5.568 224.146 2.967 226.884 10.921 234.444 10.933 234.432 10.947 234.444 10.99 234.399 13.549 231.708 15.998 229.131 18.507 226.49 10.601 218.974 10.554 218.929 10.542 218.941"/><polygon class="a" points="51.404 218.929 48.893 221.57 46.444 224.146 43.843 226.884 51.797 234.444 51.84 234.399 51.888 234.444 54.49 231.708 56.939 229.131 59.449 226.49 51.495 218.929 51.452 218.974 51.404 218.929"/><polygon class="a" points="27.909 221.57 25.46 224.146 22.858 226.884 30.813 234.444 30.856 234.399 33.415 231.708 35.864 229.131 38.373 226.49 30.467 218.974 30.42 218.929 27.909 221.57"/><polygon class="a" points="92.06 234.399 94.619 231.708 97.068 229.131 99.578 226.49 91.672 218.974 91.624 218.929 89.114 221.57 86.664 224.146 84.063 226.884 92.017 234.444 92.06 234.399"/><polygon class="a" points="113.483 218.929 110.972 221.57 108.523 224.146 105.921 226.884 113.876 234.444 113.919 234.399 116.478 231.708 118.927 229.131 121.436 226.49 113.531 218.974 113.483 218.929"/><polygon class="a" points="66.629 224.146 64.028 226.884 71.982 234.444 72.026 234.399 72.073 234.444 74.676 231.708 77.125 229.131 79.635 226.49 71.681 218.929 71.637 218.974 71.589 218.929 69.079 221.57 66.629 224.146"/><polygon class="a" points="102.834 229.15 102.829 229.155 97.328 234.655 92.178 239.805 92.173 239.8 87.361 234.988 82.114 229.742 82.109 229.746 77.038 234.819 72.051 239.805 72.046 239.8 67.071 234.824 61.989 229.742 61.984 229.746 56.748 234.983 51.926 239.805 51.921 239.8 46.781 234.66 41.271 229.15 41.267 229.155 35.866 234.555 30.615 239.805 30.611 239.8 25.899 235.088 20.554 229.742 20.549 229.747 15.576 234.719 10.524 239.771 5.315 234.561 0.303 229.549 0.303 240.204 5.197 245.098 5.162 245.133 10.486 250.456 10.49 250.46 21.14 239.81 21.145 239.805 31.203 249.864 31.208 249.868 41.267 239.81 41.271 239.805 51.333 249.868 51.921 250.455 51.926 250.46 61.984 240.402 61.989 240.397 72.046 250.455 72.051 250.46 82.109 240.402 82.114 240.397 92.173 250.455 92.178 250.46 92.77 249.868 102.829 239.81 102.834 239.805 112.891 249.864 112.895 249.868 118.223 244.541 108.244 234.561 102.834 229.15"/><polygon class="a" points="609.444 234.399 609.487 234.444 609.5 234.432 609.513 234.444 617.467 226.884 614.865 224.146 612.416 221.57 609.906 218.929 609.892 218.941 609.88 218.929 609.832 218.974 601.926 226.49 604.436 229.131 606.885 231.708 609.444 234.399"/><polygon class="a" points="620.529 229.15 615.119 234.561 609.909 239.771 604.858 234.719 599.885 229.747 599.88 229.742 594.534 235.088 589.823 239.8 589.818 239.805 584.567 234.555 579.167 229.155 579.162 229.15 573.653 234.66 568.513 239.8 568.508 239.805 563.686 234.983 558.449 229.746 558.445 229.742 553.362 234.824 548.387 239.8 548.383 239.805 543.396 234.819 538.324 229.746 538.319 229.742 533.072 234.988 528.261 239.8 528.256 239.805 523.105 234.655 517.605 229.155 517.6 229.15 512.19 234.561 502.21 244.541 507.539 249.868 507.543 249.864 517.6 239.805 517.605 239.81 527.664 249.868 528.256 250.46 528.261 250.455 538.319 240.397 538.324 240.402 548.383 250.46 548.387 250.455 558.445 240.397 558.449 240.402 568.508 250.46 568.513 250.455 569.1 249.868 579.162 239.805 579.167 239.81 589.225 249.868 589.23 249.864 599.289 239.805 599.294 239.81 609.944 250.46 609.948 250.456 615.271 245.133 615.237 245.098 620.529 239.805 620.534 239.81 620.668 239.944 620.668 229.289 620.534 229.155 620.529 229.15"/><polygon class="a" points="568.546 234.444 568.594 234.399 568.637 234.444 576.591 226.884 573.99 224.146 571.54 221.57 569.03 218.929 568.982 218.974 568.938 218.929 560.984 226.49 563.494 229.131 565.944 231.708 568.546 234.444"/><polygon class="a" points="587.019 231.708 589.578 234.399 589.621 234.444 597.576 226.884 594.974 224.146 592.525 221.57 590.014 218.929 589.966 218.974 582.06 226.49 584.57 229.131 587.019 231.708"/><polygon class="a" points="528.81 218.929 528.762 218.974 520.856 226.49 523.366 229.131 525.814 231.708 528.373 234.399 528.417 234.444 536.371 226.884 533.769 224.146 531.32 221.57 528.81 218.929"/><polygon class="a" points="506.515 234.399 506.558 234.444 514.512 226.884 511.911 224.146 509.461 221.57 506.951 218.929 506.903 218.974 498.997 226.49 501.507 229.131 503.956 231.708 506.515 234.399"/><polygon class="a" points="548.845 218.929 548.796 218.974 548.753 218.929 540.799 226.49 543.309 229.131 545.758 231.708 548.36 234.444 548.408 234.399 548.451 234.444 556.406 226.884 553.805 224.146 551.355 221.57 548.845 218.929"/><path d="M129.333,94.8h45.52v21.383H159.235v40.759H144.952V116.182H129.333Z" transform="translate(-129.03 -94.799)"/><path d="M225.385,115.43H218.7l8.436,41.511H210.184l-1.588-7.684H193.813l-1.337,7.684H178.945l7.184-41.511h-4.093V94.8h43.349Zm-28.566,16.036h8.186l-3.257-16.036h-2.089Z" transform="translate(-129.03 -94.799)"/><path d="M265.644,126.539a5.441,5.441,0,0,1,1.712,1.92,5.946,5.946,0,0,1,.626,2.84v14.617a12.414,12.414,0,0,1-.918,5.012,7.658,7.658,0,0,1-3.049,3.424,15.867,15.867,0,0,1-5.638,1.963,50.636,50.636,0,0,1-8.686.626,48.593,48.593,0,0,1-8.812-.668,16.429,16.429,0,0,1-5.68-2,7.4,7.4,0,0,1-3.007-3.425,12.676,12.676,0,0,1-.877-4.928v-9.1h12.278v2.506a2.342,2.342,0,0,0,1.344,2.213,18.13,18.13,0,0,0,10.048,0,2.335,2.335,0,0,0,1.387-2.213v-4.093a2.729,2.729,0,0,0-.417-1.545,3.1,3.1,0,0,0-1.587-1.044,8.592,8.592,0,0,0-2.089-.251q-.418,0-1.211.042c-.529.029-1.085.042-1.67.042h-2.714q-6.6-.25-10.023-1.8a8.272,8.272,0,0,1-4.594-4.552,13.029,13.029,0,0,1-.752-4.594V106.242a13.006,13.006,0,0,1,.877-4.97,7.9,7.9,0,0,1,2.965-3.549,15.77,15.77,0,0,1,5.429-2.172,38.91,38.91,0,0,1,8.353-.752,45.662,45.662,0,0,1,8.937.71,14.066,14.066,0,0,1,5.387,2.13,6.853,6.853,0,0,1,2.631,3.592,17.085,17.085,0,0,1,.668,5.011v12.612H254.535v-6.682a7.884,7.884,0,0,0-.836-4.092q-.836-1.337-3.507-1.337-2.507,0-3.425,1.379a7.314,7.314,0,0,0-.919,4.05v7.183a9.54,9.54,0,0,0,.126.961,4.544,4.544,0,0,0,.71,1.712,6.089,6.089,0,0,0,1.628,1.671,5.017,5.017,0,0,0,2.965.752q1.337,0,3.258-.042a37.529,37.529,0,0,1,3.926.125,29.149,29.149,0,0,1,3.883.585A9.086,9.086,0,0,1,265.644,126.539Z" transform="translate(-129.03 -94.799)"/><path d="M272.158,94.8h45.521v21.383H302.06v40.759H287.777V116.182H272.158Z" transform="translate(-129.03 -94.799)"/><path d="M321.771,94.8h36.166v17.457H336.054v7.6h17.957v12.529H336.054v7.1h21.883v17.456H321.771Z" transform="translate(-129.03 -94.799)"/><path d="M397.526,94.8a33.493,33.493,0,0,1,8.269.836,10.96,10.96,0,0,1,4.97,2.589,8.842,8.842,0,0,1,2.422,4.343,26.152,26.152,0,0,1,.626,6.1V127.04a18.747,18.747,0,0,1-.835,5.972,9.213,9.213,0,0,1-2.715,4.092,11.679,11.679,0,0,1-5.011,2.381,33.722,33.722,0,0,1-7.726.751,31.841,31.841,0,0,1-7.768-.793,12.022,12.022,0,0,1-4.969-2.422,8.916,8.916,0,0,1-2.673-4.093,19.269,19.269,0,0,1-.794-5.888V108.665a19.577,19.577,0,0,1,.836-6.014,10.028,10.028,0,0,1,2.714-4.343,11.906,11.906,0,0,1,4.97-2.632A28.623,28.623,0,0,1,397.526,94.8Zm-16.2,49.363h32.491v12.779H381.322Zm23.888-29.985a4.958,4.958,0,0,0-1.252-3.717q-1.254-1.209-5.513-1.211-3.927,0-5.387,1.253a4.571,4.571,0,0,0-1.462,3.675v6.515a4.318,4.318,0,0,0,1.462,3.591q1.46,1.171,5.387,1.17,3.841,0,5.3-1.128a4.306,4.306,0,0,0,1.461-3.633Zm26.728,2v8.686H449.9V137.4H431.938v19.544H417.655V94.8h35.832v21.383Z" transform="translate(-129.03 -94.799)"/><path d="M508.694,94.8H527.4v62.142H514.959v-42.6l-7.684,37.837h-8.436l-7.685-39.508v44.268H476.872V94.8h20.213l5.931,33.159Z" transform="translate(-129.03 -94.799)"/><path d="M531.58,94.8h36.166v17.457H545.862v7.6H563.82v12.529H545.862v7.1h21.884v17.456H531.58Z" transform="translate(-129.03 -94.799)"/><path d="M603.828,123.615l16.538,33.326H602.074l-7.266-14.867-7.184,14.867H574.511l13.949-28.064L571.922,94.8h17.54l7.935,15.953L605.332,94.8h12.444Z" transform="translate(-129.03 -94.799)"/><path d="M624.541,94.8h30.82v12.529h-8.268v33.577h8.268v16.036h-30.82V140.905h8.269V107.328h-8.269Z" transform="translate(-129.03 -94.799)"/><path d="M681.588,94.8a44.568,44.568,0,0,1,11.276,1.17,15.268,15.268,0,0,1,6.765,3.508,11.989,11.989,0,0,1,3.3,5.888,34.955,34.955,0,0,1,.877,8.311v14.032H692.028v-7.267a14.028,14.028,0,0,0-.376-3.466,5.26,5.26,0,0,0-1.377-2.464,6.251,6.251,0,0,0-2.8-1.5,18.056,18.056,0,0,0-4.719-.5q-5.181,0-7.226,2.047a7.97,7.97,0,0,0-2.046,5.888V132.97q0,4.01,2,5.805t7.267,1.8q5.176,0,7.183-1.671t2.087-5.512h11.778v5.428A26.293,26.293,0,0,1,702.678,147a12.312,12.312,0,0,1-3.717,5.638,16.349,16.349,0,0,1-6.849,3.257,44.948,44.948,0,0,1-10.524,1.044,43.7,43.7,0,0,1-10.607-1.086,16.36,16.36,0,0,1-6.808-3.3,12.142,12.142,0,0,1-3.633-5.638,26.906,26.906,0,0,1-1.086-8.1v-25.14a26.788,26.788,0,0,1,1.128-8.185,13.581,13.581,0,0,1,3.675-5.889,16.331,16.331,0,0,1,6.808-3.592A39.1,39.1,0,0,1,681.588,94.8Z" transform="translate(-129.03 -94.799)"/><path d="M727.86,94.8a35.738,35.738,0,0,1,10.064,1.17,13.291,13.291,0,0,1,6.056,3.508,12.153,12.153,0,0,1,2.922,5.888,40.454,40.454,0,0,1,.752,8.311v25.14a29.378,29.378,0,0,1-1,8.186,12.528,12.528,0,0,1-3.3,5.638,13.9,13.9,0,0,1-6.1,3.257,36,36,0,0,1-9.4,1.044,35.508,35.508,0,0,1-9.522-1.086,14.229,14.229,0,0,1-6.14-3.3,12.193,12.193,0,0,1-3.256-5.638,30.132,30.132,0,0,1-.961-8.1v-25.14a29.934,29.934,0,0,1,1-8.185,13.549,13.549,0,0,1,3.34-5.889,14.669,14.669,0,0,1,6.14-3.592A31.36,31.36,0,0,1,727.86,94.8Zm9.354,26.477a11.82,11.82,0,0,0-.334-3.006,4.243,4.243,0,0,0-1.253-2.088,5.915,5.915,0,0,0-2.548-1.253,17.481,17.481,0,0,0-4.218-.418q-4.76,0-6.514,1.671a6.731,6.731,0,0,0-1.754,5.094v8.938q0,3.341,1.754,4.886t6.514,1.545q4.761,0,6.557-1.5t1.8-4.928Z" transform="translate(-129.03 -94.799)"/></svg>