<svg id="ff8d7d1f-5b6d-4921-837f-81da6f78e669" data-name="Layer 1" xmlns="http://www.w3.org/2000/svg" width="621.219mm" height="174.178mm" viewBox="0 0 1760.935 493.732">
  <g>
    <path d="M-419.757-289.88a91.906,91.906,0,0,0,7.651,13.237,77.6,77.6,0,0,0,11.127,13.236H-519.21a52.039,52.039,0,0,0,12.518-13.9,56.288,56.288,0,0,0,6.608-16.215q2.429-9.586-1.739-20.848l-104.322-246.2V-305.1a39.968,39.968,0,0,0,3.478,16.877,62.877,62.877,0,0,0,7.65,12.906,68.869,68.869,0,0,0,11.128,11.913H-697.948a59.885,59.885,0,0,0,11.127-12.575,85.85,85.85,0,0,0,7.651-13.567,38.578,38.578,0,0,0,3.477-16.215V-468.577h-.7q-.7-5.289-4.869-11.913a62.592,62.592,0,0,0-9.736-11.913q-6.26-6.609-13.91-13.237,11.118-7.275,16.692-14.561a74.354,74.354,0,0,0,8.346-13.236,31.521,31.521,0,0,0,3.129-9.928c.228-2.647.348-4.188.348-4.632V-710.81q0-4.623-3.477-10.921a138.429,138.429,0,0,0-7.651-12.243,160.616,160.616,0,0,0-10.432-13.9h125.186a82.4,82.4,0,0,0-11.823,13.9,74.44,74.44,0,0,0-6.955,14.229,25.428,25.428,0,0,0-.7,15.553l99.453,235.615V-710.81a27.154,27.154,0,0,0-3.478-12.575,78.36,78.36,0,0,0-7.649-11.913,96.2,96.2,0,0,0-11.128-12.575h114.058A95.243,95.243,0,0,0-412.106-735.3a77.531,77.531,0,0,0-7.651,11.913,27.032,27.032,0,0,0-3.477,12.575v162.15c0,.445.109,1.986.348,4.633a30.946,30.946,0,0,0,3.129,9.928,73.257,73.257,0,0,0,8.694,13.567,73.97,73.97,0,0,0,16.344,14.892q-7.662,6.624-13.91,13.237a67.481,67.481,0,0,0-9.737,11.582q-4.173,6.3-4.868,11.582v163.475A36.257,36.257,0,0,0-419.757-289.88Z" transform="translate(704.903 754.492)"/>
    <path d="M-219.461-264.069a108.826,108.826,0,0,0,11.823-14.56,79.067,79.067,0,0,0,7.3-15.222,35.915,35.915,0,0,0,1.738-17.87q-1.4-9.261-2.782-18.862-1.4-9.586-2.781-16.877-1.4-8.594-2.783-17.208h-92.5l-7.65,54.271a30.284,30.284,0,0,0,1.738,16.215,82.344,82.344,0,0,0,7.3,14.892,116.658,116.658,0,0,0,11.128,15.221H-400.285a74.152,74.152,0,0,0,9.736-11.251q3.489-5.289,6.607-10.92a46.89,46.89,0,0,0,4.521-10.92l22.951-158.18a29.941,29.941,0,0,0-2.782-17.869,134.663,134.663,0,0,0-9.042-15.885q-6.26-7.941-13.214-15.884,14.605-7.275,22.6-14.56t11.476-13.9A36.1,36.1,0,0,0-342.561-548q9.732-68.16,16.344-110.528,6.6-42.348,8-45.667a24.305,24.305,0,0,0-2.086-14.891,122.582,122.582,0,0,0-7.651-14.23q-4.873-7.275-11.127-15.222H-166.6a148.148,148.148,0,0,0-11.823,15.222,93.251,93.251,0,0,0-7.3,14.23q-3.129,7.615-1.738,13.568l24.342,158.179a81.5,81.5,0,0,0,2.433,8.6,43.472,43.472,0,0,0,5.912,11.251A57.539,57.539,0,0,0-143.654-515.9a73.372,73.372,0,0,0,18.082,10.259,124.959,124.959,0,0,0-13.213,14.561,81.112,81.112,0,0,0-8.694,15.222,33.252,33.252,0,0,0-2.434,18.531q4.173,25.812,8,52.617t6.955,49.306q3.129,22.509,5.216,37.4t2.782,16.877a52.724,52.724,0,0,0,4.868,12.575q3.471,6.622,6.954,11.913a83.574,83.574,0,0,0,9.737,12.574Zm2.782-167.445-36.165-242.895-36.165,242.9Z" transform="translate(704.903 754.492)"/>
    <path d="M78.9-409.011a80.806,80.806,0,0,0-7.65-13.9,105.149,105.149,0,0,0-10.432-13.237H176.263a60.213,60.213,0,0,0-11.128,12.575,70.06,70.06,0,0,0-7.3,13.568,39.016,39.016,0,0,0-3.13,14.891v27.136a98.336,98.336,0,0,1-8.694,41.034,106.128,106.128,0,0,1-23.646,33.423A118.05,118.05,0,0,1,87.59-270.687a106.192,106.192,0,0,1-42.772,8.6H23.954a109.789,109.789,0,0,1-42.773-8.273A109.976,109.976,0,0,1-53.592-293.19a111,111,0,0,1-23.647-33.423,95.957,95.957,0,0,1-8.693-40.7V-469.239q-.684-5.289-4.868-11.582a67.481,67.481,0,0,0-9.737-11.582q-6.259-6.609-13.91-13.237A79.015,79.015,0,0,0-98.1-520.2a65.5,65.5,0,0,0,8.694-13.236,30.953,30.953,0,0,0,3.129-9.928c.24-2.647.348-4.188.348-4.632V-648.6a98.217,98.217,0,0,1,8.693-41.034,106.017,106.017,0,0,1,23.647-33.423,118.369,118.369,0,0,1,34.773-22.833,106.369,106.369,0,0,1,42.773-8.6H45.513a106.369,106.369,0,0,1,42.773,8.6,113.777,113.777,0,0,1,34.426,22.833,109.177,109.177,0,0,1,23.3,33.423A98.373,98.373,0,0,1,154.7-648.6v19.856a42.27,42.27,0,0,0,3.477,17.207,80.2,80.2,0,0,0,7.65,13.9,59.582,59.582,0,0,0,11.128,12.575H60.814a69.337,69.337,0,0,0,11.128-11.913,66.772,66.772,0,0,0,7.65-12.575,37.943,37.943,0,0,0,3.477-16.546v-22.5a33.288,33.288,0,0,0-11.127-25.48,37.708,37.708,0,0,0-26.429-10.259H23.954q-16.008,0-26.777,10.259A33.739,33.739,0,0,0-13.6-648.6V-548c0,.888.109,2.544.348,4.963a31.194,31.194,0,0,0,3.129,9.6A65.46,65.46,0,0,0-1.431-520.2,79.067,79.067,0,0,0,14.913-505.64Q7.251-499.016,1-492.4a67.527,67.527,0,0,0-9.737,11.582q-4.173,6.3-4.868,11.582v101.923A32.973,32.973,0,0,0-2.823-342.5q10.776,10.267,26.777,10.258H44.818q15.99,0,26.775-10.258a33.743,33.743,0,0,0,10.781-25.481V-391.8A42.5,42.5,0,0,0,78.9-409.011Z" transform="translate(704.903 754.492)"/>
    <path d="M452.018-289.88a66.836,66.836,0,0,0,7.3,13.9,59.582,59.582,0,0,0,11.128,12.575H357.086a104.274,104.274,0,0,0,10.431-13.236,92.754,92.754,0,0,0,7.651-13.237,36.4,36.4,0,0,0,3.477-15.884V-466.591H277.105v159.5a46.5,46.5,0,0,0,3.13,17.208,66.836,66.836,0,0,0,7.3,13.9,59.582,59.582,0,0,0,11.128,12.575H185.3a104.2,104.2,0,0,0,10.433-13.236,93.037,93.037,0,0,0,7.65-13.237,36.4,36.4,0,0,0,3.477-15.884V-469.239q-.7-5.289-4.868-11.582a67.977,67.977,0,0,0-9.736-11.582q-6.26-6.609-13.911-13.237A79.329,79.329,0,0,0,194.691-520.2a66.376,66.376,0,0,0,8.694-13.236,31.521,31.521,0,0,0,3.129-9.928c.229-2.647.348-4.188.348-4.632V-707.5a31.516,31.516,0,0,0-3.477-14.23,103.106,103.106,0,0,0-7.65-12.906A104.98,104.98,0,0,0,185.3-747.873H298.666a86.154,86.154,0,0,0-11.128,11.251,58.652,58.652,0,0,0-7.3,12.244,39.186,39.186,0,0,0-3.13,16.215v174.726h101.54V-707.5a31.516,31.516,0,0,0-3.477-14.23,102.747,102.747,0,0,0-7.651-12.906,105.06,105.06,0,0,0-10.431-13.236H470.449a86.154,86.154,0,0,0-11.128,11.251,58.652,58.652,0,0,0-7.3,12.244,39.186,39.186,0,0,0-3.13,16.215v159.5c0,.445.11,1.986.348,4.633a35.394,35.394,0,0,0,2.782,9.928,54.264,54.264,0,0,0,8.346,13.236q5.9,7.292,17.039,15.223-7.661,6.624-13.909,13.237a74,74,0,0,0-10.085,11.913q-4.532,6.623-4.521,11.913v161.489A46.5,46.5,0,0,0,452.018-289.88Z" transform="translate(704.903 754.492)"/>
    <path d="M788.977-505.64q-7.66,6.624-13.909,13.237a67.436,67.436,0,0,0-9.737,11.582q-4.172,6.3-4.868,11.582v102.585a96.112,96.112,0,0,1-8.694,40.7,108.58,108.58,0,0,1-23.994,33.423,114.306,114.306,0,0,1-35.121,22.834,109.806,109.806,0,0,1-42.772,8.273l-20.865.662a106.157,106.157,0,0,1-42.771-8.6A122.644,122.644,0,0,1,551.124-292.2a103.249,103.249,0,0,1-23.994-33.422,98.167,98.167,0,0,1-8.694-41.035V-469.239a39.8,39.8,0,0,0-5.563-11.582,67.442,67.442,0,0,0-9.738-11.582q-6.258-6.609-13.213-13.237,10.433-7.275,16-14.229a70.48,70.48,0,0,0,8.345-12.576,35.494,35.494,0,0,0,3.478-9.927,45.03,45.03,0,0,0,.7-5.625v-99.938a95.951,95.951,0,0,1,8.694-40.7,108.359,108.359,0,0,1,23.994-33.422,114.534,114.534,0,0,1,35.122-22.834,109.979,109.979,0,0,1,42.771-8.273h21.56a109.98,109.98,0,0,1,42.772,8.273,110.436,110.436,0,0,1,34.774,22.834,111.516,111.516,0,0,1,23.646,33.422,96.116,96.116,0,0,1,8.694,40.7V-548a38.067,38.067,0,0,0,.7,5.295,41.235,41.235,0,0,0,3.477,9.926,64.9,64.9,0,0,0,8.346,12.907Q778.54-512.921,788.977-505.64ZM649.61-330.252q16.1,0,26.972-12.907t10.855-27.465v-99.938a36.083,36.083,0,0,0-5.563-11.252,75.268,75.268,0,0,0-9.737-11.251,176.522,176.522,0,0,0-13.214-12.575,86.086,86.086,0,0,0,16.343-14.229,59.537,59.537,0,0,0,8.694-12.907,42.177,42.177,0,0,0,3.477-9.926,39.812,39.812,0,0,0,.7-5.295v-95.968q0-14.55-11.214-27.466T650.3-684.337H628.593q-16.12,0-26.971,12.906t-10.856,27.466V-548a37.962,37.962,0,0,0,.7,5.295,41.191,41.191,0,0,0,3.477,9.926,64.855,64.855,0,0,0,8.346,12.907q5.558,6.948,16,14.229-6.961,6.624-13.215,13.237a82.014,82.014,0,0,0-10.084,11.582q-4.531,6.3-5.216,11.582v98.615q0,14.565,10.856,27.8,10.856,13.248,26.971,13.237Z" transform="translate(704.903 754.492)"/>
    <path d="M972.575-508.287a292.145,292.145,0,0,1,22.6,24.157,182.394,182.394,0,0,1,19.125,27.8,144.415,144.415,0,0,1,13.215,32.76,151.242,151.242,0,0,1,4.868,39.71q0,122.451-114.058,122.441-29.211,0-51.118-5.956T830.7-287.564q-14.606-14.223-21.908-37.724t-7.3-58.574V-397.1a28.31,28.31,0,0,0-3.477-13.237,78.49,78.49,0,0,0-7.65-11.913,69.637,69.637,0,0,0-11.128-11.913H894.681a95.4,95.4,0,0,0-11.128,12.575,77.622,77.622,0,0,0-7.649,11.913,27.027,27.027,0,0,0-3.477,12.575v17.869q0,25.161,12.518,37.726t31.3,12.574a43.87,43.87,0,0,0,31.3-12.574q13.2-12.565,13.214-37.726,0-25.145-12.519-44.012a211.6,211.6,0,0,0-30.6-36.07q-4.874-3.3-12.867-4.3a127.045,127.045,0,0,0-15.648-.993q-9.047,0-18.778.662,3.471-21.174-1.739-32.1t-8-14.23A246.907,246.907,0,0,1,820.961-560.9q-16.692-28.122-16.692-69.162,0-64.188,28.515-93.319t86.239-29.121q57.019,0,85.892,29.121,28.851,29.131,28.862,93.319a34.157,34.157,0,0,0,3.478,15.553,70.741,70.741,0,0,0,7.65,12.244,52.369,52.369,0,0,0,11.127,11.252H941.278a69.3,69.3,0,0,0,11.128-11.914,77.31,77.31,0,0,0,7.65-11.913,28.244,28.244,0,0,0,3.478-13.236V-634.7q0-25.812-12.171-38.386T921.11-685.66q-18.777,0-30.949,12.575T877.99-634.7q0,21.84,9.389,39.38a148.308,148.308,0,0,0,23.994,32.761,51.311,51.311,0,0,0,13.214,6.618,66.431,66.431,0,0,0,17.04,3.641,102.106,102.106,0,0,0,23.993-.993,122.572,122.572,0,0,0,0,18.531q.685,7.29,2.087,14.892Q969.093-512.254,972.575-508.287Z" transform="translate(704.903 754.492)"/>
  </g>
</svg>
