<svg xmlns="http://www.w3.org/2000/svg" viewBox="0 0 688.643 231.385"><defs><style>.a{fill:none;}</style></defs><rect class="a" width="688.643" height="231.385"/><path d="M136.036,194.472l1.563,1a17.838,17.838,0,0,0,4.042,1.883,26.351,26.351,0,0,0,12.067.64,73.748,73.748,0,0,0,7.223-1.547l7.78-2.385,16.759-5.69c2.941-.818,5.883-1.637,8.778-2.441a76.217,76.217,0,0,1,8.835-1.739,51.515,51.515,0,0,1,17.188.031,36.231,36.231,0,0,1,14.606,5.953,23.3,23.3,0,0,1,2.7,2.114,17.4,17.4,0,0,1,2.06,1.926l1.72,1.783-1.613-1.21a8.377,8.377,0,0,0-1.832-1.162,16.119,16.119,0,0,0-2.329-1.123,20.52,20.52,0,0,0-5.676-1.355,30.63,30.63,0,0,0-6.608.118,84.176,84.176,0,0,0-15.106,3.688l-16.794,5.6-8.771,2.45a87.873,87.873,0,0,1-8.806,1.792,54.332,54.332,0,0,1-17.067.211A36.425,36.425,0,0,1,142.4,199.7a30.927,30.927,0,0,1-4.675-3.64Z"/><path d="M551.561,194.472l-1.562,1a17.838,17.838,0,0,1-4.042,1.883,26.351,26.351,0,0,1-12.067.64,73.686,73.686,0,0,1-7.223-1.547l-7.781-2.385c-5.348-1.816-11.053-3.754-16.758-5.69-2.941-.818-5.883-1.637-8.778-2.441a76.192,76.192,0,0,0-8.836-1.739,51.51,51.51,0,0,0-17.187.031,36.231,36.231,0,0,0-14.606,5.953,23.3,23.3,0,0,0-2.7,2.114,17.4,17.4,0,0,0-2.06,1.926l-1.72,1.783,1.613-1.21a8.377,8.377,0,0,1,1.832-1.162,16.119,16.119,0,0,1,2.329-1.123,20.512,20.512,0,0,1,5.676-1.355,30.631,30.631,0,0,1,6.608.118,84.2,84.2,0,0,1,15.106,3.688l16.794,5.6,8.77,2.45a87.988,87.988,0,0,0,8.806,1.792,54.338,54.338,0,0,0,17.068.211A36.426,36.426,0,0,0,545.2,199.7a30.927,30.927,0,0,0,4.675-3.64Z"/><path d="M374.99,188.225h-.532a.248.248,0,0,0-.281.28v5.6a.248.248,0,0,0,.281.28h.532a.83.83,0,0,0,.644-.28,1,1,0,0,0,.251-.687V189.2a.977.977,0,0,0-.251-.7A.824.824,0,0,0,374.99,188.225Z"/><path d="M401.617,180.348h-.4a12.791,12.791,0,0,0-11.686-7.676H293.976a12.792,12.792,0,0,0-11.686,7.676h-.4A10.577,10.577,0,0,0,271.345,190.9v.82a10.577,10.577,0,0,0,10.545,10.546h.4a12.792,12.792,0,0,0,11.686,7.676h95.555a12.791,12.791,0,0,0,11.686-7.676h.4a10.577,10.577,0,0,0,10.546-10.546v-.82A10.577,10.577,0,0,0,401.617,180.348ZM310.59,195.784a.247.247,0,0,1-.28.28h-4.3a.247.247,0,0,1-.28-.28v-8.96a.247.247,0,0,1,.28-.279h1.33a.247.247,0,0,1,.28.279v7.267a.247.247,0,0,0,.28.279h2.408a.248.248,0,0,1,.28.28Zm8.511,0a.246.246,0,0,1-.28.28h-1.315a.248.248,0,0,1-.281-.28v-8.96a.248.248,0,0,1,.281-.279h1.315a.247.247,0,0,1,.28.279Zm13.454,0a.246.246,0,0,1-.279.28H331a.248.248,0,0,1-.281-.28l-.013-4.8c0-.326-.047-.5-.14-.525s-.22.106-.378.386l-.476.868c-.075.13-.155.195-.239.195s-.163-.065-.237-.195l-.462-.855q-.238-.433-.378-.391c-.094.027-.14.2-.14.531l-.014,4.788a.247.247,0,0,1-.28.28H326.69a.247.247,0,0,1-.28-.28v-8.96a.247.247,0,0,1,.28-.279h1.358a.243.243,0,0,1,.238.153l.937,1.96c.076.159.16.238.252.238s.178-.079.252-.238l.952-1.96a.244.244,0,0,1,.239-.153h1.358a.246.246,0,0,1,.279.279Zm9.2,0a.247.247,0,0,1-.281.28h-1.315a.247.247,0,0,1-.28-.28v-8.96a.247.247,0,0,1,.28-.279h1.315a.247.247,0,0,1,.281.279Zm12.376-7.826a.247.247,0,0,1-.28.28h-1.344a.248.248,0,0,0-.28.281v7.265a.247.247,0,0,1-.28.28h-1.33a.247.247,0,0,1-.28-.28v-7.265a.248.248,0,0,0-.28-.281h-1.344a.247.247,0,0,1-.28-.28v-1.134a.247.247,0,0,1,.28-.279h5.138a.247.247,0,0,1,.28.279Zm11.507,0a.247.247,0,0,1-.28.28h-2.435a.249.249,0,0,0-.281.281v1.61a.248.248,0,0,0,.281.279h.965a.248.248,0,0,1,.281.28v1.134a.249.249,0,0,1-.281.281h-.965a.248.248,0,0,0-.281.28v1.708a.248.248,0,0,0,.281.279h2.435a.248.248,0,0,1,.28.28v1.134a.247.247,0,0,1-.28.28h-4.325a.246.246,0,0,1-.28-.28v-8.96a.247.247,0,0,1,.28-.279h4.325a.247.247,0,0,1,.28.279Zm12.139,5.587a2.382,2.382,0,0,1-.728,1.819,2.645,2.645,0,0,1-1.89.7h-2.59a.247.247,0,0,1-.28-.28v-8.96a.247.247,0,0,1,.28-.279h2.59a2.649,2.649,0,0,1,1.89.7,2.4,2.4,0,0,1,.728,1.834Z"/><path d="M8.183,155.59l28.951-10.336c.45-.161.921-.014,1,.365.383,1.935-1.331,4.239-3.809,5.123L5.408,161.065c-.488.174-.926-.008-1-.365C4.027,158.763,5.705,156.475,8.183,155.59Z"/><path d="M7.118,117.236a15.059,15.059,0,0,1,3.373-1.732l.637-.226a14.331,14.331,0,0,1,4.016-.93c1.334.023,3.12,1.8,3.089,4.571-.024,2.153-.826-.3-2.752,3.075-1.213,2.128-2.276,2.639-2.356,2.468a6.9,6.9,0,0,0,.974-4.038c.041-3.69-3-2.491-3-2.491a4.93,4.93,0,0,0-3.042,4.225,24.508,24.508,0,0,0-.079,2.722L7.9,131.324a12.429,12.429,0,0,1,4.075-1.982,1.384,1.384,0,0,1,1.873,1.447.547.547,0,0,1-.365.5,15.362,15.362,0,0,0-5.62,3.279l-.016,1.452-.02,1.854c-.024,2.037-.008,3.511.046,4.59.615.28,2.627.846,6.768-1.244a3.962,3.962,0,0,1-2.337-3.491c.018-1.536,1.133-3.731,2.277-4.137,1.455-.517,1.994-2.207,2.94-2.31.733-.095-2.076,2.186-1.313,6.737.442,2.67,1.785,1.992,1.778,2.576-.015,1.221-7.616,5.638-11.8,5.363A7.491,7.491,0,0,1,3.88,147.54l-.016.006c-1.111.345-.963.227-.581-.442a7.528,7.528,0,0,0,.75-3.044l.056-4.942.017-.006.01-.969.011-.951s.029-2.555-1.234-3.187c-.615-.33.891-1.049,1.278-.721l.076-6.744c.006-.6-.063-1.675-.055-2.426-.283-5.137-1.734-5.021-1.306-5.489C3.744,117.688,5.414,118.208,7.118,117.236Z"/><path d="M30.664,131.226c.017-1.537,1.132-3.73,2.292-4.143,1.455-.518,1.979-2.2,2.924-2.3.734-.095-2.076,2.185-1.312,6.737.441,2.671,1.783,1.993,1.777,2.577-.014,1.22-7.616,5.637-11.8,5.362a7.521,7.521,0,0,1-2.313,1.587l-.017.007c-1.11.344-.946.221-.581-.442a7.48,7.48,0,0,0,.75-2.978l.244-21.756c.023-1.953-.109-3.287-.984-3.708-.874-.405.529-.754.857-.87a3.018,3.018,0,0,1,1.938-.042,6.285,6.285,0,0,1,2.115-1.4l.016-.006c1.111-.346.947-.222.581.44a7.61,7.61,0,0,0-.767,3.052l-.006.551-.2,17.4c-.024,2.087-.007,3.577.046,4.673.615.279,2.627.844,6.77-1.244A3.963,3.963,0,0,1,30.664,131.226Z"/><path d="M51.51,148.621V116.675c0-5.748-.452-9.7-3.079-11.11s1.518-2.145,2.545-2.439a9.107,9.107,0,0,1,5.383.138c.247-.028.412-.074.618-.089A16.455,16.455,0,0,1,62.983,99.8l.042-.012.288-.079a6.609,6.609,0,0,1,2.348-.515c1.565.033-2.514,2.112-.618,4.542,1.391,1.783,6.636,5.147,8.409,6.579,1.553,1.254,3.177,2.415,4.828,3.571.414.268.827.578,1.24.847.413-.482.867-1.014,1.239-1.485,1.653-2.006,3.3-4.014,4.836-6.057,1.769-2.36,7.04-8.408,8.441-10.913,1.907-3.41-2.154-3.392-.621-4.222a7.23,7.23,0,0,1,2.4-.707l.249-.06.041-.01a10.819,10.819,0,0,1,6.051.271c.207-.091.415-.14.621-.229a14.165,14.165,0,0,1,5.478-2.932c1-.227,5.172-1.634,2.532,1.132-2.617,2.74-3.114,6.956-3.114,12.7v60.309c0,5.748.5,9.732,3.114,11.287,2.638,1.57-1.537,2.056-2.532,2.283a9.654,9.654,0,0,1-5.85-.563,16.323,16.323,0,0,1-6.3,3.37l-.041.01c-3.355.682-2.865.332-1.782-1.486a20.248,20.248,0,0,0,2.2-8.651v-61.35c-3.479,4.126-7.7,9.039-10.636,12.774,2.15,2.876,3.032,7,2.232,11.562a18.412,18.412,0,0,1-6.159,11.047,16.762,16.762,0,0,1-5.823,2.958,18.264,18.264,0,0,1-3.755.654c-4.62.388-7.707-3.723-5.813-8.983.7-1.94.873-1.856,1.195-.781.541,1.8,3.714,1.539,5.361.737a7.336,7.336,0,0,0,3.589-4.814,10.332,10.332,0,0,0,.372-2.928,8.685,8.685,0,0,0-.288-2.716c-.572-2.011-8.459-6.9-14.1-10.81q0,30.675,0,61.35c0,2.374.821,6,2.141,7.537,1.1,1.278,1.564,1.36-1.771,2.4l-.042.012a10.663,10.663,0,0,1-6.253-.14,15.48,15.48,0,0,1-5.754,3.547c-1.027.294-5.173,1.949-2.545-.976s3.079-7.132,3.079-12.88V157.492c-.37-2.393-1.261-5.6-3.49-6.867C46.3,149.645,50.072,147.949,51.51,148.621Z"/><path d="M129.744,89.957c4.949-2.09,4.915-2.346,8.585-3.076l1.626-.322c1-.2,6.811-1.351,10.267-.725,3.409.618,8.064,5.808,8.064,12.722,0,5.374-2.133-1.125-6.978,6.526-3.049,4.816-5.764,5.67-5.971,5.21-.293-.648,2.38-1.245,2.379-9.7,0-9.2-7.761-7.411-7.761-7.411-5.129,1.013-7.163,5.488-7.67,9.414a60.85,60.85,0,0,0-.124,6.773v16.076a27.227,27.227,0,0,1,10.38-3.407,4.215,4.215,0,0,1,4.842,4.358,1.135,1.135,0,0,1-.918,1.091c-3.2.459-9.639,2.167-14.3,6.039v8.247c0,5.081.083,8.771.249,11.486,1.583.925,6.745,3.044,17.311-.483,0,0-6.095-3.459-6.095-9.665,0-3.833,2.8-8.872,5.719-9.422,3.717-.7,5.076-4.666,7.478-4.546,1.863.092-5.253,4.595-3.176,16.282,1.217,6.85,4.64,5.736,4.639,7.194,0,3.041-19.382,10.937-30.082,8.756a15.879,15.879,0,0,1-5.868,3.158l-.042.009c-2.828.482-2.441.235-1.5-1.3a16.585,16.585,0,0,0,1.83-7.349V143.561l.042-.009v-4.789s0-6.377-3.244-8.38c-1.58-1.03,2.246-2.318,3.244-1.366V112.191c0-1.5-.208-4.2-.208-6.079-.874-12.931-4.575-13.128-3.494-14.155C121.13,89.9,125.432,91.779,129.744,89.957Z"/><path d="M168.281,83.357c-.926-1.165-1.291-1.347,1.507-1.88a9.152,9.152,0,0,1,5.443.721,11.292,11.292,0,0,1,4.945-2.42c.881-.14,4.478-1.08,2.223,1.067-2.138,2.034-2.6,5.282-2.683,9.669v12c.042,4.283,1.843,9.4,7.841,8.486l.336-.051a8.557,8.557,0,0,0,5.791-4.15,13.606,13.606,0,0,0,1.678-6.7V91.682c0-.041.043-.09.043-.131v-4.5c-.126-3.771-.722-6.511-2.645-7.778-2.228-1.467,1.343-1.613,2.182-1.734a8.546,8.546,0,0,1,5,.913,11.719,11.719,0,0,1,5.421-2.368c2.831-.32,2.489-.039,1.554,1.416a15.941,15.941,0,0,0-1.848,7.2v3c.042,1.577.042,3.66.042,6.451,0,.208.041,4.284.041,4.45.463,6.685,1.471,9.757.253,9.921a8.185,8.185,0,0,0-4.789,2.487,4.853,4.853,0,0,0-.421.477,18.718,18.718,0,0,1-4.115,3.08,12.651,12.651,0,0,1,4.115,1.958c.126.108.295.209.421.317a6.472,6.472,0,0,0,4.789,1.218c1.218-.164.21,3.137-.252,9.947,0,.167-.042,4.3-.042,4.462,0,2.791,0,4.915-.085,6.509.043-.006.043,2.992.043,2.992,0,2,.711,5.221,1.848,6.667.945,1.2,1.311,1.405-1.512,1.826a9.774,9.774,0,0,1-5.463-.832,11.43,11.43,0,0,1-5,2.293c-.84.121-4.449,1.055-2.183-1.1,1.921-1.825,2.519-4.7,2.645-8.547v-4.458c0-.083-.043-.118-.043-.16V129.25c0-4.5-2.267-9.263-7.469-8.642l-.336.051c-6,.91-7.8,6.625-7.841,10.921v12.037c.083,4.318.557,7.406,2.683,8.782,2.261,1.463-1.342,1.625-2.223,1.765a8.651,8.651,0,0,1-4.944-.786,12.565,12.565,0,0,1-5.4,2.478c-2.842.439-2.493.131-1.549-1.362a16.319,16.319,0,0,0,1.842-7.225v-3c-.022-1.614.012-4.916.012-4.916s-.012-.707-.012-.749c0-10.371-1.884-14.885-.376-15.139a8.687,8.687,0,0,0,5.192-3.111,18.058,18.058,0,0,1,4.106-3.2,12.017,12.017,0,0,1-4.106-1.834,6.2,6.2,0,0,0-5.192-1.387c-1.508.254.376-4.937.375-15.308a.051.051,0,0,0,.043-.048V92.993c-.043.007-.043-2.991-.043-2.991C170.122,87.96,169.416,84.785,168.281,83.357Z"/><path d="M220.242,136.7V85.638l-.042,0c0-4.873-.383-8.311-2.651-9.839-2.248-1.515,1.347-1.582,2.188-1.684a8.72,8.72,0,0,1,5.008,1.029,11.923,11.923,0,0,1,5.432-2.243l.042-.005c2.863-.194,2.445.031,1.516,1.457a15.577,15.577,0,0,0-1.9,7.166v57.1c.042,2.036.746,5.214,1.9,6.7.93,1.206,1.348,1.348-1.516,1.792l-.042,0a10.121,10.121,0,0,1-5.432-.964,11.172,11.172,0,0,1-5.008,2.178c-.841.1-4.438.923-2.188-1.148,2.272-2.091,2.652-5.613,2.652-10.487Z"/><path d="M242.774,122.848V93.36c-.043-10.2-1.94-14.8-.422-14.952a7.955,7.955,0,0,0,5.227-2.717c1.393-1.53,5.061-3.682,8.351-4.72a11.2,11.2,0,0,1,2.7-.608l1.645-.138,1.647-.136c3.672-.3,9.245,1.822,11.061,3.483.127.116.3.229.422.345a6.807,6.807,0,0,0,4.814,1.5c1.225-.082.212,3.193-.253,9.972v.541c-.3,2.894-1.648,8.587-8.487,10.431a16.333,16.333,0,0,1-3.251.581,6.066,6.066,0,0,1-6.585-7.38c.337-1.57.507-1.542.971-.665.843,1.763,7.387,2.161,7.387-4.128a6.451,6.451,0,0,0-.17-1.611.589.589,0,0,0-.042-.288,4.322,4.322,0,0,0-.21-.9c-.062-.152-.154-.377-.212-.526a4.124,4.124,0,0,0-.169-.487v-.041a6.42,6.42,0,0,0-6.585-4.1,3.843,3.843,0,0,0-.675.1c-5.781.65-7.552,6.156-7.552,10.363,0,4.581,0,8.413,0,8.413v33.279c.041,4.286,1.855,9.521,7.888,9.018.043,0,7.852-.335,7.853-9.54,0-8.455-2.7-8.331-2.407-9.061.209-.514,2.955-.4,6.038,3.626,4.9,6.392,7.053-.615,7.053,4.758,0,6.956-4.7,13.3-8.152,14.815-3.471,1.522-9.329,1.935-10.385,2.023-.632.053-1.054.088-1.645.139-3.713.315-9.239-1.7-11.052-3.336a6.522,6.522,0,0,0-5.227-1.7c-1.518.152.422-4.914.422-15.286v-1.582Z"/><path d="M315.5,129.756V109.222c-3.807.081-11.122.824-15.773,4.957v16.243c0,4.874.425,8.331,2.705,10.039,2.261,1.693-1.353,1.477-2.24,1.518a9.325,9.325,0,0,1-4.988-1.38,11.456,11.456,0,0,1-5.453,1.916l-.042,0c-2.915.039-2.46-.155-1.521-1.537a14.886,14.886,0,0,0,1.86-7.02V89.853c0-10.329-1.9-15.054-.423-15.137a7.74,7.74,0,0,0,5.283-2.491c1.817-1.885,7.355-4.691,11.076-4.845l1.606-.064,1.649-.065c3.68-.14,9.263,2.227,11.081,3.966a7.071,7.071,0,0,0,5.246,2.073c1.523-.035-.423,4.883-.423,15.254v43.983a14.435,14.435,0,0,0,1.9,6.871c.934,1.289,1.353,1.466-1.523,1.658h-.043a10.852,10.852,0,0,1-5.456-1.443,10.25,10.25,0,0,1-5.033,1.737c-.846.028-4.46.53-2.2-1.342,2.282-1.889,2.663-5.38,2.663-10.252Zm0-26.156V88.23c0-1.374,0-3.04,0-4.831,0-4.29-1.861-9.7-7.909-9.461-6,.238-7.864,5.8-7.864,10.086,0,4.581,0,8.414,0,8.414V105.6A24.549,24.549,0,0,1,315.5,103.6Z"/><path d="M366.983,66.706a10.9,10.9,0,0,1,5.457,1.719,9.438,9.438,0,0,1,4.992-1.513c.887.022,4.479-.259,2.241,1.474-2.283,1.767-2.707,5.22-2.707,10.093v51.063c0,4.873.424,8.343,2.707,10.231,2.239,1.851-1.354,1.381-2.241,1.359a10.12,10.12,0,0,1-4.992-1.694,10.929,10.929,0,0,1-5.457,1.488h-.043c-2.919-.168-2.476-.329-1.523-1.645a14.066,14.066,0,0,0,1.862-6.888V105.361c-2.116-7.778-6.559-14.256-12.481-19.776-1.862-1.714-3.766-3.425-5.628-5.171v51.854a14.206,14.206,0,0,0,1.862,6.913c.953,1.33,1.354,1.5-1.523,1.625h-.043a11.071,11.071,0,0,1-5.458-1.563,10.045,10.045,0,0,1-5.034,1.626c-.846.009-4.463.433-2.2-1.391,2.281-1.838,2.708-5.32,2.708-10.193q0-25.531,0-51.063c0-4.874-.427-8.351-2.707-10.131-2.262-1.765,1.354-1.433,2.2-1.442a9.7,9.7,0,0,1,4.739,1.375c.169,0,.338.039.55.038a10.784,10.784,0,0,1,5.2-1.476h.043a.381.381,0,0,1,.211.041,5.715,5.715,0,0,1,2.074.083c1.354.377-2.2,1.221-.551,3.707,1.217,1.831,5.781,5.89,7.32,7.483,1.355,1.4,2.794,2.812,4.189,4.119,1.437,1.347,3.088,3,4.527,4.6V75.291a14.562,14.562,0,0,0-1.862-6.983c-.939-1.34-1.4-1.521,1.523-1.6Z"/><path d="M408.251,81.141c-1.1-15.344-5.5-16.771-4.227-17.625,2.621-1.746,7.8,1.831,12.974,1.047,5.937-.9,5.874-1.177,10.265-.868l.592.042,1.352.1.549.04c4.391.319,10.953,3.806,13.085,6.071a9.563,9.563,0,0,0,6.2,3.21c1.772.16-.506,5.7-.507,17.947v6.081c0,8.871-3.543,12.012-5.695,13.953a9.876,9.876,0,0,1-2.279,1.434,8.352,8.352,0,0,1,.844.779,9.472,9.472,0,0,0,6.16,3.155c1.814.162-.464,2.333-.464,11.829v14.619a17.915,17.915,0,0,0,2.2,8.319c1.126,1.684,1.6,1.932-1.773,1.756l-.042,0a21.447,21.447,0,0,1-9.494-3.136s-2.533,2.171-4.6,2.014c-1.014-.077-3.545.171-.887-1.775,2.683-1.965,3.167-6,3.167-11.752,0-4.532,0-6.8,0-11.329a14.763,14.763,0,0,0-1.774-7.384,9.9,9.9,0,0,0-6.671-4.447,51.452,51.452,0,0,1-7.434-1.248V140.83c0,2.375.842,6.317,2.2,8.3,1.128,1.655,1.605,1.892-1.774,1.8l-.042,0a14.01,14.01,0,0,1-6.465-2.268,11.041,11.041,0,0,1-5.917,1.59c-1.014-.053-5.281.172-2.62-1.842,2.686-2.032,3.169-6.084,3.169-11.832V119.963c0-.167-.042-7.59-3.846-10.942-1.9-1.677,2.663-2.033,3.846-.553v-2.457a19.206,19.206,0,0,1-3.55-11.179v-.666c0-.209.042-.414.042-.623.3-3.4,1.9-9.971,10.016-11.076a17.407,17.407,0,0,1,3.846-.141c4.817.3,8.828,4.919,7.772,9.843-.423,1.8-.591,1.75-1.14.63-1.015-2.236-8.745-3.814-8.745,3.6a10.359,10.359,0,0,0,.17,1.968c.042.085.042.21.083.3.085.381.169.76.254,1.1a10.465,10.465,0,0,0,8.238,7.281l.085.006.252.018.719.049,1.139.08c6.757.228,9.543-5.656,9.628-10.606V83.721c0-4.874-2.441-11.7-8.7-12.111-5.179-.34-7.856,4.34-8.405,8.677C416.07,79.117,411.59,79.027,408.251,81.141Z"/><path d="M486.151,137.636V117.1c-3.786-.517-11.067-.923-15.7,2.479,0,6.5,0,9.746,0,16.244,0,4.873.422,8.4,2.695,10.463,2.253,2.05-1.348,1.265-2.231,1.167a10.838,10.838,0,0,1-4.971-2.165,10.008,10.008,0,0,1-5.437,1.06l-.042,0c-2.907-.42-2.45-.546-1.517-1.777,1.144-1.509,1.855-4.687,1.855-6.727V93.735c0-10.328-1.9-15.352-.421-15.2a6.651,6.651,0,0,0,5.267-1.661c1.811-1.6,7.33-3.536,11.033-3.1l1.6.187,1.641.2c3.663.438,9.214,3.68,11.021,5.706a8.3,8.3,0,0,0,5.213,2.9c1.512.2-.421,4.817-.421,15.188v43.983a16.286,16.286,0,0,0,1.892,7.169c.929,1.438,1.345,1.679-1.513,1.42l-.043-.006a12.539,12.539,0,0,1-5.422-2.3,8.938,8.938,0,0,1-5,.946c-.841-.1-4.435-.171-2.187-1.687,2.267-1.53,2.649-4.962,2.649-9.834Zm0-26.156V91.28c0-4.29-1.85-9.993-7.869-10.7-5.977-.7-7.831,4.561-7.831,8.851,0,4.581,0,8.413,0,8.413V111C473.82,109.834,479.168,109.064,486.151,111.48Z"/><path d="M537.207,82.668a12.675,12.675,0,0,1,5.395,2.576,8.246,8.246,0,0,1,4.932-.729c.877.161,4.423.444,2.214,1.825-2.254,1.409-2.674,4.8-2.674,9.669v51.063c0,4.873.419,8.408,2.674,10.655,2.211,2.2-1.337,1.169-2.214,1.008a11.851,11.851,0,0,1-4.932-2.478,9.681,9.681,0,0,1-5.395.632l-.042-.008c-2.887-.626-2.447-.72-1.506-1.885,1.133-1.4,1.841-4.554,1.841-6.595V121.37c-2.093-8.111-6.486-15.286-12.351-21.735-1.844-2.007-3.729-4.016-5.574-6.054v51.853a16.039,16.039,0,0,0,1.844,7.206c.946,1.481,1.342,1.709-1.508,1.385l-.043-.006a12.807,12.807,0,0,1-5.409-2.42,8.786,8.786,0,0,1-4.993.836c-.839-.124-4.425-.269-2.182-1.736,2.261-1.479,2.686-4.9,2.686-9.769V89.868c0-4.874-.421-8.416-2.686-10.556-2.246-2.122,1.343-1.221,2.182-1.1a11.171,11.171,0,0,1,4.7,2.119c.168.025.335.092.546.124a9.605,9.605,0,0,1,5.157-.659l.043.006a.43.43,0,0,1,.209.074,5.922,5.922,0,0,1,2.054.41c1.342.589-2.183.874-.546,3.62,1.207,2.024,5.724,6.795,7.25,8.632,1.342,1.617,2.761,3.247,4.145,4.777,1.424,1.575,3.054,3.48,4.477,5.309V91.3a16.431,16.431,0,0,0-1.841-7.275c-.932-1.492-1.381-1.74,1.506-1.364Z"/><path d="M559.428,138.914V109.426c-.042-10.17-1.877-15.359-.417-15.074a6.113,6.113,0,0,0,5.213-1.179c1.373-1.118,5-2.2,8.249-2.275a9.977,9.977,0,0,1,2.664.184l1.582.334c1.04.221,6.787,1.438,10.229,3.471,3.424,2.022,8.014,9.1,8.014,16.016,0,5.372-2.115-2-6.934,3.675-3.033,3.571-5.725,3.3-5.9,2.782-.26-.757,2.327-.283,2.327-8.738,0-9.164-7.652-10.566-7.735-10.584-5.95-1.262-7.745,3.842-7.745,8.132v41.692a14.725,14.725,0,0,0,.833,4.919,10.1,10.1,0,0,0,3.832,5.168c2.278,1.48,5.327,1.917,7.407.867a5.325,5.325,0,0,0,1.5-1.174,6.5,6.5,0,0,0,.582-.79,5.445,5.445,0,0,1,.417-.825s.332-.844.373-1c.083-.273.167-.546.249-.862a12.608,12.608,0,0,0,.334-3.05V136.537c0-.125-.043-.218-.043-.3-4.447.148-8.919,1.632-10.482,6.373-1.843,5.591-.958-6.115-.624-10.168a2.308,2.308,0,0,1,1.29-1.938,17.671,17.671,0,0,1,7.738-1.51,5.692,5.692,0,0,1,2.661.125c.366.087.747.165,1.121.248.5.11,1.043.236,1.579.35a20.271,20.271,0,0,0,7.225.43c1.511-.085-.98,5.741-.872,13.21.021,1.406.041,3.175.041,5.341,0,.167.043,4.3.043,4.466.415,6.843,1.451,10.288.248,10.012a5.835,5.835,0,0,0-4.732.756,3.029,3.029,0,0,0-.458.315c-1.785,1.348-7.229,2.686-10.891,1.9l-3.2-.68c-3.662-.771-9.119-4.4-10.913-6.572a8.854,8.854,0,0,0-5.213-3.236c-1.5-.293.417-4.792.417-15.163v-1.583Z"/><path d="M608.968,110.85c-1.035-15.746-5.384-18-4.1-18.61,2.527-1.268,7.6,3.275,12.662,3.452,5.808.2,5.786-.071,10.035,1.047.76.2,1.139.3,1.9.5,1.773.47,8.125,2.2,11.988,4.706,3.964,2.569,9.373,11.221,9.373,19.386,0,6.371-2.5-2.439-8.139,3.947-3.538,4.014-6.679,3.577-6.917,2.932-.335-.91,2.76-.207,2.76-10.2,0-9.912-7.705-12.577-9.065-12.98l-.207-.054c-5.816-1.414-8.173,2.7-8.751,7.053a29.288,29.288,0,0,0-.165,3.623c0,1.124.041,2.51.041,4.3v17.285c3.511-5.1,10.818-5.073,17.982.887,3.582,2.938,5.394,10.284,4.4,13.337-1.188,3.663-5.782,4.457-8.276,3.52-3.7-1.389-5.565-5.7-3.257-4.372,4.247,2.465,4.828-7.892-2.556-9.842-5.032-1.328-7.678,2.5-8.3,7.84v9.664c0,6,.041,10.38.248,13.64,1.859,1.976,7.941,7.276,20.245,8.845,0,0-7.124-7.4-7.124-14.772,0-4.5,3.256-8.953,6.672-8.011,4.362,1.2,5.93-2.75,8.717-1.3,2.167,1.125-6.15,2.637-3.739,17.518,1.419,8.761,5.823,10.434,5.424,11.036-2.91,4.388-25.24-.258-35.113-5.979a12.761,12.761,0,0,1-6.91.54l-.041-.01c-3.312-.933-2.827-1.03-1.739-2.339,1.328-1.6,2.153-5.307,2.153-7.681v-20.2s0-7.587-3.768-11.7c-1.864-2.031,2.608-1.494,3.768.165V118.106C609.175,116.4,608.968,113.058,608.968,110.85Z"/><path d="M458.149,43.744h-228.7a.936.936,0,0,1-.936-.936V5.094a.936.936,0,0,1,.936-.936h228.7a.936.936,0,0,1,.936.936V42.808A.936.936,0,0,1,458.149,43.744ZM230.385,41.872H457.213V6.03H230.385Z"/><path d="M250.71,29.287a7.015,7.015,0,0,1-2.267,5.322,8.055,8.055,0,0,1-5.752,2.136h-6.446a.649.649,0,0,1-.469-.206.689.689,0,0,1-.206-.506V11.974a.694.694,0,0,1,.206-.507.648.648,0,0,1,.469-.205h6.521a7.776,7.776,0,0,1,5.452,2,6.584,6.584,0,0,1,2.192,5.078,6.343,6.343,0,0,1-.637,2.811,6.9,6.9,0,0,1-1.8,2.286.338.338,0,0,0,0,.562,6.082,6.082,0,0,1,2,2.268A6.441,6.441,0,0,1,250.71,29.287Zm-9.481-7.42H242.5a2.872,2.872,0,0,0,2.249-.918,3.431,3.431,0,0,0,.824-2.38,3.1,3.1,0,0,0-.843-2.323,3.318,3.318,0,0,0-2.417-.824h-1.087a.678.678,0,0,0-.468.15.566.566,0,0,0-.169.449v5.246a.569.569,0,0,0,.169.45A.678.678,0,0,0,241.229,21.867Zm0,10.68h1.2a3.261,3.261,0,0,0,2.435-.955,3.361,3.361,0,0,0,.937-2.455,3.193,3.193,0,0,0-.9-2.361,3.287,3.287,0,0,0-2.435-.9h-1.237a.678.678,0,0,0-.468.15.569.569,0,0,0-.169.449v5.472a.566.566,0,0,0,.169.449A.673.673,0,0,0,241.229,32.547Z"/><path d="M261.016,32.66a2.189,2.189,0,0,0,1.817-.825,3.451,3.451,0,0,0,.656-2.211V11.974a.694.694,0,0,1,.206-.507.646.646,0,0,1,.469-.205H267.8a.7.7,0,0,1,.712.712V30.111a6.53,6.53,0,0,1-2.042,5.06,7.754,7.754,0,0,1-5.453,1.874,7.638,7.638,0,0,1-5.378-1.912,6.5,6.5,0,0,1-2.08-5.022V11.974a.691.691,0,0,1,.207-.507.644.644,0,0,1,.468-.205h3.635a.7.7,0,0,1,.712.712v17.65a3.451,3.451,0,0,0,.656,2.211A2.151,2.151,0,0,0,261.016,32.66Z"/><path d="M277.242,36.745h-3.673a.645.645,0,0,1-.468-.206.685.685,0,0,1-.206-.506V11.974a.69.69,0,0,1,.206-.507.644.644,0,0,1,.468-.205h6.184a8.821,8.821,0,0,1,6.089,1.929A6.987,6.987,0,0,1,288,18.681a7.95,7.95,0,0,1-.768,3.6,7.229,7.229,0,0,1-2.455,2.7.654.654,0,0,0-.3.394,1.294,1.294,0,0,0,.112.618l3.822,9.781a.68.68,0,0,1-.056.675.7.7,0,0,1-.618.3H283.8a.7.7,0,0,1-.394-.113.639.639,0,0,1-.243-.374l-3.11-8.7a.988.988,0,0,0-.206-.375.612.612,0,0,0-.356-.075h-1.05a.659.659,0,0,0-.431.094.511.511,0,0,0-.093.356v8.47a.693.693,0,0,1-.206.506A.651.651,0,0,1,277.242,36.745Zm1.312-14.279h1.124a2.935,2.935,0,0,0,2.3-.992,3.729,3.729,0,0,0,.881-2.568A3.5,3.5,0,0,0,282,16.414a3.037,3.037,0,0,0-2.323-.917h-1.124a.631.631,0,0,0-.469.168.688.688,0,0,0-.168.506v5.658a.583.583,0,0,0,.637.637Z"/><path d="M305.91,24.04v5.847a6.7,6.7,0,0,1-2.173,5.153,8.545,8.545,0,0,1-11,0,6.666,6.666,0,0,1-2.192-5.153V18.157A6.712,6.712,0,0,1,292.757,13a7.86,7.86,0,0,1,5.546-2.042,7.689,7.689,0,0,1,5.509,1.986,6.888,6.888,0,0,1,2.1,5.246,1.562,1.562,0,0,1-.168.824.6.6,0,0,1-.544.263h-3.56a.62.62,0,0,1-.468-.225.748.748,0,0,1-.206-.525,3.474,3.474,0,0,0-.731-2.322,2.445,2.445,0,0,0-1.967-.862,2.652,2.652,0,0,0-1.893.768,2.507,2.507,0,0,0-.806,1.892V30a2.524,2.524,0,0,0,.787,1.911,2.67,2.67,0,0,0,1.912.75,2.764,2.764,0,0,0,1.986-.712A2.564,2.564,0,0,0,301,30V27.975a.663.663,0,0,0-.187-.487.619.619,0,0,0-.45-.187h-1.387a.686.686,0,0,1-.5-.206.642.642,0,0,1-.206-.469V24.04a.658.658,0,0,1,.225-.5.707.707,0,0,1,.486-.207H305.2a.705.705,0,0,1,.712.712Z"/><path d="M323.111,33.11v2.96a.646.646,0,0,1-.206.469.69.69,0,0,1-.506.206H310.52a.646.646,0,0,1-.469-.206.689.689,0,0,1-.206-.506V11.974a.694.694,0,0,1,.206-.507.645.645,0,0,1,.469-.205H322.4a.7.7,0,0,1,.712.712v2.96a.645.645,0,0,1-.206.468.683.683,0,0,1-.506.207h-6.82a.71.71,0,0,0-.487.206.66.66,0,0,0-.225.506v4.684a.777.777,0,0,0,.712.712h3a.7.7,0,0,1,.712.712v2.923a.647.647,0,0,1-.206.469.689.689,0,0,1-.506.206h-3a.71.71,0,0,0-.487.206.659.659,0,0,0-.225.506v4.946a.774.774,0,0,0,.712.712h6.82a.705.705,0,0,1,.712.713Z"/><path d="M330.344,36.745h-3.673a.645.645,0,0,1-.468-.206.685.685,0,0,1-.206-.506V11.974a.69.69,0,0,1,.206-.507.644.644,0,0,1,.468-.205h6.184a8.821,8.821,0,0,1,6.089,1.929,6.987,6.987,0,0,1,2.155,5.49,7.95,7.95,0,0,1-.768,3.6,7.229,7.229,0,0,1-2.455,2.7.66.66,0,0,0-.3.394,1.311,1.311,0,0,0,.113.618l3.822,9.781a.68.68,0,0,1-.056.675.7.7,0,0,1-.618.3H336.9a.7.7,0,0,1-.394-.113.639.639,0,0,1-.243-.374l-3.11-8.7a.988.988,0,0,0-.206-.375.614.614,0,0,0-.356-.075h-1.05a.659.659,0,0,0-.431.094.511.511,0,0,0-.093.356v8.47a.69.69,0,0,1-.207.506A.647.647,0,0,1,330.344,36.745Zm1.312-14.279h1.124a2.935,2.935,0,0,0,2.3-.992,3.729,3.729,0,0,0,.881-2.568,3.5,3.5,0,0,0-.862-2.492,3.037,3.037,0,0,0-2.323-.917h-1.124a.631.631,0,0,0-.469.168.688.688,0,0,0-.168.506v5.658a.583.583,0,0,0,.637.637Z"/><path d="M382.62,30.011a6.32,6.32,0,0,1-2.187,4.914,7.913,7.913,0,0,1-5.5,1.894,7.332,7.332,0,0,1-5.328-1.983,7.026,7.026,0,0,1-1.97-5.3l0-.45a.658.658,0,0,1,.228-.5.709.709,0,0,1,.488-.2l3.3.021a.648.648,0,0,1,.467.21.69.69,0,0,1,.2.507l0,.524a2.743,2.743,0,0,0,.736,2.01,2.553,2.553,0,0,0,1.906.781,2.5,2.5,0,0,0,1.822-.663,2.4,2.4,0,0,0,.7-1.795,2.644,2.644,0,0,0-.44-1.5,6.7,6.7,0,0,0-1.639-1.548l-3.543-2.683a12.037,12.037,0,0,1-3.183-3.225,6.419,6.419,0,0,1-.9-3.4,6.494,6.494,0,0,1,2.131-4.969,7.565,7.565,0,0,1,5.371-1.915,7.263,7.263,0,0,1,5.215,1.946,6.758,6.758,0,0,1,1.972,5.146l0,.562a.71.71,0,0,1-.209.486.658.658,0,0,1-.507.221l-3.336-.021a.645.645,0,0,1-.467-.209.687.687,0,0,1-.2-.508l0-.449a3.015,3.015,0,0,0-.624-2.027,2.144,2.144,0,0,0-1.718-.761,2.274,2.274,0,0,0-1.71.664,2.37,2.37,0,0,0-.667,1.718,2.862,2.862,0,0,0,.552,1.615,6.99,6.99,0,0,0,1.6,1.622l3.431,2.571a12.02,12.02,0,0,1,3.015,3.2A6.563,6.563,0,0,1,382.62,30.011Z"/><path d="M399.254,36.677l-3.748-.025a.645.645,0,0,1-.449-.171.669.669,0,0,1-.222-.4l-.507-2.7a.7.7,0,0,0-.2-.451.689.689,0,0,0-.468-.153l-4.084-.026a.7.7,0,0,0-.451.147.651.651,0,0,0-.228.448l-.542,2.7a.828.828,0,0,1-.209.448.732.732,0,0,1-.469.11l-3.523-.023a.707.707,0,0,1-.6-.247.721.721,0,0,1-.07-.657l5.7-23.947a.9.9,0,0,1,.265-.43.6.6,0,0,1,.414-.165l4.2.027a.579.579,0,0,1,.43.171.976.976,0,0,1,.241.433l5.2,24.055a.736.736,0,0,1-.117.618A.665.665,0,0,1,399.254,36.677Zm-5.681-8.245-1.7-9.979c-.025-.1-.05-.151-.074-.151s-.052.051-.076.15l-1.939,9.956a.555.555,0,0,0,.091.45.494.494,0,0,0,.393.153l2.81.018a.486.486,0,0,0,.413-.147A.616.616,0,0,0,393.573,28.432Z"/><path d="M409.249,32.656a2.192,2.192,0,0,0,1.822-.812,3.451,3.451,0,0,0,.67-2.207l.115-17.65a.689.689,0,0,1,.209-.505.648.648,0,0,1,.47-.2l3.635.024a.7.7,0,0,1,.707.716l-.117,18.138a6.528,6.528,0,0,1-2.075,5.045,7.748,7.748,0,0,1-5.464,1.839,7.638,7.638,0,0,1-5.366-1.946,6.5,6.5,0,0,1-2.047-5.035l.117-18.137a.687.687,0,0,1,.209-.505.644.644,0,0,1,.47-.2l3.635.023a.7.7,0,0,1,.708.717l-.114,17.65a3.447,3.447,0,0,0,.641,2.215A2.149,2.149,0,0,0,409.249,32.656Z"/><path d="M428.136,32.779a2.366,2.366,0,0,0,1.784-.757,2.638,2.638,0,0,0,.743-1.888l0-.637a.8.8,0,0,1,.154-.561.733.733,0,0,1,.525-.147l3.561.023a.705.705,0,0,1,.707.717,7.691,7.691,0,0,1-2.06,5.59,7.279,7.279,0,0,1-5.484,2.044,7.612,7.612,0,0,1-5.346-2.039,6.567,6.567,0,0,1-2.141-5.055l.076-11.842a6.812,6.812,0,0,1,2.17-5.157,7.584,7.584,0,0,1,5.447-1.989A7.465,7.465,0,0,1,433.64,13.1a6.878,6.878,0,0,1,2.047,5.222l0,.412a.708.708,0,0,1-.209.486.659.659,0,0,1-.508.221l-3.56-.023a.644.644,0,0,1-.467-.208.687.687,0,0,1-.2-.508l0-.562a2.605,2.605,0,0,0-.719-1.934,2.461,2.461,0,0,0-1.812-.742,2.376,2.376,0,0,0-1.8.737,2.664,2.664,0,0,0-.724,1.906l-.078,12.03a2.559,2.559,0,0,0,.719,1.9A2.464,2.464,0,0,0,428.136,32.779Z"/><path d="M451.891,33.382l-.019,2.96a.65.65,0,0,1-.21.468.685.685,0,0,1-.507.2l-11.879-.076a.649.649,0,0,1-.467-.209.688.688,0,0,1-.2-.508l.156-24.058a.689.689,0,0,1,.209-.5.648.648,0,0,1,.47-.2l11.879.077a.7.7,0,0,1,.707.717l-.019,2.96a.645.645,0,0,1-.209.467.686.686,0,0,1-.507.2l-6.82-.044a.708.708,0,0,0-.489.2.662.662,0,0,0-.228.5l-.03,4.683a.777.777,0,0,0,.707.717l3,.019a.705.705,0,0,1,.707.717l-.019,2.923a.645.645,0,0,1-.209.467.686.686,0,0,1-.507.2l-3-.02a.712.712,0,0,0-.488.2.656.656,0,0,0-.228.5l-.032,4.947a.775.775,0,0,0,.707.716l6.82.044a.705.705,0,0,1,.708.717Z"/><path d="M356.04,35.289a.58.58,0,0,1-.167.832A7.052,7.052,0,0,1,347.835,24.6a.579.579,0,0,1,.838.131Z"/><path d="M352.538,12.523a.6.6,0,0,1,.219-.874,5.744,5.744,0,0,1,6.564,9.328.6.6,0,0,1-.9-.089Z"/><path d="M365.42,36.217h0a.584.584,0,0,0,.144-.812L350.379,13.582a.584.584,0,0,0-.812-.144h0a4.872,4.872,0,0,0-1.2,6.785l10.27,14.793A4.871,4.871,0,0,0,365.42,36.217Z"/></svg>