<svg xmlns="http://www.w3.org/2000/svg" viewBox="0 0 230.147 170.604"><defs><style>.a{fill:#06c167;}</style></defs><path class="a" d="M291.164,476.693a17.5,17.5,0,1,0-17.727,17.263l.23,0a17.238,17.238,0,0,0,17.5-16.978c0-.1,0-.192,0-.287m14.254-28.277v56.6h-14.53V499.9a28.652,28.652,0,0,1-18.415,6.539,29.764,29.764,0,0,1-2.06-59.493q1.031-.036,2.06,0a28.652,28.652,0,0,1,18.415,6.539v-5.06Zm48.348,43.742H342.809c-3.315,0-5.479-1.425-5.479-4.454V461.218h16.392V448.425H337.33V432.309H322.639v16.116H311.592v12.882h11.047v30.032a13.71,13.71,0,0,0,13.695,13.726,13.568,13.568,0,0,0,1.637-.1h15.751v-12.8Zm33.15,14.254c16.811,0,26.29-7.875,26.29-18.708,0-7.733-5.613-13.488-17.363-15.983l-12.473-2.485c-7.181-1.292-9.488-2.628-9.488-5.247,0-3.4,3.457-5.479,9.854-5.479,6.958,0,12.018,1.844,13.5,8.107h14.548c-.784-11.787-9.488-19.662-27.074-19.662-15.2,0-25.836,6.174-25.836,18.094,0,8.24,5.9,13.63,18.557,16.258l13.863,3.127c5.478,1.061,6.949,2.486,6.949,4.695,0,3.564-4.143,5.755-10.825,5.755-8.383,0-13.211-1.844-15.056-8.107H357.7c2.165,11.787,11.1,19.662,29.239,19.662m-203.852-78.1h54.843v13.079H197.915v18.708h38.958v12.758H197.915v18.975h40.019v13.1H183.091Z" transform="translate(-183.059 -335.853)"/><path d="M411.718,366.473V356.21h-3.911a15.268,15.268,0,0,0-13.586,7.323v-6.914H383.076V412.38H394.31V380.7a12.854,12.854,0,0,1,12.713-14.254Zm-80.865,12.891a17.817,17.817,0,0,1,17.363-14.254,17.584,17.584,0,0,1,17.265,14.254Zm17.586-23.8a29.043,29.043,0,1,0,0,58.086c.339,0,.679-.006,1.018-.018a29.861,29.861,0,0,0,24.5-11.929l-8.151-5.9A19.681,19.681,0,0,1,349.41,404a18.951,18.951,0,0,1-18.834-15.84H376.8v-3.564a27.831,27.831,0,0,0-26.624-28.988q-.87-.036-1.741-.019m-64.278,48.419a19.341,19.341,0,1,1,19.475-19.341,19.341,19.341,0,0,1-19.475,19.341m-30.619,8.464h11.145v-7.038a28.507,28.507,0,0,0,20.258,8.285,29.158,29.158,0,1,0,1.442-58.3q-.721-.018-1.442,0a28.417,28.417,0,0,0-20.169,8.285V335.853H253.542Zm-39.555-9.016a19.083,19.083,0,0,0,19.2-18.967c0-.472-.012-.945-.044-1.416V335.853h11.7V412.38H233.256v-7.127a29.571,29.571,0,0,1-50.181-19.2q-.039-1.155.016-2.311V335.853h11.742V383.07a18.9,18.9,0,0,0,17.393,20.3q.879.068,1.761.053" transform="translate(-183.059 -335.853)"/></svg>