<svg xmlns="http://www.w3.org/2000/svg" viewBox="0 0 466.75 78.113"><defs><style>.a{fill:#06c167;}</style></defs><path class="a" d="M426.153,436.794a17.5,17.5,0,1,0-17.726,17.264h.23a17.238,17.238,0,0,0,17.494-16.978c0-.1,0-.191,0-.287m14.254-28.277v56.6h-14.53V460a28.651,28.651,0,0,1-18.414,6.54,29.765,29.765,0,1,1-2.06-59.494q1.03-.035,2.06,0a28.655,28.655,0,0,1,18.414,6.539v-5.06Zm48.349,43.743H477.8c-3.314,0-5.479-1.426-5.479-4.455V421.319h16.393V408.526H472.319V392.41h-14.69v16.116H446.582v12.882h11.047V451.44a13.711,13.711,0,0,0,13.694,13.727,14.007,14.007,0,0,0,1.638-.1h15.751v-12.8Zm33.149,14.254c16.812,0,26.29-7.876,26.29-18.709,0-7.733-5.612-13.488-17.363-15.982l-12.472-2.486c-7.181-1.291-9.488-2.628-9.488-5.247,0-3.4,3.456-5.479,9.853-5.479,6.958,0,12.018,1.844,13.5,8.107H546.77c-.784-11.786-9.488-19.662-27.074-19.662-15.2,0-25.836,6.174-25.836,18.094,0,8.241,5.9,13.631,18.558,16.259l13.862,3.127c5.479,1.06,6.949,2.485,6.949,4.695,0,3.563-4.143,5.755-10.824,5.755-8.383,0-13.212-1.844-15.056-8.107H492.693c2.165,11.786,11.1,19.662,29.239,19.662M318.08,388.446h54.843v13.078H332.9v18.708h38.959V432.99H332.9v18.976h40.019v13.1H318.08Z" transform="translate(-81.445 -388.446)"/><path d="M310.1,419.186V408.923h-3.911a15.269,15.269,0,0,0-13.586,7.323v-6.913H281.463v55.76H292.7v-31.68a12.854,12.854,0,0,1,12.712-14.254Zm-80.865,12.891A17.817,17.817,0,0,1,246.6,417.823a17.587,17.587,0,0,1,17.266,14.254Zm17.586-23.805a29.043,29.043,0,0,0,0,58.086c.34,0,.679-.006,1.019-.018a29.861,29.861,0,0,0,24.5-11.929l-8.152-5.9a19.682,19.682,0,0,1-16.392,8.2,18.95,18.95,0,0,1-18.833-15.84h46.228v-3.564a27.831,27.831,0,0,0-26.625-28.987q-.87-.038-1.741-.02m-64.277,48.42a19.341,19.341,0,1,1,19.474-19.341,19.341,19.341,0,0,1-19.474,19.341m-30.62,8.463h11.145v-7.038a28.509,28.509,0,0,0,20.259,8.285,29.158,29.158,0,1,0,1.441-58.3q-.72-.018-1.441,0a28.417,28.417,0,0,0-20.17,8.285V388.566H151.928Zm-39.555-9.016a19.082,19.082,0,0,0,19.2-18.966q0-.709-.044-1.417V388.566h11.7v76.527H131.643v-7.127a28.508,28.508,0,0,1-20.633,8.428,28.607,28.607,0,0,1-29.549-27.632q-.039-1.155.016-2.311V388.566H93.219v47.217a18.9,18.9,0,0,0,17.394,20.3c.585.045,1.173.063,1.76.054" transform="translate(-81.445 -388.446)"/></svg>